G04 #@! TF.GenerationSoftware,KiCad,Pcbnew,5.0.2-bee76a0~70~ubuntu18.04.1*
G04 #@! TF.CreationDate,2019-02-19T10:43:49+11:00*
G04 #@! TF.ProjectId,BACEE,42414345-452e-46b6-9963-61645f706362,2*
G04 #@! TF.SameCoordinates,Original*
G04 #@! TF.FileFunction,Paste,Top*
G04 #@! TF.FilePolarity,Positive*
%FSLAX46Y46*%
G04 Gerber Fmt 4.6, Leading zero omitted, Abs format (unit mm)*
G04 Created by KiCad (PCBNEW 5.0.2-bee76a0~70~ubuntu18.04.1) date Tue 19 Feb 2019 10:43:49 AM AEDT*
%MOMM*%
%LPD*%
G01*
G04 APERTURE LIST*
%ADD10C,0.100000*%
%ADD11C,1.150000*%
%ADD12R,1.700000X0.650000*%
%ADD13R,1.750000X0.550000*%
%ADD14R,0.550000X1.500000*%
%ADD15R,1.500000X0.550000*%
%ADD16R,1.750000X1.800000*%
%ADD17R,3.500000X2.400000*%
G04 APERTURE END LIST*
D10*
G04 #@! TO.C,C1*
G36*
X123276505Y-109029204D02*
X123300773Y-109032804D01*
X123324572Y-109038765D01*
X123347671Y-109047030D01*
X123369850Y-109057520D01*
X123390893Y-109070132D01*
X123410599Y-109084747D01*
X123428777Y-109101223D01*
X123445253Y-109119401D01*
X123459868Y-109139107D01*
X123472480Y-109160150D01*
X123482970Y-109182329D01*
X123491235Y-109205428D01*
X123497196Y-109229227D01*
X123500796Y-109253495D01*
X123502000Y-109277999D01*
X123502000Y-110178001D01*
X123500796Y-110202505D01*
X123497196Y-110226773D01*
X123491235Y-110250572D01*
X123482970Y-110273671D01*
X123472480Y-110295850D01*
X123459868Y-110316893D01*
X123445253Y-110336599D01*
X123428777Y-110354777D01*
X123410599Y-110371253D01*
X123390893Y-110385868D01*
X123369850Y-110398480D01*
X123347671Y-110408970D01*
X123324572Y-110417235D01*
X123300773Y-110423196D01*
X123276505Y-110426796D01*
X123252001Y-110428000D01*
X122601999Y-110428000D01*
X122577495Y-110426796D01*
X122553227Y-110423196D01*
X122529428Y-110417235D01*
X122506329Y-110408970D01*
X122484150Y-110398480D01*
X122463107Y-110385868D01*
X122443401Y-110371253D01*
X122425223Y-110354777D01*
X122408747Y-110336599D01*
X122394132Y-110316893D01*
X122381520Y-110295850D01*
X122371030Y-110273671D01*
X122362765Y-110250572D01*
X122356804Y-110226773D01*
X122353204Y-110202505D01*
X122352000Y-110178001D01*
X122352000Y-109277999D01*
X122353204Y-109253495D01*
X122356804Y-109229227D01*
X122362765Y-109205428D01*
X122371030Y-109182329D01*
X122381520Y-109160150D01*
X122394132Y-109139107D01*
X122408747Y-109119401D01*
X122425223Y-109101223D01*
X122443401Y-109084747D01*
X122463107Y-109070132D01*
X122484150Y-109057520D01*
X122506329Y-109047030D01*
X122529428Y-109038765D01*
X122553227Y-109032804D01*
X122577495Y-109029204D01*
X122601999Y-109028000D01*
X123252001Y-109028000D01*
X123276505Y-109029204D01*
X123276505Y-109029204D01*
G37*
D11*
X122927000Y-109728000D03*
D10*
G36*
X125326505Y-109029204D02*
X125350773Y-109032804D01*
X125374572Y-109038765D01*
X125397671Y-109047030D01*
X125419850Y-109057520D01*
X125440893Y-109070132D01*
X125460599Y-109084747D01*
X125478777Y-109101223D01*
X125495253Y-109119401D01*
X125509868Y-109139107D01*
X125522480Y-109160150D01*
X125532970Y-109182329D01*
X125541235Y-109205428D01*
X125547196Y-109229227D01*
X125550796Y-109253495D01*
X125552000Y-109277999D01*
X125552000Y-110178001D01*
X125550796Y-110202505D01*
X125547196Y-110226773D01*
X125541235Y-110250572D01*
X125532970Y-110273671D01*
X125522480Y-110295850D01*
X125509868Y-110316893D01*
X125495253Y-110336599D01*
X125478777Y-110354777D01*
X125460599Y-110371253D01*
X125440893Y-110385868D01*
X125419850Y-110398480D01*
X125397671Y-110408970D01*
X125374572Y-110417235D01*
X125350773Y-110423196D01*
X125326505Y-110426796D01*
X125302001Y-110428000D01*
X124651999Y-110428000D01*
X124627495Y-110426796D01*
X124603227Y-110423196D01*
X124579428Y-110417235D01*
X124556329Y-110408970D01*
X124534150Y-110398480D01*
X124513107Y-110385868D01*
X124493401Y-110371253D01*
X124475223Y-110354777D01*
X124458747Y-110336599D01*
X124444132Y-110316893D01*
X124431520Y-110295850D01*
X124421030Y-110273671D01*
X124412765Y-110250572D01*
X124406804Y-110226773D01*
X124403204Y-110202505D01*
X124402000Y-110178001D01*
X124402000Y-109277999D01*
X124403204Y-109253495D01*
X124406804Y-109229227D01*
X124412765Y-109205428D01*
X124421030Y-109182329D01*
X124431520Y-109160150D01*
X124444132Y-109139107D01*
X124458747Y-109119401D01*
X124475223Y-109101223D01*
X124493401Y-109084747D01*
X124513107Y-109070132D01*
X124534150Y-109057520D01*
X124556329Y-109047030D01*
X124579428Y-109038765D01*
X124603227Y-109032804D01*
X124627495Y-109029204D01*
X124651999Y-109028000D01*
X125302001Y-109028000D01*
X125326505Y-109029204D01*
X125326505Y-109029204D01*
G37*
D11*
X124977000Y-109728000D03*
G04 #@! TD*
D10*
G04 #@! TO.C,C2*
G36*
X130914505Y-109029204D02*
X130938773Y-109032804D01*
X130962572Y-109038765D01*
X130985671Y-109047030D01*
X131007850Y-109057520D01*
X131028893Y-109070132D01*
X131048599Y-109084747D01*
X131066777Y-109101223D01*
X131083253Y-109119401D01*
X131097868Y-109139107D01*
X131110480Y-109160150D01*
X131120970Y-109182329D01*
X131129235Y-109205428D01*
X131135196Y-109229227D01*
X131138796Y-109253495D01*
X131140000Y-109277999D01*
X131140000Y-110178001D01*
X131138796Y-110202505D01*
X131135196Y-110226773D01*
X131129235Y-110250572D01*
X131120970Y-110273671D01*
X131110480Y-110295850D01*
X131097868Y-110316893D01*
X131083253Y-110336599D01*
X131066777Y-110354777D01*
X131048599Y-110371253D01*
X131028893Y-110385868D01*
X131007850Y-110398480D01*
X130985671Y-110408970D01*
X130962572Y-110417235D01*
X130938773Y-110423196D01*
X130914505Y-110426796D01*
X130890001Y-110428000D01*
X130239999Y-110428000D01*
X130215495Y-110426796D01*
X130191227Y-110423196D01*
X130167428Y-110417235D01*
X130144329Y-110408970D01*
X130122150Y-110398480D01*
X130101107Y-110385868D01*
X130081401Y-110371253D01*
X130063223Y-110354777D01*
X130046747Y-110336599D01*
X130032132Y-110316893D01*
X130019520Y-110295850D01*
X130009030Y-110273671D01*
X130000765Y-110250572D01*
X129994804Y-110226773D01*
X129991204Y-110202505D01*
X129990000Y-110178001D01*
X129990000Y-109277999D01*
X129991204Y-109253495D01*
X129994804Y-109229227D01*
X130000765Y-109205428D01*
X130009030Y-109182329D01*
X130019520Y-109160150D01*
X130032132Y-109139107D01*
X130046747Y-109119401D01*
X130063223Y-109101223D01*
X130081401Y-109084747D01*
X130101107Y-109070132D01*
X130122150Y-109057520D01*
X130144329Y-109047030D01*
X130167428Y-109038765D01*
X130191227Y-109032804D01*
X130215495Y-109029204D01*
X130239999Y-109028000D01*
X130890001Y-109028000D01*
X130914505Y-109029204D01*
X130914505Y-109029204D01*
G37*
D11*
X130565000Y-109728000D03*
D10*
G36*
X128864505Y-109029204D02*
X128888773Y-109032804D01*
X128912572Y-109038765D01*
X128935671Y-109047030D01*
X128957850Y-109057520D01*
X128978893Y-109070132D01*
X128998599Y-109084747D01*
X129016777Y-109101223D01*
X129033253Y-109119401D01*
X129047868Y-109139107D01*
X129060480Y-109160150D01*
X129070970Y-109182329D01*
X129079235Y-109205428D01*
X129085196Y-109229227D01*
X129088796Y-109253495D01*
X129090000Y-109277999D01*
X129090000Y-110178001D01*
X129088796Y-110202505D01*
X129085196Y-110226773D01*
X129079235Y-110250572D01*
X129070970Y-110273671D01*
X129060480Y-110295850D01*
X129047868Y-110316893D01*
X129033253Y-110336599D01*
X129016777Y-110354777D01*
X128998599Y-110371253D01*
X128978893Y-110385868D01*
X128957850Y-110398480D01*
X128935671Y-110408970D01*
X128912572Y-110417235D01*
X128888773Y-110423196D01*
X128864505Y-110426796D01*
X128840001Y-110428000D01*
X128189999Y-110428000D01*
X128165495Y-110426796D01*
X128141227Y-110423196D01*
X128117428Y-110417235D01*
X128094329Y-110408970D01*
X128072150Y-110398480D01*
X128051107Y-110385868D01*
X128031401Y-110371253D01*
X128013223Y-110354777D01*
X127996747Y-110336599D01*
X127982132Y-110316893D01*
X127969520Y-110295850D01*
X127959030Y-110273671D01*
X127950765Y-110250572D01*
X127944804Y-110226773D01*
X127941204Y-110202505D01*
X127940000Y-110178001D01*
X127940000Y-109277999D01*
X127941204Y-109253495D01*
X127944804Y-109229227D01*
X127950765Y-109205428D01*
X127959030Y-109182329D01*
X127969520Y-109160150D01*
X127982132Y-109139107D01*
X127996747Y-109119401D01*
X128013223Y-109101223D01*
X128031401Y-109084747D01*
X128051107Y-109070132D01*
X128072150Y-109057520D01*
X128094329Y-109047030D01*
X128117428Y-109038765D01*
X128141227Y-109032804D01*
X128165495Y-109029204D01*
X128189999Y-109028000D01*
X128840001Y-109028000D01*
X128864505Y-109029204D01*
X128864505Y-109029204D01*
G37*
D11*
X128515000Y-109728000D03*
G04 #@! TD*
D10*
G04 #@! TO.C,C3*
G36*
X134452505Y-109029204D02*
X134476773Y-109032804D01*
X134500572Y-109038765D01*
X134523671Y-109047030D01*
X134545850Y-109057520D01*
X134566893Y-109070132D01*
X134586599Y-109084747D01*
X134604777Y-109101223D01*
X134621253Y-109119401D01*
X134635868Y-109139107D01*
X134648480Y-109160150D01*
X134658970Y-109182329D01*
X134667235Y-109205428D01*
X134673196Y-109229227D01*
X134676796Y-109253495D01*
X134678000Y-109277999D01*
X134678000Y-110178001D01*
X134676796Y-110202505D01*
X134673196Y-110226773D01*
X134667235Y-110250572D01*
X134658970Y-110273671D01*
X134648480Y-110295850D01*
X134635868Y-110316893D01*
X134621253Y-110336599D01*
X134604777Y-110354777D01*
X134586599Y-110371253D01*
X134566893Y-110385868D01*
X134545850Y-110398480D01*
X134523671Y-110408970D01*
X134500572Y-110417235D01*
X134476773Y-110423196D01*
X134452505Y-110426796D01*
X134428001Y-110428000D01*
X133777999Y-110428000D01*
X133753495Y-110426796D01*
X133729227Y-110423196D01*
X133705428Y-110417235D01*
X133682329Y-110408970D01*
X133660150Y-110398480D01*
X133639107Y-110385868D01*
X133619401Y-110371253D01*
X133601223Y-110354777D01*
X133584747Y-110336599D01*
X133570132Y-110316893D01*
X133557520Y-110295850D01*
X133547030Y-110273671D01*
X133538765Y-110250572D01*
X133532804Y-110226773D01*
X133529204Y-110202505D01*
X133528000Y-110178001D01*
X133528000Y-109277999D01*
X133529204Y-109253495D01*
X133532804Y-109229227D01*
X133538765Y-109205428D01*
X133547030Y-109182329D01*
X133557520Y-109160150D01*
X133570132Y-109139107D01*
X133584747Y-109119401D01*
X133601223Y-109101223D01*
X133619401Y-109084747D01*
X133639107Y-109070132D01*
X133660150Y-109057520D01*
X133682329Y-109047030D01*
X133705428Y-109038765D01*
X133729227Y-109032804D01*
X133753495Y-109029204D01*
X133777999Y-109028000D01*
X134428001Y-109028000D01*
X134452505Y-109029204D01*
X134452505Y-109029204D01*
G37*
D11*
X134103000Y-109728000D03*
D10*
G36*
X136502505Y-109029204D02*
X136526773Y-109032804D01*
X136550572Y-109038765D01*
X136573671Y-109047030D01*
X136595850Y-109057520D01*
X136616893Y-109070132D01*
X136636599Y-109084747D01*
X136654777Y-109101223D01*
X136671253Y-109119401D01*
X136685868Y-109139107D01*
X136698480Y-109160150D01*
X136708970Y-109182329D01*
X136717235Y-109205428D01*
X136723196Y-109229227D01*
X136726796Y-109253495D01*
X136728000Y-109277999D01*
X136728000Y-110178001D01*
X136726796Y-110202505D01*
X136723196Y-110226773D01*
X136717235Y-110250572D01*
X136708970Y-110273671D01*
X136698480Y-110295850D01*
X136685868Y-110316893D01*
X136671253Y-110336599D01*
X136654777Y-110354777D01*
X136636599Y-110371253D01*
X136616893Y-110385868D01*
X136595850Y-110398480D01*
X136573671Y-110408970D01*
X136550572Y-110417235D01*
X136526773Y-110423196D01*
X136502505Y-110426796D01*
X136478001Y-110428000D01*
X135827999Y-110428000D01*
X135803495Y-110426796D01*
X135779227Y-110423196D01*
X135755428Y-110417235D01*
X135732329Y-110408970D01*
X135710150Y-110398480D01*
X135689107Y-110385868D01*
X135669401Y-110371253D01*
X135651223Y-110354777D01*
X135634747Y-110336599D01*
X135620132Y-110316893D01*
X135607520Y-110295850D01*
X135597030Y-110273671D01*
X135588765Y-110250572D01*
X135582804Y-110226773D01*
X135579204Y-110202505D01*
X135578000Y-110178001D01*
X135578000Y-109277999D01*
X135579204Y-109253495D01*
X135582804Y-109229227D01*
X135588765Y-109205428D01*
X135597030Y-109182329D01*
X135607520Y-109160150D01*
X135620132Y-109139107D01*
X135634747Y-109119401D01*
X135651223Y-109101223D01*
X135669401Y-109084747D01*
X135689107Y-109070132D01*
X135710150Y-109057520D01*
X135732329Y-109047030D01*
X135755428Y-109038765D01*
X135779227Y-109032804D01*
X135803495Y-109029204D01*
X135827999Y-109028000D01*
X136478001Y-109028000D01*
X136502505Y-109029204D01*
X136502505Y-109029204D01*
G37*
D11*
X136153000Y-109728000D03*
G04 #@! TD*
D10*
G04 #@! TO.C,D1*
G36*
X106512505Y-109029204D02*
X106536773Y-109032804D01*
X106560572Y-109038765D01*
X106583671Y-109047030D01*
X106605850Y-109057520D01*
X106626893Y-109070132D01*
X106646599Y-109084747D01*
X106664777Y-109101223D01*
X106681253Y-109119401D01*
X106695868Y-109139107D01*
X106708480Y-109160150D01*
X106718970Y-109182329D01*
X106727235Y-109205428D01*
X106733196Y-109229227D01*
X106736796Y-109253495D01*
X106738000Y-109277999D01*
X106738000Y-110178001D01*
X106736796Y-110202505D01*
X106733196Y-110226773D01*
X106727235Y-110250572D01*
X106718970Y-110273671D01*
X106708480Y-110295850D01*
X106695868Y-110316893D01*
X106681253Y-110336599D01*
X106664777Y-110354777D01*
X106646599Y-110371253D01*
X106626893Y-110385868D01*
X106605850Y-110398480D01*
X106583671Y-110408970D01*
X106560572Y-110417235D01*
X106536773Y-110423196D01*
X106512505Y-110426796D01*
X106488001Y-110428000D01*
X105837999Y-110428000D01*
X105813495Y-110426796D01*
X105789227Y-110423196D01*
X105765428Y-110417235D01*
X105742329Y-110408970D01*
X105720150Y-110398480D01*
X105699107Y-110385868D01*
X105679401Y-110371253D01*
X105661223Y-110354777D01*
X105644747Y-110336599D01*
X105630132Y-110316893D01*
X105617520Y-110295850D01*
X105607030Y-110273671D01*
X105598765Y-110250572D01*
X105592804Y-110226773D01*
X105589204Y-110202505D01*
X105588000Y-110178001D01*
X105588000Y-109277999D01*
X105589204Y-109253495D01*
X105592804Y-109229227D01*
X105598765Y-109205428D01*
X105607030Y-109182329D01*
X105617520Y-109160150D01*
X105630132Y-109139107D01*
X105644747Y-109119401D01*
X105661223Y-109101223D01*
X105679401Y-109084747D01*
X105699107Y-109070132D01*
X105720150Y-109057520D01*
X105742329Y-109047030D01*
X105765428Y-109038765D01*
X105789227Y-109032804D01*
X105813495Y-109029204D01*
X105837999Y-109028000D01*
X106488001Y-109028000D01*
X106512505Y-109029204D01*
X106512505Y-109029204D01*
G37*
D11*
X106163000Y-109728000D03*
D10*
G36*
X108562505Y-109029204D02*
X108586773Y-109032804D01*
X108610572Y-109038765D01*
X108633671Y-109047030D01*
X108655850Y-109057520D01*
X108676893Y-109070132D01*
X108696599Y-109084747D01*
X108714777Y-109101223D01*
X108731253Y-109119401D01*
X108745868Y-109139107D01*
X108758480Y-109160150D01*
X108768970Y-109182329D01*
X108777235Y-109205428D01*
X108783196Y-109229227D01*
X108786796Y-109253495D01*
X108788000Y-109277999D01*
X108788000Y-110178001D01*
X108786796Y-110202505D01*
X108783196Y-110226773D01*
X108777235Y-110250572D01*
X108768970Y-110273671D01*
X108758480Y-110295850D01*
X108745868Y-110316893D01*
X108731253Y-110336599D01*
X108714777Y-110354777D01*
X108696599Y-110371253D01*
X108676893Y-110385868D01*
X108655850Y-110398480D01*
X108633671Y-110408970D01*
X108610572Y-110417235D01*
X108586773Y-110423196D01*
X108562505Y-110426796D01*
X108538001Y-110428000D01*
X107887999Y-110428000D01*
X107863495Y-110426796D01*
X107839227Y-110423196D01*
X107815428Y-110417235D01*
X107792329Y-110408970D01*
X107770150Y-110398480D01*
X107749107Y-110385868D01*
X107729401Y-110371253D01*
X107711223Y-110354777D01*
X107694747Y-110336599D01*
X107680132Y-110316893D01*
X107667520Y-110295850D01*
X107657030Y-110273671D01*
X107648765Y-110250572D01*
X107642804Y-110226773D01*
X107639204Y-110202505D01*
X107638000Y-110178001D01*
X107638000Y-109277999D01*
X107639204Y-109253495D01*
X107642804Y-109229227D01*
X107648765Y-109205428D01*
X107657030Y-109182329D01*
X107667520Y-109160150D01*
X107680132Y-109139107D01*
X107694747Y-109119401D01*
X107711223Y-109101223D01*
X107729401Y-109084747D01*
X107749107Y-109070132D01*
X107770150Y-109057520D01*
X107792329Y-109047030D01*
X107815428Y-109038765D01*
X107839227Y-109032804D01*
X107863495Y-109029204D01*
X107887999Y-109028000D01*
X108538001Y-109028000D01*
X108562505Y-109029204D01*
X108562505Y-109029204D01*
G37*
D11*
X108213000Y-109728000D03*
G04 #@! TD*
D10*
G04 #@! TO.C,R1*
G36*
X114150505Y-109029204D02*
X114174773Y-109032804D01*
X114198572Y-109038765D01*
X114221671Y-109047030D01*
X114243850Y-109057520D01*
X114264893Y-109070132D01*
X114284599Y-109084747D01*
X114302777Y-109101223D01*
X114319253Y-109119401D01*
X114333868Y-109139107D01*
X114346480Y-109160150D01*
X114356970Y-109182329D01*
X114365235Y-109205428D01*
X114371196Y-109229227D01*
X114374796Y-109253495D01*
X114376000Y-109277999D01*
X114376000Y-110178001D01*
X114374796Y-110202505D01*
X114371196Y-110226773D01*
X114365235Y-110250572D01*
X114356970Y-110273671D01*
X114346480Y-110295850D01*
X114333868Y-110316893D01*
X114319253Y-110336599D01*
X114302777Y-110354777D01*
X114284599Y-110371253D01*
X114264893Y-110385868D01*
X114243850Y-110398480D01*
X114221671Y-110408970D01*
X114198572Y-110417235D01*
X114174773Y-110423196D01*
X114150505Y-110426796D01*
X114126001Y-110428000D01*
X113475999Y-110428000D01*
X113451495Y-110426796D01*
X113427227Y-110423196D01*
X113403428Y-110417235D01*
X113380329Y-110408970D01*
X113358150Y-110398480D01*
X113337107Y-110385868D01*
X113317401Y-110371253D01*
X113299223Y-110354777D01*
X113282747Y-110336599D01*
X113268132Y-110316893D01*
X113255520Y-110295850D01*
X113245030Y-110273671D01*
X113236765Y-110250572D01*
X113230804Y-110226773D01*
X113227204Y-110202505D01*
X113226000Y-110178001D01*
X113226000Y-109277999D01*
X113227204Y-109253495D01*
X113230804Y-109229227D01*
X113236765Y-109205428D01*
X113245030Y-109182329D01*
X113255520Y-109160150D01*
X113268132Y-109139107D01*
X113282747Y-109119401D01*
X113299223Y-109101223D01*
X113317401Y-109084747D01*
X113337107Y-109070132D01*
X113358150Y-109057520D01*
X113380329Y-109047030D01*
X113403428Y-109038765D01*
X113427227Y-109032804D01*
X113451495Y-109029204D01*
X113475999Y-109028000D01*
X114126001Y-109028000D01*
X114150505Y-109029204D01*
X114150505Y-109029204D01*
G37*
D11*
X113801000Y-109728000D03*
D10*
G36*
X112100505Y-109029204D02*
X112124773Y-109032804D01*
X112148572Y-109038765D01*
X112171671Y-109047030D01*
X112193850Y-109057520D01*
X112214893Y-109070132D01*
X112234599Y-109084747D01*
X112252777Y-109101223D01*
X112269253Y-109119401D01*
X112283868Y-109139107D01*
X112296480Y-109160150D01*
X112306970Y-109182329D01*
X112315235Y-109205428D01*
X112321196Y-109229227D01*
X112324796Y-109253495D01*
X112326000Y-109277999D01*
X112326000Y-110178001D01*
X112324796Y-110202505D01*
X112321196Y-110226773D01*
X112315235Y-110250572D01*
X112306970Y-110273671D01*
X112296480Y-110295850D01*
X112283868Y-110316893D01*
X112269253Y-110336599D01*
X112252777Y-110354777D01*
X112234599Y-110371253D01*
X112214893Y-110385868D01*
X112193850Y-110398480D01*
X112171671Y-110408970D01*
X112148572Y-110417235D01*
X112124773Y-110423196D01*
X112100505Y-110426796D01*
X112076001Y-110428000D01*
X111425999Y-110428000D01*
X111401495Y-110426796D01*
X111377227Y-110423196D01*
X111353428Y-110417235D01*
X111330329Y-110408970D01*
X111308150Y-110398480D01*
X111287107Y-110385868D01*
X111267401Y-110371253D01*
X111249223Y-110354777D01*
X111232747Y-110336599D01*
X111218132Y-110316893D01*
X111205520Y-110295850D01*
X111195030Y-110273671D01*
X111186765Y-110250572D01*
X111180804Y-110226773D01*
X111177204Y-110202505D01*
X111176000Y-110178001D01*
X111176000Y-109277999D01*
X111177204Y-109253495D01*
X111180804Y-109229227D01*
X111186765Y-109205428D01*
X111195030Y-109182329D01*
X111205520Y-109160150D01*
X111218132Y-109139107D01*
X111232747Y-109119401D01*
X111249223Y-109101223D01*
X111267401Y-109084747D01*
X111287107Y-109070132D01*
X111308150Y-109057520D01*
X111330329Y-109047030D01*
X111353428Y-109038765D01*
X111377227Y-109032804D01*
X111401495Y-109029204D01*
X111425999Y-109028000D01*
X112076001Y-109028000D01*
X112100505Y-109029204D01*
X112100505Y-109029204D01*
G37*
D11*
X111751000Y-109728000D03*
G04 #@! TD*
D10*
G04 #@! TO.C,R2*
G36*
X117688505Y-109029204D02*
X117712773Y-109032804D01*
X117736572Y-109038765D01*
X117759671Y-109047030D01*
X117781850Y-109057520D01*
X117802893Y-109070132D01*
X117822599Y-109084747D01*
X117840777Y-109101223D01*
X117857253Y-109119401D01*
X117871868Y-109139107D01*
X117884480Y-109160150D01*
X117894970Y-109182329D01*
X117903235Y-109205428D01*
X117909196Y-109229227D01*
X117912796Y-109253495D01*
X117914000Y-109277999D01*
X117914000Y-110178001D01*
X117912796Y-110202505D01*
X117909196Y-110226773D01*
X117903235Y-110250572D01*
X117894970Y-110273671D01*
X117884480Y-110295850D01*
X117871868Y-110316893D01*
X117857253Y-110336599D01*
X117840777Y-110354777D01*
X117822599Y-110371253D01*
X117802893Y-110385868D01*
X117781850Y-110398480D01*
X117759671Y-110408970D01*
X117736572Y-110417235D01*
X117712773Y-110423196D01*
X117688505Y-110426796D01*
X117664001Y-110428000D01*
X117013999Y-110428000D01*
X116989495Y-110426796D01*
X116965227Y-110423196D01*
X116941428Y-110417235D01*
X116918329Y-110408970D01*
X116896150Y-110398480D01*
X116875107Y-110385868D01*
X116855401Y-110371253D01*
X116837223Y-110354777D01*
X116820747Y-110336599D01*
X116806132Y-110316893D01*
X116793520Y-110295850D01*
X116783030Y-110273671D01*
X116774765Y-110250572D01*
X116768804Y-110226773D01*
X116765204Y-110202505D01*
X116764000Y-110178001D01*
X116764000Y-109277999D01*
X116765204Y-109253495D01*
X116768804Y-109229227D01*
X116774765Y-109205428D01*
X116783030Y-109182329D01*
X116793520Y-109160150D01*
X116806132Y-109139107D01*
X116820747Y-109119401D01*
X116837223Y-109101223D01*
X116855401Y-109084747D01*
X116875107Y-109070132D01*
X116896150Y-109057520D01*
X116918329Y-109047030D01*
X116941428Y-109038765D01*
X116965227Y-109032804D01*
X116989495Y-109029204D01*
X117013999Y-109028000D01*
X117664001Y-109028000D01*
X117688505Y-109029204D01*
X117688505Y-109029204D01*
G37*
D11*
X117339000Y-109728000D03*
D10*
G36*
X119738505Y-109029204D02*
X119762773Y-109032804D01*
X119786572Y-109038765D01*
X119809671Y-109047030D01*
X119831850Y-109057520D01*
X119852893Y-109070132D01*
X119872599Y-109084747D01*
X119890777Y-109101223D01*
X119907253Y-109119401D01*
X119921868Y-109139107D01*
X119934480Y-109160150D01*
X119944970Y-109182329D01*
X119953235Y-109205428D01*
X119959196Y-109229227D01*
X119962796Y-109253495D01*
X119964000Y-109277999D01*
X119964000Y-110178001D01*
X119962796Y-110202505D01*
X119959196Y-110226773D01*
X119953235Y-110250572D01*
X119944970Y-110273671D01*
X119934480Y-110295850D01*
X119921868Y-110316893D01*
X119907253Y-110336599D01*
X119890777Y-110354777D01*
X119872599Y-110371253D01*
X119852893Y-110385868D01*
X119831850Y-110398480D01*
X119809671Y-110408970D01*
X119786572Y-110417235D01*
X119762773Y-110423196D01*
X119738505Y-110426796D01*
X119714001Y-110428000D01*
X119063999Y-110428000D01*
X119039495Y-110426796D01*
X119015227Y-110423196D01*
X118991428Y-110417235D01*
X118968329Y-110408970D01*
X118946150Y-110398480D01*
X118925107Y-110385868D01*
X118905401Y-110371253D01*
X118887223Y-110354777D01*
X118870747Y-110336599D01*
X118856132Y-110316893D01*
X118843520Y-110295850D01*
X118833030Y-110273671D01*
X118824765Y-110250572D01*
X118818804Y-110226773D01*
X118815204Y-110202505D01*
X118814000Y-110178001D01*
X118814000Y-109277999D01*
X118815204Y-109253495D01*
X118818804Y-109229227D01*
X118824765Y-109205428D01*
X118833030Y-109182329D01*
X118843520Y-109160150D01*
X118856132Y-109139107D01*
X118870747Y-109119401D01*
X118887223Y-109101223D01*
X118905401Y-109084747D01*
X118925107Y-109070132D01*
X118946150Y-109057520D01*
X118968329Y-109047030D01*
X118991428Y-109038765D01*
X119015227Y-109032804D01*
X119039495Y-109029204D01*
X119063999Y-109028000D01*
X119714001Y-109028000D01*
X119738505Y-109029204D01*
X119738505Y-109029204D01*
G37*
D11*
X119389000Y-109728000D03*
G04 #@! TD*
D12*
G04 #@! TO.C,U1*
X128684000Y-95123000D03*
X128684000Y-96393000D03*
X128684000Y-97663000D03*
X128684000Y-98933000D03*
X135984000Y-98933000D03*
X135984000Y-97663000D03*
X135984000Y-96393000D03*
X135984000Y-95123000D03*
G04 #@! TD*
D13*
G04 #@! TO.C,U2*
X105012000Y-100711000D03*
X105012000Y-101981000D03*
X105012000Y-103251000D03*
X105012000Y-104521000D03*
X112412000Y-104521000D03*
X112412000Y-103251000D03*
X112412000Y-101981000D03*
X112412000Y-100711000D03*
G04 #@! TD*
D12*
G04 #@! TO.C,U3*
X135984000Y-102235000D03*
X135984000Y-103505000D03*
X135984000Y-104775000D03*
X135984000Y-106045000D03*
X128684000Y-106045000D03*
X128684000Y-104775000D03*
X128684000Y-103505000D03*
X128684000Y-102235000D03*
G04 #@! TD*
D14*
G04 #@! TO.C,U4*
X117596000Y-106308000D03*
D15*
X116196000Y-99308000D03*
X116196000Y-100108000D03*
X116196000Y-100908000D03*
X116196000Y-101708000D03*
X116196000Y-102508000D03*
X116196000Y-103308000D03*
X116196000Y-104108000D03*
X116196000Y-104908000D03*
D14*
X118396000Y-106308000D03*
X119196000Y-106308000D03*
X119996000Y-106308000D03*
X120796000Y-106308000D03*
X121596000Y-106308000D03*
X122396000Y-106308000D03*
X123196000Y-106308000D03*
D15*
X124596000Y-104908000D03*
X124596000Y-104108000D03*
X124596000Y-103308000D03*
X124596000Y-102508000D03*
X124596000Y-101708000D03*
X124596000Y-100908000D03*
X124596000Y-100108000D03*
X124596000Y-99308000D03*
D14*
X123196000Y-97908000D03*
X122396000Y-97908000D03*
X121596000Y-97908000D03*
X120796000Y-97908000D03*
X119996000Y-97908000D03*
X119196000Y-97908000D03*
X118396000Y-97908000D03*
X117596000Y-97908000D03*
G04 #@! TD*
D16*
G04 #@! TO.C,Y1*
X107087000Y-96520000D03*
X110337000Y-96520000D03*
G04 #@! TD*
D17*
G04 #@! TO.C,Y2*
X118050000Y-92964000D03*
X123250000Y-92964000D03*
G04 #@! TD*
M02*
