G04 #@! TF.GenerationSoftware,KiCad,Pcbnew,5.0.0-fee4fd1~66~ubuntu18.04.1*
G04 #@! TF.CreationDate,2018-08-22T21:04:53-07:00*
G04 #@! TF.ProjectId,BACEE,42414345452E6B696361645F70636200,2*
G04 #@! TF.SameCoordinates,Original*
G04 #@! TF.FileFunction,Soldermask,Top*
G04 #@! TF.FilePolarity,Negative*
%FSLAX46Y46*%
G04 Gerber Fmt 4.6, Leading zero omitted, Abs format (unit mm)*
G04 Created by KiCad (PCBNEW 5.0.0-fee4fd1~66~ubuntu18.04.1) date Wed Aug 22 21:04:53 2018*
%MOMM*%
%LPD*%
G01*
G04 APERTURE LIST*
%ADD10R,2.100000X2.100000*%
%ADD11O,2.100000X2.100000*%
%ADD12C,0.100000*%
%ADD13C,1.550000*%
%ADD14R,2.100000X1.050000*%
%ADD15R,2.150000X0.950000*%
%ADD16R,0.950000X1.900000*%
%ADD17R,1.900000X0.950000*%
%ADD18R,2.150000X2.200000*%
%ADD19R,3.900000X2.800000*%
G04 APERTURE END LIST*
D10*
G04 #@! TO.C,BT1*
X98552000Y-96012000D03*
D11*
X98552000Y-98552000D03*
G04 #@! TD*
D12*
G04 #@! TO.C,C1*
G36*
X123398071Y-108829623D02*
X123430781Y-108834475D01*
X123462857Y-108842509D01*
X123493991Y-108853649D01*
X123523884Y-108867787D01*
X123552247Y-108884787D01*
X123578807Y-108904485D01*
X123603308Y-108926692D01*
X123625515Y-108951193D01*
X123645213Y-108977753D01*
X123662213Y-109006116D01*
X123676351Y-109036009D01*
X123687491Y-109067143D01*
X123695525Y-109099219D01*
X123700377Y-109131929D01*
X123702000Y-109164956D01*
X123702000Y-110291044D01*
X123700377Y-110324071D01*
X123695525Y-110356781D01*
X123687491Y-110388857D01*
X123676351Y-110419991D01*
X123662213Y-110449884D01*
X123645213Y-110478247D01*
X123625515Y-110504807D01*
X123603308Y-110529308D01*
X123578807Y-110551515D01*
X123552247Y-110571213D01*
X123523884Y-110588213D01*
X123493991Y-110602351D01*
X123462857Y-110613491D01*
X123430781Y-110621525D01*
X123398071Y-110626377D01*
X123365044Y-110628000D01*
X122488956Y-110628000D01*
X122455929Y-110626377D01*
X122423219Y-110621525D01*
X122391143Y-110613491D01*
X122360009Y-110602351D01*
X122330116Y-110588213D01*
X122301753Y-110571213D01*
X122275193Y-110551515D01*
X122250692Y-110529308D01*
X122228485Y-110504807D01*
X122208787Y-110478247D01*
X122191787Y-110449884D01*
X122177649Y-110419991D01*
X122166509Y-110388857D01*
X122158475Y-110356781D01*
X122153623Y-110324071D01*
X122152000Y-110291044D01*
X122152000Y-109164956D01*
X122153623Y-109131929D01*
X122158475Y-109099219D01*
X122166509Y-109067143D01*
X122177649Y-109036009D01*
X122191787Y-109006116D01*
X122208787Y-108977753D01*
X122228485Y-108951193D01*
X122250692Y-108926692D01*
X122275193Y-108904485D01*
X122301753Y-108884787D01*
X122330116Y-108867787D01*
X122360009Y-108853649D01*
X122391143Y-108842509D01*
X122423219Y-108834475D01*
X122455929Y-108829623D01*
X122488956Y-108828000D01*
X123365044Y-108828000D01*
X123398071Y-108829623D01*
X123398071Y-108829623D01*
G37*
D13*
X122927000Y-109728000D03*
D12*
G36*
X125448071Y-108829623D02*
X125480781Y-108834475D01*
X125512857Y-108842509D01*
X125543991Y-108853649D01*
X125573884Y-108867787D01*
X125602247Y-108884787D01*
X125628807Y-108904485D01*
X125653308Y-108926692D01*
X125675515Y-108951193D01*
X125695213Y-108977753D01*
X125712213Y-109006116D01*
X125726351Y-109036009D01*
X125737491Y-109067143D01*
X125745525Y-109099219D01*
X125750377Y-109131929D01*
X125752000Y-109164956D01*
X125752000Y-110291044D01*
X125750377Y-110324071D01*
X125745525Y-110356781D01*
X125737491Y-110388857D01*
X125726351Y-110419991D01*
X125712213Y-110449884D01*
X125695213Y-110478247D01*
X125675515Y-110504807D01*
X125653308Y-110529308D01*
X125628807Y-110551515D01*
X125602247Y-110571213D01*
X125573884Y-110588213D01*
X125543991Y-110602351D01*
X125512857Y-110613491D01*
X125480781Y-110621525D01*
X125448071Y-110626377D01*
X125415044Y-110628000D01*
X124538956Y-110628000D01*
X124505929Y-110626377D01*
X124473219Y-110621525D01*
X124441143Y-110613491D01*
X124410009Y-110602351D01*
X124380116Y-110588213D01*
X124351753Y-110571213D01*
X124325193Y-110551515D01*
X124300692Y-110529308D01*
X124278485Y-110504807D01*
X124258787Y-110478247D01*
X124241787Y-110449884D01*
X124227649Y-110419991D01*
X124216509Y-110388857D01*
X124208475Y-110356781D01*
X124203623Y-110324071D01*
X124202000Y-110291044D01*
X124202000Y-109164956D01*
X124203623Y-109131929D01*
X124208475Y-109099219D01*
X124216509Y-109067143D01*
X124227649Y-109036009D01*
X124241787Y-109006116D01*
X124258787Y-108977753D01*
X124278485Y-108951193D01*
X124300692Y-108926692D01*
X124325193Y-108904485D01*
X124351753Y-108884787D01*
X124380116Y-108867787D01*
X124410009Y-108853649D01*
X124441143Y-108842509D01*
X124473219Y-108834475D01*
X124505929Y-108829623D01*
X124538956Y-108828000D01*
X125415044Y-108828000D01*
X125448071Y-108829623D01*
X125448071Y-108829623D01*
G37*
D13*
X124977000Y-109728000D03*
G04 #@! TD*
D12*
G04 #@! TO.C,C2*
G36*
X131036071Y-108829623D02*
X131068781Y-108834475D01*
X131100857Y-108842509D01*
X131131991Y-108853649D01*
X131161884Y-108867787D01*
X131190247Y-108884787D01*
X131216807Y-108904485D01*
X131241308Y-108926692D01*
X131263515Y-108951193D01*
X131283213Y-108977753D01*
X131300213Y-109006116D01*
X131314351Y-109036009D01*
X131325491Y-109067143D01*
X131333525Y-109099219D01*
X131338377Y-109131929D01*
X131340000Y-109164956D01*
X131340000Y-110291044D01*
X131338377Y-110324071D01*
X131333525Y-110356781D01*
X131325491Y-110388857D01*
X131314351Y-110419991D01*
X131300213Y-110449884D01*
X131283213Y-110478247D01*
X131263515Y-110504807D01*
X131241308Y-110529308D01*
X131216807Y-110551515D01*
X131190247Y-110571213D01*
X131161884Y-110588213D01*
X131131991Y-110602351D01*
X131100857Y-110613491D01*
X131068781Y-110621525D01*
X131036071Y-110626377D01*
X131003044Y-110628000D01*
X130126956Y-110628000D01*
X130093929Y-110626377D01*
X130061219Y-110621525D01*
X130029143Y-110613491D01*
X129998009Y-110602351D01*
X129968116Y-110588213D01*
X129939753Y-110571213D01*
X129913193Y-110551515D01*
X129888692Y-110529308D01*
X129866485Y-110504807D01*
X129846787Y-110478247D01*
X129829787Y-110449884D01*
X129815649Y-110419991D01*
X129804509Y-110388857D01*
X129796475Y-110356781D01*
X129791623Y-110324071D01*
X129790000Y-110291044D01*
X129790000Y-109164956D01*
X129791623Y-109131929D01*
X129796475Y-109099219D01*
X129804509Y-109067143D01*
X129815649Y-109036009D01*
X129829787Y-109006116D01*
X129846787Y-108977753D01*
X129866485Y-108951193D01*
X129888692Y-108926692D01*
X129913193Y-108904485D01*
X129939753Y-108884787D01*
X129968116Y-108867787D01*
X129998009Y-108853649D01*
X130029143Y-108842509D01*
X130061219Y-108834475D01*
X130093929Y-108829623D01*
X130126956Y-108828000D01*
X131003044Y-108828000D01*
X131036071Y-108829623D01*
X131036071Y-108829623D01*
G37*
D13*
X130565000Y-109728000D03*
D12*
G36*
X128986071Y-108829623D02*
X129018781Y-108834475D01*
X129050857Y-108842509D01*
X129081991Y-108853649D01*
X129111884Y-108867787D01*
X129140247Y-108884787D01*
X129166807Y-108904485D01*
X129191308Y-108926692D01*
X129213515Y-108951193D01*
X129233213Y-108977753D01*
X129250213Y-109006116D01*
X129264351Y-109036009D01*
X129275491Y-109067143D01*
X129283525Y-109099219D01*
X129288377Y-109131929D01*
X129290000Y-109164956D01*
X129290000Y-110291044D01*
X129288377Y-110324071D01*
X129283525Y-110356781D01*
X129275491Y-110388857D01*
X129264351Y-110419991D01*
X129250213Y-110449884D01*
X129233213Y-110478247D01*
X129213515Y-110504807D01*
X129191308Y-110529308D01*
X129166807Y-110551515D01*
X129140247Y-110571213D01*
X129111884Y-110588213D01*
X129081991Y-110602351D01*
X129050857Y-110613491D01*
X129018781Y-110621525D01*
X128986071Y-110626377D01*
X128953044Y-110628000D01*
X128076956Y-110628000D01*
X128043929Y-110626377D01*
X128011219Y-110621525D01*
X127979143Y-110613491D01*
X127948009Y-110602351D01*
X127918116Y-110588213D01*
X127889753Y-110571213D01*
X127863193Y-110551515D01*
X127838692Y-110529308D01*
X127816485Y-110504807D01*
X127796787Y-110478247D01*
X127779787Y-110449884D01*
X127765649Y-110419991D01*
X127754509Y-110388857D01*
X127746475Y-110356781D01*
X127741623Y-110324071D01*
X127740000Y-110291044D01*
X127740000Y-109164956D01*
X127741623Y-109131929D01*
X127746475Y-109099219D01*
X127754509Y-109067143D01*
X127765649Y-109036009D01*
X127779787Y-109006116D01*
X127796787Y-108977753D01*
X127816485Y-108951193D01*
X127838692Y-108926692D01*
X127863193Y-108904485D01*
X127889753Y-108884787D01*
X127918116Y-108867787D01*
X127948009Y-108853649D01*
X127979143Y-108842509D01*
X128011219Y-108834475D01*
X128043929Y-108829623D01*
X128076956Y-108828000D01*
X128953044Y-108828000D01*
X128986071Y-108829623D01*
X128986071Y-108829623D01*
G37*
D13*
X128515000Y-109728000D03*
G04 #@! TD*
D12*
G04 #@! TO.C,C3*
G36*
X134574071Y-108829623D02*
X134606781Y-108834475D01*
X134638857Y-108842509D01*
X134669991Y-108853649D01*
X134699884Y-108867787D01*
X134728247Y-108884787D01*
X134754807Y-108904485D01*
X134779308Y-108926692D01*
X134801515Y-108951193D01*
X134821213Y-108977753D01*
X134838213Y-109006116D01*
X134852351Y-109036009D01*
X134863491Y-109067143D01*
X134871525Y-109099219D01*
X134876377Y-109131929D01*
X134878000Y-109164956D01*
X134878000Y-110291044D01*
X134876377Y-110324071D01*
X134871525Y-110356781D01*
X134863491Y-110388857D01*
X134852351Y-110419991D01*
X134838213Y-110449884D01*
X134821213Y-110478247D01*
X134801515Y-110504807D01*
X134779308Y-110529308D01*
X134754807Y-110551515D01*
X134728247Y-110571213D01*
X134699884Y-110588213D01*
X134669991Y-110602351D01*
X134638857Y-110613491D01*
X134606781Y-110621525D01*
X134574071Y-110626377D01*
X134541044Y-110628000D01*
X133664956Y-110628000D01*
X133631929Y-110626377D01*
X133599219Y-110621525D01*
X133567143Y-110613491D01*
X133536009Y-110602351D01*
X133506116Y-110588213D01*
X133477753Y-110571213D01*
X133451193Y-110551515D01*
X133426692Y-110529308D01*
X133404485Y-110504807D01*
X133384787Y-110478247D01*
X133367787Y-110449884D01*
X133353649Y-110419991D01*
X133342509Y-110388857D01*
X133334475Y-110356781D01*
X133329623Y-110324071D01*
X133328000Y-110291044D01*
X133328000Y-109164956D01*
X133329623Y-109131929D01*
X133334475Y-109099219D01*
X133342509Y-109067143D01*
X133353649Y-109036009D01*
X133367787Y-109006116D01*
X133384787Y-108977753D01*
X133404485Y-108951193D01*
X133426692Y-108926692D01*
X133451193Y-108904485D01*
X133477753Y-108884787D01*
X133506116Y-108867787D01*
X133536009Y-108853649D01*
X133567143Y-108842509D01*
X133599219Y-108834475D01*
X133631929Y-108829623D01*
X133664956Y-108828000D01*
X134541044Y-108828000D01*
X134574071Y-108829623D01*
X134574071Y-108829623D01*
G37*
D13*
X134103000Y-109728000D03*
D12*
G36*
X136624071Y-108829623D02*
X136656781Y-108834475D01*
X136688857Y-108842509D01*
X136719991Y-108853649D01*
X136749884Y-108867787D01*
X136778247Y-108884787D01*
X136804807Y-108904485D01*
X136829308Y-108926692D01*
X136851515Y-108951193D01*
X136871213Y-108977753D01*
X136888213Y-109006116D01*
X136902351Y-109036009D01*
X136913491Y-109067143D01*
X136921525Y-109099219D01*
X136926377Y-109131929D01*
X136928000Y-109164956D01*
X136928000Y-110291044D01*
X136926377Y-110324071D01*
X136921525Y-110356781D01*
X136913491Y-110388857D01*
X136902351Y-110419991D01*
X136888213Y-110449884D01*
X136871213Y-110478247D01*
X136851515Y-110504807D01*
X136829308Y-110529308D01*
X136804807Y-110551515D01*
X136778247Y-110571213D01*
X136749884Y-110588213D01*
X136719991Y-110602351D01*
X136688857Y-110613491D01*
X136656781Y-110621525D01*
X136624071Y-110626377D01*
X136591044Y-110628000D01*
X135714956Y-110628000D01*
X135681929Y-110626377D01*
X135649219Y-110621525D01*
X135617143Y-110613491D01*
X135586009Y-110602351D01*
X135556116Y-110588213D01*
X135527753Y-110571213D01*
X135501193Y-110551515D01*
X135476692Y-110529308D01*
X135454485Y-110504807D01*
X135434787Y-110478247D01*
X135417787Y-110449884D01*
X135403649Y-110419991D01*
X135392509Y-110388857D01*
X135384475Y-110356781D01*
X135379623Y-110324071D01*
X135378000Y-110291044D01*
X135378000Y-109164956D01*
X135379623Y-109131929D01*
X135384475Y-109099219D01*
X135392509Y-109067143D01*
X135403649Y-109036009D01*
X135417787Y-109006116D01*
X135434787Y-108977753D01*
X135454485Y-108951193D01*
X135476692Y-108926692D01*
X135501193Y-108904485D01*
X135527753Y-108884787D01*
X135556116Y-108867787D01*
X135586009Y-108853649D01*
X135617143Y-108842509D01*
X135649219Y-108834475D01*
X135681929Y-108829623D01*
X135714956Y-108828000D01*
X136591044Y-108828000D01*
X136624071Y-108829623D01*
X136624071Y-108829623D01*
G37*
D13*
X136153000Y-109728000D03*
G04 #@! TD*
D12*
G04 #@! TO.C,D1*
G36*
X106634071Y-108829623D02*
X106666781Y-108834475D01*
X106698857Y-108842509D01*
X106729991Y-108853649D01*
X106759884Y-108867787D01*
X106788247Y-108884787D01*
X106814807Y-108904485D01*
X106839308Y-108926692D01*
X106861515Y-108951193D01*
X106881213Y-108977753D01*
X106898213Y-109006116D01*
X106912351Y-109036009D01*
X106923491Y-109067143D01*
X106931525Y-109099219D01*
X106936377Y-109131929D01*
X106938000Y-109164956D01*
X106938000Y-110291044D01*
X106936377Y-110324071D01*
X106931525Y-110356781D01*
X106923491Y-110388857D01*
X106912351Y-110419991D01*
X106898213Y-110449884D01*
X106881213Y-110478247D01*
X106861515Y-110504807D01*
X106839308Y-110529308D01*
X106814807Y-110551515D01*
X106788247Y-110571213D01*
X106759884Y-110588213D01*
X106729991Y-110602351D01*
X106698857Y-110613491D01*
X106666781Y-110621525D01*
X106634071Y-110626377D01*
X106601044Y-110628000D01*
X105724956Y-110628000D01*
X105691929Y-110626377D01*
X105659219Y-110621525D01*
X105627143Y-110613491D01*
X105596009Y-110602351D01*
X105566116Y-110588213D01*
X105537753Y-110571213D01*
X105511193Y-110551515D01*
X105486692Y-110529308D01*
X105464485Y-110504807D01*
X105444787Y-110478247D01*
X105427787Y-110449884D01*
X105413649Y-110419991D01*
X105402509Y-110388857D01*
X105394475Y-110356781D01*
X105389623Y-110324071D01*
X105388000Y-110291044D01*
X105388000Y-109164956D01*
X105389623Y-109131929D01*
X105394475Y-109099219D01*
X105402509Y-109067143D01*
X105413649Y-109036009D01*
X105427787Y-109006116D01*
X105444787Y-108977753D01*
X105464485Y-108951193D01*
X105486692Y-108926692D01*
X105511193Y-108904485D01*
X105537753Y-108884787D01*
X105566116Y-108867787D01*
X105596009Y-108853649D01*
X105627143Y-108842509D01*
X105659219Y-108834475D01*
X105691929Y-108829623D01*
X105724956Y-108828000D01*
X106601044Y-108828000D01*
X106634071Y-108829623D01*
X106634071Y-108829623D01*
G37*
D13*
X106163000Y-109728000D03*
D12*
G36*
X108684071Y-108829623D02*
X108716781Y-108834475D01*
X108748857Y-108842509D01*
X108779991Y-108853649D01*
X108809884Y-108867787D01*
X108838247Y-108884787D01*
X108864807Y-108904485D01*
X108889308Y-108926692D01*
X108911515Y-108951193D01*
X108931213Y-108977753D01*
X108948213Y-109006116D01*
X108962351Y-109036009D01*
X108973491Y-109067143D01*
X108981525Y-109099219D01*
X108986377Y-109131929D01*
X108988000Y-109164956D01*
X108988000Y-110291044D01*
X108986377Y-110324071D01*
X108981525Y-110356781D01*
X108973491Y-110388857D01*
X108962351Y-110419991D01*
X108948213Y-110449884D01*
X108931213Y-110478247D01*
X108911515Y-110504807D01*
X108889308Y-110529308D01*
X108864807Y-110551515D01*
X108838247Y-110571213D01*
X108809884Y-110588213D01*
X108779991Y-110602351D01*
X108748857Y-110613491D01*
X108716781Y-110621525D01*
X108684071Y-110626377D01*
X108651044Y-110628000D01*
X107774956Y-110628000D01*
X107741929Y-110626377D01*
X107709219Y-110621525D01*
X107677143Y-110613491D01*
X107646009Y-110602351D01*
X107616116Y-110588213D01*
X107587753Y-110571213D01*
X107561193Y-110551515D01*
X107536692Y-110529308D01*
X107514485Y-110504807D01*
X107494787Y-110478247D01*
X107477787Y-110449884D01*
X107463649Y-110419991D01*
X107452509Y-110388857D01*
X107444475Y-110356781D01*
X107439623Y-110324071D01*
X107438000Y-110291044D01*
X107438000Y-109164956D01*
X107439623Y-109131929D01*
X107444475Y-109099219D01*
X107452509Y-109067143D01*
X107463649Y-109036009D01*
X107477787Y-109006116D01*
X107494787Y-108977753D01*
X107514485Y-108951193D01*
X107536692Y-108926692D01*
X107561193Y-108904485D01*
X107587753Y-108884787D01*
X107616116Y-108867787D01*
X107646009Y-108853649D01*
X107677143Y-108842509D01*
X107709219Y-108834475D01*
X107741929Y-108829623D01*
X107774956Y-108828000D01*
X108651044Y-108828000D01*
X108684071Y-108829623D01*
X108684071Y-108829623D01*
G37*
D13*
X108213000Y-109728000D03*
G04 #@! TD*
D11*
G04 #@! TO.C,J2*
X108712000Y-113284000D03*
X106172000Y-113284000D03*
X103632000Y-113284000D03*
D10*
X101092000Y-113284000D03*
G04 #@! TD*
G04 #@! TO.C,J3*
X112776000Y-113284000D03*
D11*
X115316000Y-113284000D03*
X117856000Y-113284000D03*
X120396000Y-113284000D03*
X122936000Y-113284000D03*
X125476000Y-113284000D03*
X128016000Y-113284000D03*
X130556000Y-113284000D03*
X133096000Y-113284000D03*
G04 #@! TD*
D10*
G04 #@! TO.C,J4*
X105156000Y-92964000D03*
D11*
X107696000Y-92964000D03*
X110236000Y-92964000D03*
X112776000Y-92964000D03*
G04 #@! TD*
D10*
G04 #@! TO.C,J5*
X97028000Y-103632000D03*
D11*
X99568000Y-103632000D03*
X97028000Y-106172000D03*
X99568000Y-106172000D03*
X97028000Y-108712000D03*
X99568000Y-108712000D03*
G04 #@! TD*
D12*
G04 #@! TO.C,R1*
G36*
X114272071Y-108829623D02*
X114304781Y-108834475D01*
X114336857Y-108842509D01*
X114367991Y-108853649D01*
X114397884Y-108867787D01*
X114426247Y-108884787D01*
X114452807Y-108904485D01*
X114477308Y-108926692D01*
X114499515Y-108951193D01*
X114519213Y-108977753D01*
X114536213Y-109006116D01*
X114550351Y-109036009D01*
X114561491Y-109067143D01*
X114569525Y-109099219D01*
X114574377Y-109131929D01*
X114576000Y-109164956D01*
X114576000Y-110291044D01*
X114574377Y-110324071D01*
X114569525Y-110356781D01*
X114561491Y-110388857D01*
X114550351Y-110419991D01*
X114536213Y-110449884D01*
X114519213Y-110478247D01*
X114499515Y-110504807D01*
X114477308Y-110529308D01*
X114452807Y-110551515D01*
X114426247Y-110571213D01*
X114397884Y-110588213D01*
X114367991Y-110602351D01*
X114336857Y-110613491D01*
X114304781Y-110621525D01*
X114272071Y-110626377D01*
X114239044Y-110628000D01*
X113362956Y-110628000D01*
X113329929Y-110626377D01*
X113297219Y-110621525D01*
X113265143Y-110613491D01*
X113234009Y-110602351D01*
X113204116Y-110588213D01*
X113175753Y-110571213D01*
X113149193Y-110551515D01*
X113124692Y-110529308D01*
X113102485Y-110504807D01*
X113082787Y-110478247D01*
X113065787Y-110449884D01*
X113051649Y-110419991D01*
X113040509Y-110388857D01*
X113032475Y-110356781D01*
X113027623Y-110324071D01*
X113026000Y-110291044D01*
X113026000Y-109164956D01*
X113027623Y-109131929D01*
X113032475Y-109099219D01*
X113040509Y-109067143D01*
X113051649Y-109036009D01*
X113065787Y-109006116D01*
X113082787Y-108977753D01*
X113102485Y-108951193D01*
X113124692Y-108926692D01*
X113149193Y-108904485D01*
X113175753Y-108884787D01*
X113204116Y-108867787D01*
X113234009Y-108853649D01*
X113265143Y-108842509D01*
X113297219Y-108834475D01*
X113329929Y-108829623D01*
X113362956Y-108828000D01*
X114239044Y-108828000D01*
X114272071Y-108829623D01*
X114272071Y-108829623D01*
G37*
D13*
X113801000Y-109728000D03*
D12*
G36*
X112222071Y-108829623D02*
X112254781Y-108834475D01*
X112286857Y-108842509D01*
X112317991Y-108853649D01*
X112347884Y-108867787D01*
X112376247Y-108884787D01*
X112402807Y-108904485D01*
X112427308Y-108926692D01*
X112449515Y-108951193D01*
X112469213Y-108977753D01*
X112486213Y-109006116D01*
X112500351Y-109036009D01*
X112511491Y-109067143D01*
X112519525Y-109099219D01*
X112524377Y-109131929D01*
X112526000Y-109164956D01*
X112526000Y-110291044D01*
X112524377Y-110324071D01*
X112519525Y-110356781D01*
X112511491Y-110388857D01*
X112500351Y-110419991D01*
X112486213Y-110449884D01*
X112469213Y-110478247D01*
X112449515Y-110504807D01*
X112427308Y-110529308D01*
X112402807Y-110551515D01*
X112376247Y-110571213D01*
X112347884Y-110588213D01*
X112317991Y-110602351D01*
X112286857Y-110613491D01*
X112254781Y-110621525D01*
X112222071Y-110626377D01*
X112189044Y-110628000D01*
X111312956Y-110628000D01*
X111279929Y-110626377D01*
X111247219Y-110621525D01*
X111215143Y-110613491D01*
X111184009Y-110602351D01*
X111154116Y-110588213D01*
X111125753Y-110571213D01*
X111099193Y-110551515D01*
X111074692Y-110529308D01*
X111052485Y-110504807D01*
X111032787Y-110478247D01*
X111015787Y-110449884D01*
X111001649Y-110419991D01*
X110990509Y-110388857D01*
X110982475Y-110356781D01*
X110977623Y-110324071D01*
X110976000Y-110291044D01*
X110976000Y-109164956D01*
X110977623Y-109131929D01*
X110982475Y-109099219D01*
X110990509Y-109067143D01*
X111001649Y-109036009D01*
X111015787Y-109006116D01*
X111032787Y-108977753D01*
X111052485Y-108951193D01*
X111074692Y-108926692D01*
X111099193Y-108904485D01*
X111125753Y-108884787D01*
X111154116Y-108867787D01*
X111184009Y-108853649D01*
X111215143Y-108842509D01*
X111247219Y-108834475D01*
X111279929Y-108829623D01*
X111312956Y-108828000D01*
X112189044Y-108828000D01*
X112222071Y-108829623D01*
X112222071Y-108829623D01*
G37*
D13*
X111751000Y-109728000D03*
G04 #@! TD*
D12*
G04 #@! TO.C,R2*
G36*
X117810071Y-108829623D02*
X117842781Y-108834475D01*
X117874857Y-108842509D01*
X117905991Y-108853649D01*
X117935884Y-108867787D01*
X117964247Y-108884787D01*
X117990807Y-108904485D01*
X118015308Y-108926692D01*
X118037515Y-108951193D01*
X118057213Y-108977753D01*
X118074213Y-109006116D01*
X118088351Y-109036009D01*
X118099491Y-109067143D01*
X118107525Y-109099219D01*
X118112377Y-109131929D01*
X118114000Y-109164956D01*
X118114000Y-110291044D01*
X118112377Y-110324071D01*
X118107525Y-110356781D01*
X118099491Y-110388857D01*
X118088351Y-110419991D01*
X118074213Y-110449884D01*
X118057213Y-110478247D01*
X118037515Y-110504807D01*
X118015308Y-110529308D01*
X117990807Y-110551515D01*
X117964247Y-110571213D01*
X117935884Y-110588213D01*
X117905991Y-110602351D01*
X117874857Y-110613491D01*
X117842781Y-110621525D01*
X117810071Y-110626377D01*
X117777044Y-110628000D01*
X116900956Y-110628000D01*
X116867929Y-110626377D01*
X116835219Y-110621525D01*
X116803143Y-110613491D01*
X116772009Y-110602351D01*
X116742116Y-110588213D01*
X116713753Y-110571213D01*
X116687193Y-110551515D01*
X116662692Y-110529308D01*
X116640485Y-110504807D01*
X116620787Y-110478247D01*
X116603787Y-110449884D01*
X116589649Y-110419991D01*
X116578509Y-110388857D01*
X116570475Y-110356781D01*
X116565623Y-110324071D01*
X116564000Y-110291044D01*
X116564000Y-109164956D01*
X116565623Y-109131929D01*
X116570475Y-109099219D01*
X116578509Y-109067143D01*
X116589649Y-109036009D01*
X116603787Y-109006116D01*
X116620787Y-108977753D01*
X116640485Y-108951193D01*
X116662692Y-108926692D01*
X116687193Y-108904485D01*
X116713753Y-108884787D01*
X116742116Y-108867787D01*
X116772009Y-108853649D01*
X116803143Y-108842509D01*
X116835219Y-108834475D01*
X116867929Y-108829623D01*
X116900956Y-108828000D01*
X117777044Y-108828000D01*
X117810071Y-108829623D01*
X117810071Y-108829623D01*
G37*
D13*
X117339000Y-109728000D03*
D12*
G36*
X119860071Y-108829623D02*
X119892781Y-108834475D01*
X119924857Y-108842509D01*
X119955991Y-108853649D01*
X119985884Y-108867787D01*
X120014247Y-108884787D01*
X120040807Y-108904485D01*
X120065308Y-108926692D01*
X120087515Y-108951193D01*
X120107213Y-108977753D01*
X120124213Y-109006116D01*
X120138351Y-109036009D01*
X120149491Y-109067143D01*
X120157525Y-109099219D01*
X120162377Y-109131929D01*
X120164000Y-109164956D01*
X120164000Y-110291044D01*
X120162377Y-110324071D01*
X120157525Y-110356781D01*
X120149491Y-110388857D01*
X120138351Y-110419991D01*
X120124213Y-110449884D01*
X120107213Y-110478247D01*
X120087515Y-110504807D01*
X120065308Y-110529308D01*
X120040807Y-110551515D01*
X120014247Y-110571213D01*
X119985884Y-110588213D01*
X119955991Y-110602351D01*
X119924857Y-110613491D01*
X119892781Y-110621525D01*
X119860071Y-110626377D01*
X119827044Y-110628000D01*
X118950956Y-110628000D01*
X118917929Y-110626377D01*
X118885219Y-110621525D01*
X118853143Y-110613491D01*
X118822009Y-110602351D01*
X118792116Y-110588213D01*
X118763753Y-110571213D01*
X118737193Y-110551515D01*
X118712692Y-110529308D01*
X118690485Y-110504807D01*
X118670787Y-110478247D01*
X118653787Y-110449884D01*
X118639649Y-110419991D01*
X118628509Y-110388857D01*
X118620475Y-110356781D01*
X118615623Y-110324071D01*
X118614000Y-110291044D01*
X118614000Y-109164956D01*
X118615623Y-109131929D01*
X118620475Y-109099219D01*
X118628509Y-109067143D01*
X118639649Y-109036009D01*
X118653787Y-109006116D01*
X118670787Y-108977753D01*
X118690485Y-108951193D01*
X118712692Y-108926692D01*
X118737193Y-108904485D01*
X118763753Y-108884787D01*
X118792116Y-108867787D01*
X118822009Y-108853649D01*
X118853143Y-108842509D01*
X118885219Y-108834475D01*
X118917929Y-108829623D01*
X118950956Y-108828000D01*
X119827044Y-108828000D01*
X119860071Y-108829623D01*
X119860071Y-108829623D01*
G37*
D13*
X119389000Y-109728000D03*
G04 #@! TD*
D14*
G04 #@! TO.C,U1*
X128684000Y-95123000D03*
X128684000Y-96393000D03*
X128684000Y-97663000D03*
X128684000Y-98933000D03*
X135984000Y-98933000D03*
X135984000Y-97663000D03*
X135984000Y-96393000D03*
X135984000Y-95123000D03*
G04 #@! TD*
D15*
G04 #@! TO.C,U2*
X105012000Y-100711000D03*
X105012000Y-101981000D03*
X105012000Y-103251000D03*
X105012000Y-104521000D03*
X112412000Y-104521000D03*
X112412000Y-103251000D03*
X112412000Y-101981000D03*
X112412000Y-100711000D03*
G04 #@! TD*
D14*
G04 #@! TO.C,U3*
X135984000Y-102235000D03*
X135984000Y-103505000D03*
X135984000Y-104775000D03*
X135984000Y-106045000D03*
X128684000Y-106045000D03*
X128684000Y-104775000D03*
X128684000Y-103505000D03*
X128684000Y-102235000D03*
G04 #@! TD*
D16*
G04 #@! TO.C,U4*
X117596000Y-106308000D03*
D17*
X116196000Y-99308000D03*
X116196000Y-100108000D03*
X116196000Y-100908000D03*
X116196000Y-101708000D03*
X116196000Y-102508000D03*
X116196000Y-103308000D03*
X116196000Y-104108000D03*
X116196000Y-104908000D03*
D16*
X118396000Y-106308000D03*
X119196000Y-106308000D03*
X119996000Y-106308000D03*
X120796000Y-106308000D03*
X121596000Y-106308000D03*
X122396000Y-106308000D03*
X123196000Y-106308000D03*
D17*
X124596000Y-104908000D03*
X124596000Y-104108000D03*
X124596000Y-103308000D03*
X124596000Y-102508000D03*
X124596000Y-101708000D03*
X124596000Y-100908000D03*
X124596000Y-100108000D03*
X124596000Y-99308000D03*
D16*
X123196000Y-97908000D03*
X122396000Y-97908000D03*
X121596000Y-97908000D03*
X120796000Y-97908000D03*
X119996000Y-97908000D03*
X119196000Y-97908000D03*
X118396000Y-97908000D03*
X117596000Y-97908000D03*
G04 #@! TD*
D18*
G04 #@! TO.C,Y1*
X107087000Y-96520000D03*
X110337000Y-96520000D03*
G04 #@! TD*
D19*
G04 #@! TO.C,Y2*
X118050000Y-92964000D03*
X123250000Y-92964000D03*
G04 #@! TD*
M02*
