M48
INCH,TZ
T1C0.0157
T2C0.0394
%
G90
G05
T1
X43271Y-42245
X45759Y-38178
X45928Y-38749
X46280Y-39542
X46284Y-39098
X46575Y-40948
X46730Y-42392
X46997Y-41302
X47242Y-39089
X47711Y-40823
X47806Y-41321
X48043Y-42760
X48644Y-37321
X48741Y-42367
X49484Y-42087
X50903Y-39686
X51236Y-38450
X51633Y-40250
X51733Y-41075
T2
X38800Y-37800
X38800Y-38800
X44400Y-44600
X45400Y-44600
X46400Y-44600
X47400Y-44600
X48400Y-44600
X49400Y-44600
X50400Y-44600
X51400Y-44600
X52400Y-44600
X38200Y-40800
X38200Y-41800
X38200Y-42800
X39200Y-40800
X39200Y-41800
X39200Y-42800
X39800Y-44600
X40800Y-44600
X41800Y-44600
X42800Y-44600
X41400Y-36600
X42400Y-36600
X43400Y-36600
X44400Y-36600
T0
M30
