G04 #@! TF.GenerationSoftware,KiCad,Pcbnew,5.0.2-bee76a0~70~ubuntu18.04.1*
G04 #@! TF.CreationDate,2019-02-19T10:16:34+11:00*
G04 #@! TF.ProjectId,BACEE,42414345-452e-46b6-9963-61645f706362,2*
G04 #@! TF.SameCoordinates,Original*
G04 #@! TF.FileFunction,Soldermask,Top*
G04 #@! TF.FilePolarity,Negative*
%FSLAX46Y46*%
G04 Gerber Fmt 4.6, Leading zero omitted, Abs format (unit mm)*
G04 Created by KiCad (PCBNEW 5.0.2-bee76a0~70~ubuntu18.04.1) date Tue 19 Feb 2019 10:16:34 AM AEDT*
%MOMM*%
%LPD*%
G01*
G04 APERTURE LIST*
%ADD10C,0.100000*%
G04 APERTURE END LIST*
D10*
G36*
X108840707Y-112241596D02*
X108917836Y-112249193D01*
X109049787Y-112289220D01*
X109115763Y-112309233D01*
X109298172Y-112406733D01*
X109458054Y-112537946D01*
X109589267Y-112697828D01*
X109686767Y-112880237D01*
X109686767Y-112880238D01*
X109746807Y-113078164D01*
X109767080Y-113284000D01*
X109746807Y-113489836D01*
X109706780Y-113621787D01*
X109686767Y-113687763D01*
X109589267Y-113870172D01*
X109458054Y-114030054D01*
X109298172Y-114161267D01*
X109115763Y-114258767D01*
X109049787Y-114278780D01*
X108917836Y-114318807D01*
X108840707Y-114326403D01*
X108763580Y-114334000D01*
X108660420Y-114334000D01*
X108583293Y-114326403D01*
X108506164Y-114318807D01*
X108374213Y-114278780D01*
X108308237Y-114258767D01*
X108125828Y-114161267D01*
X107965946Y-114030054D01*
X107834733Y-113870172D01*
X107737233Y-113687763D01*
X107717220Y-113621787D01*
X107677193Y-113489836D01*
X107656920Y-113284000D01*
X107677193Y-113078164D01*
X107737233Y-112880238D01*
X107737233Y-112880237D01*
X107834733Y-112697828D01*
X107965946Y-112537946D01*
X108125828Y-112406733D01*
X108308237Y-112309233D01*
X108374213Y-112289220D01*
X108506164Y-112249193D01*
X108583293Y-112241596D01*
X108660420Y-112234000D01*
X108763580Y-112234000D01*
X108840707Y-112241596D01*
X108840707Y-112241596D01*
G37*
G36*
X130684707Y-112241596D02*
X130761836Y-112249193D01*
X130893787Y-112289220D01*
X130959763Y-112309233D01*
X131142172Y-112406733D01*
X131302054Y-112537946D01*
X131433267Y-112697828D01*
X131530767Y-112880237D01*
X131530767Y-112880238D01*
X131590807Y-113078164D01*
X131611080Y-113284000D01*
X131590807Y-113489836D01*
X131550780Y-113621787D01*
X131530767Y-113687763D01*
X131433267Y-113870172D01*
X131302054Y-114030054D01*
X131142172Y-114161267D01*
X130959763Y-114258767D01*
X130893787Y-114278780D01*
X130761836Y-114318807D01*
X130684707Y-114326403D01*
X130607580Y-114334000D01*
X130504420Y-114334000D01*
X130427293Y-114326403D01*
X130350164Y-114318807D01*
X130218213Y-114278780D01*
X130152237Y-114258767D01*
X129969828Y-114161267D01*
X129809946Y-114030054D01*
X129678733Y-113870172D01*
X129581233Y-113687763D01*
X129561220Y-113621787D01*
X129521193Y-113489836D01*
X129500920Y-113284000D01*
X129521193Y-113078164D01*
X129581233Y-112880238D01*
X129581233Y-112880237D01*
X129678733Y-112697828D01*
X129809946Y-112537946D01*
X129969828Y-112406733D01*
X130152237Y-112309233D01*
X130218213Y-112289220D01*
X130350164Y-112249193D01*
X130427293Y-112241596D01*
X130504420Y-112234000D01*
X130607580Y-112234000D01*
X130684707Y-112241596D01*
X130684707Y-112241596D01*
G37*
G36*
X133224707Y-112241596D02*
X133301836Y-112249193D01*
X133433787Y-112289220D01*
X133499763Y-112309233D01*
X133682172Y-112406733D01*
X133842054Y-112537946D01*
X133973267Y-112697828D01*
X134070767Y-112880237D01*
X134070767Y-112880238D01*
X134130807Y-113078164D01*
X134151080Y-113284000D01*
X134130807Y-113489836D01*
X134090780Y-113621787D01*
X134070767Y-113687763D01*
X133973267Y-113870172D01*
X133842054Y-114030054D01*
X133682172Y-114161267D01*
X133499763Y-114258767D01*
X133433787Y-114278780D01*
X133301836Y-114318807D01*
X133224707Y-114326403D01*
X133147580Y-114334000D01*
X133044420Y-114334000D01*
X132967293Y-114326403D01*
X132890164Y-114318807D01*
X132758213Y-114278780D01*
X132692237Y-114258767D01*
X132509828Y-114161267D01*
X132349946Y-114030054D01*
X132218733Y-113870172D01*
X132121233Y-113687763D01*
X132101220Y-113621787D01*
X132061193Y-113489836D01*
X132040920Y-113284000D01*
X132061193Y-113078164D01*
X132121233Y-112880238D01*
X132121233Y-112880237D01*
X132218733Y-112697828D01*
X132349946Y-112537946D01*
X132509828Y-112406733D01*
X132692237Y-112309233D01*
X132758213Y-112289220D01*
X132890164Y-112249193D01*
X132967293Y-112241596D01*
X133044420Y-112234000D01*
X133147580Y-112234000D01*
X133224707Y-112241596D01*
X133224707Y-112241596D01*
G37*
G36*
X128144707Y-112241596D02*
X128221836Y-112249193D01*
X128353787Y-112289220D01*
X128419763Y-112309233D01*
X128602172Y-112406733D01*
X128762054Y-112537946D01*
X128893267Y-112697828D01*
X128990767Y-112880237D01*
X128990767Y-112880238D01*
X129050807Y-113078164D01*
X129071080Y-113284000D01*
X129050807Y-113489836D01*
X129010780Y-113621787D01*
X128990767Y-113687763D01*
X128893267Y-113870172D01*
X128762054Y-114030054D01*
X128602172Y-114161267D01*
X128419763Y-114258767D01*
X128353787Y-114278780D01*
X128221836Y-114318807D01*
X128144707Y-114326403D01*
X128067580Y-114334000D01*
X127964420Y-114334000D01*
X127887293Y-114326403D01*
X127810164Y-114318807D01*
X127678213Y-114278780D01*
X127612237Y-114258767D01*
X127429828Y-114161267D01*
X127269946Y-114030054D01*
X127138733Y-113870172D01*
X127041233Y-113687763D01*
X127021220Y-113621787D01*
X126981193Y-113489836D01*
X126960920Y-113284000D01*
X126981193Y-113078164D01*
X127041233Y-112880238D01*
X127041233Y-112880237D01*
X127138733Y-112697828D01*
X127269946Y-112537946D01*
X127429828Y-112406733D01*
X127612237Y-112309233D01*
X127678213Y-112289220D01*
X127810164Y-112249193D01*
X127887293Y-112241596D01*
X127964420Y-112234000D01*
X128067580Y-112234000D01*
X128144707Y-112241596D01*
X128144707Y-112241596D01*
G37*
G36*
X125604707Y-112241596D02*
X125681836Y-112249193D01*
X125813787Y-112289220D01*
X125879763Y-112309233D01*
X126062172Y-112406733D01*
X126222054Y-112537946D01*
X126353267Y-112697828D01*
X126450767Y-112880237D01*
X126450767Y-112880238D01*
X126510807Y-113078164D01*
X126531080Y-113284000D01*
X126510807Y-113489836D01*
X126470780Y-113621787D01*
X126450767Y-113687763D01*
X126353267Y-113870172D01*
X126222054Y-114030054D01*
X126062172Y-114161267D01*
X125879763Y-114258767D01*
X125813787Y-114278780D01*
X125681836Y-114318807D01*
X125604707Y-114326403D01*
X125527580Y-114334000D01*
X125424420Y-114334000D01*
X125347293Y-114326403D01*
X125270164Y-114318807D01*
X125138213Y-114278780D01*
X125072237Y-114258767D01*
X124889828Y-114161267D01*
X124729946Y-114030054D01*
X124598733Y-113870172D01*
X124501233Y-113687763D01*
X124481220Y-113621787D01*
X124441193Y-113489836D01*
X124420920Y-113284000D01*
X124441193Y-113078164D01*
X124501233Y-112880238D01*
X124501233Y-112880237D01*
X124598733Y-112697828D01*
X124729946Y-112537946D01*
X124889828Y-112406733D01*
X125072237Y-112309233D01*
X125138213Y-112289220D01*
X125270164Y-112249193D01*
X125347293Y-112241596D01*
X125424420Y-112234000D01*
X125527580Y-112234000D01*
X125604707Y-112241596D01*
X125604707Y-112241596D01*
G37*
G36*
X123064707Y-112241596D02*
X123141836Y-112249193D01*
X123273787Y-112289220D01*
X123339763Y-112309233D01*
X123522172Y-112406733D01*
X123682054Y-112537946D01*
X123813267Y-112697828D01*
X123910767Y-112880237D01*
X123910767Y-112880238D01*
X123970807Y-113078164D01*
X123991080Y-113284000D01*
X123970807Y-113489836D01*
X123930780Y-113621787D01*
X123910767Y-113687763D01*
X123813267Y-113870172D01*
X123682054Y-114030054D01*
X123522172Y-114161267D01*
X123339763Y-114258767D01*
X123273787Y-114278780D01*
X123141836Y-114318807D01*
X123064707Y-114326403D01*
X122987580Y-114334000D01*
X122884420Y-114334000D01*
X122807293Y-114326403D01*
X122730164Y-114318807D01*
X122598213Y-114278780D01*
X122532237Y-114258767D01*
X122349828Y-114161267D01*
X122189946Y-114030054D01*
X122058733Y-113870172D01*
X121961233Y-113687763D01*
X121941220Y-113621787D01*
X121901193Y-113489836D01*
X121880920Y-113284000D01*
X121901193Y-113078164D01*
X121961233Y-112880238D01*
X121961233Y-112880237D01*
X122058733Y-112697828D01*
X122189946Y-112537946D01*
X122349828Y-112406733D01*
X122532237Y-112309233D01*
X122598213Y-112289220D01*
X122730164Y-112249193D01*
X122807293Y-112241596D01*
X122884420Y-112234000D01*
X122987580Y-112234000D01*
X123064707Y-112241596D01*
X123064707Y-112241596D01*
G37*
G36*
X120524707Y-112241596D02*
X120601836Y-112249193D01*
X120733787Y-112289220D01*
X120799763Y-112309233D01*
X120982172Y-112406733D01*
X121142054Y-112537946D01*
X121273267Y-112697828D01*
X121370767Y-112880237D01*
X121370767Y-112880238D01*
X121430807Y-113078164D01*
X121451080Y-113284000D01*
X121430807Y-113489836D01*
X121390780Y-113621787D01*
X121370767Y-113687763D01*
X121273267Y-113870172D01*
X121142054Y-114030054D01*
X120982172Y-114161267D01*
X120799763Y-114258767D01*
X120733787Y-114278780D01*
X120601836Y-114318807D01*
X120524707Y-114326403D01*
X120447580Y-114334000D01*
X120344420Y-114334000D01*
X120267293Y-114326403D01*
X120190164Y-114318807D01*
X120058213Y-114278780D01*
X119992237Y-114258767D01*
X119809828Y-114161267D01*
X119649946Y-114030054D01*
X119518733Y-113870172D01*
X119421233Y-113687763D01*
X119401220Y-113621787D01*
X119361193Y-113489836D01*
X119340920Y-113284000D01*
X119361193Y-113078164D01*
X119421233Y-112880238D01*
X119421233Y-112880237D01*
X119518733Y-112697828D01*
X119649946Y-112537946D01*
X119809828Y-112406733D01*
X119992237Y-112309233D01*
X120058213Y-112289220D01*
X120190164Y-112249193D01*
X120267293Y-112241596D01*
X120344420Y-112234000D01*
X120447580Y-112234000D01*
X120524707Y-112241596D01*
X120524707Y-112241596D01*
G37*
G36*
X115444707Y-112241596D02*
X115521836Y-112249193D01*
X115653787Y-112289220D01*
X115719763Y-112309233D01*
X115902172Y-112406733D01*
X116062054Y-112537946D01*
X116193267Y-112697828D01*
X116290767Y-112880237D01*
X116290767Y-112880238D01*
X116350807Y-113078164D01*
X116371080Y-113284000D01*
X116350807Y-113489836D01*
X116310780Y-113621787D01*
X116290767Y-113687763D01*
X116193267Y-113870172D01*
X116062054Y-114030054D01*
X115902172Y-114161267D01*
X115719763Y-114258767D01*
X115653787Y-114278780D01*
X115521836Y-114318807D01*
X115444707Y-114326403D01*
X115367580Y-114334000D01*
X115264420Y-114334000D01*
X115187293Y-114326403D01*
X115110164Y-114318807D01*
X114978213Y-114278780D01*
X114912237Y-114258767D01*
X114729828Y-114161267D01*
X114569946Y-114030054D01*
X114438733Y-113870172D01*
X114341233Y-113687763D01*
X114321220Y-113621787D01*
X114281193Y-113489836D01*
X114260920Y-113284000D01*
X114281193Y-113078164D01*
X114341233Y-112880238D01*
X114341233Y-112880237D01*
X114438733Y-112697828D01*
X114569946Y-112537946D01*
X114729828Y-112406733D01*
X114912237Y-112309233D01*
X114978213Y-112289220D01*
X115110164Y-112249193D01*
X115187293Y-112241596D01*
X115264420Y-112234000D01*
X115367580Y-112234000D01*
X115444707Y-112241596D01*
X115444707Y-112241596D01*
G37*
G36*
X113826000Y-114334000D02*
X111726000Y-114334000D01*
X111726000Y-112234000D01*
X113826000Y-112234000D01*
X113826000Y-114334000D01*
X113826000Y-114334000D01*
G37*
G36*
X102142000Y-114334000D02*
X100042000Y-114334000D01*
X100042000Y-112234000D01*
X102142000Y-112234000D01*
X102142000Y-114334000D01*
X102142000Y-114334000D01*
G37*
G36*
X103760707Y-112241596D02*
X103837836Y-112249193D01*
X103969787Y-112289220D01*
X104035763Y-112309233D01*
X104218172Y-112406733D01*
X104378054Y-112537946D01*
X104509267Y-112697828D01*
X104606767Y-112880237D01*
X104606767Y-112880238D01*
X104666807Y-113078164D01*
X104687080Y-113284000D01*
X104666807Y-113489836D01*
X104626780Y-113621787D01*
X104606767Y-113687763D01*
X104509267Y-113870172D01*
X104378054Y-114030054D01*
X104218172Y-114161267D01*
X104035763Y-114258767D01*
X103969787Y-114278780D01*
X103837836Y-114318807D01*
X103760707Y-114326403D01*
X103683580Y-114334000D01*
X103580420Y-114334000D01*
X103503293Y-114326403D01*
X103426164Y-114318807D01*
X103294213Y-114278780D01*
X103228237Y-114258767D01*
X103045828Y-114161267D01*
X102885946Y-114030054D01*
X102754733Y-113870172D01*
X102657233Y-113687763D01*
X102637220Y-113621787D01*
X102597193Y-113489836D01*
X102576920Y-113284000D01*
X102597193Y-113078164D01*
X102657233Y-112880238D01*
X102657233Y-112880237D01*
X102754733Y-112697828D01*
X102885946Y-112537946D01*
X103045828Y-112406733D01*
X103228237Y-112309233D01*
X103294213Y-112289220D01*
X103426164Y-112249193D01*
X103503293Y-112241596D01*
X103580420Y-112234000D01*
X103683580Y-112234000D01*
X103760707Y-112241596D01*
X103760707Y-112241596D01*
G37*
G36*
X106300707Y-112241596D02*
X106377836Y-112249193D01*
X106509787Y-112289220D01*
X106575763Y-112309233D01*
X106758172Y-112406733D01*
X106918054Y-112537946D01*
X107049267Y-112697828D01*
X107146767Y-112880237D01*
X107146767Y-112880238D01*
X107206807Y-113078164D01*
X107227080Y-113284000D01*
X107206807Y-113489836D01*
X107166780Y-113621787D01*
X107146767Y-113687763D01*
X107049267Y-113870172D01*
X106918054Y-114030054D01*
X106758172Y-114161267D01*
X106575763Y-114258767D01*
X106509787Y-114278780D01*
X106377836Y-114318807D01*
X106300707Y-114326403D01*
X106223580Y-114334000D01*
X106120420Y-114334000D01*
X106043293Y-114326403D01*
X105966164Y-114318807D01*
X105834213Y-114278780D01*
X105768237Y-114258767D01*
X105585828Y-114161267D01*
X105425946Y-114030054D01*
X105294733Y-113870172D01*
X105197233Y-113687763D01*
X105177220Y-113621787D01*
X105137193Y-113489836D01*
X105116920Y-113284000D01*
X105137193Y-113078164D01*
X105197233Y-112880238D01*
X105197233Y-112880237D01*
X105294733Y-112697828D01*
X105425946Y-112537946D01*
X105585828Y-112406733D01*
X105768237Y-112309233D01*
X105834213Y-112289220D01*
X105966164Y-112249193D01*
X106043293Y-112241596D01*
X106120420Y-112234000D01*
X106223580Y-112234000D01*
X106300707Y-112241596D01*
X106300707Y-112241596D01*
G37*
G36*
X117984707Y-112241596D02*
X118061836Y-112249193D01*
X118193787Y-112289220D01*
X118259763Y-112309233D01*
X118442172Y-112406733D01*
X118602054Y-112537946D01*
X118733267Y-112697828D01*
X118830767Y-112880237D01*
X118830767Y-112880238D01*
X118890807Y-113078164D01*
X118911080Y-113284000D01*
X118890807Y-113489836D01*
X118850780Y-113621787D01*
X118830767Y-113687763D01*
X118733267Y-113870172D01*
X118602054Y-114030054D01*
X118442172Y-114161267D01*
X118259763Y-114258767D01*
X118193787Y-114278780D01*
X118061836Y-114318807D01*
X117984707Y-114326403D01*
X117907580Y-114334000D01*
X117804420Y-114334000D01*
X117727293Y-114326403D01*
X117650164Y-114318807D01*
X117518213Y-114278780D01*
X117452237Y-114258767D01*
X117269828Y-114161267D01*
X117109946Y-114030054D01*
X116978733Y-113870172D01*
X116881233Y-113687763D01*
X116861220Y-113621787D01*
X116821193Y-113489836D01*
X116800920Y-113284000D01*
X116821193Y-113078164D01*
X116881233Y-112880238D01*
X116881233Y-112880237D01*
X116978733Y-112697828D01*
X117109946Y-112537946D01*
X117269828Y-112406733D01*
X117452237Y-112309233D01*
X117518213Y-112289220D01*
X117650164Y-112249193D01*
X117727293Y-112241596D01*
X117804420Y-112234000D01*
X117907580Y-112234000D01*
X117984707Y-112241596D01*
X117984707Y-112241596D01*
G37*
G36*
X125537530Y-108833710D02*
X125587379Y-108848831D01*
X125633311Y-108873382D01*
X125673574Y-108906426D01*
X125706618Y-108946689D01*
X125731169Y-108992621D01*
X125746290Y-109042470D01*
X125752000Y-109100444D01*
X125752000Y-110355556D01*
X125746290Y-110413530D01*
X125731169Y-110463379D01*
X125706618Y-110509311D01*
X125673574Y-110549574D01*
X125633311Y-110582618D01*
X125587379Y-110607169D01*
X125537530Y-110622290D01*
X125479556Y-110628000D01*
X124474444Y-110628000D01*
X124416470Y-110622290D01*
X124366621Y-110607169D01*
X124320689Y-110582618D01*
X124280426Y-110549574D01*
X124247382Y-110509311D01*
X124222831Y-110463379D01*
X124207710Y-110413530D01*
X124202000Y-110355556D01*
X124202000Y-109100444D01*
X124207710Y-109042470D01*
X124222831Y-108992621D01*
X124247382Y-108946689D01*
X124280426Y-108906426D01*
X124320689Y-108873382D01*
X124366621Y-108848831D01*
X124416470Y-108833710D01*
X124474444Y-108828000D01*
X125479556Y-108828000D01*
X125537530Y-108833710D01*
X125537530Y-108833710D01*
G37*
G36*
X119949530Y-108833710D02*
X119999379Y-108848831D01*
X120045311Y-108873382D01*
X120085574Y-108906426D01*
X120118618Y-108946689D01*
X120143169Y-108992621D01*
X120158290Y-109042470D01*
X120164000Y-109100444D01*
X120164000Y-110355556D01*
X120158290Y-110413530D01*
X120143169Y-110463379D01*
X120118618Y-110509311D01*
X120085574Y-110549574D01*
X120045311Y-110582618D01*
X119999379Y-110607169D01*
X119949530Y-110622290D01*
X119891556Y-110628000D01*
X118886444Y-110628000D01*
X118828470Y-110622290D01*
X118778621Y-110607169D01*
X118732689Y-110582618D01*
X118692426Y-110549574D01*
X118659382Y-110509311D01*
X118634831Y-110463379D01*
X118619710Y-110413530D01*
X118614000Y-110355556D01*
X118614000Y-109100444D01*
X118619710Y-109042470D01*
X118634831Y-108992621D01*
X118659382Y-108946689D01*
X118692426Y-108906426D01*
X118732689Y-108873382D01*
X118778621Y-108848831D01*
X118828470Y-108833710D01*
X118886444Y-108828000D01*
X119891556Y-108828000D01*
X119949530Y-108833710D01*
X119949530Y-108833710D01*
G37*
G36*
X117899530Y-108833710D02*
X117949379Y-108848831D01*
X117995311Y-108873382D01*
X118035574Y-108906426D01*
X118068618Y-108946689D01*
X118093169Y-108992621D01*
X118108290Y-109042470D01*
X118114000Y-109100444D01*
X118114000Y-110355556D01*
X118108290Y-110413530D01*
X118093169Y-110463379D01*
X118068618Y-110509311D01*
X118035574Y-110549574D01*
X117995311Y-110582618D01*
X117949379Y-110607169D01*
X117899530Y-110622290D01*
X117841556Y-110628000D01*
X116836444Y-110628000D01*
X116778470Y-110622290D01*
X116728621Y-110607169D01*
X116682689Y-110582618D01*
X116642426Y-110549574D01*
X116609382Y-110509311D01*
X116584831Y-110463379D01*
X116569710Y-110413530D01*
X116564000Y-110355556D01*
X116564000Y-109100444D01*
X116569710Y-109042470D01*
X116584831Y-108992621D01*
X116609382Y-108946689D01*
X116642426Y-108906426D01*
X116682689Y-108873382D01*
X116728621Y-108848831D01*
X116778470Y-108833710D01*
X116836444Y-108828000D01*
X117841556Y-108828000D01*
X117899530Y-108833710D01*
X117899530Y-108833710D01*
G37*
G36*
X112311530Y-108833710D02*
X112361379Y-108848831D01*
X112407311Y-108873382D01*
X112447574Y-108906426D01*
X112480618Y-108946689D01*
X112505169Y-108992621D01*
X112520290Y-109042470D01*
X112526000Y-109100444D01*
X112526000Y-110355556D01*
X112520290Y-110413530D01*
X112505169Y-110463379D01*
X112480618Y-110509311D01*
X112447574Y-110549574D01*
X112407311Y-110582618D01*
X112361379Y-110607169D01*
X112311530Y-110622290D01*
X112253556Y-110628000D01*
X111248444Y-110628000D01*
X111190470Y-110622290D01*
X111140621Y-110607169D01*
X111094689Y-110582618D01*
X111054426Y-110549574D01*
X111021382Y-110509311D01*
X110996831Y-110463379D01*
X110981710Y-110413530D01*
X110976000Y-110355556D01*
X110976000Y-109100444D01*
X110981710Y-109042470D01*
X110996831Y-108992621D01*
X111021382Y-108946689D01*
X111054426Y-108906426D01*
X111094689Y-108873382D01*
X111140621Y-108848831D01*
X111190470Y-108833710D01*
X111248444Y-108828000D01*
X112253556Y-108828000D01*
X112311530Y-108833710D01*
X112311530Y-108833710D01*
G37*
G36*
X114361530Y-108833710D02*
X114411379Y-108848831D01*
X114457311Y-108873382D01*
X114497574Y-108906426D01*
X114530618Y-108946689D01*
X114555169Y-108992621D01*
X114570290Y-109042470D01*
X114576000Y-109100444D01*
X114576000Y-110355556D01*
X114570290Y-110413530D01*
X114555169Y-110463379D01*
X114530618Y-110509311D01*
X114497574Y-110549574D01*
X114457311Y-110582618D01*
X114411379Y-110607169D01*
X114361530Y-110622290D01*
X114303556Y-110628000D01*
X113298444Y-110628000D01*
X113240470Y-110622290D01*
X113190621Y-110607169D01*
X113144689Y-110582618D01*
X113104426Y-110549574D01*
X113071382Y-110509311D01*
X113046831Y-110463379D01*
X113031710Y-110413530D01*
X113026000Y-110355556D01*
X113026000Y-109100444D01*
X113031710Y-109042470D01*
X113046831Y-108992621D01*
X113071382Y-108946689D01*
X113104426Y-108906426D01*
X113144689Y-108873382D01*
X113190621Y-108848831D01*
X113240470Y-108833710D01*
X113298444Y-108828000D01*
X114303556Y-108828000D01*
X114361530Y-108833710D01*
X114361530Y-108833710D01*
G37*
G36*
X108764530Y-108833710D02*
X108814379Y-108848831D01*
X108860311Y-108873382D01*
X108900574Y-108906426D01*
X108933618Y-108946689D01*
X108958169Y-108992621D01*
X108973290Y-109042470D01*
X108979000Y-109100444D01*
X108979000Y-110355556D01*
X108973290Y-110413530D01*
X108958169Y-110463379D01*
X108933618Y-110509311D01*
X108900574Y-110549574D01*
X108860311Y-110582618D01*
X108814379Y-110607169D01*
X108764530Y-110622290D01*
X108706556Y-110628000D01*
X107701444Y-110628000D01*
X107643470Y-110622290D01*
X107593621Y-110607169D01*
X107547689Y-110582618D01*
X107507426Y-110549574D01*
X107474382Y-110509311D01*
X107449831Y-110463379D01*
X107434710Y-110413530D01*
X107429000Y-110355556D01*
X107429000Y-109100444D01*
X107434710Y-109042470D01*
X107449831Y-108992621D01*
X107474382Y-108946689D01*
X107507426Y-108906426D01*
X107547689Y-108873382D01*
X107593621Y-108848831D01*
X107643470Y-108833710D01*
X107701444Y-108828000D01*
X108706556Y-108828000D01*
X108764530Y-108833710D01*
X108764530Y-108833710D01*
G37*
G36*
X136713530Y-108833710D02*
X136763379Y-108848831D01*
X136809311Y-108873382D01*
X136849574Y-108906426D01*
X136882618Y-108946689D01*
X136907169Y-108992621D01*
X136922290Y-109042470D01*
X136928000Y-109100444D01*
X136928000Y-110355556D01*
X136922290Y-110413530D01*
X136907169Y-110463379D01*
X136882618Y-110509311D01*
X136849574Y-110549574D01*
X136809311Y-110582618D01*
X136763379Y-110607169D01*
X136713530Y-110622290D01*
X136655556Y-110628000D01*
X135650444Y-110628000D01*
X135592470Y-110622290D01*
X135542621Y-110607169D01*
X135496689Y-110582618D01*
X135456426Y-110549574D01*
X135423382Y-110509311D01*
X135398831Y-110463379D01*
X135383710Y-110413530D01*
X135378000Y-110355556D01*
X135378000Y-109100444D01*
X135383710Y-109042470D01*
X135398831Y-108992621D01*
X135423382Y-108946689D01*
X135456426Y-108906426D01*
X135496689Y-108873382D01*
X135542621Y-108848831D01*
X135592470Y-108833710D01*
X135650444Y-108828000D01*
X136655556Y-108828000D01*
X136713530Y-108833710D01*
X136713530Y-108833710D01*
G37*
G36*
X106714530Y-108833710D02*
X106764379Y-108848831D01*
X106810311Y-108873382D01*
X106850574Y-108906426D01*
X106883618Y-108946689D01*
X106908169Y-108992621D01*
X106923290Y-109042470D01*
X106929000Y-109100444D01*
X106929000Y-110355556D01*
X106923290Y-110413530D01*
X106908169Y-110463379D01*
X106883618Y-110509311D01*
X106850574Y-110549574D01*
X106810311Y-110582618D01*
X106764379Y-110607169D01*
X106714530Y-110622290D01*
X106656556Y-110628000D01*
X105651444Y-110628000D01*
X105593470Y-110622290D01*
X105543621Y-110607169D01*
X105497689Y-110582618D01*
X105457426Y-110549574D01*
X105424382Y-110509311D01*
X105399831Y-110463379D01*
X105384710Y-110413530D01*
X105379000Y-110355556D01*
X105379000Y-109100444D01*
X105384710Y-109042470D01*
X105399831Y-108992621D01*
X105424382Y-108946689D01*
X105457426Y-108906426D01*
X105497689Y-108873382D01*
X105543621Y-108848831D01*
X105593470Y-108833710D01*
X105651444Y-108828000D01*
X106656556Y-108828000D01*
X106714530Y-108833710D01*
X106714530Y-108833710D01*
G37*
G36*
X131125530Y-108833710D02*
X131175379Y-108848831D01*
X131221311Y-108873382D01*
X131261574Y-108906426D01*
X131294618Y-108946689D01*
X131319169Y-108992621D01*
X131334290Y-109042470D01*
X131340000Y-109100444D01*
X131340000Y-110355556D01*
X131334290Y-110413530D01*
X131319169Y-110463379D01*
X131294618Y-110509311D01*
X131261574Y-110549574D01*
X131221311Y-110582618D01*
X131175379Y-110607169D01*
X131125530Y-110622290D01*
X131067556Y-110628000D01*
X130062444Y-110628000D01*
X130004470Y-110622290D01*
X129954621Y-110607169D01*
X129908689Y-110582618D01*
X129868426Y-110549574D01*
X129835382Y-110509311D01*
X129810831Y-110463379D01*
X129795710Y-110413530D01*
X129790000Y-110355556D01*
X129790000Y-109100444D01*
X129795710Y-109042470D01*
X129810831Y-108992621D01*
X129835382Y-108946689D01*
X129868426Y-108906426D01*
X129908689Y-108873382D01*
X129954621Y-108848831D01*
X130004470Y-108833710D01*
X130062444Y-108828000D01*
X131067556Y-108828000D01*
X131125530Y-108833710D01*
X131125530Y-108833710D01*
G37*
G36*
X129075530Y-108833710D02*
X129125379Y-108848831D01*
X129171311Y-108873382D01*
X129211574Y-108906426D01*
X129244618Y-108946689D01*
X129269169Y-108992621D01*
X129284290Y-109042470D01*
X129290000Y-109100444D01*
X129290000Y-110355556D01*
X129284290Y-110413530D01*
X129269169Y-110463379D01*
X129244618Y-110509311D01*
X129211574Y-110549574D01*
X129171311Y-110582618D01*
X129125379Y-110607169D01*
X129075530Y-110622290D01*
X129017556Y-110628000D01*
X128012444Y-110628000D01*
X127954470Y-110622290D01*
X127904621Y-110607169D01*
X127858689Y-110582618D01*
X127818426Y-110549574D01*
X127785382Y-110509311D01*
X127760831Y-110463379D01*
X127745710Y-110413530D01*
X127740000Y-110355556D01*
X127740000Y-109100444D01*
X127745710Y-109042470D01*
X127760831Y-108992621D01*
X127785382Y-108946689D01*
X127818426Y-108906426D01*
X127858689Y-108873382D01*
X127904621Y-108848831D01*
X127954470Y-108833710D01*
X128012444Y-108828000D01*
X129017556Y-108828000D01*
X129075530Y-108833710D01*
X129075530Y-108833710D01*
G37*
G36*
X123487530Y-108833710D02*
X123537379Y-108848831D01*
X123583311Y-108873382D01*
X123623574Y-108906426D01*
X123656618Y-108946689D01*
X123681169Y-108992621D01*
X123696290Y-109042470D01*
X123702000Y-109100444D01*
X123702000Y-110355556D01*
X123696290Y-110413530D01*
X123681169Y-110463379D01*
X123656618Y-110509311D01*
X123623574Y-110549574D01*
X123583311Y-110582618D01*
X123537379Y-110607169D01*
X123487530Y-110622290D01*
X123429556Y-110628000D01*
X122424444Y-110628000D01*
X122366470Y-110622290D01*
X122316621Y-110607169D01*
X122270689Y-110582618D01*
X122230426Y-110549574D01*
X122197382Y-110509311D01*
X122172831Y-110463379D01*
X122157710Y-110413530D01*
X122152000Y-110355556D01*
X122152000Y-109100444D01*
X122157710Y-109042470D01*
X122172831Y-108992621D01*
X122197382Y-108946689D01*
X122230426Y-108906426D01*
X122270689Y-108873382D01*
X122316621Y-108848831D01*
X122366470Y-108833710D01*
X122424444Y-108828000D01*
X123429556Y-108828000D01*
X123487530Y-108833710D01*
X123487530Y-108833710D01*
G37*
G36*
X134663530Y-108833710D02*
X134713379Y-108848831D01*
X134759311Y-108873382D01*
X134799574Y-108906426D01*
X134832618Y-108946689D01*
X134857169Y-108992621D01*
X134872290Y-109042470D01*
X134878000Y-109100444D01*
X134878000Y-110355556D01*
X134872290Y-110413530D01*
X134857169Y-110463379D01*
X134832618Y-110509311D01*
X134799574Y-110549574D01*
X134759311Y-110582618D01*
X134713379Y-110607169D01*
X134663530Y-110622290D01*
X134605556Y-110628000D01*
X133600444Y-110628000D01*
X133542470Y-110622290D01*
X133492621Y-110607169D01*
X133446689Y-110582618D01*
X133406426Y-110549574D01*
X133373382Y-110509311D01*
X133348831Y-110463379D01*
X133333710Y-110413530D01*
X133328000Y-110355556D01*
X133328000Y-109100444D01*
X133333710Y-109042470D01*
X133348831Y-108992621D01*
X133373382Y-108946689D01*
X133406426Y-108906426D01*
X133446689Y-108873382D01*
X133492621Y-108848831D01*
X133542470Y-108833710D01*
X133600444Y-108828000D01*
X134605556Y-108828000D01*
X134663530Y-108833710D01*
X134663530Y-108833710D01*
G37*
G36*
X99696707Y-107669596D02*
X99773836Y-107677193D01*
X99905787Y-107717220D01*
X99971763Y-107737233D01*
X100154172Y-107834733D01*
X100314054Y-107965946D01*
X100445267Y-108125828D01*
X100542767Y-108308237D01*
X100542767Y-108308238D01*
X100602807Y-108506164D01*
X100623080Y-108712000D01*
X100602807Y-108917836D01*
X100584631Y-108977753D01*
X100542767Y-109115763D01*
X100445267Y-109298172D01*
X100314054Y-109458054D01*
X100154172Y-109589267D01*
X99971763Y-109686767D01*
X99905787Y-109706780D01*
X99773836Y-109746807D01*
X99696707Y-109754403D01*
X99619580Y-109762000D01*
X99516420Y-109762000D01*
X99439293Y-109754403D01*
X99362164Y-109746807D01*
X99230213Y-109706780D01*
X99164237Y-109686767D01*
X98981828Y-109589267D01*
X98821946Y-109458054D01*
X98690733Y-109298172D01*
X98593233Y-109115763D01*
X98551369Y-108977753D01*
X98533193Y-108917836D01*
X98512920Y-108712000D01*
X98533193Y-108506164D01*
X98593233Y-108308238D01*
X98593233Y-108308237D01*
X98690733Y-108125828D01*
X98821946Y-107965946D01*
X98981828Y-107834733D01*
X99164237Y-107737233D01*
X99230213Y-107717220D01*
X99362164Y-107677193D01*
X99439293Y-107669596D01*
X99516420Y-107662000D01*
X99619580Y-107662000D01*
X99696707Y-107669596D01*
X99696707Y-107669596D01*
G37*
G36*
X97156707Y-107669596D02*
X97233836Y-107677193D01*
X97365787Y-107717220D01*
X97431763Y-107737233D01*
X97614172Y-107834733D01*
X97774054Y-107965946D01*
X97905267Y-108125828D01*
X98002767Y-108308237D01*
X98002767Y-108308238D01*
X98062807Y-108506164D01*
X98083080Y-108712000D01*
X98062807Y-108917836D01*
X98044631Y-108977753D01*
X98002767Y-109115763D01*
X97905267Y-109298172D01*
X97774054Y-109458054D01*
X97614172Y-109589267D01*
X97431763Y-109686767D01*
X97365787Y-109706780D01*
X97233836Y-109746807D01*
X97156707Y-109754403D01*
X97079580Y-109762000D01*
X96976420Y-109762000D01*
X96899293Y-109754403D01*
X96822164Y-109746807D01*
X96690213Y-109706780D01*
X96624237Y-109686767D01*
X96441828Y-109589267D01*
X96281946Y-109458054D01*
X96150733Y-109298172D01*
X96053233Y-109115763D01*
X96011369Y-108977753D01*
X95993193Y-108917836D01*
X95972920Y-108712000D01*
X95993193Y-108506164D01*
X96053233Y-108308238D01*
X96053233Y-108308237D01*
X96150733Y-108125828D01*
X96281946Y-107965946D01*
X96441828Y-107834733D01*
X96624237Y-107737233D01*
X96690213Y-107717220D01*
X96822164Y-107677193D01*
X96899293Y-107669596D01*
X96976420Y-107662000D01*
X97079580Y-107662000D01*
X97156707Y-107669596D01*
X97156707Y-107669596D01*
G37*
G36*
X123671000Y-98708000D02*
X123673402Y-98732386D01*
X123680515Y-98755835D01*
X123692066Y-98777446D01*
X123707612Y-98796388D01*
X123726554Y-98811934D01*
X123748165Y-98823485D01*
X123771614Y-98830598D01*
X123796000Y-98833000D01*
X125546000Y-98833000D01*
X125546000Y-105383000D01*
X123796000Y-105383000D01*
X123771614Y-105385402D01*
X123748165Y-105392515D01*
X123726554Y-105404066D01*
X123707612Y-105419612D01*
X123692066Y-105438554D01*
X123680515Y-105460165D01*
X123673402Y-105483614D01*
X123671000Y-105508000D01*
X123671000Y-107258000D01*
X117121000Y-107258000D01*
X117121000Y-105508000D01*
X117118598Y-105483614D01*
X117111485Y-105460165D01*
X117099934Y-105438554D01*
X117084388Y-105419612D01*
X117065446Y-105404066D01*
X117043835Y-105392515D01*
X117020386Y-105385402D01*
X116996000Y-105383000D01*
X115246000Y-105383000D01*
X115246000Y-98983000D01*
X117146000Y-98983000D01*
X117146000Y-105233000D01*
X117148402Y-105257386D01*
X117155515Y-105280835D01*
X117167066Y-105302446D01*
X117182612Y-105321388D01*
X117201554Y-105336934D01*
X117223165Y-105348485D01*
X117246614Y-105355598D01*
X117271000Y-105358000D01*
X123521000Y-105358000D01*
X123545386Y-105355598D01*
X123568835Y-105348485D01*
X123590446Y-105336934D01*
X123609388Y-105321388D01*
X123624934Y-105302446D01*
X123636485Y-105280835D01*
X123643598Y-105257386D01*
X123646000Y-105233000D01*
X123646000Y-98983000D01*
X123643598Y-98958614D01*
X123636485Y-98935165D01*
X123624934Y-98913554D01*
X123609388Y-98894612D01*
X123590446Y-98879066D01*
X123568835Y-98867515D01*
X123545386Y-98860402D01*
X123521000Y-98858000D01*
X117271000Y-98858000D01*
X117246614Y-98860402D01*
X117223165Y-98867515D01*
X117201554Y-98879066D01*
X117182612Y-98894612D01*
X117167066Y-98913554D01*
X117155515Y-98935165D01*
X117148402Y-98958614D01*
X117146000Y-98983000D01*
X115246000Y-98983000D01*
X115246000Y-98833000D01*
X116996000Y-98833000D01*
X117020386Y-98830598D01*
X117043835Y-98823485D01*
X117065446Y-98811934D01*
X117084388Y-98796388D01*
X117099934Y-98777446D01*
X117111485Y-98755835D01*
X117118598Y-98732386D01*
X117121000Y-98708000D01*
X117121000Y-96958000D01*
X123671000Y-96958000D01*
X123671000Y-98708000D01*
X123671000Y-98708000D01*
G37*
G36*
X99696707Y-105129596D02*
X99773836Y-105137193D01*
X99905787Y-105177220D01*
X99971763Y-105197233D01*
X100154172Y-105294733D01*
X100314054Y-105425946D01*
X100445267Y-105585828D01*
X100542767Y-105768237D01*
X100542767Y-105768238D01*
X100602807Y-105966164D01*
X100623080Y-106172000D01*
X100602807Y-106377836D01*
X100562780Y-106509787D01*
X100542767Y-106575763D01*
X100445267Y-106758172D01*
X100314054Y-106918054D01*
X100154172Y-107049267D01*
X99971763Y-107146767D01*
X99905787Y-107166780D01*
X99773836Y-107206807D01*
X99696707Y-107214404D01*
X99619580Y-107222000D01*
X99516420Y-107222000D01*
X99439293Y-107214404D01*
X99362164Y-107206807D01*
X99230213Y-107166780D01*
X99164237Y-107146767D01*
X98981828Y-107049267D01*
X98821946Y-106918054D01*
X98690733Y-106758172D01*
X98593233Y-106575763D01*
X98573220Y-106509787D01*
X98533193Y-106377836D01*
X98512920Y-106172000D01*
X98533193Y-105966164D01*
X98593233Y-105768238D01*
X98593233Y-105768237D01*
X98690733Y-105585828D01*
X98821946Y-105425946D01*
X98981828Y-105294733D01*
X99164237Y-105197233D01*
X99230213Y-105177220D01*
X99362164Y-105137193D01*
X99439293Y-105129597D01*
X99516420Y-105122000D01*
X99619580Y-105122000D01*
X99696707Y-105129596D01*
X99696707Y-105129596D01*
G37*
G36*
X97156707Y-105129596D02*
X97233836Y-105137193D01*
X97365787Y-105177220D01*
X97431763Y-105197233D01*
X97614172Y-105294733D01*
X97774054Y-105425946D01*
X97905267Y-105585828D01*
X98002767Y-105768237D01*
X98002767Y-105768238D01*
X98062807Y-105966164D01*
X98083080Y-106172000D01*
X98062807Y-106377836D01*
X98022780Y-106509787D01*
X98002767Y-106575763D01*
X97905267Y-106758172D01*
X97774054Y-106918054D01*
X97614172Y-107049267D01*
X97431763Y-107146767D01*
X97365787Y-107166780D01*
X97233836Y-107206807D01*
X97156707Y-107214404D01*
X97079580Y-107222000D01*
X96976420Y-107222000D01*
X96899293Y-107214404D01*
X96822164Y-107206807D01*
X96690213Y-107166780D01*
X96624237Y-107146767D01*
X96441828Y-107049267D01*
X96281946Y-106918054D01*
X96150733Y-106758172D01*
X96053233Y-106575763D01*
X96033220Y-106509787D01*
X95993193Y-106377836D01*
X95972920Y-106172000D01*
X95993193Y-105966164D01*
X96053233Y-105768238D01*
X96053233Y-105768237D01*
X96150733Y-105585828D01*
X96281946Y-105425946D01*
X96441828Y-105294733D01*
X96624237Y-105197233D01*
X96690213Y-105177220D01*
X96822164Y-105137193D01*
X96899293Y-105129597D01*
X96976420Y-105122000D01*
X97079580Y-105122000D01*
X97156707Y-105129596D01*
X97156707Y-105129596D01*
G37*
G36*
X137034000Y-106570000D02*
X134934000Y-106570000D01*
X134934000Y-101710000D01*
X137034000Y-101710000D01*
X137034000Y-106570000D01*
X137034000Y-106570000D01*
G37*
G36*
X129734000Y-106570000D02*
X127634000Y-106570000D01*
X127634000Y-101710000D01*
X129734000Y-101710000D01*
X129734000Y-106570000D01*
X129734000Y-106570000D01*
G37*
G36*
X113487000Y-104996000D02*
X111337000Y-104996000D01*
X111337000Y-104046000D01*
X113487000Y-104046000D01*
X113487000Y-104996000D01*
X113487000Y-104996000D01*
G37*
G36*
X106087000Y-104996000D02*
X103937000Y-104996000D01*
X103937000Y-104046000D01*
X106087000Y-104046000D01*
X106087000Y-104996000D01*
X106087000Y-104996000D01*
G37*
G36*
X98078000Y-104682000D02*
X95978000Y-104682000D01*
X95978000Y-102582000D01*
X98078000Y-102582000D01*
X98078000Y-104682000D01*
X98078000Y-104682000D01*
G37*
G36*
X99696707Y-102589596D02*
X99773836Y-102597193D01*
X99905787Y-102637220D01*
X99971763Y-102657233D01*
X100154172Y-102754733D01*
X100314054Y-102885946D01*
X100445267Y-103045828D01*
X100542767Y-103228237D01*
X100542767Y-103228238D01*
X100602807Y-103426164D01*
X100623080Y-103632000D01*
X100602807Y-103837836D01*
X100562780Y-103969787D01*
X100542767Y-104035763D01*
X100445267Y-104218172D01*
X100314054Y-104378054D01*
X100154172Y-104509267D01*
X99971763Y-104606767D01*
X99905787Y-104626780D01*
X99773836Y-104666807D01*
X99696707Y-104674404D01*
X99619580Y-104682000D01*
X99516420Y-104682000D01*
X99439293Y-104674404D01*
X99362164Y-104666807D01*
X99230213Y-104626780D01*
X99164237Y-104606767D01*
X98981828Y-104509267D01*
X98821946Y-104378054D01*
X98690733Y-104218172D01*
X98593233Y-104035763D01*
X98573220Y-103969787D01*
X98533193Y-103837836D01*
X98512920Y-103632000D01*
X98533193Y-103426164D01*
X98593233Y-103228238D01*
X98593233Y-103228237D01*
X98690733Y-103045828D01*
X98821946Y-102885946D01*
X98981828Y-102754733D01*
X99164237Y-102657233D01*
X99230213Y-102637220D01*
X99362164Y-102597193D01*
X99439293Y-102589596D01*
X99516420Y-102582000D01*
X99619580Y-102582000D01*
X99696707Y-102589596D01*
X99696707Y-102589596D01*
G37*
G36*
X113487000Y-103726000D02*
X111337000Y-103726000D01*
X111337000Y-102776000D01*
X113487000Y-102776000D01*
X113487000Y-103726000D01*
X113487000Y-103726000D01*
G37*
G36*
X106087000Y-103726000D02*
X103937000Y-103726000D01*
X103937000Y-102776000D01*
X106087000Y-102776000D01*
X106087000Y-103726000D01*
X106087000Y-103726000D01*
G37*
G36*
X113487000Y-102456000D02*
X111337000Y-102456000D01*
X111337000Y-101506000D01*
X113487000Y-101506000D01*
X113487000Y-102456000D01*
X113487000Y-102456000D01*
G37*
G36*
X106087000Y-102456000D02*
X103937000Y-102456000D01*
X103937000Y-101506000D01*
X106087000Y-101506000D01*
X106087000Y-102456000D01*
X106087000Y-102456000D01*
G37*
G36*
X106087000Y-101186000D02*
X103937000Y-101186000D01*
X103937000Y-100236000D01*
X106087000Y-100236000D01*
X106087000Y-101186000D01*
X106087000Y-101186000D01*
G37*
G36*
X113487000Y-101186000D02*
X111337000Y-101186000D01*
X111337000Y-100236000D01*
X113487000Y-100236000D01*
X113487000Y-101186000D01*
X113487000Y-101186000D01*
G37*
G36*
X98680707Y-97509596D02*
X98757836Y-97517193D01*
X98889787Y-97557220D01*
X98955763Y-97577233D01*
X99138172Y-97674733D01*
X99298054Y-97805946D01*
X99429267Y-97965828D01*
X99526767Y-98148237D01*
X99526767Y-98148238D01*
X99586807Y-98346164D01*
X99607080Y-98552000D01*
X99586807Y-98757836D01*
X99564735Y-98830598D01*
X99526767Y-98955763D01*
X99429267Y-99138172D01*
X99298054Y-99298054D01*
X99138172Y-99429267D01*
X98955763Y-99526767D01*
X98889787Y-99546780D01*
X98757836Y-99586807D01*
X98680707Y-99594403D01*
X98603580Y-99602000D01*
X98500420Y-99602000D01*
X98423293Y-99594403D01*
X98346164Y-99586807D01*
X98214213Y-99546780D01*
X98148237Y-99526767D01*
X97965828Y-99429267D01*
X97805946Y-99298054D01*
X97674733Y-99138172D01*
X97577233Y-98955763D01*
X97539265Y-98830598D01*
X97517193Y-98757836D01*
X97496920Y-98552000D01*
X97517193Y-98346164D01*
X97577233Y-98148238D01*
X97577233Y-98148237D01*
X97674733Y-97965828D01*
X97805946Y-97805946D01*
X97965828Y-97674733D01*
X98148237Y-97577233D01*
X98214213Y-97557220D01*
X98346164Y-97517193D01*
X98423293Y-97509596D01*
X98500420Y-97502000D01*
X98603580Y-97502000D01*
X98680707Y-97509596D01*
X98680707Y-97509596D01*
G37*
G36*
X137034000Y-99458000D02*
X134934000Y-99458000D01*
X134934000Y-94598000D01*
X137034000Y-94598000D01*
X137034000Y-99458000D01*
X137034000Y-99458000D01*
G37*
G36*
X129734000Y-99458000D02*
X127634000Y-99458000D01*
X127634000Y-94598000D01*
X129734000Y-94598000D01*
X129734000Y-99458000D01*
X129734000Y-99458000D01*
G37*
G36*
X108162000Y-97620000D02*
X106012000Y-97620000D01*
X106012000Y-95420000D01*
X108162000Y-95420000D01*
X108162000Y-97620000D01*
X108162000Y-97620000D01*
G37*
G36*
X111412000Y-97620000D02*
X109262000Y-97620000D01*
X109262000Y-95420000D01*
X111412000Y-95420000D01*
X111412000Y-97620000D01*
X111412000Y-97620000D01*
G37*
G36*
X99602000Y-97062000D02*
X97502000Y-97062000D01*
X97502000Y-94962000D01*
X99602000Y-94962000D01*
X99602000Y-97062000D01*
X99602000Y-97062000D01*
G37*
G36*
X125200000Y-94364000D02*
X121300000Y-94364000D01*
X121300000Y-91564000D01*
X125200000Y-91564000D01*
X125200000Y-94364000D01*
X125200000Y-94364000D01*
G37*
G36*
X120000000Y-94364000D02*
X116100000Y-94364000D01*
X116100000Y-91564000D01*
X120000000Y-91564000D01*
X120000000Y-94364000D01*
X120000000Y-94364000D01*
G37*
G36*
X112904707Y-91921597D02*
X112981836Y-91929193D01*
X113113787Y-91969220D01*
X113179763Y-91989233D01*
X113362172Y-92086733D01*
X113522054Y-92217946D01*
X113653267Y-92377828D01*
X113750767Y-92560237D01*
X113750767Y-92560238D01*
X113810807Y-92758164D01*
X113831080Y-92964000D01*
X113810807Y-93169836D01*
X113770780Y-93301787D01*
X113750767Y-93367763D01*
X113653267Y-93550172D01*
X113522054Y-93710054D01*
X113362172Y-93841267D01*
X113179763Y-93938767D01*
X113113787Y-93958780D01*
X112981836Y-93998807D01*
X112904707Y-94006404D01*
X112827580Y-94014000D01*
X112724420Y-94014000D01*
X112647293Y-94006404D01*
X112570164Y-93998807D01*
X112438213Y-93958780D01*
X112372237Y-93938767D01*
X112189828Y-93841267D01*
X112029946Y-93710054D01*
X111898733Y-93550172D01*
X111801233Y-93367763D01*
X111781220Y-93301787D01*
X111741193Y-93169836D01*
X111720920Y-92964000D01*
X111741193Y-92758164D01*
X111801233Y-92560238D01*
X111801233Y-92560237D01*
X111898733Y-92377828D01*
X112029946Y-92217946D01*
X112189828Y-92086733D01*
X112372237Y-91989233D01*
X112438213Y-91969220D01*
X112570164Y-91929193D01*
X112647293Y-91921597D01*
X112724420Y-91914000D01*
X112827580Y-91914000D01*
X112904707Y-91921597D01*
X112904707Y-91921597D01*
G37*
G36*
X110364707Y-91921597D02*
X110441836Y-91929193D01*
X110573787Y-91969220D01*
X110639763Y-91989233D01*
X110822172Y-92086733D01*
X110982054Y-92217946D01*
X111113267Y-92377828D01*
X111210767Y-92560237D01*
X111210767Y-92560238D01*
X111270807Y-92758164D01*
X111291080Y-92964000D01*
X111270807Y-93169836D01*
X111230780Y-93301787D01*
X111210767Y-93367763D01*
X111113267Y-93550172D01*
X110982054Y-93710054D01*
X110822172Y-93841267D01*
X110639763Y-93938767D01*
X110573787Y-93958780D01*
X110441836Y-93998807D01*
X110364707Y-94006404D01*
X110287580Y-94014000D01*
X110184420Y-94014000D01*
X110107293Y-94006404D01*
X110030164Y-93998807D01*
X109898213Y-93958780D01*
X109832237Y-93938767D01*
X109649828Y-93841267D01*
X109489946Y-93710054D01*
X109358733Y-93550172D01*
X109261233Y-93367763D01*
X109241220Y-93301787D01*
X109201193Y-93169836D01*
X109180920Y-92964000D01*
X109201193Y-92758164D01*
X109261233Y-92560238D01*
X109261233Y-92560237D01*
X109358733Y-92377828D01*
X109489946Y-92217946D01*
X109649828Y-92086733D01*
X109832237Y-91989233D01*
X109898213Y-91969220D01*
X110030164Y-91929193D01*
X110107293Y-91921597D01*
X110184420Y-91914000D01*
X110287580Y-91914000D01*
X110364707Y-91921597D01*
X110364707Y-91921597D01*
G37*
G36*
X107824707Y-91921597D02*
X107901836Y-91929193D01*
X108033787Y-91969220D01*
X108099763Y-91989233D01*
X108282172Y-92086733D01*
X108442054Y-92217946D01*
X108573267Y-92377828D01*
X108670767Y-92560237D01*
X108670767Y-92560238D01*
X108730807Y-92758164D01*
X108751080Y-92964000D01*
X108730807Y-93169836D01*
X108690780Y-93301787D01*
X108670767Y-93367763D01*
X108573267Y-93550172D01*
X108442054Y-93710054D01*
X108282172Y-93841267D01*
X108099763Y-93938767D01*
X108033787Y-93958780D01*
X107901836Y-93998807D01*
X107824707Y-94006404D01*
X107747580Y-94014000D01*
X107644420Y-94014000D01*
X107567293Y-94006404D01*
X107490164Y-93998807D01*
X107358213Y-93958780D01*
X107292237Y-93938767D01*
X107109828Y-93841267D01*
X106949946Y-93710054D01*
X106818733Y-93550172D01*
X106721233Y-93367763D01*
X106701220Y-93301787D01*
X106661193Y-93169836D01*
X106640920Y-92964000D01*
X106661193Y-92758164D01*
X106721233Y-92560238D01*
X106721233Y-92560237D01*
X106818733Y-92377828D01*
X106949946Y-92217946D01*
X107109828Y-92086733D01*
X107292237Y-91989233D01*
X107358213Y-91969220D01*
X107490164Y-91929193D01*
X107567293Y-91921597D01*
X107644420Y-91914000D01*
X107747580Y-91914000D01*
X107824707Y-91921597D01*
X107824707Y-91921597D01*
G37*
G36*
X106206000Y-94014000D02*
X104106000Y-94014000D01*
X104106000Y-91914000D01*
X106206000Y-91914000D01*
X106206000Y-94014000D01*
X106206000Y-94014000D01*
G37*
M02*
