G04 #@! TF.GenerationSoftware,KiCad,Pcbnew,5.0.0-fee4fd1~66~ubuntu18.04.1*
G04 #@! TF.CreationDate,2018-08-22T21:04:53-07:00*
G04 #@! TF.ProjectId,BACEE,42414345452E6B696361645F70636200,2*
G04 #@! TF.SameCoordinates,Original*
G04 #@! TF.FileFunction,Copper,L1,Top,Signal*
G04 #@! TF.FilePolarity,Positive*
%FSLAX46Y46*%
G04 Gerber Fmt 4.6, Leading zero omitted, Abs format (unit mm)*
G04 Created by KiCad (PCBNEW 5.0.0-fee4fd1~66~ubuntu18.04.1) date Wed Aug 22 21:04:53 2018*
%MOMM*%
%LPD*%
G01*
G04 APERTURE LIST*
G04 #@! TA.AperFunction,ComponentPad*
%ADD10R,1.700000X1.700000*%
G04 #@! TD*
G04 #@! TA.AperFunction,ComponentPad*
%ADD11O,1.700000X1.700000*%
G04 #@! TD*
G04 #@! TA.AperFunction,Conductor*
%ADD12C,0.100000*%
G04 #@! TD*
G04 #@! TA.AperFunction,SMDPad,CuDef*
%ADD13C,1.150000*%
G04 #@! TD*
G04 #@! TA.AperFunction,SMDPad,CuDef*
%ADD14R,1.700000X0.650000*%
G04 #@! TD*
G04 #@! TA.AperFunction,SMDPad,CuDef*
%ADD15R,1.750000X0.550000*%
G04 #@! TD*
G04 #@! TA.AperFunction,SMDPad,CuDef*
%ADD16R,0.550000X1.500000*%
G04 #@! TD*
G04 #@! TA.AperFunction,SMDPad,CuDef*
%ADD17R,1.500000X0.550000*%
G04 #@! TD*
G04 #@! TA.AperFunction,SMDPad,CuDef*
%ADD18R,1.750000X1.800000*%
G04 #@! TD*
G04 #@! TA.AperFunction,SMDPad,CuDef*
%ADD19R,3.500000X2.400000*%
G04 #@! TD*
G04 #@! TA.AperFunction,ViaPad*
%ADD20C,0.800000*%
G04 #@! TD*
G04 #@! TA.AperFunction,Conductor*
%ADD21C,0.250000*%
G04 #@! TD*
G04 APERTURE END LIST*
D10*
G04 #@! TO.P,BT1,1*
G04 #@! TO.N,/Vcc*
X98552000Y-96012000D03*
D11*
G04 #@! TO.P,BT1,2*
G04 #@! TO.N,GND*
X98552000Y-98552000D03*
G04 #@! TD*
D12*
G04 #@! TO.N,Net-(C1-Pad1)*
G04 #@! TO.C,C1*
G36*
X123276505Y-109029204D02*
X123300773Y-109032804D01*
X123324572Y-109038765D01*
X123347671Y-109047030D01*
X123369850Y-109057520D01*
X123390893Y-109070132D01*
X123410599Y-109084747D01*
X123428777Y-109101223D01*
X123445253Y-109119401D01*
X123459868Y-109139107D01*
X123472480Y-109160150D01*
X123482970Y-109182329D01*
X123491235Y-109205428D01*
X123497196Y-109229227D01*
X123500796Y-109253495D01*
X123502000Y-109277999D01*
X123502000Y-110178001D01*
X123500796Y-110202505D01*
X123497196Y-110226773D01*
X123491235Y-110250572D01*
X123482970Y-110273671D01*
X123472480Y-110295850D01*
X123459868Y-110316893D01*
X123445253Y-110336599D01*
X123428777Y-110354777D01*
X123410599Y-110371253D01*
X123390893Y-110385868D01*
X123369850Y-110398480D01*
X123347671Y-110408970D01*
X123324572Y-110417235D01*
X123300773Y-110423196D01*
X123276505Y-110426796D01*
X123252001Y-110428000D01*
X122601999Y-110428000D01*
X122577495Y-110426796D01*
X122553227Y-110423196D01*
X122529428Y-110417235D01*
X122506329Y-110408970D01*
X122484150Y-110398480D01*
X122463107Y-110385868D01*
X122443401Y-110371253D01*
X122425223Y-110354777D01*
X122408747Y-110336599D01*
X122394132Y-110316893D01*
X122381520Y-110295850D01*
X122371030Y-110273671D01*
X122362765Y-110250572D01*
X122356804Y-110226773D01*
X122353204Y-110202505D01*
X122352000Y-110178001D01*
X122352000Y-109277999D01*
X122353204Y-109253495D01*
X122356804Y-109229227D01*
X122362765Y-109205428D01*
X122371030Y-109182329D01*
X122381520Y-109160150D01*
X122394132Y-109139107D01*
X122408747Y-109119401D01*
X122425223Y-109101223D01*
X122443401Y-109084747D01*
X122463107Y-109070132D01*
X122484150Y-109057520D01*
X122506329Y-109047030D01*
X122529428Y-109038765D01*
X122553227Y-109032804D01*
X122577495Y-109029204D01*
X122601999Y-109028000D01*
X123252001Y-109028000D01*
X123276505Y-109029204D01*
X123276505Y-109029204D01*
G37*
D13*
G04 #@! TD*
G04 #@! TO.P,C1,1*
G04 #@! TO.N,Net-(C1-Pad1)*
X122927000Y-109728000D03*
D12*
G04 #@! TO.N,GND*
G04 #@! TO.C,C1*
G36*
X125326505Y-109029204D02*
X125350773Y-109032804D01*
X125374572Y-109038765D01*
X125397671Y-109047030D01*
X125419850Y-109057520D01*
X125440893Y-109070132D01*
X125460599Y-109084747D01*
X125478777Y-109101223D01*
X125495253Y-109119401D01*
X125509868Y-109139107D01*
X125522480Y-109160150D01*
X125532970Y-109182329D01*
X125541235Y-109205428D01*
X125547196Y-109229227D01*
X125550796Y-109253495D01*
X125552000Y-109277999D01*
X125552000Y-110178001D01*
X125550796Y-110202505D01*
X125547196Y-110226773D01*
X125541235Y-110250572D01*
X125532970Y-110273671D01*
X125522480Y-110295850D01*
X125509868Y-110316893D01*
X125495253Y-110336599D01*
X125478777Y-110354777D01*
X125460599Y-110371253D01*
X125440893Y-110385868D01*
X125419850Y-110398480D01*
X125397671Y-110408970D01*
X125374572Y-110417235D01*
X125350773Y-110423196D01*
X125326505Y-110426796D01*
X125302001Y-110428000D01*
X124651999Y-110428000D01*
X124627495Y-110426796D01*
X124603227Y-110423196D01*
X124579428Y-110417235D01*
X124556329Y-110408970D01*
X124534150Y-110398480D01*
X124513107Y-110385868D01*
X124493401Y-110371253D01*
X124475223Y-110354777D01*
X124458747Y-110336599D01*
X124444132Y-110316893D01*
X124431520Y-110295850D01*
X124421030Y-110273671D01*
X124412765Y-110250572D01*
X124406804Y-110226773D01*
X124403204Y-110202505D01*
X124402000Y-110178001D01*
X124402000Y-109277999D01*
X124403204Y-109253495D01*
X124406804Y-109229227D01*
X124412765Y-109205428D01*
X124421030Y-109182329D01*
X124431520Y-109160150D01*
X124444132Y-109139107D01*
X124458747Y-109119401D01*
X124475223Y-109101223D01*
X124493401Y-109084747D01*
X124513107Y-109070132D01*
X124534150Y-109057520D01*
X124556329Y-109047030D01*
X124579428Y-109038765D01*
X124603227Y-109032804D01*
X124627495Y-109029204D01*
X124651999Y-109028000D01*
X125302001Y-109028000D01*
X125326505Y-109029204D01*
X125326505Y-109029204D01*
G37*
D13*
G04 #@! TD*
G04 #@! TO.P,C1,2*
G04 #@! TO.N,GND*
X124977000Y-109728000D03*
D12*
G04 #@! TO.N,GND*
G04 #@! TO.C,C2*
G36*
X130914505Y-109029204D02*
X130938773Y-109032804D01*
X130962572Y-109038765D01*
X130985671Y-109047030D01*
X131007850Y-109057520D01*
X131028893Y-109070132D01*
X131048599Y-109084747D01*
X131066777Y-109101223D01*
X131083253Y-109119401D01*
X131097868Y-109139107D01*
X131110480Y-109160150D01*
X131120970Y-109182329D01*
X131129235Y-109205428D01*
X131135196Y-109229227D01*
X131138796Y-109253495D01*
X131140000Y-109277999D01*
X131140000Y-110178001D01*
X131138796Y-110202505D01*
X131135196Y-110226773D01*
X131129235Y-110250572D01*
X131120970Y-110273671D01*
X131110480Y-110295850D01*
X131097868Y-110316893D01*
X131083253Y-110336599D01*
X131066777Y-110354777D01*
X131048599Y-110371253D01*
X131028893Y-110385868D01*
X131007850Y-110398480D01*
X130985671Y-110408970D01*
X130962572Y-110417235D01*
X130938773Y-110423196D01*
X130914505Y-110426796D01*
X130890001Y-110428000D01*
X130239999Y-110428000D01*
X130215495Y-110426796D01*
X130191227Y-110423196D01*
X130167428Y-110417235D01*
X130144329Y-110408970D01*
X130122150Y-110398480D01*
X130101107Y-110385868D01*
X130081401Y-110371253D01*
X130063223Y-110354777D01*
X130046747Y-110336599D01*
X130032132Y-110316893D01*
X130019520Y-110295850D01*
X130009030Y-110273671D01*
X130000765Y-110250572D01*
X129994804Y-110226773D01*
X129991204Y-110202505D01*
X129990000Y-110178001D01*
X129990000Y-109277999D01*
X129991204Y-109253495D01*
X129994804Y-109229227D01*
X130000765Y-109205428D01*
X130009030Y-109182329D01*
X130019520Y-109160150D01*
X130032132Y-109139107D01*
X130046747Y-109119401D01*
X130063223Y-109101223D01*
X130081401Y-109084747D01*
X130101107Y-109070132D01*
X130122150Y-109057520D01*
X130144329Y-109047030D01*
X130167428Y-109038765D01*
X130191227Y-109032804D01*
X130215495Y-109029204D01*
X130239999Y-109028000D01*
X130890001Y-109028000D01*
X130914505Y-109029204D01*
X130914505Y-109029204D01*
G37*
D13*
G04 #@! TD*
G04 #@! TO.P,C2,2*
G04 #@! TO.N,GND*
X130565000Y-109728000D03*
D12*
G04 #@! TO.N,Net-(C2-Pad1)*
G04 #@! TO.C,C2*
G36*
X128864505Y-109029204D02*
X128888773Y-109032804D01*
X128912572Y-109038765D01*
X128935671Y-109047030D01*
X128957850Y-109057520D01*
X128978893Y-109070132D01*
X128998599Y-109084747D01*
X129016777Y-109101223D01*
X129033253Y-109119401D01*
X129047868Y-109139107D01*
X129060480Y-109160150D01*
X129070970Y-109182329D01*
X129079235Y-109205428D01*
X129085196Y-109229227D01*
X129088796Y-109253495D01*
X129090000Y-109277999D01*
X129090000Y-110178001D01*
X129088796Y-110202505D01*
X129085196Y-110226773D01*
X129079235Y-110250572D01*
X129070970Y-110273671D01*
X129060480Y-110295850D01*
X129047868Y-110316893D01*
X129033253Y-110336599D01*
X129016777Y-110354777D01*
X128998599Y-110371253D01*
X128978893Y-110385868D01*
X128957850Y-110398480D01*
X128935671Y-110408970D01*
X128912572Y-110417235D01*
X128888773Y-110423196D01*
X128864505Y-110426796D01*
X128840001Y-110428000D01*
X128189999Y-110428000D01*
X128165495Y-110426796D01*
X128141227Y-110423196D01*
X128117428Y-110417235D01*
X128094329Y-110408970D01*
X128072150Y-110398480D01*
X128051107Y-110385868D01*
X128031401Y-110371253D01*
X128013223Y-110354777D01*
X127996747Y-110336599D01*
X127982132Y-110316893D01*
X127969520Y-110295850D01*
X127959030Y-110273671D01*
X127950765Y-110250572D01*
X127944804Y-110226773D01*
X127941204Y-110202505D01*
X127940000Y-110178001D01*
X127940000Y-109277999D01*
X127941204Y-109253495D01*
X127944804Y-109229227D01*
X127950765Y-109205428D01*
X127959030Y-109182329D01*
X127969520Y-109160150D01*
X127982132Y-109139107D01*
X127996747Y-109119401D01*
X128013223Y-109101223D01*
X128031401Y-109084747D01*
X128051107Y-109070132D01*
X128072150Y-109057520D01*
X128094329Y-109047030D01*
X128117428Y-109038765D01*
X128141227Y-109032804D01*
X128165495Y-109029204D01*
X128189999Y-109028000D01*
X128840001Y-109028000D01*
X128864505Y-109029204D01*
X128864505Y-109029204D01*
G37*
D13*
G04 #@! TD*
G04 #@! TO.P,C2,1*
G04 #@! TO.N,Net-(C2-Pad1)*
X128515000Y-109728000D03*
D12*
G04 #@! TO.N,/Vcc*
G04 #@! TO.C,C3*
G36*
X134452505Y-109029204D02*
X134476773Y-109032804D01*
X134500572Y-109038765D01*
X134523671Y-109047030D01*
X134545850Y-109057520D01*
X134566893Y-109070132D01*
X134586599Y-109084747D01*
X134604777Y-109101223D01*
X134621253Y-109119401D01*
X134635868Y-109139107D01*
X134648480Y-109160150D01*
X134658970Y-109182329D01*
X134667235Y-109205428D01*
X134673196Y-109229227D01*
X134676796Y-109253495D01*
X134678000Y-109277999D01*
X134678000Y-110178001D01*
X134676796Y-110202505D01*
X134673196Y-110226773D01*
X134667235Y-110250572D01*
X134658970Y-110273671D01*
X134648480Y-110295850D01*
X134635868Y-110316893D01*
X134621253Y-110336599D01*
X134604777Y-110354777D01*
X134586599Y-110371253D01*
X134566893Y-110385868D01*
X134545850Y-110398480D01*
X134523671Y-110408970D01*
X134500572Y-110417235D01*
X134476773Y-110423196D01*
X134452505Y-110426796D01*
X134428001Y-110428000D01*
X133777999Y-110428000D01*
X133753495Y-110426796D01*
X133729227Y-110423196D01*
X133705428Y-110417235D01*
X133682329Y-110408970D01*
X133660150Y-110398480D01*
X133639107Y-110385868D01*
X133619401Y-110371253D01*
X133601223Y-110354777D01*
X133584747Y-110336599D01*
X133570132Y-110316893D01*
X133557520Y-110295850D01*
X133547030Y-110273671D01*
X133538765Y-110250572D01*
X133532804Y-110226773D01*
X133529204Y-110202505D01*
X133528000Y-110178001D01*
X133528000Y-109277999D01*
X133529204Y-109253495D01*
X133532804Y-109229227D01*
X133538765Y-109205428D01*
X133547030Y-109182329D01*
X133557520Y-109160150D01*
X133570132Y-109139107D01*
X133584747Y-109119401D01*
X133601223Y-109101223D01*
X133619401Y-109084747D01*
X133639107Y-109070132D01*
X133660150Y-109057520D01*
X133682329Y-109047030D01*
X133705428Y-109038765D01*
X133729227Y-109032804D01*
X133753495Y-109029204D01*
X133777999Y-109028000D01*
X134428001Y-109028000D01*
X134452505Y-109029204D01*
X134452505Y-109029204D01*
G37*
D13*
G04 #@! TD*
G04 #@! TO.P,C3,1*
G04 #@! TO.N,/Vcc*
X134103000Y-109728000D03*
D12*
G04 #@! TO.N,GND*
G04 #@! TO.C,C3*
G36*
X136502505Y-109029204D02*
X136526773Y-109032804D01*
X136550572Y-109038765D01*
X136573671Y-109047030D01*
X136595850Y-109057520D01*
X136616893Y-109070132D01*
X136636599Y-109084747D01*
X136654777Y-109101223D01*
X136671253Y-109119401D01*
X136685868Y-109139107D01*
X136698480Y-109160150D01*
X136708970Y-109182329D01*
X136717235Y-109205428D01*
X136723196Y-109229227D01*
X136726796Y-109253495D01*
X136728000Y-109277999D01*
X136728000Y-110178001D01*
X136726796Y-110202505D01*
X136723196Y-110226773D01*
X136717235Y-110250572D01*
X136708970Y-110273671D01*
X136698480Y-110295850D01*
X136685868Y-110316893D01*
X136671253Y-110336599D01*
X136654777Y-110354777D01*
X136636599Y-110371253D01*
X136616893Y-110385868D01*
X136595850Y-110398480D01*
X136573671Y-110408970D01*
X136550572Y-110417235D01*
X136526773Y-110423196D01*
X136502505Y-110426796D01*
X136478001Y-110428000D01*
X135827999Y-110428000D01*
X135803495Y-110426796D01*
X135779227Y-110423196D01*
X135755428Y-110417235D01*
X135732329Y-110408970D01*
X135710150Y-110398480D01*
X135689107Y-110385868D01*
X135669401Y-110371253D01*
X135651223Y-110354777D01*
X135634747Y-110336599D01*
X135620132Y-110316893D01*
X135607520Y-110295850D01*
X135597030Y-110273671D01*
X135588765Y-110250572D01*
X135582804Y-110226773D01*
X135579204Y-110202505D01*
X135578000Y-110178001D01*
X135578000Y-109277999D01*
X135579204Y-109253495D01*
X135582804Y-109229227D01*
X135588765Y-109205428D01*
X135597030Y-109182329D01*
X135607520Y-109160150D01*
X135620132Y-109139107D01*
X135634747Y-109119401D01*
X135651223Y-109101223D01*
X135669401Y-109084747D01*
X135689107Y-109070132D01*
X135710150Y-109057520D01*
X135732329Y-109047030D01*
X135755428Y-109038765D01*
X135779227Y-109032804D01*
X135803495Y-109029204D01*
X135827999Y-109028000D01*
X136478001Y-109028000D01*
X136502505Y-109029204D01*
X136502505Y-109029204D01*
G37*
D13*
G04 #@! TD*
G04 #@! TO.P,C3,2*
G04 #@! TO.N,GND*
X136153000Y-109728000D03*
D12*
G04 #@! TO.N,Net-(D1-Pad1)*
G04 #@! TO.C,D1*
G36*
X106512505Y-109029204D02*
X106536773Y-109032804D01*
X106560572Y-109038765D01*
X106583671Y-109047030D01*
X106605850Y-109057520D01*
X106626893Y-109070132D01*
X106646599Y-109084747D01*
X106664777Y-109101223D01*
X106681253Y-109119401D01*
X106695868Y-109139107D01*
X106708480Y-109160150D01*
X106718970Y-109182329D01*
X106727235Y-109205428D01*
X106733196Y-109229227D01*
X106736796Y-109253495D01*
X106738000Y-109277999D01*
X106738000Y-110178001D01*
X106736796Y-110202505D01*
X106733196Y-110226773D01*
X106727235Y-110250572D01*
X106718970Y-110273671D01*
X106708480Y-110295850D01*
X106695868Y-110316893D01*
X106681253Y-110336599D01*
X106664777Y-110354777D01*
X106646599Y-110371253D01*
X106626893Y-110385868D01*
X106605850Y-110398480D01*
X106583671Y-110408970D01*
X106560572Y-110417235D01*
X106536773Y-110423196D01*
X106512505Y-110426796D01*
X106488001Y-110428000D01*
X105837999Y-110428000D01*
X105813495Y-110426796D01*
X105789227Y-110423196D01*
X105765428Y-110417235D01*
X105742329Y-110408970D01*
X105720150Y-110398480D01*
X105699107Y-110385868D01*
X105679401Y-110371253D01*
X105661223Y-110354777D01*
X105644747Y-110336599D01*
X105630132Y-110316893D01*
X105617520Y-110295850D01*
X105607030Y-110273671D01*
X105598765Y-110250572D01*
X105592804Y-110226773D01*
X105589204Y-110202505D01*
X105588000Y-110178001D01*
X105588000Y-109277999D01*
X105589204Y-109253495D01*
X105592804Y-109229227D01*
X105598765Y-109205428D01*
X105607030Y-109182329D01*
X105617520Y-109160150D01*
X105630132Y-109139107D01*
X105644747Y-109119401D01*
X105661223Y-109101223D01*
X105679401Y-109084747D01*
X105699107Y-109070132D01*
X105720150Y-109057520D01*
X105742329Y-109047030D01*
X105765428Y-109038765D01*
X105789227Y-109032804D01*
X105813495Y-109029204D01*
X105837999Y-109028000D01*
X106488001Y-109028000D01*
X106512505Y-109029204D01*
X106512505Y-109029204D01*
G37*
D13*
G04 #@! TD*
G04 #@! TO.P,D1,1*
G04 #@! TO.N,Net-(D1-Pad1)*
X106163000Y-109728000D03*
D12*
G04 #@! TO.N,/SCK*
G04 #@! TO.C,D1*
G36*
X108562505Y-109029204D02*
X108586773Y-109032804D01*
X108610572Y-109038765D01*
X108633671Y-109047030D01*
X108655850Y-109057520D01*
X108676893Y-109070132D01*
X108696599Y-109084747D01*
X108714777Y-109101223D01*
X108731253Y-109119401D01*
X108745868Y-109139107D01*
X108758480Y-109160150D01*
X108768970Y-109182329D01*
X108777235Y-109205428D01*
X108783196Y-109229227D01*
X108786796Y-109253495D01*
X108788000Y-109277999D01*
X108788000Y-110178001D01*
X108786796Y-110202505D01*
X108783196Y-110226773D01*
X108777235Y-110250572D01*
X108768970Y-110273671D01*
X108758480Y-110295850D01*
X108745868Y-110316893D01*
X108731253Y-110336599D01*
X108714777Y-110354777D01*
X108696599Y-110371253D01*
X108676893Y-110385868D01*
X108655850Y-110398480D01*
X108633671Y-110408970D01*
X108610572Y-110417235D01*
X108586773Y-110423196D01*
X108562505Y-110426796D01*
X108538001Y-110428000D01*
X107887999Y-110428000D01*
X107863495Y-110426796D01*
X107839227Y-110423196D01*
X107815428Y-110417235D01*
X107792329Y-110408970D01*
X107770150Y-110398480D01*
X107749107Y-110385868D01*
X107729401Y-110371253D01*
X107711223Y-110354777D01*
X107694747Y-110336599D01*
X107680132Y-110316893D01*
X107667520Y-110295850D01*
X107657030Y-110273671D01*
X107648765Y-110250572D01*
X107642804Y-110226773D01*
X107639204Y-110202505D01*
X107638000Y-110178001D01*
X107638000Y-109277999D01*
X107639204Y-109253495D01*
X107642804Y-109229227D01*
X107648765Y-109205428D01*
X107657030Y-109182329D01*
X107667520Y-109160150D01*
X107680132Y-109139107D01*
X107694747Y-109119401D01*
X107711223Y-109101223D01*
X107729401Y-109084747D01*
X107749107Y-109070132D01*
X107770150Y-109057520D01*
X107792329Y-109047030D01*
X107815428Y-109038765D01*
X107839227Y-109032804D01*
X107863495Y-109029204D01*
X107887999Y-109028000D01*
X108538001Y-109028000D01*
X108562505Y-109029204D01*
X108562505Y-109029204D01*
G37*
D13*
G04 #@! TD*
G04 #@! TO.P,D1,2*
G04 #@! TO.N,/SCK*
X108213000Y-109728000D03*
D11*
G04 #@! TO.P,J2,4*
G04 #@! TO.N,/SCK*
X108712000Y-113284000D03*
G04 #@! TO.P,J2,3*
G04 #@! TO.N,/SDA*
X106172000Y-113284000D03*
G04 #@! TO.P,J2,2*
G04 #@! TO.N,/Vcc*
X103632000Y-113284000D03*
D10*
G04 #@! TO.P,J2,1*
G04 #@! TO.N,GND*
X101092000Y-113284000D03*
G04 #@! TD*
G04 #@! TO.P,J3,1*
G04 #@! TO.N,/D2*
X112776000Y-113284000D03*
D11*
G04 #@! TO.P,J3,2*
G04 #@! TO.N,/D3*
X115316000Y-113284000D03*
G04 #@! TO.P,J3,3*
G04 #@! TO.N,/D4*
X117856000Y-113284000D03*
G04 #@! TO.P,J3,4*
G04 #@! TO.N,/D5*
X120396000Y-113284000D03*
G04 #@! TO.P,J3,5*
G04 #@! TO.N,/D6*
X122936000Y-113284000D03*
G04 #@! TO.P,J3,6*
G04 #@! TO.N,/D7*
X125476000Y-113284000D03*
G04 #@! TO.P,J3,7*
G04 #@! TO.N,/D8*
X128016000Y-113284000D03*
G04 #@! TO.P,J3,8*
G04 #@! TO.N,GND*
X130556000Y-113284000D03*
G04 #@! TO.P,J3,9*
G04 #@! TO.N,/Vcc*
X133096000Y-113284000D03*
G04 #@! TD*
D10*
G04 #@! TO.P,J4,1*
G04 #@! TO.N,GND*
X105156000Y-92964000D03*
D11*
G04 #@! TO.P,J4,2*
G04 #@! TO.N,/Vcc*
X107696000Y-92964000D03*
G04 #@! TO.P,J4,3*
G04 #@! TO.N,/RX*
X110236000Y-92964000D03*
G04 #@! TO.P,J4,4*
G04 #@! TO.N,/TX*
X112776000Y-92964000D03*
G04 #@! TD*
D10*
G04 #@! TO.P,J5,1*
G04 #@! TO.N,/MISO*
X97028000Y-103632000D03*
D11*
G04 #@! TO.P,J5,2*
G04 #@! TO.N,/Vcc*
X99568000Y-103632000D03*
G04 #@! TO.P,J5,3*
G04 #@! TO.N,/SCK*
X97028000Y-106172000D03*
G04 #@! TO.P,J5,4*
G04 #@! TO.N,/MOSI*
X99568000Y-106172000D03*
G04 #@! TO.P,J5,5*
G04 #@! TO.N,/RESET*
X97028000Y-108712000D03*
G04 #@! TO.P,J5,6*
G04 #@! TO.N,GND*
X99568000Y-108712000D03*
G04 #@! TD*
D12*
G04 #@! TO.N,Net-(D1-Pad1)*
G04 #@! TO.C,R1*
G36*
X114150505Y-109029204D02*
X114174773Y-109032804D01*
X114198572Y-109038765D01*
X114221671Y-109047030D01*
X114243850Y-109057520D01*
X114264893Y-109070132D01*
X114284599Y-109084747D01*
X114302777Y-109101223D01*
X114319253Y-109119401D01*
X114333868Y-109139107D01*
X114346480Y-109160150D01*
X114356970Y-109182329D01*
X114365235Y-109205428D01*
X114371196Y-109229227D01*
X114374796Y-109253495D01*
X114376000Y-109277999D01*
X114376000Y-110178001D01*
X114374796Y-110202505D01*
X114371196Y-110226773D01*
X114365235Y-110250572D01*
X114356970Y-110273671D01*
X114346480Y-110295850D01*
X114333868Y-110316893D01*
X114319253Y-110336599D01*
X114302777Y-110354777D01*
X114284599Y-110371253D01*
X114264893Y-110385868D01*
X114243850Y-110398480D01*
X114221671Y-110408970D01*
X114198572Y-110417235D01*
X114174773Y-110423196D01*
X114150505Y-110426796D01*
X114126001Y-110428000D01*
X113475999Y-110428000D01*
X113451495Y-110426796D01*
X113427227Y-110423196D01*
X113403428Y-110417235D01*
X113380329Y-110408970D01*
X113358150Y-110398480D01*
X113337107Y-110385868D01*
X113317401Y-110371253D01*
X113299223Y-110354777D01*
X113282747Y-110336599D01*
X113268132Y-110316893D01*
X113255520Y-110295850D01*
X113245030Y-110273671D01*
X113236765Y-110250572D01*
X113230804Y-110226773D01*
X113227204Y-110202505D01*
X113226000Y-110178001D01*
X113226000Y-109277999D01*
X113227204Y-109253495D01*
X113230804Y-109229227D01*
X113236765Y-109205428D01*
X113245030Y-109182329D01*
X113255520Y-109160150D01*
X113268132Y-109139107D01*
X113282747Y-109119401D01*
X113299223Y-109101223D01*
X113317401Y-109084747D01*
X113337107Y-109070132D01*
X113358150Y-109057520D01*
X113380329Y-109047030D01*
X113403428Y-109038765D01*
X113427227Y-109032804D01*
X113451495Y-109029204D01*
X113475999Y-109028000D01*
X114126001Y-109028000D01*
X114150505Y-109029204D01*
X114150505Y-109029204D01*
G37*
D13*
G04 #@! TD*
G04 #@! TO.P,R1,2*
G04 #@! TO.N,Net-(D1-Pad1)*
X113801000Y-109728000D03*
D12*
G04 #@! TO.N,GND*
G04 #@! TO.C,R1*
G36*
X112100505Y-109029204D02*
X112124773Y-109032804D01*
X112148572Y-109038765D01*
X112171671Y-109047030D01*
X112193850Y-109057520D01*
X112214893Y-109070132D01*
X112234599Y-109084747D01*
X112252777Y-109101223D01*
X112269253Y-109119401D01*
X112283868Y-109139107D01*
X112296480Y-109160150D01*
X112306970Y-109182329D01*
X112315235Y-109205428D01*
X112321196Y-109229227D01*
X112324796Y-109253495D01*
X112326000Y-109277999D01*
X112326000Y-110178001D01*
X112324796Y-110202505D01*
X112321196Y-110226773D01*
X112315235Y-110250572D01*
X112306970Y-110273671D01*
X112296480Y-110295850D01*
X112283868Y-110316893D01*
X112269253Y-110336599D01*
X112252777Y-110354777D01*
X112234599Y-110371253D01*
X112214893Y-110385868D01*
X112193850Y-110398480D01*
X112171671Y-110408970D01*
X112148572Y-110417235D01*
X112124773Y-110423196D01*
X112100505Y-110426796D01*
X112076001Y-110428000D01*
X111425999Y-110428000D01*
X111401495Y-110426796D01*
X111377227Y-110423196D01*
X111353428Y-110417235D01*
X111330329Y-110408970D01*
X111308150Y-110398480D01*
X111287107Y-110385868D01*
X111267401Y-110371253D01*
X111249223Y-110354777D01*
X111232747Y-110336599D01*
X111218132Y-110316893D01*
X111205520Y-110295850D01*
X111195030Y-110273671D01*
X111186765Y-110250572D01*
X111180804Y-110226773D01*
X111177204Y-110202505D01*
X111176000Y-110178001D01*
X111176000Y-109277999D01*
X111177204Y-109253495D01*
X111180804Y-109229227D01*
X111186765Y-109205428D01*
X111195030Y-109182329D01*
X111205520Y-109160150D01*
X111218132Y-109139107D01*
X111232747Y-109119401D01*
X111249223Y-109101223D01*
X111267401Y-109084747D01*
X111287107Y-109070132D01*
X111308150Y-109057520D01*
X111330329Y-109047030D01*
X111353428Y-109038765D01*
X111377227Y-109032804D01*
X111401495Y-109029204D01*
X111425999Y-109028000D01*
X112076001Y-109028000D01*
X112100505Y-109029204D01*
X112100505Y-109029204D01*
G37*
D13*
G04 #@! TD*
G04 #@! TO.P,R1,1*
G04 #@! TO.N,GND*
X111751000Y-109728000D03*
D12*
G04 #@! TO.N,/RESET*
G04 #@! TO.C,R2*
G36*
X117688505Y-109029204D02*
X117712773Y-109032804D01*
X117736572Y-109038765D01*
X117759671Y-109047030D01*
X117781850Y-109057520D01*
X117802893Y-109070132D01*
X117822599Y-109084747D01*
X117840777Y-109101223D01*
X117857253Y-109119401D01*
X117871868Y-109139107D01*
X117884480Y-109160150D01*
X117894970Y-109182329D01*
X117903235Y-109205428D01*
X117909196Y-109229227D01*
X117912796Y-109253495D01*
X117914000Y-109277999D01*
X117914000Y-110178001D01*
X117912796Y-110202505D01*
X117909196Y-110226773D01*
X117903235Y-110250572D01*
X117894970Y-110273671D01*
X117884480Y-110295850D01*
X117871868Y-110316893D01*
X117857253Y-110336599D01*
X117840777Y-110354777D01*
X117822599Y-110371253D01*
X117802893Y-110385868D01*
X117781850Y-110398480D01*
X117759671Y-110408970D01*
X117736572Y-110417235D01*
X117712773Y-110423196D01*
X117688505Y-110426796D01*
X117664001Y-110428000D01*
X117013999Y-110428000D01*
X116989495Y-110426796D01*
X116965227Y-110423196D01*
X116941428Y-110417235D01*
X116918329Y-110408970D01*
X116896150Y-110398480D01*
X116875107Y-110385868D01*
X116855401Y-110371253D01*
X116837223Y-110354777D01*
X116820747Y-110336599D01*
X116806132Y-110316893D01*
X116793520Y-110295850D01*
X116783030Y-110273671D01*
X116774765Y-110250572D01*
X116768804Y-110226773D01*
X116765204Y-110202505D01*
X116764000Y-110178001D01*
X116764000Y-109277999D01*
X116765204Y-109253495D01*
X116768804Y-109229227D01*
X116774765Y-109205428D01*
X116783030Y-109182329D01*
X116793520Y-109160150D01*
X116806132Y-109139107D01*
X116820747Y-109119401D01*
X116837223Y-109101223D01*
X116855401Y-109084747D01*
X116875107Y-109070132D01*
X116896150Y-109057520D01*
X116918329Y-109047030D01*
X116941428Y-109038765D01*
X116965227Y-109032804D01*
X116989495Y-109029204D01*
X117013999Y-109028000D01*
X117664001Y-109028000D01*
X117688505Y-109029204D01*
X117688505Y-109029204D01*
G37*
D13*
G04 #@! TD*
G04 #@! TO.P,R2,1*
G04 #@! TO.N,/RESET*
X117339000Y-109728000D03*
D12*
G04 #@! TO.N,/Vcc*
G04 #@! TO.C,R2*
G36*
X119738505Y-109029204D02*
X119762773Y-109032804D01*
X119786572Y-109038765D01*
X119809671Y-109047030D01*
X119831850Y-109057520D01*
X119852893Y-109070132D01*
X119872599Y-109084747D01*
X119890777Y-109101223D01*
X119907253Y-109119401D01*
X119921868Y-109139107D01*
X119934480Y-109160150D01*
X119944970Y-109182329D01*
X119953235Y-109205428D01*
X119959196Y-109229227D01*
X119962796Y-109253495D01*
X119964000Y-109277999D01*
X119964000Y-110178001D01*
X119962796Y-110202505D01*
X119959196Y-110226773D01*
X119953235Y-110250572D01*
X119944970Y-110273671D01*
X119934480Y-110295850D01*
X119921868Y-110316893D01*
X119907253Y-110336599D01*
X119890777Y-110354777D01*
X119872599Y-110371253D01*
X119852893Y-110385868D01*
X119831850Y-110398480D01*
X119809671Y-110408970D01*
X119786572Y-110417235D01*
X119762773Y-110423196D01*
X119738505Y-110426796D01*
X119714001Y-110428000D01*
X119063999Y-110428000D01*
X119039495Y-110426796D01*
X119015227Y-110423196D01*
X118991428Y-110417235D01*
X118968329Y-110408970D01*
X118946150Y-110398480D01*
X118925107Y-110385868D01*
X118905401Y-110371253D01*
X118887223Y-110354777D01*
X118870747Y-110336599D01*
X118856132Y-110316893D01*
X118843520Y-110295850D01*
X118833030Y-110273671D01*
X118824765Y-110250572D01*
X118818804Y-110226773D01*
X118815204Y-110202505D01*
X118814000Y-110178001D01*
X118814000Y-109277999D01*
X118815204Y-109253495D01*
X118818804Y-109229227D01*
X118824765Y-109205428D01*
X118833030Y-109182329D01*
X118843520Y-109160150D01*
X118856132Y-109139107D01*
X118870747Y-109119401D01*
X118887223Y-109101223D01*
X118905401Y-109084747D01*
X118925107Y-109070132D01*
X118946150Y-109057520D01*
X118968329Y-109047030D01*
X118991428Y-109038765D01*
X119015227Y-109032804D01*
X119039495Y-109029204D01*
X119063999Y-109028000D01*
X119714001Y-109028000D01*
X119738505Y-109029204D01*
X119738505Y-109029204D01*
G37*
D13*
G04 #@! TD*
G04 #@! TO.P,R2,2*
G04 #@! TO.N,/Vcc*
X119389000Y-109728000D03*
D14*
G04 #@! TO.P,U1,1*
G04 #@! TO.N,/ADDS1*
X128684000Y-95123000D03*
G04 #@! TO.P,U1,2*
G04 #@! TO.N,/ADDS2*
X128684000Y-96393000D03*
G04 #@! TO.P,U1,3*
G04 #@! TO.N,/Vcc*
X128684000Y-97663000D03*
G04 #@! TO.P,U1,4*
G04 #@! TO.N,GND*
X128684000Y-98933000D03*
G04 #@! TO.P,U1,5*
G04 #@! TO.N,/SDA*
X135984000Y-98933000D03*
G04 #@! TO.P,U1,6*
G04 #@! TO.N,/SCK*
X135984000Y-97663000D03*
G04 #@! TO.P,U1,7*
G04 #@! TO.N,GND*
X135984000Y-96393000D03*
G04 #@! TO.P,U1,8*
G04 #@! TO.N,/Vcc*
X135984000Y-95123000D03*
G04 #@! TD*
D15*
G04 #@! TO.P,U2,1*
G04 #@! TO.N,Net-(U2-Pad1)*
X105012000Y-100711000D03*
G04 #@! TO.P,U2,2*
G04 #@! TO.N,Net-(U2-Pad2)*
X105012000Y-101981000D03*
G04 #@! TO.P,U2,3*
G04 #@! TO.N,/Vcc*
X105012000Y-103251000D03*
G04 #@! TO.P,U2,4*
G04 #@! TO.N,GND*
X105012000Y-104521000D03*
G04 #@! TO.P,U2,5*
G04 #@! TO.N,/SDA*
X112412000Y-104521000D03*
G04 #@! TO.P,U2,6*
G04 #@! TO.N,/SCK*
X112412000Y-103251000D03*
G04 #@! TO.P,U2,7*
G04 #@! TO.N,Net-(U2-Pad7)*
X112412000Y-101981000D03*
G04 #@! TO.P,U2,8*
G04 #@! TO.N,/Vcc*
X112412000Y-100711000D03*
G04 #@! TD*
D14*
G04 #@! TO.P,U3,8*
G04 #@! TO.N,/Vcc*
X135984000Y-102235000D03*
G04 #@! TO.P,U3,7*
G04 #@! TO.N,GND*
X135984000Y-103505000D03*
G04 #@! TO.P,U3,6*
G04 #@! TO.N,/SCK*
X135984000Y-104775000D03*
G04 #@! TO.P,U3,5*
G04 #@! TO.N,/SDA*
X135984000Y-106045000D03*
G04 #@! TO.P,U3,4*
G04 #@! TO.N,GND*
X128684000Y-106045000D03*
G04 #@! TO.P,U3,3*
G04 #@! TO.N,/Vcc*
X128684000Y-104775000D03*
G04 #@! TO.P,U3,2*
G04 #@! TO.N,/ADDS2*
X128684000Y-103505000D03*
G04 #@! TO.P,U3,1*
G04 #@! TO.N,/ADDS1*
X128684000Y-102235000D03*
G04 #@! TD*
D16*
G04 #@! TO.P,U4,9*
G04 #@! TO.N,/D5*
X117596000Y-106308000D03*
D17*
G04 #@! TO.P,U4,1*
G04 #@! TO.N,/D3*
X116196000Y-99308000D03*
G04 #@! TO.P,U4,2*
G04 #@! TO.N,/D4*
X116196000Y-100108000D03*
G04 #@! TO.P,U4,3*
G04 #@! TO.N,GND*
X116196000Y-100908000D03*
G04 #@! TO.P,U4,4*
G04 #@! TO.N,/Vcc*
X116196000Y-101708000D03*
G04 #@! TO.P,U4,5*
G04 #@! TO.N,GND*
X116196000Y-102508000D03*
G04 #@! TO.P,U4,6*
G04 #@! TO.N,/Vcc*
X116196000Y-103308000D03*
G04 #@! TO.P,U4,7*
G04 #@! TO.N,Net-(C1-Pad1)*
X116196000Y-104108000D03*
G04 #@! TO.P,U4,8*
G04 #@! TO.N,Net-(C2-Pad1)*
X116196000Y-104908000D03*
D16*
G04 #@! TO.P,U4,10*
G04 #@! TO.N,/D6*
X118396000Y-106308000D03*
G04 #@! TO.P,U4,11*
G04 #@! TO.N,/D7*
X119196000Y-106308000D03*
G04 #@! TO.P,U4,12*
G04 #@! TO.N,/D8*
X119996000Y-106308000D03*
G04 #@! TO.P,U4,13*
G04 #@! TO.N,Net-(U4-Pad13)*
X120796000Y-106308000D03*
G04 #@! TO.P,U4,14*
G04 #@! TO.N,Net-(U4-Pad14)*
X121596000Y-106308000D03*
G04 #@! TO.P,U4,15*
G04 #@! TO.N,/MOSI*
X122396000Y-106308000D03*
G04 #@! TO.P,U4,16*
G04 #@! TO.N,/MISO*
X123196000Y-106308000D03*
D17*
G04 #@! TO.P,U4,17*
G04 #@! TO.N,/SCK*
X124596000Y-104908000D03*
G04 #@! TO.P,U4,18*
G04 #@! TO.N,/Vcc*
X124596000Y-104108000D03*
G04 #@! TO.P,U4,19*
G04 #@! TO.N,Net-(U4-Pad19)*
X124596000Y-103308000D03*
G04 #@! TO.P,U4,20*
G04 #@! TO.N,/Vcc*
X124596000Y-102508000D03*
G04 #@! TO.P,U4,21*
G04 #@! TO.N,GND*
X124596000Y-101708000D03*
G04 #@! TO.P,U4,22*
G04 #@! TO.N,Net-(U4-Pad22)*
X124596000Y-100908000D03*
G04 #@! TO.P,U4,23*
G04 #@! TO.N,/ADDS1*
X124596000Y-100108000D03*
G04 #@! TO.P,U4,24*
G04 #@! TO.N,/ADDS2*
X124596000Y-99308000D03*
D16*
G04 #@! TO.P,U4,25*
G04 #@! TO.N,Net-(U4-Pad25)*
X123196000Y-97908000D03*
G04 #@! TO.P,U4,26*
G04 #@! TO.N,Net-(U4-Pad26)*
X122396000Y-97908000D03*
G04 #@! TO.P,U4,27*
G04 #@! TO.N,/SDA*
X121596000Y-97908000D03*
G04 #@! TO.P,U4,28*
G04 #@! TO.N,Net-(U4-Pad28)*
X120796000Y-97908000D03*
G04 #@! TO.P,U4,29*
G04 #@! TO.N,/RESET*
X119996000Y-97908000D03*
G04 #@! TO.P,U4,30*
G04 #@! TO.N,/RX*
X119196000Y-97908000D03*
G04 #@! TO.P,U4,31*
G04 #@! TO.N,/TX*
X118396000Y-97908000D03*
G04 #@! TO.P,U4,32*
G04 #@! TO.N,/D2*
X117596000Y-97908000D03*
G04 #@! TD*
D18*
G04 #@! TO.P,Y1,1*
G04 #@! TO.N,Net-(U2-Pad2)*
X107087000Y-96520000D03*
G04 #@! TO.P,Y1,2*
G04 #@! TO.N,Net-(U2-Pad1)*
X110337000Y-96520000D03*
G04 #@! TD*
D19*
G04 #@! TO.P,Y2,1*
G04 #@! TO.N,Net-(C1-Pad1)*
X118050000Y-92964000D03*
G04 #@! TO.P,Y2,2*
G04 #@! TO.N,Net-(C2-Pad1)*
X123250000Y-92964000D03*
G04 #@! TD*
D20*
G04 #@! TO.N,/Vcc*
X126855000Y-105173300D03*
G04 #@! TO.N,Net-(C1-Pad1)*
X121719400Y-109145900D03*
X118383300Y-95592600D03*
X118456400Y-104012300D03*
G04 #@! TO.N,Net-(C2-Pad1)*
X126403000Y-109369900D03*
X121756200Y-95849900D03*
X119200100Y-104908000D03*
G04 #@! TO.N,/SCK*
X134393200Y-98108300D03*
X132700300Y-104544900D03*
G04 #@! TO.N,/SDA*
X132176300Y-105856200D03*
X122036700Y-99281600D03*
G04 #@! TO.N,/D2*
X115164800Y-97908000D03*
G04 #@! TO.N,/D3*
X114836200Y-99319200D03*
G04 #@! TO.N,/D4*
X117604700Y-100176800D03*
G04 #@! TO.N,/D6*
X118396000Y-107661800D03*
G04 #@! TO.N,/MISO*
X131890800Y-107167500D03*
G04 #@! TO.N,/MOSI*
X123685200Y-107689100D03*
G04 #@! TD*
D21*
G04 #@! TO.N,/Vcc*
X126855000Y-104775000D02*
X126855000Y-105173300D01*
X116196000Y-103308000D02*
X117271300Y-103308000D01*
X117739600Y-102508000D02*
X117271300Y-102976300D01*
X117271300Y-102976300D02*
X117271300Y-103308000D01*
X117271300Y-101708000D02*
X117739600Y-102176300D01*
X117739600Y-102176300D02*
X117739600Y-102508000D01*
X123520700Y-102508000D02*
X117739600Y-102508000D01*
X126855000Y-104775000D02*
X128684000Y-104775000D01*
X125671300Y-104108000D02*
X126338300Y-104775000D01*
X126338300Y-104775000D02*
X126855000Y-104775000D01*
X125558700Y-104108000D02*
X125671300Y-104108000D01*
X125671300Y-104108000D02*
X125671300Y-102508000D01*
X128684000Y-104775000D02*
X129859300Y-104775000D01*
X130729500Y-102235000D02*
X130729500Y-102008300D01*
X130729500Y-102008300D02*
X129428100Y-100706900D01*
X129428100Y-100706900D02*
X128791100Y-100706900D01*
X128791100Y-100706900D02*
X127508700Y-99424500D01*
X127508700Y-99424500D02*
X127508700Y-97663000D01*
X134808700Y-102235000D02*
X130729500Y-102235000D01*
X129859300Y-104775000D02*
X130729500Y-103904800D01*
X130729500Y-103904800D02*
X130729500Y-102235000D01*
X124596000Y-104108000D02*
X125558700Y-104108000D01*
X128684000Y-97663000D02*
X127508700Y-97663000D01*
X135984000Y-102235000D02*
X134808700Y-102235000D01*
X101059800Y-99327800D02*
X98919300Y-97187300D01*
X98919300Y-97187300D02*
X98552000Y-97187300D01*
X101124300Y-103251000D02*
X101124300Y-99392300D01*
X101124300Y-99392300D02*
X101059800Y-99327800D01*
X106520700Y-92964000D02*
X106520700Y-93866900D01*
X106520700Y-93866900D02*
X101059800Y-99327800D01*
X107696000Y-92964000D02*
X106520700Y-92964000D01*
X98552000Y-96012000D02*
X98552000Y-97187300D01*
X101124300Y-103251000D02*
X105012000Y-103251000D01*
X100743300Y-103632000D02*
X101124300Y-103251000D01*
X112412000Y-100711000D02*
X113612300Y-100711000D01*
X113612300Y-100711000D02*
X114609300Y-101708000D01*
X114609300Y-101708000D02*
X115120700Y-101708000D01*
X116196000Y-101708000D02*
X117271300Y-101708000D01*
X116196000Y-101708000D02*
X115120700Y-101708000D01*
X105012000Y-103251000D02*
X106212300Y-103251000D01*
X111211700Y-100711000D02*
X108752300Y-100711000D01*
X108752300Y-100711000D02*
X106212300Y-103251000D01*
X124596000Y-102508000D02*
X123520700Y-102508000D01*
X129159100Y-97663000D02*
X128684000Y-97663000D01*
X129159100Y-97663000D02*
X129859300Y-97663000D01*
X135984000Y-95123000D02*
X132399300Y-95123000D01*
X132399300Y-95123000D02*
X129859300Y-97663000D01*
X112412000Y-100711000D02*
X111211700Y-100711000D01*
X119389000Y-109728000D02*
X121666000Y-112005000D01*
X121666000Y-112005000D02*
X121666000Y-113706600D01*
X121666000Y-113706600D02*
X122418700Y-114459300D01*
X122418700Y-114459300D02*
X131112800Y-114459300D01*
X131112800Y-114459300D02*
X131920700Y-113651400D01*
X131920700Y-113651400D02*
X131920700Y-113284000D01*
X133096000Y-113284000D02*
X131920700Y-113284000D01*
X133096000Y-113284000D02*
X133096000Y-112108700D01*
X133096000Y-112108700D02*
X134103000Y-111101700D01*
X134103000Y-111101700D02*
X134103000Y-109728000D01*
X99568000Y-103632000D02*
X100743300Y-103632000D01*
X124596000Y-102508000D02*
X125671300Y-102508000D01*
G04 #@! TO.N,GND*
X135984000Y-96393000D02*
X134808700Y-96393000D01*
X133339400Y-98933000D02*
X133588200Y-99181800D01*
X133588200Y-99181800D02*
X134570600Y-99181800D01*
X134570600Y-99181800D02*
X137159300Y-101770500D01*
X137159300Y-101770500D02*
X137159300Y-103505000D01*
X128684000Y-98933000D02*
X133339400Y-98933000D01*
X134808700Y-96393000D02*
X133339400Y-97862300D01*
X133339400Y-97862300D02*
X133339400Y-98933000D01*
X135125100Y-108700100D02*
X136153000Y-109728000D01*
X130565000Y-109728000D02*
X131592900Y-108700100D01*
X131592900Y-108700100D02*
X135125100Y-108700100D01*
X137159300Y-103505000D02*
X137159300Y-106665900D01*
X137159300Y-106665900D02*
X135125100Y-108700100D01*
X135984000Y-103505000D02*
X137159300Y-103505000D01*
X129859300Y-106045000D02*
X132399300Y-103505000D01*
X132399300Y-103505000D02*
X135984000Y-103505000D01*
X124058400Y-101708000D02*
X124596000Y-101708000D01*
X130556000Y-110818600D02*
X126067600Y-110818600D01*
X126067600Y-110818600D02*
X124977000Y-109728000D01*
X130565000Y-109728000D02*
X130565000Y-110809600D01*
X130565000Y-110809600D02*
X130556000Y-110818600D01*
X130556000Y-110818600D02*
X130556000Y-112108700D01*
X130556000Y-113284000D02*
X130556000Y-112108700D01*
X124058400Y-101708000D02*
X123520700Y-101708000D01*
X100743300Y-104817800D02*
X103514900Y-104817800D01*
X103514900Y-104817800D02*
X103811700Y-104521000D01*
X98552000Y-99727300D02*
X98392600Y-99886700D01*
X98392600Y-99886700D02*
X98392600Y-104120800D01*
X98392600Y-104120800D02*
X99089600Y-104817800D01*
X99089600Y-104817800D02*
X100743300Y-104817800D01*
X100743300Y-108712000D02*
X100743300Y-104817800D01*
X98552000Y-98552000D02*
X98552000Y-99727300D01*
X123520700Y-101708000D02*
X122720700Y-100908000D01*
X122720700Y-100908000D02*
X117271300Y-100908000D01*
X99568000Y-108712000D02*
X100743300Y-108712000D01*
X105012000Y-104521000D02*
X103811700Y-104521000D01*
X105156000Y-92964000D02*
X106369200Y-91750800D01*
X106369200Y-91750800D02*
X108240500Y-91750800D01*
X108240500Y-91750800D02*
X108966000Y-92476300D01*
X108966000Y-92476300D02*
X108966000Y-93424100D01*
X108966000Y-93424100D02*
X110760500Y-95218600D01*
X110760500Y-95218600D02*
X111270700Y-95218600D01*
X111270700Y-95218600D02*
X113876100Y-97824000D01*
X113876100Y-97824000D02*
X113876100Y-99663400D01*
X113876100Y-99663400D02*
X115120700Y-100908000D01*
X116196000Y-100908000D02*
X115120700Y-100908000D01*
X105012000Y-104521000D02*
X106212300Y-104521000D01*
X106212300Y-104521000D02*
X108082700Y-102650600D01*
X108082700Y-102650600D02*
X114121300Y-102650600D01*
X114121300Y-102650600D02*
X114978100Y-102650600D01*
X114978100Y-102650600D02*
X115120700Y-102508000D01*
X114121300Y-102650600D02*
X114121300Y-107357700D01*
X114121300Y-107357700D02*
X111751000Y-109728000D01*
X116493000Y-100908000D02*
X116196000Y-100908000D01*
X116493000Y-100908000D02*
X117271300Y-100908000D01*
X116196000Y-102508000D02*
X115120700Y-102508000D01*
X129583900Y-106045000D02*
X129859300Y-106045000D01*
X128684000Y-106045000D02*
X129383500Y-106045000D01*
X129383500Y-106045000D02*
X129583900Y-106045000D01*
G04 #@! TO.N,Net-(C1-Pad1)*
X121719400Y-109145900D02*
X122344900Y-109145900D01*
X122344900Y-109145900D02*
X122927000Y-109728000D01*
X118050000Y-94489300D02*
X118383300Y-94822600D01*
X118383300Y-94822600D02*
X118383300Y-95592600D01*
X118050000Y-92964000D02*
X118050000Y-94489300D01*
X117271300Y-104108000D02*
X117367000Y-104012300D01*
X117367000Y-104012300D02*
X118456400Y-104012300D01*
X116196000Y-104108000D02*
X117271300Y-104108000D01*
G04 #@! TO.N,Net-(C2-Pad1)*
X126403000Y-109369900D02*
X128156900Y-109369900D01*
X128156900Y-109369900D02*
X128515000Y-109728000D01*
X123250000Y-92964000D02*
X123250000Y-94489300D01*
X123250000Y-94489300D02*
X123116800Y-94489300D01*
X123116800Y-94489300D02*
X121756200Y-95849900D01*
X119200100Y-104908000D02*
X116196000Y-104908000D01*
G04 #@! TO.N,Net-(D1-Pad1)*
X113801000Y-109728000D02*
X113455100Y-109728000D01*
X113455100Y-109728000D02*
X110669600Y-112513500D01*
X110669600Y-112513500D02*
X110669600Y-113035100D01*
X110669600Y-113035100D02*
X109227300Y-114477400D01*
X109227300Y-114477400D02*
X105691300Y-114477400D01*
X105691300Y-114477400D02*
X104988000Y-113774100D01*
X104988000Y-113774100D02*
X104988000Y-110903000D01*
X104988000Y-110903000D02*
X106163000Y-109728000D01*
G04 #@! TO.N,/SCK*
X135984000Y-97663000D02*
X134808700Y-97663000D01*
X134393200Y-98108300D02*
X134808700Y-97692800D01*
X134808700Y-97692800D02*
X134808700Y-97663000D01*
X132700300Y-104544900D02*
X132461900Y-104544900D01*
X132461900Y-104544900D02*
X130289700Y-106717100D01*
X130289700Y-106717100D02*
X127325500Y-106717100D01*
X127325500Y-106717100D02*
X125671300Y-105062900D01*
X125671300Y-105062900D02*
X125671300Y-104908000D01*
X134808700Y-104775000D02*
X134578600Y-104544900D01*
X134578600Y-104544900D02*
X132700300Y-104544900D01*
X135984000Y-104775000D02*
X134808700Y-104775000D01*
X124596000Y-104908000D02*
X125671300Y-104908000D01*
X108213000Y-109728000D02*
X108830400Y-109728000D01*
X108830400Y-109728000D02*
X113612300Y-104946100D01*
X113612300Y-104946100D02*
X113612300Y-103251000D01*
X108712000Y-112108700D02*
X108213000Y-111609700D01*
X108213000Y-111609700D02*
X108213000Y-109728000D01*
X112412000Y-103251000D02*
X113612300Y-103251000D01*
X108712000Y-113284000D02*
X108712000Y-112108700D01*
G04 #@! TO.N,/SDA*
X135984000Y-106045000D02*
X134808700Y-106045000D01*
X132176300Y-105856200D02*
X134619900Y-105856200D01*
X134619900Y-105856200D02*
X134808700Y-106045000D01*
X137159300Y-98933000D02*
X137159300Y-94585200D01*
X137159300Y-94585200D02*
X136556600Y-93982500D01*
X136556600Y-93982500D02*
X126483900Y-93982500D01*
X126483900Y-93982500D02*
X123633700Y-96832700D01*
X123633700Y-96832700D02*
X121596000Y-96832700D01*
X121596000Y-98983300D02*
X121738400Y-98983300D01*
X121738400Y-98983300D02*
X122036700Y-99281600D01*
X135984000Y-98933000D02*
X137159300Y-98933000D01*
X121596000Y-97908000D02*
X121596000Y-96832700D01*
X121596000Y-98333000D02*
X121596000Y-97908000D01*
X121596000Y-98333000D02*
X121596000Y-98983300D01*
X112412000Y-104521000D02*
X111211700Y-104521000D01*
X106172000Y-113284000D02*
X106172000Y-112108700D01*
X106172000Y-112108700D02*
X107190300Y-111090400D01*
X107190300Y-111090400D02*
X107190300Y-108542400D01*
X107190300Y-108542400D02*
X111211700Y-104521000D01*
G04 #@! TO.N,/D2*
X117596000Y-97908000D02*
X115164800Y-97908000D01*
G04 #@! TO.N,/D3*
X115120700Y-99308000D02*
X115109500Y-99319200D01*
X115109500Y-99319200D02*
X114836200Y-99319200D01*
X116196000Y-99308000D02*
X115120700Y-99308000D01*
G04 #@! TO.N,/D4*
X116196000Y-100108000D02*
X117535900Y-100108000D01*
X117535900Y-100108000D02*
X117604700Y-100176800D01*
G04 #@! TO.N,/D5*
X120396000Y-113284000D02*
X120396000Y-112108700D01*
X117596000Y-106308000D02*
X117596000Y-108253300D01*
X117596000Y-108253300D02*
X118240400Y-108897700D01*
X118240400Y-108897700D02*
X118240400Y-110173500D01*
X118240400Y-110173500D02*
X120175600Y-112108700D01*
X120175600Y-112108700D02*
X120396000Y-112108700D01*
G04 #@! TO.N,/D6*
X118396000Y-106308000D02*
X118396000Y-107661800D01*
G04 #@! TO.N,/D7*
X119196000Y-107383300D02*
X119196000Y-107811900D01*
X119196000Y-107811900D02*
X124300700Y-112916600D01*
X124300700Y-112916600D02*
X124300700Y-113284000D01*
X125476000Y-113284000D02*
X124300700Y-113284000D01*
X119196000Y-106308000D02*
X119196000Y-107383300D01*
G04 #@! TO.N,/D8*
X128016000Y-113284000D02*
X126840700Y-113284000D01*
X119996000Y-106308000D02*
X119996000Y-107383300D01*
X119996000Y-107383300D02*
X121027200Y-108414500D01*
X121027200Y-108414500D02*
X123225300Y-108414500D01*
X123225300Y-108414500D02*
X123952000Y-109141200D01*
X123952000Y-109141200D02*
X123952000Y-110344100D01*
X123952000Y-110344100D02*
X125716600Y-112108700D01*
X125716600Y-112108700D02*
X125997700Y-112108700D01*
X125997700Y-112108700D02*
X126840700Y-112951700D01*
X126840700Y-112951700D02*
X126840700Y-113284000D01*
G04 #@! TO.N,/RX*
X111411300Y-92964000D02*
X111411300Y-92596600D01*
X111411300Y-92596600D02*
X112219200Y-91788700D01*
X112219200Y-91788700D02*
X113461500Y-91788700D01*
X113461500Y-91788700D02*
X117990700Y-96317900D01*
X117990700Y-96317900D02*
X118681200Y-96317900D01*
X118681200Y-96317900D02*
X119196000Y-96832700D01*
X110236000Y-92964000D02*
X111411300Y-92964000D01*
X119196000Y-97908000D02*
X119196000Y-96832700D01*
G04 #@! TO.N,/TX*
X112776000Y-92964000D02*
X113951300Y-92964000D01*
X118396000Y-97908000D02*
X118396000Y-96832700D01*
X118396000Y-96832700D02*
X117820000Y-96832700D01*
X117820000Y-96832700D02*
X113951300Y-92964000D01*
G04 #@! TO.N,/MISO*
X123196000Y-106308000D02*
X125443200Y-106308000D01*
X125443200Y-106308000D02*
X126302700Y-107167500D01*
X126302700Y-107167500D02*
X131890800Y-107167500D01*
G04 #@! TO.N,/MOSI*
X122396000Y-107383300D02*
X123379400Y-107383300D01*
X123379400Y-107383300D02*
X123685200Y-107689100D01*
X122396000Y-106308000D02*
X122396000Y-107383300D01*
G04 #@! TO.N,/RESET*
X97028000Y-108712000D02*
X97028000Y-107536700D01*
X119996000Y-97908000D02*
X119996000Y-96832700D01*
X119996000Y-96832700D02*
X120194300Y-96634400D01*
X120194300Y-96634400D02*
X120194300Y-91694400D01*
X120194300Y-91694400D02*
X119767300Y-91267400D01*
X119767300Y-91267400D02*
X101132500Y-91267400D01*
X101132500Y-91267400D02*
X95852700Y-96547200D01*
X95852700Y-96547200D02*
X95852700Y-106728800D01*
X95852700Y-106728800D02*
X96660600Y-107536700D01*
X96660600Y-107536700D02*
X97028000Y-107536700D01*
X97028000Y-108712000D02*
X98203300Y-108712000D01*
X98203300Y-108712000D02*
X98203300Y-109079400D01*
X98203300Y-109079400D02*
X99011200Y-109887300D01*
X99011200Y-109887300D02*
X99922900Y-109887300D01*
X99922900Y-109887300D02*
X102267400Y-112231800D01*
X102267400Y-112231800D02*
X102267400Y-113607200D01*
X102267400Y-113607200D02*
X103640800Y-114980600D01*
X103640800Y-114980600D02*
X109417500Y-114980600D01*
X109417500Y-114980600D02*
X111496700Y-112901400D01*
X111496700Y-112901400D02*
X111496700Y-112395600D01*
X111496700Y-112395600D02*
X112508600Y-111383700D01*
X112508600Y-111383700D02*
X115683300Y-111383700D01*
X115683300Y-111383700D02*
X117339000Y-109728000D01*
G04 #@! TO.N,/ADDS1*
X128684000Y-95123000D02*
X127508700Y-95123000D01*
X127508700Y-95123000D02*
X126017900Y-96613800D01*
X126017900Y-96613800D02*
X126017900Y-100108000D01*
X126017900Y-100108000D02*
X127508700Y-101598800D01*
X127508700Y-101598800D02*
X127508700Y-102235000D01*
X125671300Y-100108000D02*
X126017900Y-100108000D01*
X124596000Y-100108000D02*
X125671300Y-100108000D01*
X128684000Y-102235000D02*
X127508700Y-102235000D01*
G04 #@! TO.N,/ADDS2*
X128684000Y-96393000D02*
X127508700Y-96393000D01*
X128684000Y-103505000D02*
X129859300Y-103505000D01*
X129859300Y-103505000D02*
X129859300Y-101775000D01*
X129859300Y-101775000D02*
X129400800Y-101316500D01*
X129400800Y-101316500D02*
X128744500Y-101316500D01*
X128744500Y-101316500D02*
X127058300Y-99630300D01*
X127058300Y-99630300D02*
X127058300Y-96843400D01*
X127058300Y-96843400D02*
X127508700Y-96393000D01*
X128684000Y-96393000D02*
X129859300Y-96393000D01*
X124596000Y-99308000D02*
X124596000Y-97396600D01*
X124596000Y-97396600D02*
X127559700Y-94432900D01*
X127559700Y-94432900D02*
X129644900Y-94432900D01*
X129644900Y-94432900D02*
X129859300Y-94647300D01*
X129859300Y-94647300D02*
X129859300Y-96393000D01*
G04 #@! TO.N,Net-(U2-Pad1)*
X105012000Y-100711000D02*
X106212300Y-100711000D01*
X110337000Y-96520000D02*
X109136700Y-96520000D01*
X109136700Y-96520000D02*
X109136700Y-97786600D01*
X109136700Y-97786600D02*
X106212300Y-100711000D01*
G04 #@! TO.N,Net-(U2-Pad2)*
X105012000Y-101981000D02*
X103811700Y-101981000D01*
X107087000Y-96520000D02*
X105886700Y-96520000D01*
X105886700Y-96520000D02*
X103811700Y-98595000D01*
X103811700Y-98595000D02*
X103811700Y-101981000D01*
G04 #@! TD*
M02*
