M48
INCH,TZ
T1C0.0157
T2C0.0394
%
G90
G05
T1
X45211Y-39102
X45340Y-38546
X46301Y-39440
X46608Y-37635
X46613Y-42387
X46636Y-40950
X46929Y-41302
X47921Y-42971
X47936Y-37736
X48046Y-39087
X48695Y-42397
X49765Y-43059
X49943Y-41407
X51926Y-42192
X52038Y-41676
X52244Y-41159
X52911Y-38625
T2
X41400Y-36600
X42400Y-36600
X43400Y-36600
X44400Y-36600
X38200Y-40800
X38200Y-41800
X38200Y-42800
X39200Y-40800
X39200Y-41800
X39200Y-42800
X38800Y-37800
X38800Y-38800
X44400Y-44600
X45400Y-44600
X46400Y-44600
X47400Y-44600
X48400Y-44600
X49400Y-44600
X50400Y-44600
X51400Y-44600
X52400Y-44600
X39800Y-44600
X40800Y-44600
X41800Y-44600
X42800Y-44600
T0
M30
