G04 #@! TF.GenerationSoftware,KiCad,Pcbnew,5.0.2-bee76a0~70~ubuntu18.04.1*
G04 #@! TF.CreationDate,2019-02-19T10:16:34+11:00*
G04 #@! TF.ProjectId,BACEE,42414345-452e-46b6-9963-61645f706362,2*
G04 #@! TF.SameCoordinates,Original*
G04 #@! TF.FileFunction,Copper,L1,Top*
G04 #@! TF.FilePolarity,Positive*
%FSLAX46Y46*%
G04 Gerber Fmt 4.6, Leading zero omitted, Abs format (unit mm)*
G04 Created by KiCad (PCBNEW 5.0.2-bee76a0~70~ubuntu18.04.1) date Tue 19 Feb 2019 10:16:34 AM AEDT*
%MOMM*%
%LPD*%
G01*
G04 APERTURE LIST*
G04 #@! TA.AperFunction,ComponentPad*
%ADD10R,1.700000X1.700000*%
G04 #@! TD*
G04 #@! TA.AperFunction,ComponentPad*
%ADD11O,1.700000X1.700000*%
G04 #@! TD*
G04 #@! TA.AperFunction,Conductor*
%ADD12C,0.100000*%
G04 #@! TD*
G04 #@! TA.AperFunction,SMDPad,CuDef*
%ADD13C,1.150000*%
G04 #@! TD*
G04 #@! TA.AperFunction,SMDPad,CuDef*
%ADD14R,1.700000X0.650000*%
G04 #@! TD*
G04 #@! TA.AperFunction,SMDPad,CuDef*
%ADD15R,1.750000X0.550000*%
G04 #@! TD*
G04 #@! TA.AperFunction,SMDPad,CuDef*
%ADD16R,0.550000X1.500000*%
G04 #@! TD*
G04 #@! TA.AperFunction,SMDPad,CuDef*
%ADD17R,1.500000X0.550000*%
G04 #@! TD*
G04 #@! TA.AperFunction,SMDPad,CuDef*
%ADD18R,1.750000X1.800000*%
G04 #@! TD*
G04 #@! TA.AperFunction,SMDPad,CuDef*
%ADD19R,3.500000X2.400000*%
G04 #@! TD*
G04 #@! TA.AperFunction,ViaPad*
%ADD20C,0.800000*%
G04 #@! TD*
G04 #@! TA.AperFunction,Conductor*
%ADD21C,0.250000*%
G04 #@! TD*
G04 APERTURE END LIST*
D10*
G04 #@! TO.P,BT1,1*
G04 #@! TO.N,/Vcc*
X98552000Y-96012000D03*
D11*
G04 #@! TO.P,BT1,2*
G04 #@! TO.N,GNDPWR*
X98552000Y-98552000D03*
G04 #@! TD*
D12*
G04 #@! TO.N,Net-(C1-Pad1)*
G04 #@! TO.C,C1*
G36*
X123276505Y-109029204D02*
X123300773Y-109032804D01*
X123324572Y-109038765D01*
X123347671Y-109047030D01*
X123369850Y-109057520D01*
X123390893Y-109070132D01*
X123410599Y-109084747D01*
X123428777Y-109101223D01*
X123445253Y-109119401D01*
X123459868Y-109139107D01*
X123472480Y-109160150D01*
X123482970Y-109182329D01*
X123491235Y-109205428D01*
X123497196Y-109229227D01*
X123500796Y-109253495D01*
X123502000Y-109277999D01*
X123502000Y-110178001D01*
X123500796Y-110202505D01*
X123497196Y-110226773D01*
X123491235Y-110250572D01*
X123482970Y-110273671D01*
X123472480Y-110295850D01*
X123459868Y-110316893D01*
X123445253Y-110336599D01*
X123428777Y-110354777D01*
X123410599Y-110371253D01*
X123390893Y-110385868D01*
X123369850Y-110398480D01*
X123347671Y-110408970D01*
X123324572Y-110417235D01*
X123300773Y-110423196D01*
X123276505Y-110426796D01*
X123252001Y-110428000D01*
X122601999Y-110428000D01*
X122577495Y-110426796D01*
X122553227Y-110423196D01*
X122529428Y-110417235D01*
X122506329Y-110408970D01*
X122484150Y-110398480D01*
X122463107Y-110385868D01*
X122443401Y-110371253D01*
X122425223Y-110354777D01*
X122408747Y-110336599D01*
X122394132Y-110316893D01*
X122381520Y-110295850D01*
X122371030Y-110273671D01*
X122362765Y-110250572D01*
X122356804Y-110226773D01*
X122353204Y-110202505D01*
X122352000Y-110178001D01*
X122352000Y-109277999D01*
X122353204Y-109253495D01*
X122356804Y-109229227D01*
X122362765Y-109205428D01*
X122371030Y-109182329D01*
X122381520Y-109160150D01*
X122394132Y-109139107D01*
X122408747Y-109119401D01*
X122425223Y-109101223D01*
X122443401Y-109084747D01*
X122463107Y-109070132D01*
X122484150Y-109057520D01*
X122506329Y-109047030D01*
X122529428Y-109038765D01*
X122553227Y-109032804D01*
X122577495Y-109029204D01*
X122601999Y-109028000D01*
X123252001Y-109028000D01*
X123276505Y-109029204D01*
X123276505Y-109029204D01*
G37*
D13*
G04 #@! TD*
G04 #@! TO.P,C1,1*
G04 #@! TO.N,Net-(C1-Pad1)*
X122927000Y-109728000D03*
D12*
G04 #@! TO.N,GNDPWR*
G04 #@! TO.C,C1*
G36*
X125326505Y-109029204D02*
X125350773Y-109032804D01*
X125374572Y-109038765D01*
X125397671Y-109047030D01*
X125419850Y-109057520D01*
X125440893Y-109070132D01*
X125460599Y-109084747D01*
X125478777Y-109101223D01*
X125495253Y-109119401D01*
X125509868Y-109139107D01*
X125522480Y-109160150D01*
X125532970Y-109182329D01*
X125541235Y-109205428D01*
X125547196Y-109229227D01*
X125550796Y-109253495D01*
X125552000Y-109277999D01*
X125552000Y-110178001D01*
X125550796Y-110202505D01*
X125547196Y-110226773D01*
X125541235Y-110250572D01*
X125532970Y-110273671D01*
X125522480Y-110295850D01*
X125509868Y-110316893D01*
X125495253Y-110336599D01*
X125478777Y-110354777D01*
X125460599Y-110371253D01*
X125440893Y-110385868D01*
X125419850Y-110398480D01*
X125397671Y-110408970D01*
X125374572Y-110417235D01*
X125350773Y-110423196D01*
X125326505Y-110426796D01*
X125302001Y-110428000D01*
X124651999Y-110428000D01*
X124627495Y-110426796D01*
X124603227Y-110423196D01*
X124579428Y-110417235D01*
X124556329Y-110408970D01*
X124534150Y-110398480D01*
X124513107Y-110385868D01*
X124493401Y-110371253D01*
X124475223Y-110354777D01*
X124458747Y-110336599D01*
X124444132Y-110316893D01*
X124431520Y-110295850D01*
X124421030Y-110273671D01*
X124412765Y-110250572D01*
X124406804Y-110226773D01*
X124403204Y-110202505D01*
X124402000Y-110178001D01*
X124402000Y-109277999D01*
X124403204Y-109253495D01*
X124406804Y-109229227D01*
X124412765Y-109205428D01*
X124421030Y-109182329D01*
X124431520Y-109160150D01*
X124444132Y-109139107D01*
X124458747Y-109119401D01*
X124475223Y-109101223D01*
X124493401Y-109084747D01*
X124513107Y-109070132D01*
X124534150Y-109057520D01*
X124556329Y-109047030D01*
X124579428Y-109038765D01*
X124603227Y-109032804D01*
X124627495Y-109029204D01*
X124651999Y-109028000D01*
X125302001Y-109028000D01*
X125326505Y-109029204D01*
X125326505Y-109029204D01*
G37*
D13*
G04 #@! TD*
G04 #@! TO.P,C1,2*
G04 #@! TO.N,GNDPWR*
X124977000Y-109728000D03*
D12*
G04 #@! TO.N,GNDPWR*
G04 #@! TO.C,C2*
G36*
X130914505Y-109029204D02*
X130938773Y-109032804D01*
X130962572Y-109038765D01*
X130985671Y-109047030D01*
X131007850Y-109057520D01*
X131028893Y-109070132D01*
X131048599Y-109084747D01*
X131066777Y-109101223D01*
X131083253Y-109119401D01*
X131097868Y-109139107D01*
X131110480Y-109160150D01*
X131120970Y-109182329D01*
X131129235Y-109205428D01*
X131135196Y-109229227D01*
X131138796Y-109253495D01*
X131140000Y-109277999D01*
X131140000Y-110178001D01*
X131138796Y-110202505D01*
X131135196Y-110226773D01*
X131129235Y-110250572D01*
X131120970Y-110273671D01*
X131110480Y-110295850D01*
X131097868Y-110316893D01*
X131083253Y-110336599D01*
X131066777Y-110354777D01*
X131048599Y-110371253D01*
X131028893Y-110385868D01*
X131007850Y-110398480D01*
X130985671Y-110408970D01*
X130962572Y-110417235D01*
X130938773Y-110423196D01*
X130914505Y-110426796D01*
X130890001Y-110428000D01*
X130239999Y-110428000D01*
X130215495Y-110426796D01*
X130191227Y-110423196D01*
X130167428Y-110417235D01*
X130144329Y-110408970D01*
X130122150Y-110398480D01*
X130101107Y-110385868D01*
X130081401Y-110371253D01*
X130063223Y-110354777D01*
X130046747Y-110336599D01*
X130032132Y-110316893D01*
X130019520Y-110295850D01*
X130009030Y-110273671D01*
X130000765Y-110250572D01*
X129994804Y-110226773D01*
X129991204Y-110202505D01*
X129990000Y-110178001D01*
X129990000Y-109277999D01*
X129991204Y-109253495D01*
X129994804Y-109229227D01*
X130000765Y-109205428D01*
X130009030Y-109182329D01*
X130019520Y-109160150D01*
X130032132Y-109139107D01*
X130046747Y-109119401D01*
X130063223Y-109101223D01*
X130081401Y-109084747D01*
X130101107Y-109070132D01*
X130122150Y-109057520D01*
X130144329Y-109047030D01*
X130167428Y-109038765D01*
X130191227Y-109032804D01*
X130215495Y-109029204D01*
X130239999Y-109028000D01*
X130890001Y-109028000D01*
X130914505Y-109029204D01*
X130914505Y-109029204D01*
G37*
D13*
G04 #@! TD*
G04 #@! TO.P,C2,2*
G04 #@! TO.N,GNDPWR*
X130565000Y-109728000D03*
D12*
G04 #@! TO.N,Net-(C2-Pad1)*
G04 #@! TO.C,C2*
G36*
X128864505Y-109029204D02*
X128888773Y-109032804D01*
X128912572Y-109038765D01*
X128935671Y-109047030D01*
X128957850Y-109057520D01*
X128978893Y-109070132D01*
X128998599Y-109084747D01*
X129016777Y-109101223D01*
X129033253Y-109119401D01*
X129047868Y-109139107D01*
X129060480Y-109160150D01*
X129070970Y-109182329D01*
X129079235Y-109205428D01*
X129085196Y-109229227D01*
X129088796Y-109253495D01*
X129090000Y-109277999D01*
X129090000Y-110178001D01*
X129088796Y-110202505D01*
X129085196Y-110226773D01*
X129079235Y-110250572D01*
X129070970Y-110273671D01*
X129060480Y-110295850D01*
X129047868Y-110316893D01*
X129033253Y-110336599D01*
X129016777Y-110354777D01*
X128998599Y-110371253D01*
X128978893Y-110385868D01*
X128957850Y-110398480D01*
X128935671Y-110408970D01*
X128912572Y-110417235D01*
X128888773Y-110423196D01*
X128864505Y-110426796D01*
X128840001Y-110428000D01*
X128189999Y-110428000D01*
X128165495Y-110426796D01*
X128141227Y-110423196D01*
X128117428Y-110417235D01*
X128094329Y-110408970D01*
X128072150Y-110398480D01*
X128051107Y-110385868D01*
X128031401Y-110371253D01*
X128013223Y-110354777D01*
X127996747Y-110336599D01*
X127982132Y-110316893D01*
X127969520Y-110295850D01*
X127959030Y-110273671D01*
X127950765Y-110250572D01*
X127944804Y-110226773D01*
X127941204Y-110202505D01*
X127940000Y-110178001D01*
X127940000Y-109277999D01*
X127941204Y-109253495D01*
X127944804Y-109229227D01*
X127950765Y-109205428D01*
X127959030Y-109182329D01*
X127969520Y-109160150D01*
X127982132Y-109139107D01*
X127996747Y-109119401D01*
X128013223Y-109101223D01*
X128031401Y-109084747D01*
X128051107Y-109070132D01*
X128072150Y-109057520D01*
X128094329Y-109047030D01*
X128117428Y-109038765D01*
X128141227Y-109032804D01*
X128165495Y-109029204D01*
X128189999Y-109028000D01*
X128840001Y-109028000D01*
X128864505Y-109029204D01*
X128864505Y-109029204D01*
G37*
D13*
G04 #@! TD*
G04 #@! TO.P,C2,1*
G04 #@! TO.N,Net-(C2-Pad1)*
X128515000Y-109728000D03*
D12*
G04 #@! TO.N,/Vcc*
G04 #@! TO.C,C3*
G36*
X134452505Y-109029204D02*
X134476773Y-109032804D01*
X134500572Y-109038765D01*
X134523671Y-109047030D01*
X134545850Y-109057520D01*
X134566893Y-109070132D01*
X134586599Y-109084747D01*
X134604777Y-109101223D01*
X134621253Y-109119401D01*
X134635868Y-109139107D01*
X134648480Y-109160150D01*
X134658970Y-109182329D01*
X134667235Y-109205428D01*
X134673196Y-109229227D01*
X134676796Y-109253495D01*
X134678000Y-109277999D01*
X134678000Y-110178001D01*
X134676796Y-110202505D01*
X134673196Y-110226773D01*
X134667235Y-110250572D01*
X134658970Y-110273671D01*
X134648480Y-110295850D01*
X134635868Y-110316893D01*
X134621253Y-110336599D01*
X134604777Y-110354777D01*
X134586599Y-110371253D01*
X134566893Y-110385868D01*
X134545850Y-110398480D01*
X134523671Y-110408970D01*
X134500572Y-110417235D01*
X134476773Y-110423196D01*
X134452505Y-110426796D01*
X134428001Y-110428000D01*
X133777999Y-110428000D01*
X133753495Y-110426796D01*
X133729227Y-110423196D01*
X133705428Y-110417235D01*
X133682329Y-110408970D01*
X133660150Y-110398480D01*
X133639107Y-110385868D01*
X133619401Y-110371253D01*
X133601223Y-110354777D01*
X133584747Y-110336599D01*
X133570132Y-110316893D01*
X133557520Y-110295850D01*
X133547030Y-110273671D01*
X133538765Y-110250572D01*
X133532804Y-110226773D01*
X133529204Y-110202505D01*
X133528000Y-110178001D01*
X133528000Y-109277999D01*
X133529204Y-109253495D01*
X133532804Y-109229227D01*
X133538765Y-109205428D01*
X133547030Y-109182329D01*
X133557520Y-109160150D01*
X133570132Y-109139107D01*
X133584747Y-109119401D01*
X133601223Y-109101223D01*
X133619401Y-109084747D01*
X133639107Y-109070132D01*
X133660150Y-109057520D01*
X133682329Y-109047030D01*
X133705428Y-109038765D01*
X133729227Y-109032804D01*
X133753495Y-109029204D01*
X133777999Y-109028000D01*
X134428001Y-109028000D01*
X134452505Y-109029204D01*
X134452505Y-109029204D01*
G37*
D13*
G04 #@! TD*
G04 #@! TO.P,C3,1*
G04 #@! TO.N,/Vcc*
X134103000Y-109728000D03*
D12*
G04 #@! TO.N,GNDPWR*
G04 #@! TO.C,C3*
G36*
X136502505Y-109029204D02*
X136526773Y-109032804D01*
X136550572Y-109038765D01*
X136573671Y-109047030D01*
X136595850Y-109057520D01*
X136616893Y-109070132D01*
X136636599Y-109084747D01*
X136654777Y-109101223D01*
X136671253Y-109119401D01*
X136685868Y-109139107D01*
X136698480Y-109160150D01*
X136708970Y-109182329D01*
X136717235Y-109205428D01*
X136723196Y-109229227D01*
X136726796Y-109253495D01*
X136728000Y-109277999D01*
X136728000Y-110178001D01*
X136726796Y-110202505D01*
X136723196Y-110226773D01*
X136717235Y-110250572D01*
X136708970Y-110273671D01*
X136698480Y-110295850D01*
X136685868Y-110316893D01*
X136671253Y-110336599D01*
X136654777Y-110354777D01*
X136636599Y-110371253D01*
X136616893Y-110385868D01*
X136595850Y-110398480D01*
X136573671Y-110408970D01*
X136550572Y-110417235D01*
X136526773Y-110423196D01*
X136502505Y-110426796D01*
X136478001Y-110428000D01*
X135827999Y-110428000D01*
X135803495Y-110426796D01*
X135779227Y-110423196D01*
X135755428Y-110417235D01*
X135732329Y-110408970D01*
X135710150Y-110398480D01*
X135689107Y-110385868D01*
X135669401Y-110371253D01*
X135651223Y-110354777D01*
X135634747Y-110336599D01*
X135620132Y-110316893D01*
X135607520Y-110295850D01*
X135597030Y-110273671D01*
X135588765Y-110250572D01*
X135582804Y-110226773D01*
X135579204Y-110202505D01*
X135578000Y-110178001D01*
X135578000Y-109277999D01*
X135579204Y-109253495D01*
X135582804Y-109229227D01*
X135588765Y-109205428D01*
X135597030Y-109182329D01*
X135607520Y-109160150D01*
X135620132Y-109139107D01*
X135634747Y-109119401D01*
X135651223Y-109101223D01*
X135669401Y-109084747D01*
X135689107Y-109070132D01*
X135710150Y-109057520D01*
X135732329Y-109047030D01*
X135755428Y-109038765D01*
X135779227Y-109032804D01*
X135803495Y-109029204D01*
X135827999Y-109028000D01*
X136478001Y-109028000D01*
X136502505Y-109029204D01*
X136502505Y-109029204D01*
G37*
D13*
G04 #@! TD*
G04 #@! TO.P,C3,2*
G04 #@! TO.N,GNDPWR*
X136153000Y-109728000D03*
D11*
G04 #@! TO.P,J2,4*
G04 #@! TO.N,/SCK*
X108712000Y-113284000D03*
G04 #@! TO.P,J2,3*
G04 #@! TO.N,/SDA*
X106172000Y-113284000D03*
G04 #@! TO.P,J2,2*
G04 #@! TO.N,/Vcc*
X103632000Y-113284000D03*
D10*
G04 #@! TO.P,J2,1*
G04 #@! TO.N,GNDPWR*
X101092000Y-113284000D03*
G04 #@! TD*
G04 #@! TO.P,J3,1*
G04 #@! TO.N,/D2*
X112776000Y-113284000D03*
D11*
G04 #@! TO.P,J3,2*
G04 #@! TO.N,/D3*
X115316000Y-113284000D03*
G04 #@! TO.P,J3,3*
G04 #@! TO.N,/D4*
X117856000Y-113284000D03*
G04 #@! TO.P,J3,4*
G04 #@! TO.N,/D5*
X120396000Y-113284000D03*
G04 #@! TO.P,J3,5*
G04 #@! TO.N,/D6*
X122936000Y-113284000D03*
G04 #@! TO.P,J3,6*
G04 #@! TO.N,/D7*
X125476000Y-113284000D03*
G04 #@! TO.P,J3,7*
G04 #@! TO.N,/D8*
X128016000Y-113284000D03*
G04 #@! TO.P,J3,8*
G04 #@! TO.N,GNDPWR*
X130556000Y-113284000D03*
G04 #@! TO.P,J3,9*
G04 #@! TO.N,/Vcc*
X133096000Y-113284000D03*
G04 #@! TD*
D10*
G04 #@! TO.P,J4,1*
G04 #@! TO.N,GNDPWR*
X105156000Y-92964000D03*
D11*
G04 #@! TO.P,J4,2*
G04 #@! TO.N,/Vcc*
X107696000Y-92964000D03*
G04 #@! TO.P,J4,3*
G04 #@! TO.N,/RX*
X110236000Y-92964000D03*
G04 #@! TO.P,J4,4*
G04 #@! TO.N,/TX*
X112776000Y-92964000D03*
G04 #@! TD*
D10*
G04 #@! TO.P,J5,1*
G04 #@! TO.N,/MISO*
X97028000Y-103632000D03*
D11*
G04 #@! TO.P,J5,2*
G04 #@! TO.N,/Vcc*
X99568000Y-103632000D03*
G04 #@! TO.P,J5,3*
G04 #@! TO.N,/SCK*
X97028000Y-106172000D03*
G04 #@! TO.P,J5,4*
G04 #@! TO.N,/MOSI*
X99568000Y-106172000D03*
G04 #@! TO.P,J5,5*
G04 #@! TO.N,/RESET*
X97028000Y-108712000D03*
G04 #@! TO.P,J5,6*
G04 #@! TO.N,GNDPWR*
X99568000Y-108712000D03*
G04 #@! TD*
D12*
G04 #@! TO.N,Net-(DS1-Pad1)*
G04 #@! TO.C,R1*
G36*
X114150505Y-109029204D02*
X114174773Y-109032804D01*
X114198572Y-109038765D01*
X114221671Y-109047030D01*
X114243850Y-109057520D01*
X114264893Y-109070132D01*
X114284599Y-109084747D01*
X114302777Y-109101223D01*
X114319253Y-109119401D01*
X114333868Y-109139107D01*
X114346480Y-109160150D01*
X114356970Y-109182329D01*
X114365235Y-109205428D01*
X114371196Y-109229227D01*
X114374796Y-109253495D01*
X114376000Y-109277999D01*
X114376000Y-110178001D01*
X114374796Y-110202505D01*
X114371196Y-110226773D01*
X114365235Y-110250572D01*
X114356970Y-110273671D01*
X114346480Y-110295850D01*
X114333868Y-110316893D01*
X114319253Y-110336599D01*
X114302777Y-110354777D01*
X114284599Y-110371253D01*
X114264893Y-110385868D01*
X114243850Y-110398480D01*
X114221671Y-110408970D01*
X114198572Y-110417235D01*
X114174773Y-110423196D01*
X114150505Y-110426796D01*
X114126001Y-110428000D01*
X113475999Y-110428000D01*
X113451495Y-110426796D01*
X113427227Y-110423196D01*
X113403428Y-110417235D01*
X113380329Y-110408970D01*
X113358150Y-110398480D01*
X113337107Y-110385868D01*
X113317401Y-110371253D01*
X113299223Y-110354777D01*
X113282747Y-110336599D01*
X113268132Y-110316893D01*
X113255520Y-110295850D01*
X113245030Y-110273671D01*
X113236765Y-110250572D01*
X113230804Y-110226773D01*
X113227204Y-110202505D01*
X113226000Y-110178001D01*
X113226000Y-109277999D01*
X113227204Y-109253495D01*
X113230804Y-109229227D01*
X113236765Y-109205428D01*
X113245030Y-109182329D01*
X113255520Y-109160150D01*
X113268132Y-109139107D01*
X113282747Y-109119401D01*
X113299223Y-109101223D01*
X113317401Y-109084747D01*
X113337107Y-109070132D01*
X113358150Y-109057520D01*
X113380329Y-109047030D01*
X113403428Y-109038765D01*
X113427227Y-109032804D01*
X113451495Y-109029204D01*
X113475999Y-109028000D01*
X114126001Y-109028000D01*
X114150505Y-109029204D01*
X114150505Y-109029204D01*
G37*
D13*
G04 #@! TD*
G04 #@! TO.P,R1,2*
G04 #@! TO.N,Net-(DS1-Pad1)*
X113801000Y-109728000D03*
D12*
G04 #@! TO.N,GNDPWR*
G04 #@! TO.C,R1*
G36*
X112100505Y-109029204D02*
X112124773Y-109032804D01*
X112148572Y-109038765D01*
X112171671Y-109047030D01*
X112193850Y-109057520D01*
X112214893Y-109070132D01*
X112234599Y-109084747D01*
X112252777Y-109101223D01*
X112269253Y-109119401D01*
X112283868Y-109139107D01*
X112296480Y-109160150D01*
X112306970Y-109182329D01*
X112315235Y-109205428D01*
X112321196Y-109229227D01*
X112324796Y-109253495D01*
X112326000Y-109277999D01*
X112326000Y-110178001D01*
X112324796Y-110202505D01*
X112321196Y-110226773D01*
X112315235Y-110250572D01*
X112306970Y-110273671D01*
X112296480Y-110295850D01*
X112283868Y-110316893D01*
X112269253Y-110336599D01*
X112252777Y-110354777D01*
X112234599Y-110371253D01*
X112214893Y-110385868D01*
X112193850Y-110398480D01*
X112171671Y-110408970D01*
X112148572Y-110417235D01*
X112124773Y-110423196D01*
X112100505Y-110426796D01*
X112076001Y-110428000D01*
X111425999Y-110428000D01*
X111401495Y-110426796D01*
X111377227Y-110423196D01*
X111353428Y-110417235D01*
X111330329Y-110408970D01*
X111308150Y-110398480D01*
X111287107Y-110385868D01*
X111267401Y-110371253D01*
X111249223Y-110354777D01*
X111232747Y-110336599D01*
X111218132Y-110316893D01*
X111205520Y-110295850D01*
X111195030Y-110273671D01*
X111186765Y-110250572D01*
X111180804Y-110226773D01*
X111177204Y-110202505D01*
X111176000Y-110178001D01*
X111176000Y-109277999D01*
X111177204Y-109253495D01*
X111180804Y-109229227D01*
X111186765Y-109205428D01*
X111195030Y-109182329D01*
X111205520Y-109160150D01*
X111218132Y-109139107D01*
X111232747Y-109119401D01*
X111249223Y-109101223D01*
X111267401Y-109084747D01*
X111287107Y-109070132D01*
X111308150Y-109057520D01*
X111330329Y-109047030D01*
X111353428Y-109038765D01*
X111377227Y-109032804D01*
X111401495Y-109029204D01*
X111425999Y-109028000D01*
X112076001Y-109028000D01*
X112100505Y-109029204D01*
X112100505Y-109029204D01*
G37*
D13*
G04 #@! TD*
G04 #@! TO.P,R1,1*
G04 #@! TO.N,GNDPWR*
X111751000Y-109728000D03*
D12*
G04 #@! TO.N,/RESET*
G04 #@! TO.C,R2*
G36*
X117688505Y-109029204D02*
X117712773Y-109032804D01*
X117736572Y-109038765D01*
X117759671Y-109047030D01*
X117781850Y-109057520D01*
X117802893Y-109070132D01*
X117822599Y-109084747D01*
X117840777Y-109101223D01*
X117857253Y-109119401D01*
X117871868Y-109139107D01*
X117884480Y-109160150D01*
X117894970Y-109182329D01*
X117903235Y-109205428D01*
X117909196Y-109229227D01*
X117912796Y-109253495D01*
X117914000Y-109277999D01*
X117914000Y-110178001D01*
X117912796Y-110202505D01*
X117909196Y-110226773D01*
X117903235Y-110250572D01*
X117894970Y-110273671D01*
X117884480Y-110295850D01*
X117871868Y-110316893D01*
X117857253Y-110336599D01*
X117840777Y-110354777D01*
X117822599Y-110371253D01*
X117802893Y-110385868D01*
X117781850Y-110398480D01*
X117759671Y-110408970D01*
X117736572Y-110417235D01*
X117712773Y-110423196D01*
X117688505Y-110426796D01*
X117664001Y-110428000D01*
X117013999Y-110428000D01*
X116989495Y-110426796D01*
X116965227Y-110423196D01*
X116941428Y-110417235D01*
X116918329Y-110408970D01*
X116896150Y-110398480D01*
X116875107Y-110385868D01*
X116855401Y-110371253D01*
X116837223Y-110354777D01*
X116820747Y-110336599D01*
X116806132Y-110316893D01*
X116793520Y-110295850D01*
X116783030Y-110273671D01*
X116774765Y-110250572D01*
X116768804Y-110226773D01*
X116765204Y-110202505D01*
X116764000Y-110178001D01*
X116764000Y-109277999D01*
X116765204Y-109253495D01*
X116768804Y-109229227D01*
X116774765Y-109205428D01*
X116783030Y-109182329D01*
X116793520Y-109160150D01*
X116806132Y-109139107D01*
X116820747Y-109119401D01*
X116837223Y-109101223D01*
X116855401Y-109084747D01*
X116875107Y-109070132D01*
X116896150Y-109057520D01*
X116918329Y-109047030D01*
X116941428Y-109038765D01*
X116965227Y-109032804D01*
X116989495Y-109029204D01*
X117013999Y-109028000D01*
X117664001Y-109028000D01*
X117688505Y-109029204D01*
X117688505Y-109029204D01*
G37*
D13*
G04 #@! TD*
G04 #@! TO.P,R2,1*
G04 #@! TO.N,/RESET*
X117339000Y-109728000D03*
D12*
G04 #@! TO.N,/Vcc*
G04 #@! TO.C,R2*
G36*
X119738505Y-109029204D02*
X119762773Y-109032804D01*
X119786572Y-109038765D01*
X119809671Y-109047030D01*
X119831850Y-109057520D01*
X119852893Y-109070132D01*
X119872599Y-109084747D01*
X119890777Y-109101223D01*
X119907253Y-109119401D01*
X119921868Y-109139107D01*
X119934480Y-109160150D01*
X119944970Y-109182329D01*
X119953235Y-109205428D01*
X119959196Y-109229227D01*
X119962796Y-109253495D01*
X119964000Y-109277999D01*
X119964000Y-110178001D01*
X119962796Y-110202505D01*
X119959196Y-110226773D01*
X119953235Y-110250572D01*
X119944970Y-110273671D01*
X119934480Y-110295850D01*
X119921868Y-110316893D01*
X119907253Y-110336599D01*
X119890777Y-110354777D01*
X119872599Y-110371253D01*
X119852893Y-110385868D01*
X119831850Y-110398480D01*
X119809671Y-110408970D01*
X119786572Y-110417235D01*
X119762773Y-110423196D01*
X119738505Y-110426796D01*
X119714001Y-110428000D01*
X119063999Y-110428000D01*
X119039495Y-110426796D01*
X119015227Y-110423196D01*
X118991428Y-110417235D01*
X118968329Y-110408970D01*
X118946150Y-110398480D01*
X118925107Y-110385868D01*
X118905401Y-110371253D01*
X118887223Y-110354777D01*
X118870747Y-110336599D01*
X118856132Y-110316893D01*
X118843520Y-110295850D01*
X118833030Y-110273671D01*
X118824765Y-110250572D01*
X118818804Y-110226773D01*
X118815204Y-110202505D01*
X118814000Y-110178001D01*
X118814000Y-109277999D01*
X118815204Y-109253495D01*
X118818804Y-109229227D01*
X118824765Y-109205428D01*
X118833030Y-109182329D01*
X118843520Y-109160150D01*
X118856132Y-109139107D01*
X118870747Y-109119401D01*
X118887223Y-109101223D01*
X118905401Y-109084747D01*
X118925107Y-109070132D01*
X118946150Y-109057520D01*
X118968329Y-109047030D01*
X118991428Y-109038765D01*
X119015227Y-109032804D01*
X119039495Y-109029204D01*
X119063999Y-109028000D01*
X119714001Y-109028000D01*
X119738505Y-109029204D01*
X119738505Y-109029204D01*
G37*
D13*
G04 #@! TD*
G04 #@! TO.P,R2,2*
G04 #@! TO.N,/Vcc*
X119389000Y-109728000D03*
D14*
G04 #@! TO.P,U1,1*
G04 #@! TO.N,/Vcc*
X128684000Y-95123000D03*
G04 #@! TO.P,U1,2*
X128684000Y-96393000D03*
G04 #@! TO.P,U1,3*
X128684000Y-97663000D03*
G04 #@! TO.P,U1,4*
G04 #@! TO.N,GNDPWR*
X128684000Y-98933000D03*
G04 #@! TO.P,U1,5*
G04 #@! TO.N,/SDA*
X135984000Y-98933000D03*
G04 #@! TO.P,U1,6*
G04 #@! TO.N,/SCK*
X135984000Y-97663000D03*
G04 #@! TO.P,U1,7*
G04 #@! TO.N,GNDPWR*
X135984000Y-96393000D03*
G04 #@! TO.P,U1,8*
G04 #@! TO.N,/Vcc*
X135984000Y-95123000D03*
G04 #@! TD*
D15*
G04 #@! TO.P,U2,1*
G04 #@! TO.N,Net-(U2-Pad1)*
X105012000Y-100711000D03*
G04 #@! TO.P,U2,2*
G04 #@! TO.N,Net-(U2-Pad2)*
X105012000Y-101981000D03*
G04 #@! TO.P,U2,3*
G04 #@! TO.N,/Vcc*
X105012000Y-103251000D03*
G04 #@! TO.P,U2,4*
G04 #@! TO.N,GNDPWR*
X105012000Y-104521000D03*
G04 #@! TO.P,U2,5*
G04 #@! TO.N,/SDA*
X112412000Y-104521000D03*
G04 #@! TO.P,U2,6*
G04 #@! TO.N,/SCK*
X112412000Y-103251000D03*
G04 #@! TO.P,U2,7*
G04 #@! TO.N,Net-(U2-Pad7)*
X112412000Y-101981000D03*
G04 #@! TO.P,U2,8*
G04 #@! TO.N,/Vcc*
X112412000Y-100711000D03*
G04 #@! TD*
D14*
G04 #@! TO.P,U3,8*
G04 #@! TO.N,/Vcc*
X135984000Y-102235000D03*
G04 #@! TO.P,U3,7*
G04 #@! TO.N,GNDPWR*
X135984000Y-103505000D03*
G04 #@! TO.P,U3,6*
G04 #@! TO.N,/SCK*
X135984000Y-104775000D03*
G04 #@! TO.P,U3,5*
G04 #@! TO.N,/SDA*
X135984000Y-106045000D03*
G04 #@! TO.P,U3,4*
G04 #@! TO.N,GNDPWR*
X128684000Y-106045000D03*
G04 #@! TO.P,U3,3*
G04 #@! TO.N,/Vcc*
X128684000Y-104775000D03*
G04 #@! TO.P,U3,2*
G04 #@! TO.N,GNDPWR*
X128684000Y-103505000D03*
G04 #@! TO.P,U3,1*
G04 #@! TO.N,/Vcc*
X128684000Y-102235000D03*
G04 #@! TD*
D16*
G04 #@! TO.P,U4,9*
G04 #@! TO.N,/D5*
X117596000Y-106308000D03*
D17*
G04 #@! TO.P,U4,1*
G04 #@! TO.N,/D3*
X116196000Y-99308000D03*
G04 #@! TO.P,U4,2*
G04 #@! TO.N,/D4*
X116196000Y-100108000D03*
G04 #@! TO.P,U4,3*
G04 #@! TO.N,GNDPWR*
X116196000Y-100908000D03*
G04 #@! TO.P,U4,4*
G04 #@! TO.N,/Vcc*
X116196000Y-101708000D03*
G04 #@! TO.P,U4,5*
G04 #@! TO.N,GNDPWR*
X116196000Y-102508000D03*
G04 #@! TO.P,U4,6*
G04 #@! TO.N,/Vcc*
X116196000Y-103308000D03*
G04 #@! TO.P,U4,7*
G04 #@! TO.N,Net-(C1-Pad1)*
X116196000Y-104108000D03*
G04 #@! TO.P,U4,8*
G04 #@! TO.N,Net-(C2-Pad1)*
X116196000Y-104908000D03*
D16*
G04 #@! TO.P,U4,10*
G04 #@! TO.N,/D6*
X118396000Y-106308000D03*
G04 #@! TO.P,U4,11*
G04 #@! TO.N,/D7*
X119196000Y-106308000D03*
G04 #@! TO.P,U4,12*
G04 #@! TO.N,/D8*
X119996000Y-106308000D03*
G04 #@! TO.P,U4,13*
G04 #@! TO.N,Net-(U4-Pad13)*
X120796000Y-106308000D03*
G04 #@! TO.P,U4,14*
G04 #@! TO.N,Net-(U4-Pad14)*
X121596000Y-106308000D03*
G04 #@! TO.P,U4,15*
G04 #@! TO.N,/MOSI*
X122396000Y-106308000D03*
G04 #@! TO.P,U4,16*
G04 #@! TO.N,/MISO*
X123196000Y-106308000D03*
D17*
G04 #@! TO.P,U4,17*
G04 #@! TO.N,/SCK*
X124596000Y-104908000D03*
G04 #@! TO.P,U4,18*
G04 #@! TO.N,/Vcc*
X124596000Y-104108000D03*
G04 #@! TO.P,U4,19*
G04 #@! TO.N,Net-(U4-Pad19)*
X124596000Y-103308000D03*
G04 #@! TO.P,U4,20*
G04 #@! TO.N,/Vcc*
X124596000Y-102508000D03*
G04 #@! TO.P,U4,21*
G04 #@! TO.N,GNDPWR*
X124596000Y-101708000D03*
G04 #@! TO.P,U4,22*
G04 #@! TO.N,Net-(U4-Pad22)*
X124596000Y-100908000D03*
G04 #@! TO.P,U4,23*
G04 #@! TO.N,/ADDS1*
X124596000Y-100108000D03*
G04 #@! TO.P,U4,24*
G04 #@! TO.N,/ADDS2*
X124596000Y-99308000D03*
D16*
G04 #@! TO.P,U4,25*
G04 #@! TO.N,Net-(U4-Pad25)*
X123196000Y-97908000D03*
G04 #@! TO.P,U4,26*
G04 #@! TO.N,Net-(U4-Pad26)*
X122396000Y-97908000D03*
G04 #@! TO.P,U4,27*
G04 #@! TO.N,/SDA*
X121596000Y-97908000D03*
G04 #@! TO.P,U4,28*
G04 #@! TO.N,Net-(U4-Pad28)*
X120796000Y-97908000D03*
G04 #@! TO.P,U4,29*
G04 #@! TO.N,/RESET*
X119996000Y-97908000D03*
G04 #@! TO.P,U4,30*
G04 #@! TO.N,/RX*
X119196000Y-97908000D03*
G04 #@! TO.P,U4,31*
G04 #@! TO.N,/TX*
X118396000Y-97908000D03*
G04 #@! TO.P,U4,32*
G04 #@! TO.N,/D2*
X117596000Y-97908000D03*
G04 #@! TD*
D18*
G04 #@! TO.P,Y1,1*
G04 #@! TO.N,Net-(U2-Pad2)*
X107087000Y-96520000D03*
G04 #@! TO.P,Y1,2*
G04 #@! TO.N,Net-(U2-Pad1)*
X110337000Y-96520000D03*
G04 #@! TD*
D19*
G04 #@! TO.P,Y2,1*
G04 #@! TO.N,Net-(C1-Pad1)*
X118050000Y-92964000D03*
G04 #@! TO.P,Y2,2*
G04 #@! TO.N,Net-(C2-Pad1)*
X123250000Y-92964000D03*
G04 #@! TD*
D12*
G04 #@! TO.N,Net-(DS1-Pad1)*
G04 #@! TO.C,DS1*
G36*
X106503505Y-109029204D02*
X106527773Y-109032804D01*
X106551572Y-109038765D01*
X106574671Y-109047030D01*
X106596850Y-109057520D01*
X106617893Y-109070132D01*
X106637599Y-109084747D01*
X106655777Y-109101223D01*
X106672253Y-109119401D01*
X106686868Y-109139107D01*
X106699480Y-109160150D01*
X106709970Y-109182329D01*
X106718235Y-109205428D01*
X106724196Y-109229227D01*
X106727796Y-109253495D01*
X106729000Y-109277999D01*
X106729000Y-110178001D01*
X106727796Y-110202505D01*
X106724196Y-110226773D01*
X106718235Y-110250572D01*
X106709970Y-110273671D01*
X106699480Y-110295850D01*
X106686868Y-110316893D01*
X106672253Y-110336599D01*
X106655777Y-110354777D01*
X106637599Y-110371253D01*
X106617893Y-110385868D01*
X106596850Y-110398480D01*
X106574671Y-110408970D01*
X106551572Y-110417235D01*
X106527773Y-110423196D01*
X106503505Y-110426796D01*
X106479001Y-110428000D01*
X105828999Y-110428000D01*
X105804495Y-110426796D01*
X105780227Y-110423196D01*
X105756428Y-110417235D01*
X105733329Y-110408970D01*
X105711150Y-110398480D01*
X105690107Y-110385868D01*
X105670401Y-110371253D01*
X105652223Y-110354777D01*
X105635747Y-110336599D01*
X105621132Y-110316893D01*
X105608520Y-110295850D01*
X105598030Y-110273671D01*
X105589765Y-110250572D01*
X105583804Y-110226773D01*
X105580204Y-110202505D01*
X105579000Y-110178001D01*
X105579000Y-109277999D01*
X105580204Y-109253495D01*
X105583804Y-109229227D01*
X105589765Y-109205428D01*
X105598030Y-109182329D01*
X105608520Y-109160150D01*
X105621132Y-109139107D01*
X105635747Y-109119401D01*
X105652223Y-109101223D01*
X105670401Y-109084747D01*
X105690107Y-109070132D01*
X105711150Y-109057520D01*
X105733329Y-109047030D01*
X105756428Y-109038765D01*
X105780227Y-109032804D01*
X105804495Y-109029204D01*
X105828999Y-109028000D01*
X106479001Y-109028000D01*
X106503505Y-109029204D01*
X106503505Y-109029204D01*
G37*
D13*
G04 #@! TD*
G04 #@! TO.P,DS1,1*
G04 #@! TO.N,Net-(DS1-Pad1)*
X106154000Y-109728000D03*
D12*
G04 #@! TO.N,/SCK*
G04 #@! TO.C,DS1*
G36*
X108553505Y-109029204D02*
X108577773Y-109032804D01*
X108601572Y-109038765D01*
X108624671Y-109047030D01*
X108646850Y-109057520D01*
X108667893Y-109070132D01*
X108687599Y-109084747D01*
X108705777Y-109101223D01*
X108722253Y-109119401D01*
X108736868Y-109139107D01*
X108749480Y-109160150D01*
X108759970Y-109182329D01*
X108768235Y-109205428D01*
X108774196Y-109229227D01*
X108777796Y-109253495D01*
X108779000Y-109277999D01*
X108779000Y-110178001D01*
X108777796Y-110202505D01*
X108774196Y-110226773D01*
X108768235Y-110250572D01*
X108759970Y-110273671D01*
X108749480Y-110295850D01*
X108736868Y-110316893D01*
X108722253Y-110336599D01*
X108705777Y-110354777D01*
X108687599Y-110371253D01*
X108667893Y-110385868D01*
X108646850Y-110398480D01*
X108624671Y-110408970D01*
X108601572Y-110417235D01*
X108577773Y-110423196D01*
X108553505Y-110426796D01*
X108529001Y-110428000D01*
X107878999Y-110428000D01*
X107854495Y-110426796D01*
X107830227Y-110423196D01*
X107806428Y-110417235D01*
X107783329Y-110408970D01*
X107761150Y-110398480D01*
X107740107Y-110385868D01*
X107720401Y-110371253D01*
X107702223Y-110354777D01*
X107685747Y-110336599D01*
X107671132Y-110316893D01*
X107658520Y-110295850D01*
X107648030Y-110273671D01*
X107639765Y-110250572D01*
X107633804Y-110226773D01*
X107630204Y-110202505D01*
X107629000Y-110178001D01*
X107629000Y-109277999D01*
X107630204Y-109253495D01*
X107633804Y-109229227D01*
X107639765Y-109205428D01*
X107648030Y-109182329D01*
X107658520Y-109160150D01*
X107671132Y-109139107D01*
X107685747Y-109119401D01*
X107702223Y-109101223D01*
X107720401Y-109084747D01*
X107740107Y-109070132D01*
X107761150Y-109057520D01*
X107783329Y-109047030D01*
X107806428Y-109038765D01*
X107830227Y-109032804D01*
X107854495Y-109029204D01*
X107878999Y-109028000D01*
X108529001Y-109028000D01*
X108553505Y-109029204D01*
X108553505Y-109029204D01*
G37*
D13*
G04 #@! TD*
G04 #@! TO.P,DS1,2*
G04 #@! TO.N,/SCK*
X108204000Y-109728000D03*
D20*
G04 #@! TO.N,/Vcc*
X130138300Y-97663000D03*
X131148100Y-102235000D03*
G04 #@! TO.N,Net-(C1-Pad1)*
X116229100Y-96970900D03*
X122029900Y-108610100D03*
X118299800Y-104006700D03*
G04 #@! TO.N,Net-(C2-Pad1)*
X125688300Y-106899900D03*
X119373200Y-104908000D03*
X123555400Y-94794700D03*
G04 #@! TO.N,/SCK*
X123801200Y-107611500D03*
X129293700Y-100803100D03*
X131402100Y-104330600D03*
G04 #@! TO.N,/SDA*
X109908100Y-107302900D03*
G04 #@! TO.N,/D2*
X116657900Y-98421600D03*
G04 #@! TO.N,/D3*
X117561800Y-99308000D03*
G04 #@! TO.N,/D4*
X117550800Y-100436500D03*
G04 #@! TO.N,/D6*
X118694800Y-107676300D03*
G04 #@! TO.N,/MISO*
X121187100Y-103689900D03*
G04 #@! TO.N,/MOSI*
X121426700Y-104955200D03*
G04 #@! TO.N,/RESET*
X119995900Y-99285800D03*
G04 #@! TD*
D21*
G04 #@! TO.N,/Vcc*
X126324300Y-104760900D02*
X125576800Y-105508400D01*
X125576800Y-105508400D02*
X124526500Y-106558700D01*
X124526500Y-106558700D02*
X124526500Y-108025500D01*
X124526500Y-108025500D02*
X124406400Y-108145600D01*
X124406400Y-108145600D02*
X124406400Y-108574600D01*
X124406400Y-108574600D02*
X124075600Y-108905400D01*
X124075600Y-108905400D02*
X124075600Y-110438500D01*
X124075600Y-110438500D02*
X124653800Y-111016700D01*
X124653800Y-111016700D02*
X125577700Y-111016700D01*
X125577700Y-111016700D02*
X126077000Y-111516000D01*
X126077000Y-111516000D02*
X127949500Y-111516000D01*
X127949500Y-111516000D02*
X129202500Y-112769000D01*
X129202500Y-112769000D02*
X129202500Y-114482900D01*
X123023600Y-103005100D02*
X122983000Y-102964600D01*
X122983000Y-102964600D02*
X117614700Y-102964600D01*
X117614700Y-102964600D02*
X117271300Y-103308000D01*
X123520700Y-104108000D02*
X123520700Y-103502300D01*
X123520700Y-103502300D02*
X123023600Y-103005100D01*
X123023600Y-103005100D02*
X123520700Y-102508000D01*
X124596000Y-104108000D02*
X123520700Y-104108000D01*
X129202500Y-114482900D02*
X122452800Y-114482900D01*
X122452800Y-114482900D02*
X121666000Y-113696100D01*
X121666000Y-113696100D02*
X121666000Y-112005000D01*
X121666000Y-112005000D02*
X119389000Y-109728000D01*
X133096000Y-112696300D02*
X131309400Y-114482900D01*
X131309400Y-114482900D02*
X129202500Y-114482900D01*
X126324300Y-104760900D02*
X126338300Y-104775000D01*
X126338300Y-104775000D02*
X128684000Y-104775000D01*
X125671300Y-104108000D02*
X126324300Y-104760900D01*
X133096000Y-112696300D02*
X133096000Y-112108700D01*
X133096000Y-113284000D02*
X133096000Y-112696300D01*
X128977900Y-97663000D02*
X130138300Y-97663000D01*
X128977900Y-97663000D02*
X128684000Y-97663000D01*
X124596000Y-104108000D02*
X125671300Y-104108000D01*
X131148100Y-102235000D02*
X134808700Y-102235000D01*
X129859300Y-102235000D02*
X131148100Y-102235000D01*
X128684000Y-102235000D02*
X129859300Y-102235000D01*
X116196000Y-103308000D02*
X117271300Y-103308000D01*
X124596000Y-102508000D02*
X123520700Y-102508000D01*
X115120700Y-101708000D02*
X115120700Y-103308000D01*
X116196000Y-103308000D02*
X115120700Y-103308000D01*
X113612300Y-100711000D02*
X114609300Y-101708000D01*
X114609300Y-101708000D02*
X115120700Y-101708000D01*
X101059800Y-99327800D02*
X98919300Y-97187300D01*
X98919300Y-97187300D02*
X98552000Y-97187300D01*
X101124300Y-103251000D02*
X101124300Y-99392300D01*
X101124300Y-99392300D02*
X101059800Y-99327800D01*
X106520700Y-92964000D02*
X106520700Y-93866900D01*
X106520700Y-93866900D02*
X101059800Y-99327800D01*
X107696000Y-92964000D02*
X106520700Y-92964000D01*
X101124300Y-103251000D02*
X100743300Y-103632000D01*
X105012000Y-103251000D02*
X101124300Y-103251000D01*
X98552000Y-96012000D02*
X98552000Y-97187300D01*
X128977900Y-96393000D02*
X129271700Y-96393000D01*
X128684000Y-96393000D02*
X128977900Y-96393000D01*
X128977900Y-96393000D02*
X128977900Y-97663000D01*
X135984000Y-102235000D02*
X134808700Y-102235000D01*
X112412000Y-100711000D02*
X113612300Y-100711000D01*
X105012000Y-103251000D02*
X107209200Y-103251000D01*
X107209200Y-103251000D02*
X109749200Y-100711000D01*
X109749200Y-100711000D02*
X112412000Y-100711000D01*
X135984000Y-95123000D02*
X129859300Y-95123000D01*
X129271700Y-96393000D02*
X129859300Y-95805400D01*
X129859300Y-95805400D02*
X129859300Y-95123000D01*
X116196000Y-101708000D02*
X115120700Y-101708000D01*
X99568000Y-103632000D02*
X98392700Y-103632000D01*
X103632000Y-113284000D02*
X102456700Y-113284000D01*
X102456700Y-113284000D02*
X102456700Y-112475900D01*
X102456700Y-112475900D02*
X102089500Y-112108700D01*
X102089500Y-112108700D02*
X98033900Y-112108700D01*
X98033900Y-112108700D02*
X95331400Y-109406200D01*
X95331400Y-109406200D02*
X95331400Y-106193000D01*
X95331400Y-106193000D02*
X96717100Y-104807300D01*
X96717100Y-104807300D02*
X98025500Y-104807300D01*
X98025500Y-104807300D02*
X98392700Y-104440100D01*
X98392700Y-104440100D02*
X98392700Y-103632000D01*
X133096000Y-112108700D02*
X134103000Y-111101700D01*
X134103000Y-111101700D02*
X134103000Y-109728000D01*
X128684000Y-95123000D02*
X129859300Y-95123000D01*
X99568000Y-103632000D02*
X100743300Y-103632000D01*
G04 #@! TO.N,Net-(C1-Pad1)*
X118050000Y-94489300D02*
X118050000Y-95150000D01*
X118050000Y-95150000D02*
X116229100Y-96970900D01*
X118050000Y-92964000D02*
X118050000Y-94489300D01*
X117271300Y-104108000D02*
X117372600Y-104006700D01*
X117372600Y-104006700D02*
X118299800Y-104006700D01*
X122927000Y-109728000D02*
X122927000Y-109507200D01*
X122927000Y-109507200D02*
X122029900Y-108610100D01*
X116196000Y-104108000D02*
X117271300Y-104108000D01*
G04 #@! TO.N,Net-(C2-Pad1)*
X125688300Y-106899900D02*
X128515000Y-109726600D01*
X128515000Y-109726600D02*
X128515000Y-109728000D01*
X116196000Y-104908000D02*
X119373200Y-104908000D01*
X123250000Y-94489300D02*
X123555400Y-94794700D01*
X123250000Y-92964000D02*
X123250000Y-94489300D01*
G04 #@! TO.N,/SCK*
X123801200Y-107611500D02*
X123801200Y-105702800D01*
X123801200Y-105702800D02*
X124596000Y-104908000D01*
X135984000Y-97663000D02*
X133926800Y-97663000D01*
X133926800Y-97663000D02*
X130786800Y-100803000D01*
X130786800Y-100803000D02*
X129293700Y-100803000D01*
X129293700Y-100803000D02*
X129293700Y-100803100D01*
X135984000Y-104775000D02*
X134808700Y-104775000D01*
X131402100Y-104330600D02*
X134364300Y-104330600D01*
X134364300Y-104330600D02*
X134808700Y-104775000D01*
X108204000Y-110807500D02*
X108204000Y-112482100D01*
X108204000Y-112482100D02*
X108712000Y-112990100D01*
X108204000Y-109728000D02*
X108204000Y-110807500D01*
X108204000Y-110807500D02*
X97454100Y-110807500D01*
X97454100Y-110807500D02*
X95833700Y-109187100D01*
X95833700Y-109187100D02*
X95833700Y-108176300D01*
X95833700Y-108176300D02*
X96662700Y-107347300D01*
X96662700Y-107347300D02*
X97028000Y-107347300D01*
X97028000Y-106172000D02*
X97028000Y-107347300D01*
X108712000Y-113284000D02*
X108712000Y-112990100D01*
X111211700Y-103251000D02*
X110601900Y-103860800D01*
X110601900Y-103860800D02*
X102548800Y-103860800D01*
X102548800Y-103860800D02*
X101412900Y-104996700D01*
X101412900Y-104996700D02*
X99011200Y-104996700D01*
X99011200Y-104996700D02*
X98203300Y-105804600D01*
X98203300Y-105804600D02*
X98203300Y-106172000D01*
X97028000Y-106172000D02*
X98203300Y-106172000D01*
X112412000Y-103251000D02*
X111211700Y-103251000D01*
G04 #@! TO.N,/SDA*
X137159300Y-98933000D02*
X137159300Y-105457400D01*
X137159300Y-105457400D02*
X136571700Y-106045000D01*
X137046700Y-98933000D02*
X137159300Y-98933000D01*
X135984000Y-98933000D02*
X137046700Y-98933000D01*
X107347300Y-113284000D02*
X107347300Y-113651300D01*
X107347300Y-113651300D02*
X108629300Y-114933300D01*
X108629300Y-114933300D02*
X133154700Y-114933300D01*
X133154700Y-114933300D02*
X134486500Y-113601500D01*
X134486500Y-113601500D02*
X134486500Y-113083500D01*
X134486500Y-113083500D02*
X137063600Y-110506400D01*
X137063600Y-110506400D02*
X137063600Y-106536900D01*
X137063600Y-106536900D02*
X136571700Y-106045000D01*
X121596000Y-97908000D02*
X121596000Y-96832700D01*
X121596000Y-96832700D02*
X125325900Y-96832700D01*
X125325900Y-96832700D02*
X127690100Y-94468500D01*
X127690100Y-94468500D02*
X137042600Y-94468500D01*
X137042600Y-94468500D02*
X137159300Y-94585200D01*
X137159300Y-94585200D02*
X137159300Y-98933000D01*
X112412000Y-104521000D02*
X111211700Y-104521000D01*
X109908100Y-107302900D02*
X111211700Y-105999300D01*
X111211700Y-105999300D02*
X111211700Y-104521000D01*
X106172000Y-113284000D02*
X107347300Y-113284000D01*
X135984000Y-106045000D02*
X136571700Y-106045000D01*
G04 #@! TO.N,/D2*
X117596000Y-97908000D02*
X117171500Y-97908000D01*
X117171500Y-97908000D02*
X116657900Y-98421600D01*
G04 #@! TO.N,/D3*
X116196000Y-99308000D02*
X117561800Y-99308000D01*
G04 #@! TO.N,/D4*
X116196000Y-100108000D02*
X117271300Y-100108000D01*
X117271300Y-100108000D02*
X117271300Y-100157000D01*
X117271300Y-100157000D02*
X117550800Y-100436500D01*
G04 #@! TO.N,/D5*
X120396000Y-113284000D02*
X120396000Y-112108700D01*
X117596000Y-106308000D02*
X117596000Y-108253300D01*
X117596000Y-108253300D02*
X118240400Y-108897700D01*
X118240400Y-108897700D02*
X118240400Y-110173500D01*
X118240400Y-110173500D02*
X120175600Y-112108700D01*
X120175600Y-112108700D02*
X120396000Y-112108700D01*
G04 #@! TO.N,/D6*
X118396000Y-106308000D02*
X118396000Y-107383300D01*
X118396000Y-107383300D02*
X118401800Y-107383300D01*
X118401800Y-107383300D02*
X118694800Y-107676300D01*
G04 #@! TO.N,/D7*
X119196000Y-106308000D02*
X119196000Y-107029300D01*
X119196000Y-107029300D02*
X120707700Y-108541000D01*
X120707700Y-108541000D02*
X120707700Y-109792300D01*
X120707700Y-109792300D02*
X122810700Y-111895300D01*
X122810700Y-111895300D02*
X123213300Y-111895300D01*
X123213300Y-111895300D02*
X124300700Y-112982700D01*
X124300700Y-112982700D02*
X124300700Y-113284000D01*
X125476000Y-113284000D02*
X124300700Y-113284000D01*
G04 #@! TO.N,/D8*
X128016000Y-113284000D02*
X126840700Y-113284000D01*
X119996000Y-106308000D02*
X119996000Y-107192400D01*
X119996000Y-107192400D02*
X121290100Y-108486500D01*
X121290100Y-108486500D02*
X121290100Y-109737800D01*
X121290100Y-109737800D02*
X122838000Y-111285700D01*
X122838000Y-111285700D02*
X123631300Y-111285700D01*
X123631300Y-111285700D02*
X124454300Y-112108700D01*
X124454300Y-112108700D02*
X126032800Y-112108700D01*
X126032800Y-112108700D02*
X126840700Y-112916600D01*
X126840700Y-112916600D02*
X126840700Y-113284000D01*
G04 #@! TO.N,/RX*
X111411300Y-92964000D02*
X111411300Y-92596700D01*
X111411300Y-92596700D02*
X112639300Y-91368700D01*
X112639300Y-91368700D02*
X119932800Y-91368700D01*
X119932800Y-91368700D02*
X120125400Y-91561300D01*
X120125400Y-91561300D02*
X120125400Y-95169600D01*
X120125400Y-95169600D02*
X119196000Y-96099000D01*
X119196000Y-96099000D02*
X119196000Y-97908000D01*
X110236000Y-92964000D02*
X111411300Y-92964000D01*
G04 #@! TO.N,/TX*
X112776000Y-92964000D02*
X112776000Y-94562600D01*
X112776000Y-94562600D02*
X115909600Y-97696200D01*
X115909600Y-97696200D02*
X116529600Y-97696200D01*
X116529600Y-97696200D02*
X116954400Y-97271400D01*
X116954400Y-97271400D02*
X116954400Y-97039100D01*
X116954400Y-97039100D02*
X117160800Y-96832700D01*
X117160800Y-96832700D02*
X118396000Y-96832700D01*
X118396000Y-97908000D02*
X118396000Y-96832700D01*
G04 #@! TO.N,/MISO*
X123196000Y-106308000D02*
X123196000Y-105232700D01*
X123196000Y-105232700D02*
X121653200Y-103689900D01*
X121653200Y-103689900D02*
X121187100Y-103689900D01*
G04 #@! TO.N,/MOSI*
X122396000Y-105232700D02*
X121704200Y-105232700D01*
X121704200Y-105232700D02*
X121426700Y-104955200D01*
X122396000Y-106308000D02*
X122396000Y-105232700D01*
G04 #@! TO.N,/RESET*
X97028000Y-108712000D02*
X98203300Y-108712000D01*
X98203300Y-108712000D02*
X98203300Y-109079300D01*
X98203300Y-109079300D02*
X99019100Y-109895100D01*
X99019100Y-109895100D02*
X102803600Y-109895100D01*
X102803600Y-109895100D02*
X104480900Y-108217800D01*
X104480900Y-108217800D02*
X108933100Y-108217800D01*
X108933100Y-108217800D02*
X110504800Y-109789500D01*
X110504800Y-109789500D02*
X110504800Y-110093100D01*
X110504800Y-110093100D02*
X111166000Y-110754300D01*
X111166000Y-110754300D02*
X112376700Y-110754300D01*
X112376700Y-110754300D02*
X112776000Y-110355000D01*
X112776000Y-110355000D02*
X112776000Y-109160000D01*
X112776000Y-109160000D02*
X113249400Y-108686600D01*
X113249400Y-108686600D02*
X116297600Y-108686600D01*
X116297600Y-108686600D02*
X117339000Y-109728000D01*
X119996000Y-97908000D02*
X119996000Y-99285800D01*
X119996000Y-99285800D02*
X119995900Y-99285800D01*
G04 #@! TO.N,Net-(U2-Pad1)*
X105012000Y-100711000D02*
X106212300Y-100711000D01*
X110337000Y-96520000D02*
X109136700Y-96520000D01*
X109136700Y-96520000D02*
X109136700Y-97786600D01*
X109136700Y-97786600D02*
X106212300Y-100711000D01*
G04 #@! TO.N,Net-(U2-Pad2)*
X105012000Y-101981000D02*
X103811700Y-101981000D01*
X107087000Y-96520000D02*
X105886700Y-96520000D01*
X105886700Y-96520000D02*
X103811700Y-98595000D01*
X103811700Y-98595000D02*
X103811700Y-101981000D01*
G04 #@! TO.N,GNDPWR*
X129859300Y-106045000D02*
X129859300Y-106966500D01*
X129859300Y-106966500D02*
X131592900Y-108700100D01*
X128684000Y-98933000D02*
X127508700Y-98933000D01*
X125686900Y-101683200D02*
X127508700Y-99861400D01*
X127508700Y-99861400D02*
X127508700Y-98933000D01*
X125686900Y-101683200D02*
X127508700Y-103505000D01*
X125502400Y-101708000D02*
X125662100Y-101708000D01*
X125662100Y-101708000D02*
X125686900Y-101683200D01*
X105012000Y-104521000D02*
X106212300Y-104521000D01*
X106212300Y-104521000D02*
X106212300Y-104632800D01*
X106212300Y-104632800D02*
X111307500Y-109728000D01*
X111307500Y-109728000D02*
X111751000Y-109728000D01*
X105012000Y-104521000D02*
X103811700Y-104521000D01*
X99568000Y-108712000D02*
X100743300Y-108712000D01*
X100743300Y-108712000D02*
X103811700Y-105643600D01*
X103811700Y-105643600D02*
X103811700Y-104521000D01*
X128684000Y-98933000D02*
X130837100Y-98933000D01*
X130837100Y-98933000D02*
X133377100Y-96393000D01*
X133377100Y-96393000D02*
X135984000Y-96393000D01*
X128684000Y-103505000D02*
X127508700Y-103505000D01*
X124596000Y-101708000D02*
X125502400Y-101708000D01*
X124596000Y-101708000D02*
X123520700Y-101708000D01*
X117271300Y-102508000D02*
X122720700Y-102508000D01*
X122720700Y-102508000D02*
X123520700Y-101708000D01*
X130556000Y-110791600D02*
X126040600Y-110791600D01*
X126040600Y-110791600D02*
X124977000Y-109728000D01*
X130565000Y-109728000D02*
X130565000Y-110782600D01*
X130565000Y-110782600D02*
X130556000Y-110791600D01*
X130556000Y-112108700D02*
X130556000Y-110791600D01*
X129859300Y-106045000D02*
X129859300Y-103505000D01*
X131592900Y-108700100D02*
X135125100Y-108700100D01*
X135125100Y-108700100D02*
X136153000Y-109728000D01*
X130565000Y-109728000D02*
X131592900Y-108700100D01*
X116196000Y-100908000D02*
X115120700Y-100908000D01*
X115120700Y-100908000D02*
X115120700Y-99068600D01*
X115120700Y-99068600D02*
X110679800Y-94627700D01*
X110679800Y-94627700D02*
X110173700Y-94627700D01*
X110173700Y-94627700D02*
X108966000Y-93420000D01*
X108966000Y-93420000D02*
X108966000Y-92476300D01*
X108966000Y-92476300D02*
X108240500Y-91750800D01*
X108240500Y-91750800D02*
X106369200Y-91750800D01*
X106369200Y-91750800D02*
X105156000Y-92964000D01*
X117271300Y-102508000D02*
X117271300Y-101286200D01*
X117271300Y-101286200D02*
X116893100Y-100908000D01*
X116893100Y-100908000D02*
X116196000Y-100908000D01*
X129859300Y-103505000D02*
X134808700Y-103505000D01*
X135984000Y-103505000D02*
X134808700Y-103505000D01*
X128684000Y-103505000D02*
X129859300Y-103505000D01*
X128684000Y-106045000D02*
X129859300Y-106045000D01*
X130556000Y-113284000D02*
X130556000Y-112108700D01*
X116196000Y-102508000D02*
X117271300Y-102508000D01*
G04 #@! TO.N,Net-(DS1-Pad1)*
X106154000Y-109728000D02*
X107213900Y-108668100D01*
X107213900Y-108668100D02*
X108746500Y-108668100D01*
X108746500Y-108668100D02*
X110054500Y-109976100D01*
X110054500Y-109976100D02*
X110054500Y-110279700D01*
X110054500Y-110279700D02*
X110979400Y-111204600D01*
X110979400Y-111204600D02*
X112642800Y-111204600D01*
X112642800Y-111204600D02*
X113801000Y-110046400D01*
X113801000Y-110046400D02*
X113801000Y-109728000D01*
G04 #@! TD*
M02*
