G04 #@! TF.GenerationSoftware,KiCad,Pcbnew,5.0.2-bee76a0~70~ubuntu18.04.1*
G04 #@! TF.CreationDate,2019-02-19T10:43:49+11:00*
G04 #@! TF.ProjectId,BACEE,42414345-452e-46b6-9963-61645f706362,2*
G04 #@! TF.SameCoordinates,Original*
G04 #@! TF.FileFunction,Copper,L2,Bot*
G04 #@! TF.FilePolarity,Positive*
%FSLAX46Y46*%
G04 Gerber Fmt 4.6, Leading zero omitted, Abs format (unit mm)*
G04 Created by KiCad (PCBNEW 5.0.2-bee76a0~70~ubuntu18.04.1) date Tue 19 Feb 2019 10:43:49 AM AEDT*
%MOMM*%
%LPD*%
G01*
G04 APERTURE LIST*
G04 #@! TA.AperFunction,ComponentPad*
%ADD10R,1.700000X1.700000*%
G04 #@! TD*
G04 #@! TA.AperFunction,ComponentPad*
%ADD11O,1.700000X1.700000*%
G04 #@! TD*
G04 #@! TA.AperFunction,ComponentPad*
%ADD12C,2.400000*%
G04 #@! TD*
G04 #@! TA.AperFunction,ViaPad*
%ADD13C,0.800000*%
G04 #@! TD*
G04 #@! TA.AperFunction,Conductor*
%ADD14C,0.250000*%
G04 #@! TD*
G04 #@! TA.AperFunction,Conductor*
%ADD15C,0.254000*%
G04 #@! TD*
G04 APERTURE END LIST*
D10*
G04 #@! TO.P,BT1,1*
G04 #@! TO.N,/Vcc*
X98552000Y-96012000D03*
D11*
G04 #@! TO.P,BT1,2*
G04 #@! TO.N,GND*
X98552000Y-98552000D03*
G04 #@! TD*
G04 #@! TO.P,J2,4*
G04 #@! TO.N,/SCK*
X108712000Y-113284000D03*
G04 #@! TO.P,J2,3*
G04 #@! TO.N,/SDA*
X106172000Y-113284000D03*
G04 #@! TO.P,J2,2*
G04 #@! TO.N,/Vcc*
X103632000Y-113284000D03*
D10*
G04 #@! TO.P,J2,1*
G04 #@! TO.N,GND*
X101092000Y-113284000D03*
G04 #@! TD*
G04 #@! TO.P,J3,1*
G04 #@! TO.N,/D2*
X112776000Y-113284000D03*
D11*
G04 #@! TO.P,J3,2*
G04 #@! TO.N,/D3*
X115316000Y-113284000D03*
G04 #@! TO.P,J3,3*
G04 #@! TO.N,/D4*
X117856000Y-113284000D03*
G04 #@! TO.P,J3,4*
G04 #@! TO.N,/D5*
X120396000Y-113284000D03*
G04 #@! TO.P,J3,5*
G04 #@! TO.N,/D6*
X122936000Y-113284000D03*
G04 #@! TO.P,J3,6*
G04 #@! TO.N,/D7*
X125476000Y-113284000D03*
G04 #@! TO.P,J3,7*
G04 #@! TO.N,/D8*
X128016000Y-113284000D03*
G04 #@! TO.P,J3,8*
G04 #@! TO.N,GND*
X130556000Y-113284000D03*
G04 #@! TO.P,J3,9*
G04 #@! TO.N,/Vcc*
X133096000Y-113284000D03*
G04 #@! TD*
D10*
G04 #@! TO.P,J4,1*
G04 #@! TO.N,GND*
X105156000Y-92964000D03*
D11*
G04 #@! TO.P,J4,2*
G04 #@! TO.N,/Vcc*
X107696000Y-92964000D03*
G04 #@! TO.P,J4,3*
G04 #@! TO.N,/RX*
X110236000Y-92964000D03*
G04 #@! TO.P,J4,4*
G04 #@! TO.N,/TX*
X112776000Y-92964000D03*
G04 #@! TD*
D10*
G04 #@! TO.P,J5,1*
G04 #@! TO.N,/MISO*
X97028000Y-103632000D03*
D11*
G04 #@! TO.P,J5,2*
G04 #@! TO.N,/Vcc*
X99568000Y-103632000D03*
G04 #@! TO.P,J5,3*
G04 #@! TO.N,/SCK*
X97028000Y-106172000D03*
G04 #@! TO.P,J5,4*
G04 #@! TO.N,/MOSI*
X99568000Y-106172000D03*
G04 #@! TO.P,J5,5*
G04 #@! TO.N,/RESET*
X97028000Y-108712000D03*
G04 #@! TO.P,J5,6*
G04 #@! TO.N,GND*
X99568000Y-108712000D03*
G04 #@! TD*
D10*
G04 #@! TO.P,J1,1*
G04 #@! TO.N,GND*
X142748000Y-93980000D03*
D11*
G04 #@! TO.P,J1,2*
X145288000Y-93980000D03*
G04 #@! TO.P,J1,3*
X147828000Y-93980000D03*
G04 #@! TO.P,J1,4*
X150368000Y-93980000D03*
G04 #@! TO.P,J1,5*
X152908000Y-93980000D03*
G04 #@! TD*
G04 #@! TO.P,J6,5*
G04 #@! TO.N,/Vcc*
X152908000Y-111760000D03*
G04 #@! TO.P,J6,4*
X150368000Y-111760000D03*
G04 #@! TO.P,J6,3*
X147828000Y-111760000D03*
G04 #@! TO.P,J6,2*
X145288000Y-111760000D03*
D10*
G04 #@! TO.P,J6,1*
X142748000Y-111760000D03*
G04 #@! TD*
D12*
G04 #@! TO.P,J7,1*
G04 #@! TO.N,Net-(J7-Pad1)*
X141359000Y-101187000D03*
G04 #@! TD*
G04 #@! TO.P,J8,1*
G04 #@! TO.N,Net-(J8-Pad1)*
X144809000Y-101187000D03*
G04 #@! TD*
G04 #@! TO.P,J9,1*
G04 #@! TO.N,Net-(J9-Pad1)*
X141359000Y-104637000D03*
G04 #@! TD*
G04 #@! TO.P,J10,1*
G04 #@! TO.N,Net-(J10-Pad1)*
X148259000Y-97737000D03*
G04 #@! TD*
G04 #@! TO.P,J11,1*
G04 #@! TO.N,Net-(J11-Pad1)*
X144809000Y-104637000D03*
G04 #@! TD*
G04 #@! TO.P,J12,1*
G04 #@! TO.N,Net-(J12-Pad1)*
X148259000Y-101187000D03*
G04 #@! TD*
G04 #@! TO.P,J13,1*
G04 #@! TO.N,Net-(J13-Pad1)*
X141359000Y-108087000D03*
G04 #@! TD*
G04 #@! TO.P,J14,1*
G04 #@! TO.N,Net-(J14-Pad1)*
X151709000Y-97737000D03*
G04 #@! TD*
G04 #@! TO.P,J15,1*
G04 #@! TO.N,Net-(J15-Pad1)*
X141359000Y-97737000D03*
G04 #@! TD*
G04 #@! TO.P,J16,1*
G04 #@! TO.N,Net-(J16-Pad1)*
X148259000Y-104637000D03*
G04 #@! TD*
G04 #@! TO.P,J17,1*
G04 #@! TO.N,Net-(J17-Pad1)*
X151709000Y-101187000D03*
G04 #@! TD*
G04 #@! TO.P,J18,1*
G04 #@! TO.N,Net-(J18-Pad1)*
X155159000Y-97737000D03*
G04 #@! TD*
G04 #@! TO.P,J19,1*
G04 #@! TO.N,Net-(J19-Pad1)*
X148259000Y-108087000D03*
G04 #@! TD*
G04 #@! TO.P,J20,1*
G04 #@! TO.N,Net-(J20-Pad1)*
X151709000Y-104637000D03*
G04 #@! TD*
G04 #@! TO.P,J21,1*
G04 #@! TO.N,Net-(J21-Pad1)*
X155159000Y-101187000D03*
G04 #@! TD*
G04 #@! TO.P,J22,1*
G04 #@! TO.N,Net-(J22-Pad1)*
X151709000Y-108087000D03*
G04 #@! TD*
G04 #@! TO.P,J23,1*
G04 #@! TO.N,Net-(J23-Pad1)*
X155159000Y-104637000D03*
G04 #@! TD*
G04 #@! TO.P,J24,1*
G04 #@! TO.N,Net-(J24-Pad1)*
X155159000Y-108087000D03*
G04 #@! TD*
G04 #@! TO.P,J25,1*
G04 #@! TO.N,Net-(J25-Pad1)*
X144809000Y-108087000D03*
G04 #@! TD*
G04 #@! TO.P,J26,1*
G04 #@! TO.N,Net-(J26-Pad1)*
X144809000Y-97737000D03*
G04 #@! TD*
D13*
G04 #@! TO.N,/Vcc*
X130836700Y-105348200D03*
G04 #@! TO.N,GND*
X126116700Y-101902900D03*
X126709800Y-105356600D03*
G04 #@! TO.N,Net-(C1-Pad1)*
X120950600Y-95966700D03*
X121135400Y-104007400D03*
X123980900Y-108547000D03*
G04 #@! TO.N,Net-(C2-Pad1)*
X126278500Y-107554500D03*
X121894400Y-95007500D03*
X116248300Y-105818000D03*
G04 #@! TO.N,/SCK*
X121687700Y-109068200D03*
G04 #@! TO.N,/SDA*
X119276800Y-95736800D03*
X134516100Y-106045000D03*
X110909200Y-104791400D03*
X132416300Y-98332000D03*
G04 #@! TO.N,/D2*
X113888200Y-98980000D03*
G04 #@! TO.N,/D3*
X114429800Y-101176200D03*
G04 #@! TO.N,/D4*
X117573900Y-100069100D03*
G04 #@! TO.N,/D6*
X121156700Y-110467600D03*
G04 #@! TO.N,/D7*
X119576700Y-104898200D03*
G04 #@! TO.N,/D8*
X123147000Y-104953600D03*
G04 #@! TO.N,/MISO*
X124252500Y-107052000D03*
G04 #@! TO.N,/MOSI*
X121622900Y-107974000D03*
G04 #@! TO.N,/RESET*
X116856800Y-107490300D03*
X120406300Y-99262900D03*
G04 #@! TO.N,/ADDS1*
X127228700Y-95206000D03*
X127603400Y-100892600D03*
G04 #@! TD*
D14*
G04 #@! TO.N,/Vcc*
X133096000Y-113284000D02*
X133096000Y-107607500D01*
X133096000Y-107607500D02*
X130836700Y-105348200D01*
X99568000Y-104807300D02*
X99890600Y-104807300D01*
X99890600Y-104807300D02*
X103632000Y-108548700D01*
X103632000Y-108548700D02*
X103632000Y-113284000D01*
X99568000Y-103632000D02*
X99568000Y-102456700D01*
X99746800Y-96012000D02*
X98552000Y-96012000D01*
X106520700Y-92964000D02*
X106520700Y-93772000D01*
X106520700Y-93772000D02*
X104280700Y-96012000D01*
X104280700Y-96012000D02*
X99746800Y-96012000D01*
X99746800Y-96012000D02*
X99746800Y-102277900D01*
X99746800Y-102277900D02*
X99568000Y-102456700D01*
X99568000Y-103632000D02*
X99568000Y-104807300D01*
X107696000Y-92964000D02*
X106520700Y-92964000D01*
G04 #@! TO.N,GND*
X129380700Y-113284000D02*
X129380700Y-108027500D01*
X129380700Y-108027500D02*
X126709800Y-105356600D01*
X126116700Y-101902900D02*
X126116700Y-104763500D01*
X126116700Y-104763500D02*
X126709800Y-105356600D01*
X99568000Y-108712000D02*
X99568000Y-109887300D01*
X99568000Y-109887300D02*
X101092000Y-111411300D01*
X101092000Y-111411300D02*
X101092000Y-113284000D01*
X130556000Y-113284000D02*
X129380700Y-113284000D01*
G04 #@! TO.N,Net-(C1-Pad1)*
X121135400Y-104007400D02*
X121135400Y-105701500D01*
X121135400Y-105701500D02*
X123980900Y-108547000D01*
X121135400Y-104007400D02*
X121135400Y-96151500D01*
X121135400Y-96151500D02*
X120950600Y-95966700D01*
G04 #@! TO.N,Net-(C2-Pad1)*
X121860800Y-95228000D02*
X121860800Y-101865300D01*
X121860800Y-101865300D02*
X126278500Y-106283000D01*
X126278500Y-106283000D02*
X126278500Y-107554500D01*
X121894400Y-95007500D02*
X121860800Y-95041100D01*
X121860800Y-95041100D02*
X121860800Y-95228000D01*
X116248300Y-105818000D02*
X116248300Y-99791100D01*
X116248300Y-99791100D02*
X120002100Y-96037300D01*
X120002100Y-96037300D02*
X120002100Y-95889500D01*
X120002100Y-95889500D02*
X120663600Y-95228000D01*
X120663600Y-95228000D02*
X121860800Y-95228000D01*
G04 #@! TO.N,/SCK*
X121687700Y-109068200D02*
X121530400Y-109068200D01*
X121530400Y-109068200D02*
X119180400Y-111418200D01*
X119180400Y-111418200D02*
X119180400Y-113645400D01*
X119180400Y-113645400D02*
X118349600Y-114476200D01*
X118349600Y-114476200D02*
X111079500Y-114476200D01*
X111079500Y-114476200D02*
X109887300Y-113284000D01*
X109182700Y-113284000D02*
X108003000Y-114463700D01*
X108003000Y-114463700D02*
X103122000Y-114463700D01*
X103122000Y-114463700D02*
X102433900Y-113775600D01*
X102433900Y-113775600D02*
X102433900Y-109910800D01*
X102433900Y-109910800D02*
X99870400Y-107347300D01*
X99870400Y-107347300D02*
X99011200Y-107347300D01*
X99011200Y-107347300D02*
X98203300Y-106539400D01*
X98203300Y-106539400D02*
X98203300Y-106172000D01*
X97028000Y-106172000D02*
X98203300Y-106172000D01*
X109299700Y-113284000D02*
X109887300Y-113284000D01*
X108712000Y-113284000D02*
X109182700Y-113284000D01*
X109299700Y-113284000D02*
X109182700Y-113284000D01*
G04 #@! TO.N,/SDA*
X119276800Y-95736800D02*
X120760700Y-94252900D01*
X120760700Y-94252900D02*
X128337200Y-94252900D01*
X128337200Y-94252900D02*
X132416300Y-98332000D01*
X110909200Y-104791400D02*
X110909200Y-100870900D01*
X110909200Y-100870900D02*
X116043300Y-95736800D01*
X116043300Y-95736800D02*
X119276800Y-95736800D01*
X106172000Y-112583800D02*
X106172000Y-109528600D01*
X106172000Y-109528600D02*
X110909200Y-104791400D01*
X132416300Y-98332000D02*
X134516100Y-100431800D01*
X134516100Y-100431800D02*
X134516100Y-106045000D01*
X106172000Y-113284000D02*
X106172000Y-112583800D01*
G04 #@! TO.N,/D2*
X113888200Y-98980000D02*
X112776000Y-100092200D01*
X112776000Y-100092200D02*
X112776000Y-112108700D01*
X112776000Y-113284000D02*
X112776000Y-112108700D01*
G04 #@! TO.N,/D3*
X115316000Y-113284000D02*
X115316000Y-112108700D01*
X114429800Y-101176200D02*
X114429800Y-111222500D01*
X114429800Y-111222500D02*
X115316000Y-112108700D01*
G04 #@! TO.N,/D4*
X117856000Y-113284000D02*
X117856000Y-112108700D01*
X117573900Y-100069100D02*
X117000000Y-100643000D01*
X117000000Y-100643000D02*
X117000000Y-106095400D01*
X117000000Y-106095400D02*
X116097100Y-106998300D01*
X116097100Y-106998300D02*
X116097100Y-110349800D01*
X116097100Y-110349800D02*
X117856000Y-112108700D01*
G04 #@! TO.N,/D6*
X122936000Y-113284000D02*
X122936000Y-112108700D01*
X121156700Y-110467600D02*
X122797800Y-112108700D01*
X122797800Y-112108700D02*
X122936000Y-112108700D01*
G04 #@! TO.N,/D7*
X125476000Y-112108700D02*
X123255500Y-109888200D01*
X123255500Y-109888200D02*
X123255500Y-108577000D01*
X123255500Y-108577000D02*
X119576700Y-104898200D01*
X125476000Y-113284000D02*
X125476000Y-112108700D01*
G04 #@! TO.N,/D8*
X128016000Y-112108700D02*
X125221100Y-109313800D01*
X125221100Y-109313800D02*
X125221100Y-106994800D01*
X125221100Y-106994800D02*
X123179900Y-104953600D01*
X123179900Y-104953600D02*
X123147000Y-104953600D01*
X128016000Y-113284000D02*
X128016000Y-112108700D01*
G04 #@! TO.N,/MISO*
X124252500Y-107052000D02*
X124714400Y-107513900D01*
X124714400Y-107513900D02*
X124714400Y-109926700D01*
X124714400Y-109926700D02*
X126746000Y-111958300D01*
X126746000Y-111958300D02*
X126746000Y-113677900D01*
X126746000Y-113677900D02*
X127529000Y-114460900D01*
X127529000Y-114460900D02*
X133617100Y-114460900D01*
X133617100Y-114460900D02*
X134553100Y-113524900D01*
X134553100Y-113524900D02*
X134553100Y-107705600D01*
X134553100Y-107705600D02*
X135282100Y-106976600D01*
X135282100Y-106976600D02*
X135282100Y-100091100D01*
X135282100Y-100091100D02*
X126979600Y-91788600D01*
X126979600Y-91788600D02*
X100609600Y-91788600D01*
X100609600Y-91788600D02*
X97028000Y-95370200D01*
X97028000Y-95370200D02*
X97028000Y-103632000D01*
G04 #@! TO.N,/MOSI*
X121622900Y-107974000D02*
X122645900Y-108997000D01*
X122645900Y-108997000D02*
X122645900Y-111093700D01*
X122645900Y-111093700D02*
X124121400Y-112569200D01*
X124121400Y-112569200D02*
X124121400Y-113785900D01*
X124121400Y-113785900D02*
X122926700Y-114980600D01*
X122926700Y-114980600D02*
X100577300Y-114980600D01*
X100577300Y-114980600D02*
X95834900Y-110238200D01*
X95834900Y-110238200D02*
X95834900Y-105674300D01*
X95834900Y-105674300D02*
X96512600Y-104996600D01*
X96512600Y-104996600D02*
X98392600Y-104996600D01*
X98392600Y-104996600D02*
X99568000Y-106172000D01*
G04 #@! TO.N,/RESET*
X116856800Y-107490300D02*
X117675300Y-106671800D01*
X117675300Y-106671800D02*
X117675300Y-101993900D01*
X117675300Y-101993900D02*
X120406300Y-99262900D01*
G04 #@! TO.N,/ADDS1*
X127228700Y-95206000D02*
X127603400Y-95580700D01*
X127603400Y-95580700D02*
X127603400Y-100892600D01*
G04 #@! TD*
D15*
G04 #@! TO.N,GND*
G36*
X126193700Y-95411874D02*
X126351269Y-95792280D01*
X126642420Y-96083431D01*
X126843400Y-96166680D01*
X126843401Y-100188888D01*
X126725969Y-100306320D01*
X126568400Y-100686726D01*
X126568400Y-101098474D01*
X126725969Y-101478880D01*
X127017120Y-101770031D01*
X127397526Y-101927600D01*
X127809274Y-101927600D01*
X128189680Y-101770031D01*
X128480831Y-101478880D01*
X128638400Y-101098474D01*
X128638400Y-100686726D01*
X128480831Y-100306320D01*
X128363400Y-100188889D01*
X128363400Y-95655548D01*
X128378288Y-95580700D01*
X128363400Y-95505852D01*
X128363400Y-95505848D01*
X128325671Y-95316172D01*
X131381300Y-98371802D01*
X131381300Y-98537874D01*
X131538869Y-98918280D01*
X131830020Y-99209431D01*
X132210426Y-99367000D01*
X132376499Y-99367000D01*
X133756100Y-100746602D01*
X133756101Y-105341288D01*
X133638669Y-105458720D01*
X133481100Y-105839126D01*
X133481100Y-106250874D01*
X133638669Y-106631280D01*
X133929820Y-106922431D01*
X134164331Y-107019568D01*
X134068628Y-107115271D01*
X134005172Y-107157671D01*
X133962772Y-107221127D01*
X133962771Y-107221128D01*
X133837197Y-107409063D01*
X133834307Y-107423591D01*
X133811904Y-107310963D01*
X133811904Y-107310962D01*
X133686329Y-107123027D01*
X133643929Y-107059571D01*
X133580473Y-107017171D01*
X131871700Y-105308399D01*
X131871700Y-105142326D01*
X131714131Y-104761920D01*
X131422980Y-104470769D01*
X131042574Y-104313200D01*
X130630826Y-104313200D01*
X130250420Y-104470769D01*
X129959269Y-104761920D01*
X129801700Y-105142326D01*
X129801700Y-105554074D01*
X129959269Y-105934480D01*
X130250420Y-106225631D01*
X130630826Y-106383200D01*
X130796899Y-106383200D01*
X132336001Y-107922303D01*
X132336000Y-112005822D01*
X132025375Y-112213375D01*
X131812157Y-112532478D01*
X131751183Y-112402642D01*
X131322924Y-112012355D01*
X130912890Y-111842524D01*
X130683000Y-111963845D01*
X130683000Y-113157000D01*
X130703000Y-113157000D01*
X130703000Y-113411000D01*
X130683000Y-113411000D01*
X130683000Y-113431000D01*
X130429000Y-113431000D01*
X130429000Y-113411000D01*
X130409000Y-113411000D01*
X130409000Y-113157000D01*
X130429000Y-113157000D01*
X130429000Y-111963845D01*
X130199110Y-111842524D01*
X129789076Y-112012355D01*
X129360817Y-112402642D01*
X129299843Y-112532478D01*
X129086625Y-112213375D01*
X128769571Y-112001526D01*
X128731904Y-111812163D01*
X128661618Y-111706972D01*
X128606329Y-111624226D01*
X128606327Y-111624224D01*
X128563929Y-111560771D01*
X128500476Y-111518373D01*
X125981100Y-108998999D01*
X125981100Y-108551589D01*
X126072626Y-108589500D01*
X126484374Y-108589500D01*
X126864780Y-108431931D01*
X127155931Y-108140780D01*
X127313500Y-107760374D01*
X127313500Y-107348626D01*
X127155931Y-106968220D01*
X127038500Y-106850789D01*
X127038500Y-106357846D01*
X127053388Y-106282999D01*
X127038500Y-106208152D01*
X127038500Y-106208148D01*
X126994404Y-105986463D01*
X126826429Y-105735071D01*
X126762973Y-105692671D01*
X122620800Y-101550499D01*
X122620800Y-95744811D01*
X122771831Y-95593780D01*
X122929400Y-95213374D01*
X122929400Y-95012900D01*
X126193700Y-95012900D01*
X126193700Y-95411874D01*
X126193700Y-95411874D01*
G37*
X126193700Y-95411874D02*
X126351269Y-95792280D01*
X126642420Y-96083431D01*
X126843400Y-96166680D01*
X126843401Y-100188888D01*
X126725969Y-100306320D01*
X126568400Y-100686726D01*
X126568400Y-101098474D01*
X126725969Y-101478880D01*
X127017120Y-101770031D01*
X127397526Y-101927600D01*
X127809274Y-101927600D01*
X128189680Y-101770031D01*
X128480831Y-101478880D01*
X128638400Y-101098474D01*
X128638400Y-100686726D01*
X128480831Y-100306320D01*
X128363400Y-100188889D01*
X128363400Y-95655548D01*
X128378288Y-95580700D01*
X128363400Y-95505852D01*
X128363400Y-95505848D01*
X128325671Y-95316172D01*
X131381300Y-98371802D01*
X131381300Y-98537874D01*
X131538869Y-98918280D01*
X131830020Y-99209431D01*
X132210426Y-99367000D01*
X132376499Y-99367000D01*
X133756100Y-100746602D01*
X133756101Y-105341288D01*
X133638669Y-105458720D01*
X133481100Y-105839126D01*
X133481100Y-106250874D01*
X133638669Y-106631280D01*
X133929820Y-106922431D01*
X134164331Y-107019568D01*
X134068628Y-107115271D01*
X134005172Y-107157671D01*
X133962772Y-107221127D01*
X133962771Y-107221128D01*
X133837197Y-107409063D01*
X133834307Y-107423591D01*
X133811904Y-107310963D01*
X133811904Y-107310962D01*
X133686329Y-107123027D01*
X133643929Y-107059571D01*
X133580473Y-107017171D01*
X131871700Y-105308399D01*
X131871700Y-105142326D01*
X131714131Y-104761920D01*
X131422980Y-104470769D01*
X131042574Y-104313200D01*
X130630826Y-104313200D01*
X130250420Y-104470769D01*
X129959269Y-104761920D01*
X129801700Y-105142326D01*
X129801700Y-105554074D01*
X129959269Y-105934480D01*
X130250420Y-106225631D01*
X130630826Y-106383200D01*
X130796899Y-106383200D01*
X132336001Y-107922303D01*
X132336000Y-112005822D01*
X132025375Y-112213375D01*
X131812157Y-112532478D01*
X131751183Y-112402642D01*
X131322924Y-112012355D01*
X130912890Y-111842524D01*
X130683000Y-111963845D01*
X130683000Y-113157000D01*
X130703000Y-113157000D01*
X130703000Y-113411000D01*
X130683000Y-113411000D01*
X130683000Y-113431000D01*
X130429000Y-113431000D01*
X130429000Y-113411000D01*
X130409000Y-113411000D01*
X130409000Y-113157000D01*
X130429000Y-113157000D01*
X130429000Y-111963845D01*
X130199110Y-111842524D01*
X129789076Y-112012355D01*
X129360817Y-112402642D01*
X129299843Y-112532478D01*
X129086625Y-112213375D01*
X128769571Y-112001526D01*
X128731904Y-111812163D01*
X128661618Y-111706972D01*
X128606329Y-111624226D01*
X128606327Y-111624224D01*
X128563929Y-111560771D01*
X128500476Y-111518373D01*
X125981100Y-108998999D01*
X125981100Y-108551589D01*
X126072626Y-108589500D01*
X126484374Y-108589500D01*
X126864780Y-108431931D01*
X127155931Y-108140780D01*
X127313500Y-107760374D01*
X127313500Y-107348626D01*
X127155931Y-106968220D01*
X127038500Y-106850789D01*
X127038500Y-106357846D01*
X127053388Y-106282999D01*
X127038500Y-106208152D01*
X127038500Y-106208148D01*
X126994404Y-105986463D01*
X126826429Y-105735071D01*
X126762973Y-105692671D01*
X122620800Y-101550499D01*
X122620800Y-95744811D01*
X122771831Y-95593780D01*
X122929400Y-95213374D01*
X122929400Y-95012900D01*
X126193700Y-95012900D01*
X126193700Y-95411874D01*
G36*
X99695000Y-108585000D02*
X99715000Y-108585000D01*
X99715000Y-108839000D01*
X99695000Y-108839000D01*
X99695000Y-110032819D01*
X99924892Y-110153486D01*
X100449358Y-109907183D01*
X100839645Y-109478924D01*
X100865295Y-109416997D01*
X101673901Y-110225604D01*
X101673901Y-111799000D01*
X101377750Y-111799000D01*
X101219000Y-111957750D01*
X101219000Y-113157000D01*
X101239000Y-113157000D01*
X101239000Y-113411000D01*
X101219000Y-113411000D01*
X101219000Y-113431000D01*
X100965000Y-113431000D01*
X100965000Y-113411000D01*
X100945000Y-113411000D01*
X100945000Y-113157000D01*
X100965000Y-113157000D01*
X100965000Y-111957750D01*
X100806250Y-111799000D01*
X100115690Y-111799000D01*
X99882301Y-111895673D01*
X99703673Y-112074302D01*
X99607000Y-112307691D01*
X99607000Y-112935498D01*
X96865213Y-110193712D01*
X96881744Y-110197000D01*
X97174256Y-110197000D01*
X97607418Y-110110839D01*
X98098625Y-109782625D01*
X98299353Y-109482214D01*
X98686642Y-109907183D01*
X99211108Y-110153486D01*
X99441000Y-110032819D01*
X99441000Y-108839000D01*
X99421000Y-108839000D01*
X99421000Y-108585000D01*
X99441000Y-108585000D01*
X99441000Y-108565000D01*
X99695000Y-108565000D01*
X99695000Y-108585000D01*
X99695000Y-108585000D01*
G37*
X99695000Y-108585000D02*
X99715000Y-108585000D01*
X99715000Y-108839000D01*
X99695000Y-108839000D01*
X99695000Y-110032819D01*
X99924892Y-110153486D01*
X100449358Y-109907183D01*
X100839645Y-109478924D01*
X100865295Y-109416997D01*
X101673901Y-110225604D01*
X101673901Y-111799000D01*
X101377750Y-111799000D01*
X101219000Y-111957750D01*
X101219000Y-113157000D01*
X101239000Y-113157000D01*
X101239000Y-113411000D01*
X101219000Y-113411000D01*
X101219000Y-113431000D01*
X100965000Y-113431000D01*
X100965000Y-113411000D01*
X100945000Y-113411000D01*
X100945000Y-113157000D01*
X100965000Y-113157000D01*
X100965000Y-111957750D01*
X100806250Y-111799000D01*
X100115690Y-111799000D01*
X99882301Y-111895673D01*
X99703673Y-112074302D01*
X99607000Y-112307691D01*
X99607000Y-112935498D01*
X96865213Y-110193712D01*
X96881744Y-110197000D01*
X97174256Y-110197000D01*
X97607418Y-110110839D01*
X98098625Y-109782625D01*
X98299353Y-109482214D01*
X98686642Y-109907183D01*
X99211108Y-110153486D01*
X99441000Y-110032819D01*
X99441000Y-108839000D01*
X99421000Y-108839000D01*
X99421000Y-108585000D01*
X99441000Y-108585000D01*
X99441000Y-108565000D01*
X99695000Y-108565000D01*
X99695000Y-108585000D01*
G36*
X98679000Y-98425000D02*
X98699000Y-98425000D01*
X98699000Y-98679000D01*
X98679000Y-98679000D01*
X98679000Y-99872819D01*
X98908892Y-99993486D01*
X98986801Y-99956898D01*
X98986801Y-101958565D01*
X98977672Y-101972227D01*
X98977671Y-101972228D01*
X98852097Y-102160163D01*
X98814430Y-102349525D01*
X98497375Y-102561375D01*
X98485184Y-102579619D01*
X98476157Y-102534235D01*
X98335809Y-102324191D01*
X98125765Y-102183843D01*
X97878000Y-102134560D01*
X97788000Y-102134560D01*
X97788000Y-99802297D01*
X98195108Y-99993486D01*
X98425000Y-99872819D01*
X98425000Y-98679000D01*
X98405000Y-98679000D01*
X98405000Y-98425000D01*
X98425000Y-98425000D01*
X98425000Y-98405000D01*
X98679000Y-98405000D01*
X98679000Y-98425000D01*
X98679000Y-98425000D01*
G37*
X98679000Y-98425000D02*
X98699000Y-98425000D01*
X98699000Y-98679000D01*
X98679000Y-98679000D01*
X98679000Y-99872819D01*
X98908892Y-99993486D01*
X98986801Y-99956898D01*
X98986801Y-101958565D01*
X98977672Y-101972227D01*
X98977671Y-101972228D01*
X98852097Y-102160163D01*
X98814430Y-102349525D01*
X98497375Y-102561375D01*
X98485184Y-102579619D01*
X98476157Y-102534235D01*
X98335809Y-102324191D01*
X98125765Y-102183843D01*
X97878000Y-102134560D01*
X97788000Y-102134560D01*
X97788000Y-99802297D01*
X98195108Y-99993486D01*
X98425000Y-99872819D01*
X98425000Y-98679000D01*
X98405000Y-98679000D01*
X98405000Y-98425000D01*
X98425000Y-98425000D01*
X98425000Y-98405000D01*
X98679000Y-98405000D01*
X98679000Y-98425000D01*
G36*
X103671000Y-92678250D02*
X103829750Y-92837000D01*
X105029000Y-92837000D01*
X105029000Y-92817000D01*
X105283000Y-92817000D01*
X105283000Y-92837000D01*
X105303000Y-92837000D01*
X105303000Y-93091000D01*
X105283000Y-93091000D01*
X105283000Y-93111000D01*
X105029000Y-93111000D01*
X105029000Y-93091000D01*
X103829750Y-93091000D01*
X103671000Y-93249750D01*
X103671000Y-93940309D01*
X103767673Y-94173698D01*
X103946301Y-94352327D01*
X104179690Y-94449000D01*
X104768898Y-94449000D01*
X103965899Y-95252000D01*
X100049440Y-95252000D01*
X100049440Y-95162000D01*
X100000157Y-94914235D01*
X99859809Y-94704191D01*
X99649765Y-94563843D01*
X99402000Y-94514560D01*
X98958442Y-94514560D01*
X100924403Y-92548600D01*
X103671000Y-92548600D01*
X103671000Y-92678250D01*
X103671000Y-92678250D01*
G37*
X103671000Y-92678250D02*
X103829750Y-92837000D01*
X105029000Y-92837000D01*
X105029000Y-92817000D01*
X105283000Y-92817000D01*
X105283000Y-92837000D01*
X105303000Y-92837000D01*
X105303000Y-93091000D01*
X105283000Y-93091000D01*
X105283000Y-93111000D01*
X105029000Y-93111000D01*
X105029000Y-93091000D01*
X103829750Y-93091000D01*
X103671000Y-93249750D01*
X103671000Y-93940309D01*
X103767673Y-94173698D01*
X103946301Y-94352327D01*
X104179690Y-94449000D01*
X104768898Y-94449000D01*
X103965899Y-95252000D01*
X100049440Y-95252000D01*
X100049440Y-95162000D01*
X100000157Y-94914235D01*
X99859809Y-94704191D01*
X99649765Y-94563843D01*
X99402000Y-94514560D01*
X98958442Y-94514560D01*
X100924403Y-92548600D01*
X103671000Y-92548600D01*
X103671000Y-92678250D01*
G04 #@! TD*
M02*
