G04 #@! TF.GenerationSoftware,KiCad,Pcbnew,5.0.2-bee76a0~70~ubuntu18.04.1*
G04 #@! TF.CreationDate,2019-02-19T10:43:49+11:00*
G04 #@! TF.ProjectId,BACEE,42414345-452e-46b6-9963-61645f706362,2*
G04 #@! TF.SameCoordinates,Original*
G04 #@! TF.FileFunction,Copper,L1,Top*
G04 #@! TF.FilePolarity,Positive*
%FSLAX46Y46*%
G04 Gerber Fmt 4.6, Leading zero omitted, Abs format (unit mm)*
G04 Created by KiCad (PCBNEW 5.0.2-bee76a0~70~ubuntu18.04.1) date Tue 19 Feb 2019 10:43:49 AM AEDT*
%MOMM*%
%LPD*%
G01*
G04 APERTURE LIST*
G04 #@! TA.AperFunction,ComponentPad*
%ADD10R,1.700000X1.700000*%
G04 #@! TD*
G04 #@! TA.AperFunction,ComponentPad*
%ADD11O,1.700000X1.700000*%
G04 #@! TD*
G04 #@! TA.AperFunction,Conductor*
%ADD12C,0.100000*%
G04 #@! TD*
G04 #@! TA.AperFunction,SMDPad,CuDef*
%ADD13C,1.150000*%
G04 #@! TD*
G04 #@! TA.AperFunction,SMDPad,CuDef*
%ADD14R,1.700000X0.650000*%
G04 #@! TD*
G04 #@! TA.AperFunction,SMDPad,CuDef*
%ADD15R,1.750000X0.550000*%
G04 #@! TD*
G04 #@! TA.AperFunction,SMDPad,CuDef*
%ADD16R,0.550000X1.500000*%
G04 #@! TD*
G04 #@! TA.AperFunction,SMDPad,CuDef*
%ADD17R,1.500000X0.550000*%
G04 #@! TD*
G04 #@! TA.AperFunction,SMDPad,CuDef*
%ADD18R,1.750000X1.800000*%
G04 #@! TD*
G04 #@! TA.AperFunction,SMDPad,CuDef*
%ADD19R,3.500000X2.400000*%
G04 #@! TD*
G04 #@! TA.AperFunction,ComponentPad*
%ADD20C,2.400000*%
G04 #@! TD*
G04 #@! TA.AperFunction,ViaPad*
%ADD21C,0.800000*%
G04 #@! TD*
G04 #@! TA.AperFunction,Conductor*
%ADD22C,0.250000*%
G04 #@! TD*
G04 #@! TA.AperFunction,Conductor*
%ADD23C,0.254000*%
G04 #@! TD*
G04 APERTURE END LIST*
D10*
G04 #@! TO.P,BT1,1*
G04 #@! TO.N,/Vcc*
X98552000Y-96012000D03*
D11*
G04 #@! TO.P,BT1,2*
G04 #@! TO.N,GND*
X98552000Y-98552000D03*
G04 #@! TD*
D12*
G04 #@! TO.N,Net-(C1-Pad1)*
G04 #@! TO.C,C1*
G36*
X123276505Y-109029204D02*
X123300773Y-109032804D01*
X123324572Y-109038765D01*
X123347671Y-109047030D01*
X123369850Y-109057520D01*
X123390893Y-109070132D01*
X123410599Y-109084747D01*
X123428777Y-109101223D01*
X123445253Y-109119401D01*
X123459868Y-109139107D01*
X123472480Y-109160150D01*
X123482970Y-109182329D01*
X123491235Y-109205428D01*
X123497196Y-109229227D01*
X123500796Y-109253495D01*
X123502000Y-109277999D01*
X123502000Y-110178001D01*
X123500796Y-110202505D01*
X123497196Y-110226773D01*
X123491235Y-110250572D01*
X123482970Y-110273671D01*
X123472480Y-110295850D01*
X123459868Y-110316893D01*
X123445253Y-110336599D01*
X123428777Y-110354777D01*
X123410599Y-110371253D01*
X123390893Y-110385868D01*
X123369850Y-110398480D01*
X123347671Y-110408970D01*
X123324572Y-110417235D01*
X123300773Y-110423196D01*
X123276505Y-110426796D01*
X123252001Y-110428000D01*
X122601999Y-110428000D01*
X122577495Y-110426796D01*
X122553227Y-110423196D01*
X122529428Y-110417235D01*
X122506329Y-110408970D01*
X122484150Y-110398480D01*
X122463107Y-110385868D01*
X122443401Y-110371253D01*
X122425223Y-110354777D01*
X122408747Y-110336599D01*
X122394132Y-110316893D01*
X122381520Y-110295850D01*
X122371030Y-110273671D01*
X122362765Y-110250572D01*
X122356804Y-110226773D01*
X122353204Y-110202505D01*
X122352000Y-110178001D01*
X122352000Y-109277999D01*
X122353204Y-109253495D01*
X122356804Y-109229227D01*
X122362765Y-109205428D01*
X122371030Y-109182329D01*
X122381520Y-109160150D01*
X122394132Y-109139107D01*
X122408747Y-109119401D01*
X122425223Y-109101223D01*
X122443401Y-109084747D01*
X122463107Y-109070132D01*
X122484150Y-109057520D01*
X122506329Y-109047030D01*
X122529428Y-109038765D01*
X122553227Y-109032804D01*
X122577495Y-109029204D01*
X122601999Y-109028000D01*
X123252001Y-109028000D01*
X123276505Y-109029204D01*
X123276505Y-109029204D01*
G37*
D13*
G04 #@! TD*
G04 #@! TO.P,C1,1*
G04 #@! TO.N,Net-(C1-Pad1)*
X122927000Y-109728000D03*
D12*
G04 #@! TO.N,GND*
G04 #@! TO.C,C1*
G36*
X125326505Y-109029204D02*
X125350773Y-109032804D01*
X125374572Y-109038765D01*
X125397671Y-109047030D01*
X125419850Y-109057520D01*
X125440893Y-109070132D01*
X125460599Y-109084747D01*
X125478777Y-109101223D01*
X125495253Y-109119401D01*
X125509868Y-109139107D01*
X125522480Y-109160150D01*
X125532970Y-109182329D01*
X125541235Y-109205428D01*
X125547196Y-109229227D01*
X125550796Y-109253495D01*
X125552000Y-109277999D01*
X125552000Y-110178001D01*
X125550796Y-110202505D01*
X125547196Y-110226773D01*
X125541235Y-110250572D01*
X125532970Y-110273671D01*
X125522480Y-110295850D01*
X125509868Y-110316893D01*
X125495253Y-110336599D01*
X125478777Y-110354777D01*
X125460599Y-110371253D01*
X125440893Y-110385868D01*
X125419850Y-110398480D01*
X125397671Y-110408970D01*
X125374572Y-110417235D01*
X125350773Y-110423196D01*
X125326505Y-110426796D01*
X125302001Y-110428000D01*
X124651999Y-110428000D01*
X124627495Y-110426796D01*
X124603227Y-110423196D01*
X124579428Y-110417235D01*
X124556329Y-110408970D01*
X124534150Y-110398480D01*
X124513107Y-110385868D01*
X124493401Y-110371253D01*
X124475223Y-110354777D01*
X124458747Y-110336599D01*
X124444132Y-110316893D01*
X124431520Y-110295850D01*
X124421030Y-110273671D01*
X124412765Y-110250572D01*
X124406804Y-110226773D01*
X124403204Y-110202505D01*
X124402000Y-110178001D01*
X124402000Y-109277999D01*
X124403204Y-109253495D01*
X124406804Y-109229227D01*
X124412765Y-109205428D01*
X124421030Y-109182329D01*
X124431520Y-109160150D01*
X124444132Y-109139107D01*
X124458747Y-109119401D01*
X124475223Y-109101223D01*
X124493401Y-109084747D01*
X124513107Y-109070132D01*
X124534150Y-109057520D01*
X124556329Y-109047030D01*
X124579428Y-109038765D01*
X124603227Y-109032804D01*
X124627495Y-109029204D01*
X124651999Y-109028000D01*
X125302001Y-109028000D01*
X125326505Y-109029204D01*
X125326505Y-109029204D01*
G37*
D13*
G04 #@! TD*
G04 #@! TO.P,C1,2*
G04 #@! TO.N,GND*
X124977000Y-109728000D03*
D12*
G04 #@! TO.N,GND*
G04 #@! TO.C,C2*
G36*
X130914505Y-109029204D02*
X130938773Y-109032804D01*
X130962572Y-109038765D01*
X130985671Y-109047030D01*
X131007850Y-109057520D01*
X131028893Y-109070132D01*
X131048599Y-109084747D01*
X131066777Y-109101223D01*
X131083253Y-109119401D01*
X131097868Y-109139107D01*
X131110480Y-109160150D01*
X131120970Y-109182329D01*
X131129235Y-109205428D01*
X131135196Y-109229227D01*
X131138796Y-109253495D01*
X131140000Y-109277999D01*
X131140000Y-110178001D01*
X131138796Y-110202505D01*
X131135196Y-110226773D01*
X131129235Y-110250572D01*
X131120970Y-110273671D01*
X131110480Y-110295850D01*
X131097868Y-110316893D01*
X131083253Y-110336599D01*
X131066777Y-110354777D01*
X131048599Y-110371253D01*
X131028893Y-110385868D01*
X131007850Y-110398480D01*
X130985671Y-110408970D01*
X130962572Y-110417235D01*
X130938773Y-110423196D01*
X130914505Y-110426796D01*
X130890001Y-110428000D01*
X130239999Y-110428000D01*
X130215495Y-110426796D01*
X130191227Y-110423196D01*
X130167428Y-110417235D01*
X130144329Y-110408970D01*
X130122150Y-110398480D01*
X130101107Y-110385868D01*
X130081401Y-110371253D01*
X130063223Y-110354777D01*
X130046747Y-110336599D01*
X130032132Y-110316893D01*
X130019520Y-110295850D01*
X130009030Y-110273671D01*
X130000765Y-110250572D01*
X129994804Y-110226773D01*
X129991204Y-110202505D01*
X129990000Y-110178001D01*
X129990000Y-109277999D01*
X129991204Y-109253495D01*
X129994804Y-109229227D01*
X130000765Y-109205428D01*
X130009030Y-109182329D01*
X130019520Y-109160150D01*
X130032132Y-109139107D01*
X130046747Y-109119401D01*
X130063223Y-109101223D01*
X130081401Y-109084747D01*
X130101107Y-109070132D01*
X130122150Y-109057520D01*
X130144329Y-109047030D01*
X130167428Y-109038765D01*
X130191227Y-109032804D01*
X130215495Y-109029204D01*
X130239999Y-109028000D01*
X130890001Y-109028000D01*
X130914505Y-109029204D01*
X130914505Y-109029204D01*
G37*
D13*
G04 #@! TD*
G04 #@! TO.P,C2,2*
G04 #@! TO.N,GND*
X130565000Y-109728000D03*
D12*
G04 #@! TO.N,Net-(C2-Pad1)*
G04 #@! TO.C,C2*
G36*
X128864505Y-109029204D02*
X128888773Y-109032804D01*
X128912572Y-109038765D01*
X128935671Y-109047030D01*
X128957850Y-109057520D01*
X128978893Y-109070132D01*
X128998599Y-109084747D01*
X129016777Y-109101223D01*
X129033253Y-109119401D01*
X129047868Y-109139107D01*
X129060480Y-109160150D01*
X129070970Y-109182329D01*
X129079235Y-109205428D01*
X129085196Y-109229227D01*
X129088796Y-109253495D01*
X129090000Y-109277999D01*
X129090000Y-110178001D01*
X129088796Y-110202505D01*
X129085196Y-110226773D01*
X129079235Y-110250572D01*
X129070970Y-110273671D01*
X129060480Y-110295850D01*
X129047868Y-110316893D01*
X129033253Y-110336599D01*
X129016777Y-110354777D01*
X128998599Y-110371253D01*
X128978893Y-110385868D01*
X128957850Y-110398480D01*
X128935671Y-110408970D01*
X128912572Y-110417235D01*
X128888773Y-110423196D01*
X128864505Y-110426796D01*
X128840001Y-110428000D01*
X128189999Y-110428000D01*
X128165495Y-110426796D01*
X128141227Y-110423196D01*
X128117428Y-110417235D01*
X128094329Y-110408970D01*
X128072150Y-110398480D01*
X128051107Y-110385868D01*
X128031401Y-110371253D01*
X128013223Y-110354777D01*
X127996747Y-110336599D01*
X127982132Y-110316893D01*
X127969520Y-110295850D01*
X127959030Y-110273671D01*
X127950765Y-110250572D01*
X127944804Y-110226773D01*
X127941204Y-110202505D01*
X127940000Y-110178001D01*
X127940000Y-109277999D01*
X127941204Y-109253495D01*
X127944804Y-109229227D01*
X127950765Y-109205428D01*
X127959030Y-109182329D01*
X127969520Y-109160150D01*
X127982132Y-109139107D01*
X127996747Y-109119401D01*
X128013223Y-109101223D01*
X128031401Y-109084747D01*
X128051107Y-109070132D01*
X128072150Y-109057520D01*
X128094329Y-109047030D01*
X128117428Y-109038765D01*
X128141227Y-109032804D01*
X128165495Y-109029204D01*
X128189999Y-109028000D01*
X128840001Y-109028000D01*
X128864505Y-109029204D01*
X128864505Y-109029204D01*
G37*
D13*
G04 #@! TD*
G04 #@! TO.P,C2,1*
G04 #@! TO.N,Net-(C2-Pad1)*
X128515000Y-109728000D03*
D12*
G04 #@! TO.N,/Vcc*
G04 #@! TO.C,C3*
G36*
X134452505Y-109029204D02*
X134476773Y-109032804D01*
X134500572Y-109038765D01*
X134523671Y-109047030D01*
X134545850Y-109057520D01*
X134566893Y-109070132D01*
X134586599Y-109084747D01*
X134604777Y-109101223D01*
X134621253Y-109119401D01*
X134635868Y-109139107D01*
X134648480Y-109160150D01*
X134658970Y-109182329D01*
X134667235Y-109205428D01*
X134673196Y-109229227D01*
X134676796Y-109253495D01*
X134678000Y-109277999D01*
X134678000Y-110178001D01*
X134676796Y-110202505D01*
X134673196Y-110226773D01*
X134667235Y-110250572D01*
X134658970Y-110273671D01*
X134648480Y-110295850D01*
X134635868Y-110316893D01*
X134621253Y-110336599D01*
X134604777Y-110354777D01*
X134586599Y-110371253D01*
X134566893Y-110385868D01*
X134545850Y-110398480D01*
X134523671Y-110408970D01*
X134500572Y-110417235D01*
X134476773Y-110423196D01*
X134452505Y-110426796D01*
X134428001Y-110428000D01*
X133777999Y-110428000D01*
X133753495Y-110426796D01*
X133729227Y-110423196D01*
X133705428Y-110417235D01*
X133682329Y-110408970D01*
X133660150Y-110398480D01*
X133639107Y-110385868D01*
X133619401Y-110371253D01*
X133601223Y-110354777D01*
X133584747Y-110336599D01*
X133570132Y-110316893D01*
X133557520Y-110295850D01*
X133547030Y-110273671D01*
X133538765Y-110250572D01*
X133532804Y-110226773D01*
X133529204Y-110202505D01*
X133528000Y-110178001D01*
X133528000Y-109277999D01*
X133529204Y-109253495D01*
X133532804Y-109229227D01*
X133538765Y-109205428D01*
X133547030Y-109182329D01*
X133557520Y-109160150D01*
X133570132Y-109139107D01*
X133584747Y-109119401D01*
X133601223Y-109101223D01*
X133619401Y-109084747D01*
X133639107Y-109070132D01*
X133660150Y-109057520D01*
X133682329Y-109047030D01*
X133705428Y-109038765D01*
X133729227Y-109032804D01*
X133753495Y-109029204D01*
X133777999Y-109028000D01*
X134428001Y-109028000D01*
X134452505Y-109029204D01*
X134452505Y-109029204D01*
G37*
D13*
G04 #@! TD*
G04 #@! TO.P,C3,1*
G04 #@! TO.N,/Vcc*
X134103000Y-109728000D03*
D12*
G04 #@! TO.N,GND*
G04 #@! TO.C,C3*
G36*
X136502505Y-109029204D02*
X136526773Y-109032804D01*
X136550572Y-109038765D01*
X136573671Y-109047030D01*
X136595850Y-109057520D01*
X136616893Y-109070132D01*
X136636599Y-109084747D01*
X136654777Y-109101223D01*
X136671253Y-109119401D01*
X136685868Y-109139107D01*
X136698480Y-109160150D01*
X136708970Y-109182329D01*
X136717235Y-109205428D01*
X136723196Y-109229227D01*
X136726796Y-109253495D01*
X136728000Y-109277999D01*
X136728000Y-110178001D01*
X136726796Y-110202505D01*
X136723196Y-110226773D01*
X136717235Y-110250572D01*
X136708970Y-110273671D01*
X136698480Y-110295850D01*
X136685868Y-110316893D01*
X136671253Y-110336599D01*
X136654777Y-110354777D01*
X136636599Y-110371253D01*
X136616893Y-110385868D01*
X136595850Y-110398480D01*
X136573671Y-110408970D01*
X136550572Y-110417235D01*
X136526773Y-110423196D01*
X136502505Y-110426796D01*
X136478001Y-110428000D01*
X135827999Y-110428000D01*
X135803495Y-110426796D01*
X135779227Y-110423196D01*
X135755428Y-110417235D01*
X135732329Y-110408970D01*
X135710150Y-110398480D01*
X135689107Y-110385868D01*
X135669401Y-110371253D01*
X135651223Y-110354777D01*
X135634747Y-110336599D01*
X135620132Y-110316893D01*
X135607520Y-110295850D01*
X135597030Y-110273671D01*
X135588765Y-110250572D01*
X135582804Y-110226773D01*
X135579204Y-110202505D01*
X135578000Y-110178001D01*
X135578000Y-109277999D01*
X135579204Y-109253495D01*
X135582804Y-109229227D01*
X135588765Y-109205428D01*
X135597030Y-109182329D01*
X135607520Y-109160150D01*
X135620132Y-109139107D01*
X135634747Y-109119401D01*
X135651223Y-109101223D01*
X135669401Y-109084747D01*
X135689107Y-109070132D01*
X135710150Y-109057520D01*
X135732329Y-109047030D01*
X135755428Y-109038765D01*
X135779227Y-109032804D01*
X135803495Y-109029204D01*
X135827999Y-109028000D01*
X136478001Y-109028000D01*
X136502505Y-109029204D01*
X136502505Y-109029204D01*
G37*
D13*
G04 #@! TD*
G04 #@! TO.P,C3,2*
G04 #@! TO.N,GND*
X136153000Y-109728000D03*
D12*
G04 #@! TO.N,Net-(D1-Pad1)*
G04 #@! TO.C,D1*
G36*
X106512505Y-109029204D02*
X106536773Y-109032804D01*
X106560572Y-109038765D01*
X106583671Y-109047030D01*
X106605850Y-109057520D01*
X106626893Y-109070132D01*
X106646599Y-109084747D01*
X106664777Y-109101223D01*
X106681253Y-109119401D01*
X106695868Y-109139107D01*
X106708480Y-109160150D01*
X106718970Y-109182329D01*
X106727235Y-109205428D01*
X106733196Y-109229227D01*
X106736796Y-109253495D01*
X106738000Y-109277999D01*
X106738000Y-110178001D01*
X106736796Y-110202505D01*
X106733196Y-110226773D01*
X106727235Y-110250572D01*
X106718970Y-110273671D01*
X106708480Y-110295850D01*
X106695868Y-110316893D01*
X106681253Y-110336599D01*
X106664777Y-110354777D01*
X106646599Y-110371253D01*
X106626893Y-110385868D01*
X106605850Y-110398480D01*
X106583671Y-110408970D01*
X106560572Y-110417235D01*
X106536773Y-110423196D01*
X106512505Y-110426796D01*
X106488001Y-110428000D01*
X105837999Y-110428000D01*
X105813495Y-110426796D01*
X105789227Y-110423196D01*
X105765428Y-110417235D01*
X105742329Y-110408970D01*
X105720150Y-110398480D01*
X105699107Y-110385868D01*
X105679401Y-110371253D01*
X105661223Y-110354777D01*
X105644747Y-110336599D01*
X105630132Y-110316893D01*
X105617520Y-110295850D01*
X105607030Y-110273671D01*
X105598765Y-110250572D01*
X105592804Y-110226773D01*
X105589204Y-110202505D01*
X105588000Y-110178001D01*
X105588000Y-109277999D01*
X105589204Y-109253495D01*
X105592804Y-109229227D01*
X105598765Y-109205428D01*
X105607030Y-109182329D01*
X105617520Y-109160150D01*
X105630132Y-109139107D01*
X105644747Y-109119401D01*
X105661223Y-109101223D01*
X105679401Y-109084747D01*
X105699107Y-109070132D01*
X105720150Y-109057520D01*
X105742329Y-109047030D01*
X105765428Y-109038765D01*
X105789227Y-109032804D01*
X105813495Y-109029204D01*
X105837999Y-109028000D01*
X106488001Y-109028000D01*
X106512505Y-109029204D01*
X106512505Y-109029204D01*
G37*
D13*
G04 #@! TD*
G04 #@! TO.P,D1,1*
G04 #@! TO.N,Net-(D1-Pad1)*
X106163000Y-109728000D03*
D12*
G04 #@! TO.N,/SCK*
G04 #@! TO.C,D1*
G36*
X108562505Y-109029204D02*
X108586773Y-109032804D01*
X108610572Y-109038765D01*
X108633671Y-109047030D01*
X108655850Y-109057520D01*
X108676893Y-109070132D01*
X108696599Y-109084747D01*
X108714777Y-109101223D01*
X108731253Y-109119401D01*
X108745868Y-109139107D01*
X108758480Y-109160150D01*
X108768970Y-109182329D01*
X108777235Y-109205428D01*
X108783196Y-109229227D01*
X108786796Y-109253495D01*
X108788000Y-109277999D01*
X108788000Y-110178001D01*
X108786796Y-110202505D01*
X108783196Y-110226773D01*
X108777235Y-110250572D01*
X108768970Y-110273671D01*
X108758480Y-110295850D01*
X108745868Y-110316893D01*
X108731253Y-110336599D01*
X108714777Y-110354777D01*
X108696599Y-110371253D01*
X108676893Y-110385868D01*
X108655850Y-110398480D01*
X108633671Y-110408970D01*
X108610572Y-110417235D01*
X108586773Y-110423196D01*
X108562505Y-110426796D01*
X108538001Y-110428000D01*
X107887999Y-110428000D01*
X107863495Y-110426796D01*
X107839227Y-110423196D01*
X107815428Y-110417235D01*
X107792329Y-110408970D01*
X107770150Y-110398480D01*
X107749107Y-110385868D01*
X107729401Y-110371253D01*
X107711223Y-110354777D01*
X107694747Y-110336599D01*
X107680132Y-110316893D01*
X107667520Y-110295850D01*
X107657030Y-110273671D01*
X107648765Y-110250572D01*
X107642804Y-110226773D01*
X107639204Y-110202505D01*
X107638000Y-110178001D01*
X107638000Y-109277999D01*
X107639204Y-109253495D01*
X107642804Y-109229227D01*
X107648765Y-109205428D01*
X107657030Y-109182329D01*
X107667520Y-109160150D01*
X107680132Y-109139107D01*
X107694747Y-109119401D01*
X107711223Y-109101223D01*
X107729401Y-109084747D01*
X107749107Y-109070132D01*
X107770150Y-109057520D01*
X107792329Y-109047030D01*
X107815428Y-109038765D01*
X107839227Y-109032804D01*
X107863495Y-109029204D01*
X107887999Y-109028000D01*
X108538001Y-109028000D01*
X108562505Y-109029204D01*
X108562505Y-109029204D01*
G37*
D13*
G04 #@! TD*
G04 #@! TO.P,D1,2*
G04 #@! TO.N,/SCK*
X108213000Y-109728000D03*
D11*
G04 #@! TO.P,J2,4*
G04 #@! TO.N,/SCK*
X108712000Y-113284000D03*
G04 #@! TO.P,J2,3*
G04 #@! TO.N,/SDA*
X106172000Y-113284000D03*
G04 #@! TO.P,J2,2*
G04 #@! TO.N,/Vcc*
X103632000Y-113284000D03*
D10*
G04 #@! TO.P,J2,1*
G04 #@! TO.N,GND*
X101092000Y-113284000D03*
G04 #@! TD*
G04 #@! TO.P,J3,1*
G04 #@! TO.N,/D2*
X112776000Y-113284000D03*
D11*
G04 #@! TO.P,J3,2*
G04 #@! TO.N,/D3*
X115316000Y-113284000D03*
G04 #@! TO.P,J3,3*
G04 #@! TO.N,/D4*
X117856000Y-113284000D03*
G04 #@! TO.P,J3,4*
G04 #@! TO.N,/D5*
X120396000Y-113284000D03*
G04 #@! TO.P,J3,5*
G04 #@! TO.N,/D6*
X122936000Y-113284000D03*
G04 #@! TO.P,J3,6*
G04 #@! TO.N,/D7*
X125476000Y-113284000D03*
G04 #@! TO.P,J3,7*
G04 #@! TO.N,/D8*
X128016000Y-113284000D03*
G04 #@! TO.P,J3,8*
G04 #@! TO.N,GND*
X130556000Y-113284000D03*
G04 #@! TO.P,J3,9*
G04 #@! TO.N,/Vcc*
X133096000Y-113284000D03*
G04 #@! TD*
D10*
G04 #@! TO.P,J4,1*
G04 #@! TO.N,GND*
X105156000Y-92964000D03*
D11*
G04 #@! TO.P,J4,2*
G04 #@! TO.N,/Vcc*
X107696000Y-92964000D03*
G04 #@! TO.P,J4,3*
G04 #@! TO.N,/RX*
X110236000Y-92964000D03*
G04 #@! TO.P,J4,4*
G04 #@! TO.N,/TX*
X112776000Y-92964000D03*
G04 #@! TD*
D10*
G04 #@! TO.P,J5,1*
G04 #@! TO.N,/MISO*
X97028000Y-103632000D03*
D11*
G04 #@! TO.P,J5,2*
G04 #@! TO.N,/Vcc*
X99568000Y-103632000D03*
G04 #@! TO.P,J5,3*
G04 #@! TO.N,/SCK*
X97028000Y-106172000D03*
G04 #@! TO.P,J5,4*
G04 #@! TO.N,/MOSI*
X99568000Y-106172000D03*
G04 #@! TO.P,J5,5*
G04 #@! TO.N,/RESET*
X97028000Y-108712000D03*
G04 #@! TO.P,J5,6*
G04 #@! TO.N,GND*
X99568000Y-108712000D03*
G04 #@! TD*
D12*
G04 #@! TO.N,Net-(D1-Pad1)*
G04 #@! TO.C,R1*
G36*
X114150505Y-109029204D02*
X114174773Y-109032804D01*
X114198572Y-109038765D01*
X114221671Y-109047030D01*
X114243850Y-109057520D01*
X114264893Y-109070132D01*
X114284599Y-109084747D01*
X114302777Y-109101223D01*
X114319253Y-109119401D01*
X114333868Y-109139107D01*
X114346480Y-109160150D01*
X114356970Y-109182329D01*
X114365235Y-109205428D01*
X114371196Y-109229227D01*
X114374796Y-109253495D01*
X114376000Y-109277999D01*
X114376000Y-110178001D01*
X114374796Y-110202505D01*
X114371196Y-110226773D01*
X114365235Y-110250572D01*
X114356970Y-110273671D01*
X114346480Y-110295850D01*
X114333868Y-110316893D01*
X114319253Y-110336599D01*
X114302777Y-110354777D01*
X114284599Y-110371253D01*
X114264893Y-110385868D01*
X114243850Y-110398480D01*
X114221671Y-110408970D01*
X114198572Y-110417235D01*
X114174773Y-110423196D01*
X114150505Y-110426796D01*
X114126001Y-110428000D01*
X113475999Y-110428000D01*
X113451495Y-110426796D01*
X113427227Y-110423196D01*
X113403428Y-110417235D01*
X113380329Y-110408970D01*
X113358150Y-110398480D01*
X113337107Y-110385868D01*
X113317401Y-110371253D01*
X113299223Y-110354777D01*
X113282747Y-110336599D01*
X113268132Y-110316893D01*
X113255520Y-110295850D01*
X113245030Y-110273671D01*
X113236765Y-110250572D01*
X113230804Y-110226773D01*
X113227204Y-110202505D01*
X113226000Y-110178001D01*
X113226000Y-109277999D01*
X113227204Y-109253495D01*
X113230804Y-109229227D01*
X113236765Y-109205428D01*
X113245030Y-109182329D01*
X113255520Y-109160150D01*
X113268132Y-109139107D01*
X113282747Y-109119401D01*
X113299223Y-109101223D01*
X113317401Y-109084747D01*
X113337107Y-109070132D01*
X113358150Y-109057520D01*
X113380329Y-109047030D01*
X113403428Y-109038765D01*
X113427227Y-109032804D01*
X113451495Y-109029204D01*
X113475999Y-109028000D01*
X114126001Y-109028000D01*
X114150505Y-109029204D01*
X114150505Y-109029204D01*
G37*
D13*
G04 #@! TD*
G04 #@! TO.P,R1,2*
G04 #@! TO.N,Net-(D1-Pad1)*
X113801000Y-109728000D03*
D12*
G04 #@! TO.N,GND*
G04 #@! TO.C,R1*
G36*
X112100505Y-109029204D02*
X112124773Y-109032804D01*
X112148572Y-109038765D01*
X112171671Y-109047030D01*
X112193850Y-109057520D01*
X112214893Y-109070132D01*
X112234599Y-109084747D01*
X112252777Y-109101223D01*
X112269253Y-109119401D01*
X112283868Y-109139107D01*
X112296480Y-109160150D01*
X112306970Y-109182329D01*
X112315235Y-109205428D01*
X112321196Y-109229227D01*
X112324796Y-109253495D01*
X112326000Y-109277999D01*
X112326000Y-110178001D01*
X112324796Y-110202505D01*
X112321196Y-110226773D01*
X112315235Y-110250572D01*
X112306970Y-110273671D01*
X112296480Y-110295850D01*
X112283868Y-110316893D01*
X112269253Y-110336599D01*
X112252777Y-110354777D01*
X112234599Y-110371253D01*
X112214893Y-110385868D01*
X112193850Y-110398480D01*
X112171671Y-110408970D01*
X112148572Y-110417235D01*
X112124773Y-110423196D01*
X112100505Y-110426796D01*
X112076001Y-110428000D01*
X111425999Y-110428000D01*
X111401495Y-110426796D01*
X111377227Y-110423196D01*
X111353428Y-110417235D01*
X111330329Y-110408970D01*
X111308150Y-110398480D01*
X111287107Y-110385868D01*
X111267401Y-110371253D01*
X111249223Y-110354777D01*
X111232747Y-110336599D01*
X111218132Y-110316893D01*
X111205520Y-110295850D01*
X111195030Y-110273671D01*
X111186765Y-110250572D01*
X111180804Y-110226773D01*
X111177204Y-110202505D01*
X111176000Y-110178001D01*
X111176000Y-109277999D01*
X111177204Y-109253495D01*
X111180804Y-109229227D01*
X111186765Y-109205428D01*
X111195030Y-109182329D01*
X111205520Y-109160150D01*
X111218132Y-109139107D01*
X111232747Y-109119401D01*
X111249223Y-109101223D01*
X111267401Y-109084747D01*
X111287107Y-109070132D01*
X111308150Y-109057520D01*
X111330329Y-109047030D01*
X111353428Y-109038765D01*
X111377227Y-109032804D01*
X111401495Y-109029204D01*
X111425999Y-109028000D01*
X112076001Y-109028000D01*
X112100505Y-109029204D01*
X112100505Y-109029204D01*
G37*
D13*
G04 #@! TD*
G04 #@! TO.P,R1,1*
G04 #@! TO.N,GND*
X111751000Y-109728000D03*
D12*
G04 #@! TO.N,/RESET*
G04 #@! TO.C,R2*
G36*
X117688505Y-109029204D02*
X117712773Y-109032804D01*
X117736572Y-109038765D01*
X117759671Y-109047030D01*
X117781850Y-109057520D01*
X117802893Y-109070132D01*
X117822599Y-109084747D01*
X117840777Y-109101223D01*
X117857253Y-109119401D01*
X117871868Y-109139107D01*
X117884480Y-109160150D01*
X117894970Y-109182329D01*
X117903235Y-109205428D01*
X117909196Y-109229227D01*
X117912796Y-109253495D01*
X117914000Y-109277999D01*
X117914000Y-110178001D01*
X117912796Y-110202505D01*
X117909196Y-110226773D01*
X117903235Y-110250572D01*
X117894970Y-110273671D01*
X117884480Y-110295850D01*
X117871868Y-110316893D01*
X117857253Y-110336599D01*
X117840777Y-110354777D01*
X117822599Y-110371253D01*
X117802893Y-110385868D01*
X117781850Y-110398480D01*
X117759671Y-110408970D01*
X117736572Y-110417235D01*
X117712773Y-110423196D01*
X117688505Y-110426796D01*
X117664001Y-110428000D01*
X117013999Y-110428000D01*
X116989495Y-110426796D01*
X116965227Y-110423196D01*
X116941428Y-110417235D01*
X116918329Y-110408970D01*
X116896150Y-110398480D01*
X116875107Y-110385868D01*
X116855401Y-110371253D01*
X116837223Y-110354777D01*
X116820747Y-110336599D01*
X116806132Y-110316893D01*
X116793520Y-110295850D01*
X116783030Y-110273671D01*
X116774765Y-110250572D01*
X116768804Y-110226773D01*
X116765204Y-110202505D01*
X116764000Y-110178001D01*
X116764000Y-109277999D01*
X116765204Y-109253495D01*
X116768804Y-109229227D01*
X116774765Y-109205428D01*
X116783030Y-109182329D01*
X116793520Y-109160150D01*
X116806132Y-109139107D01*
X116820747Y-109119401D01*
X116837223Y-109101223D01*
X116855401Y-109084747D01*
X116875107Y-109070132D01*
X116896150Y-109057520D01*
X116918329Y-109047030D01*
X116941428Y-109038765D01*
X116965227Y-109032804D01*
X116989495Y-109029204D01*
X117013999Y-109028000D01*
X117664001Y-109028000D01*
X117688505Y-109029204D01*
X117688505Y-109029204D01*
G37*
D13*
G04 #@! TD*
G04 #@! TO.P,R2,1*
G04 #@! TO.N,/RESET*
X117339000Y-109728000D03*
D12*
G04 #@! TO.N,/Vcc*
G04 #@! TO.C,R2*
G36*
X119738505Y-109029204D02*
X119762773Y-109032804D01*
X119786572Y-109038765D01*
X119809671Y-109047030D01*
X119831850Y-109057520D01*
X119852893Y-109070132D01*
X119872599Y-109084747D01*
X119890777Y-109101223D01*
X119907253Y-109119401D01*
X119921868Y-109139107D01*
X119934480Y-109160150D01*
X119944970Y-109182329D01*
X119953235Y-109205428D01*
X119959196Y-109229227D01*
X119962796Y-109253495D01*
X119964000Y-109277999D01*
X119964000Y-110178001D01*
X119962796Y-110202505D01*
X119959196Y-110226773D01*
X119953235Y-110250572D01*
X119944970Y-110273671D01*
X119934480Y-110295850D01*
X119921868Y-110316893D01*
X119907253Y-110336599D01*
X119890777Y-110354777D01*
X119872599Y-110371253D01*
X119852893Y-110385868D01*
X119831850Y-110398480D01*
X119809671Y-110408970D01*
X119786572Y-110417235D01*
X119762773Y-110423196D01*
X119738505Y-110426796D01*
X119714001Y-110428000D01*
X119063999Y-110428000D01*
X119039495Y-110426796D01*
X119015227Y-110423196D01*
X118991428Y-110417235D01*
X118968329Y-110408970D01*
X118946150Y-110398480D01*
X118925107Y-110385868D01*
X118905401Y-110371253D01*
X118887223Y-110354777D01*
X118870747Y-110336599D01*
X118856132Y-110316893D01*
X118843520Y-110295850D01*
X118833030Y-110273671D01*
X118824765Y-110250572D01*
X118818804Y-110226773D01*
X118815204Y-110202505D01*
X118814000Y-110178001D01*
X118814000Y-109277999D01*
X118815204Y-109253495D01*
X118818804Y-109229227D01*
X118824765Y-109205428D01*
X118833030Y-109182329D01*
X118843520Y-109160150D01*
X118856132Y-109139107D01*
X118870747Y-109119401D01*
X118887223Y-109101223D01*
X118905401Y-109084747D01*
X118925107Y-109070132D01*
X118946150Y-109057520D01*
X118968329Y-109047030D01*
X118991428Y-109038765D01*
X119015227Y-109032804D01*
X119039495Y-109029204D01*
X119063999Y-109028000D01*
X119714001Y-109028000D01*
X119738505Y-109029204D01*
X119738505Y-109029204D01*
G37*
D13*
G04 #@! TD*
G04 #@! TO.P,R2,2*
G04 #@! TO.N,/Vcc*
X119389000Y-109728000D03*
D14*
G04 #@! TO.P,U1,1*
G04 #@! TO.N,/ADDS1*
X128684000Y-95123000D03*
G04 #@! TO.P,U1,2*
G04 #@! TO.N,/ADDS2*
X128684000Y-96393000D03*
G04 #@! TO.P,U1,3*
G04 #@! TO.N,/Vcc*
X128684000Y-97663000D03*
G04 #@! TO.P,U1,4*
G04 #@! TO.N,GND*
X128684000Y-98933000D03*
G04 #@! TO.P,U1,5*
G04 #@! TO.N,/SDA*
X135984000Y-98933000D03*
G04 #@! TO.P,U1,6*
G04 #@! TO.N,/SCK*
X135984000Y-97663000D03*
G04 #@! TO.P,U1,7*
G04 #@! TO.N,GND*
X135984000Y-96393000D03*
G04 #@! TO.P,U1,8*
G04 #@! TO.N,/Vcc*
X135984000Y-95123000D03*
G04 #@! TD*
D15*
G04 #@! TO.P,U2,1*
G04 #@! TO.N,Net-(U2-Pad1)*
X105012000Y-100711000D03*
G04 #@! TO.P,U2,2*
G04 #@! TO.N,Net-(U2-Pad2)*
X105012000Y-101981000D03*
G04 #@! TO.P,U2,3*
G04 #@! TO.N,/Vcc*
X105012000Y-103251000D03*
G04 #@! TO.P,U2,4*
G04 #@! TO.N,GND*
X105012000Y-104521000D03*
G04 #@! TO.P,U2,5*
G04 #@! TO.N,/SDA*
X112412000Y-104521000D03*
G04 #@! TO.P,U2,6*
G04 #@! TO.N,/SCK*
X112412000Y-103251000D03*
G04 #@! TO.P,U2,7*
G04 #@! TO.N,Net-(U2-Pad7)*
X112412000Y-101981000D03*
G04 #@! TO.P,U2,8*
G04 #@! TO.N,/Vcc*
X112412000Y-100711000D03*
G04 #@! TD*
D14*
G04 #@! TO.P,U3,8*
G04 #@! TO.N,/Vcc*
X135984000Y-102235000D03*
G04 #@! TO.P,U3,7*
G04 #@! TO.N,GND*
X135984000Y-103505000D03*
G04 #@! TO.P,U3,6*
G04 #@! TO.N,/SCK*
X135984000Y-104775000D03*
G04 #@! TO.P,U3,5*
G04 #@! TO.N,/SDA*
X135984000Y-106045000D03*
G04 #@! TO.P,U3,4*
G04 #@! TO.N,GND*
X128684000Y-106045000D03*
G04 #@! TO.P,U3,3*
G04 #@! TO.N,/Vcc*
X128684000Y-104775000D03*
G04 #@! TO.P,U3,2*
G04 #@! TO.N,/ADDS2*
X128684000Y-103505000D03*
G04 #@! TO.P,U3,1*
G04 #@! TO.N,/ADDS1*
X128684000Y-102235000D03*
G04 #@! TD*
D16*
G04 #@! TO.P,U4,9*
G04 #@! TO.N,/D5*
X117596000Y-106308000D03*
D17*
G04 #@! TO.P,U4,1*
G04 #@! TO.N,/D3*
X116196000Y-99308000D03*
G04 #@! TO.P,U4,2*
G04 #@! TO.N,/D4*
X116196000Y-100108000D03*
G04 #@! TO.P,U4,3*
G04 #@! TO.N,GND*
X116196000Y-100908000D03*
G04 #@! TO.P,U4,4*
G04 #@! TO.N,/Vcc*
X116196000Y-101708000D03*
G04 #@! TO.P,U4,5*
G04 #@! TO.N,GND*
X116196000Y-102508000D03*
G04 #@! TO.P,U4,6*
G04 #@! TO.N,/Vcc*
X116196000Y-103308000D03*
G04 #@! TO.P,U4,7*
G04 #@! TO.N,Net-(C1-Pad1)*
X116196000Y-104108000D03*
G04 #@! TO.P,U4,8*
G04 #@! TO.N,Net-(C2-Pad1)*
X116196000Y-104908000D03*
D16*
G04 #@! TO.P,U4,10*
G04 #@! TO.N,/D6*
X118396000Y-106308000D03*
G04 #@! TO.P,U4,11*
G04 #@! TO.N,/D7*
X119196000Y-106308000D03*
G04 #@! TO.P,U4,12*
G04 #@! TO.N,/D8*
X119996000Y-106308000D03*
G04 #@! TO.P,U4,13*
G04 #@! TO.N,Net-(U4-Pad13)*
X120796000Y-106308000D03*
G04 #@! TO.P,U4,14*
G04 #@! TO.N,Net-(U4-Pad14)*
X121596000Y-106308000D03*
G04 #@! TO.P,U4,15*
G04 #@! TO.N,/MOSI*
X122396000Y-106308000D03*
G04 #@! TO.P,U4,16*
G04 #@! TO.N,/MISO*
X123196000Y-106308000D03*
D17*
G04 #@! TO.P,U4,17*
G04 #@! TO.N,/SCK*
X124596000Y-104908000D03*
G04 #@! TO.P,U4,18*
G04 #@! TO.N,/Vcc*
X124596000Y-104108000D03*
G04 #@! TO.P,U4,19*
G04 #@! TO.N,Net-(U4-Pad19)*
X124596000Y-103308000D03*
G04 #@! TO.P,U4,20*
G04 #@! TO.N,/Vcc*
X124596000Y-102508000D03*
G04 #@! TO.P,U4,21*
G04 #@! TO.N,GND*
X124596000Y-101708000D03*
G04 #@! TO.P,U4,22*
G04 #@! TO.N,Net-(U4-Pad22)*
X124596000Y-100908000D03*
G04 #@! TO.P,U4,23*
G04 #@! TO.N,/ADDS1*
X124596000Y-100108000D03*
G04 #@! TO.P,U4,24*
G04 #@! TO.N,/ADDS2*
X124596000Y-99308000D03*
D16*
G04 #@! TO.P,U4,25*
G04 #@! TO.N,Net-(U4-Pad25)*
X123196000Y-97908000D03*
G04 #@! TO.P,U4,26*
G04 #@! TO.N,Net-(U4-Pad26)*
X122396000Y-97908000D03*
G04 #@! TO.P,U4,27*
G04 #@! TO.N,/SDA*
X121596000Y-97908000D03*
G04 #@! TO.P,U4,28*
G04 #@! TO.N,Net-(U4-Pad28)*
X120796000Y-97908000D03*
G04 #@! TO.P,U4,29*
G04 #@! TO.N,/RESET*
X119996000Y-97908000D03*
G04 #@! TO.P,U4,30*
G04 #@! TO.N,/RX*
X119196000Y-97908000D03*
G04 #@! TO.P,U4,31*
G04 #@! TO.N,/TX*
X118396000Y-97908000D03*
G04 #@! TO.P,U4,32*
G04 #@! TO.N,/D2*
X117596000Y-97908000D03*
G04 #@! TD*
D18*
G04 #@! TO.P,Y1,1*
G04 #@! TO.N,Net-(U2-Pad2)*
X107087000Y-96520000D03*
G04 #@! TO.P,Y1,2*
G04 #@! TO.N,Net-(U2-Pad1)*
X110337000Y-96520000D03*
G04 #@! TD*
D19*
G04 #@! TO.P,Y2,1*
G04 #@! TO.N,Net-(C1-Pad1)*
X118050000Y-92964000D03*
G04 #@! TO.P,Y2,2*
G04 #@! TO.N,Net-(C2-Pad1)*
X123250000Y-92964000D03*
G04 #@! TD*
D10*
G04 #@! TO.P,J1,1*
G04 #@! TO.N,GND*
X142748000Y-93980000D03*
D11*
G04 #@! TO.P,J1,2*
X145288000Y-93980000D03*
G04 #@! TO.P,J1,3*
X147828000Y-93980000D03*
G04 #@! TO.P,J1,4*
X150368000Y-93980000D03*
G04 #@! TO.P,J1,5*
X152908000Y-93980000D03*
G04 #@! TD*
G04 #@! TO.P,J6,5*
G04 #@! TO.N,/Vcc*
X152908000Y-111760000D03*
G04 #@! TO.P,J6,4*
X150368000Y-111760000D03*
G04 #@! TO.P,J6,3*
X147828000Y-111760000D03*
G04 #@! TO.P,J6,2*
X145288000Y-111760000D03*
D10*
G04 #@! TO.P,J6,1*
X142748000Y-111760000D03*
G04 #@! TD*
D20*
G04 #@! TO.P,J7,1*
G04 #@! TO.N,Net-(J7-Pad1)*
X141359000Y-101187000D03*
G04 #@! TD*
G04 #@! TO.P,J8,1*
G04 #@! TO.N,Net-(J8-Pad1)*
X144809000Y-101187000D03*
G04 #@! TD*
G04 #@! TO.P,J9,1*
G04 #@! TO.N,Net-(J9-Pad1)*
X141359000Y-104637000D03*
G04 #@! TD*
G04 #@! TO.P,J10,1*
G04 #@! TO.N,Net-(J10-Pad1)*
X148259000Y-97737000D03*
G04 #@! TD*
G04 #@! TO.P,J11,1*
G04 #@! TO.N,Net-(J11-Pad1)*
X144809000Y-104637000D03*
G04 #@! TD*
G04 #@! TO.P,J12,1*
G04 #@! TO.N,Net-(J12-Pad1)*
X148259000Y-101187000D03*
G04 #@! TD*
G04 #@! TO.P,J13,1*
G04 #@! TO.N,Net-(J13-Pad1)*
X141359000Y-108087000D03*
G04 #@! TD*
G04 #@! TO.P,J14,1*
G04 #@! TO.N,Net-(J14-Pad1)*
X151709000Y-97737000D03*
G04 #@! TD*
G04 #@! TO.P,J15,1*
G04 #@! TO.N,Net-(J15-Pad1)*
X141359000Y-97737000D03*
G04 #@! TD*
G04 #@! TO.P,J16,1*
G04 #@! TO.N,Net-(J16-Pad1)*
X148259000Y-104637000D03*
G04 #@! TD*
G04 #@! TO.P,J17,1*
G04 #@! TO.N,Net-(J17-Pad1)*
X151709000Y-101187000D03*
G04 #@! TD*
G04 #@! TO.P,J18,1*
G04 #@! TO.N,Net-(J18-Pad1)*
X155159000Y-97737000D03*
G04 #@! TD*
G04 #@! TO.P,J19,1*
G04 #@! TO.N,Net-(J19-Pad1)*
X148259000Y-108087000D03*
G04 #@! TD*
G04 #@! TO.P,J20,1*
G04 #@! TO.N,Net-(J20-Pad1)*
X151709000Y-104637000D03*
G04 #@! TD*
G04 #@! TO.P,J21,1*
G04 #@! TO.N,Net-(J21-Pad1)*
X155159000Y-101187000D03*
G04 #@! TD*
G04 #@! TO.P,J22,1*
G04 #@! TO.N,Net-(J22-Pad1)*
X151709000Y-108087000D03*
G04 #@! TD*
G04 #@! TO.P,J23,1*
G04 #@! TO.N,Net-(J23-Pad1)*
X155159000Y-104637000D03*
G04 #@! TD*
G04 #@! TO.P,J24,1*
G04 #@! TO.N,Net-(J24-Pad1)*
X155159000Y-108087000D03*
G04 #@! TD*
G04 #@! TO.P,J25,1*
G04 #@! TO.N,Net-(J25-Pad1)*
X144809000Y-108087000D03*
G04 #@! TD*
G04 #@! TO.P,J26,1*
G04 #@! TO.N,Net-(J26-Pad1)*
X144809000Y-97737000D03*
G04 #@! TD*
D21*
G04 #@! TO.N,/Vcc*
X130836700Y-105348200D03*
G04 #@! TO.N,GND*
X126116700Y-101902900D03*
X126709800Y-105356600D03*
G04 #@! TO.N,Net-(C1-Pad1)*
X120950600Y-95966700D03*
X121135400Y-104007400D03*
X123980900Y-108547000D03*
G04 #@! TO.N,Net-(C2-Pad1)*
X126278500Y-107554500D03*
X121894400Y-95007500D03*
X116248300Y-105818000D03*
G04 #@! TO.N,/SCK*
X121687700Y-109068200D03*
G04 #@! TO.N,/SDA*
X119276800Y-95736800D03*
X134516100Y-106045000D03*
X110909200Y-104791400D03*
X132416300Y-98332000D03*
G04 #@! TO.N,/D2*
X113888200Y-98980000D03*
G04 #@! TO.N,/D3*
X114429800Y-101176200D03*
G04 #@! TO.N,/D4*
X117573900Y-100069100D03*
G04 #@! TO.N,/D6*
X121156700Y-110467600D03*
G04 #@! TO.N,/D7*
X119576700Y-104898200D03*
G04 #@! TO.N,/D8*
X123147000Y-104953600D03*
G04 #@! TO.N,/MISO*
X124252500Y-107052000D03*
G04 #@! TO.N,/MOSI*
X121622900Y-107974000D03*
G04 #@! TO.N,/RESET*
X116856800Y-107490300D03*
X120406300Y-99262900D03*
G04 #@! TO.N,/ADDS1*
X127228700Y-95206000D03*
X127603400Y-100892600D03*
G04 #@! TD*
D22*
G04 #@! TO.N,/Vcc*
X130323100Y-104775000D02*
X129859300Y-104775000D01*
X131324800Y-102235000D02*
X131324800Y-103773300D01*
X131324800Y-103773300D02*
X130323100Y-104775000D01*
X130836700Y-105348200D02*
X130323100Y-104834600D01*
X130323100Y-104834600D02*
X130323100Y-104775000D01*
X131324800Y-102235000D02*
X128777200Y-99687400D01*
X128777200Y-99687400D02*
X127802100Y-99687400D01*
X127802100Y-99687400D02*
X127508700Y-99394000D01*
X127508700Y-99394000D02*
X127508700Y-97663000D01*
X135984000Y-102235000D02*
X131324800Y-102235000D01*
X128684000Y-104775000D02*
X129859300Y-104775000D01*
X119389000Y-109728000D02*
X121224300Y-111563300D01*
X121224300Y-111563300D02*
X127959500Y-111563300D01*
X127959500Y-111563300D02*
X129286000Y-112889800D01*
X129286000Y-112889800D02*
X129286000Y-113744700D01*
X129286000Y-113744700D02*
X130000600Y-114459300D01*
X130000600Y-114459300D02*
X131112800Y-114459300D01*
X131112800Y-114459300D02*
X131920700Y-113651400D01*
X131920700Y-113651400D02*
X131920700Y-113284000D01*
X116196000Y-101708000D02*
X115120700Y-101708000D01*
X113612300Y-100711000D02*
X113612300Y-101384400D01*
X113612300Y-101384400D02*
X114129400Y-101901500D01*
X114129400Y-101901500D02*
X114927200Y-101901500D01*
X114927200Y-101901500D02*
X115120700Y-101708000D01*
X142748000Y-111760000D02*
X134761300Y-111760000D01*
X134761300Y-111760000D02*
X134103000Y-111101700D01*
X145288000Y-111760000D02*
X142748000Y-111760000D01*
X134103000Y-111101700D02*
X134103000Y-109728000D01*
X133096000Y-112108700D02*
X134103000Y-111101700D01*
X128684000Y-97663000D02*
X127508700Y-97663000D01*
X128684000Y-104775000D02*
X127508700Y-104775000D01*
X127508700Y-104775000D02*
X126841700Y-104108000D01*
X126841700Y-104108000D02*
X125671300Y-104108000D01*
X124596000Y-102508000D02*
X125671300Y-102508000D01*
X125671300Y-104108000D02*
X125671300Y-102508000D01*
X125558700Y-104108000D02*
X125671300Y-104108000D01*
X124596000Y-104108000D02*
X125558700Y-104108000D01*
X116196000Y-103308000D02*
X117271300Y-103308000D01*
X116196000Y-101708000D02*
X117271300Y-101708000D01*
X117692600Y-102508000D02*
X117271300Y-102086700D01*
X117271300Y-102086700D02*
X117271300Y-101708000D01*
X124596000Y-102508000D02*
X117692600Y-102508000D01*
X117692600Y-102508000D02*
X117271300Y-102929300D01*
X117271300Y-102929300D02*
X117271300Y-103308000D01*
X112412000Y-100711000D02*
X113612300Y-100711000D01*
X133096000Y-113284000D02*
X131920700Y-113284000D01*
X133096000Y-113284000D02*
X133096000Y-112108700D01*
X105012000Y-103251000D02*
X103811700Y-103251000D01*
X99568000Y-103632000D02*
X103430700Y-103632000D01*
X103430700Y-103632000D02*
X103811700Y-103251000D01*
X129159100Y-97663000D02*
X128684000Y-97663000D01*
X129159100Y-97663000D02*
X129859300Y-97663000D01*
X135984000Y-95123000D02*
X132399300Y-95123000D01*
X132399300Y-95123000D02*
X129859300Y-97663000D01*
X105012000Y-103251000D02*
X107393900Y-103251000D01*
X107393900Y-103251000D02*
X109933900Y-100711000D01*
X109933900Y-100711000D02*
X112412000Y-100711000D01*
X150368000Y-111760000D02*
X152908000Y-111760000D01*
X147828000Y-111760000D02*
X150368000Y-111760000D01*
X145288000Y-111760000D02*
X147828000Y-111760000D01*
G04 #@! TO.N,GND*
X128684000Y-106045000D02*
X129859300Y-106045000D01*
X129859300Y-106045000D02*
X129887800Y-106073500D01*
X129887800Y-106073500D02*
X131151600Y-106073500D01*
X131151600Y-106073500D02*
X133720100Y-103505000D01*
X133720100Y-103505000D02*
X135984000Y-103505000D01*
X130556000Y-110766700D02*
X126015700Y-110766700D01*
X126015700Y-110766700D02*
X124977000Y-109728000D01*
X130565000Y-109728000D02*
X130565000Y-110757700D01*
X130565000Y-110757700D02*
X130556000Y-110766700D01*
X130556000Y-112108700D02*
X130556000Y-110766700D01*
X130556000Y-113284000D02*
X130556000Y-112108700D01*
X124596000Y-101708000D02*
X125671300Y-101708000D01*
X126116700Y-101902900D02*
X125866200Y-101902900D01*
X125866200Y-101902900D02*
X125671300Y-101708000D01*
X117271300Y-100908000D02*
X118071300Y-101708000D01*
X118071300Y-101708000D02*
X123520700Y-101708000D01*
X105634000Y-92964000D02*
X100046000Y-98552000D01*
X100046000Y-98552000D02*
X98552000Y-98552000D01*
X105634000Y-92964000D02*
X106331300Y-92964000D01*
X105156000Y-92964000D02*
X105634000Y-92964000D01*
X98392700Y-104902000D02*
X102797600Y-104902000D01*
X102797600Y-104902000D02*
X103178600Y-104521000D01*
X103178600Y-104521000D02*
X105012000Y-104521000D01*
X98392700Y-104902000D02*
X98392700Y-106728800D01*
X98392700Y-106728800D02*
X99200600Y-107536700D01*
X99200600Y-107536700D02*
X99568000Y-107536700D01*
X98552000Y-99727300D02*
X98392700Y-99886600D01*
X98392700Y-99886600D02*
X98392700Y-104902000D01*
X99568000Y-108712000D02*
X99568000Y-107536700D01*
X98552000Y-98552000D02*
X98552000Y-99727300D01*
X137159300Y-96393000D02*
X137222800Y-96456500D01*
X137222800Y-96456500D02*
X139096200Y-96456500D01*
X139096200Y-96456500D02*
X141572700Y-93980000D01*
X106331300Y-92964000D02*
X106331300Y-92596700D01*
X106331300Y-92596700D02*
X107607600Y-91320400D01*
X107607600Y-91320400D02*
X132644700Y-91320400D01*
X132644700Y-91320400D02*
X135747100Y-94422800D01*
X135747100Y-94422800D02*
X136966200Y-94422800D01*
X136966200Y-94422800D02*
X137159300Y-94615900D01*
X137159300Y-94615900D02*
X137159300Y-96393000D01*
X135984000Y-96393000D02*
X137159300Y-96393000D01*
X128684000Y-106045000D02*
X127508700Y-106045000D01*
X126709800Y-105356600D02*
X126820300Y-105356600D01*
X126820300Y-105356600D02*
X127508700Y-106045000D01*
X136571700Y-103505000D02*
X135984000Y-103505000D01*
X136571700Y-103505000D02*
X137159300Y-103505000D01*
X113618500Y-102650600D02*
X114978100Y-102650600D01*
X114978100Y-102650600D02*
X115120700Y-102508000D01*
X105012000Y-104521000D02*
X108340200Y-104521000D01*
X108340200Y-104521000D02*
X110210600Y-102650600D01*
X110210600Y-102650600D02*
X113618500Y-102650600D01*
X113618500Y-102650600D02*
X113618500Y-107860500D01*
X113618500Y-107860500D02*
X111751000Y-109728000D01*
X116196000Y-102508000D02*
X115120700Y-102508000D01*
X135984000Y-96393000D02*
X132399300Y-96393000D01*
X132399300Y-96393000D02*
X129859300Y-98933000D01*
X128684000Y-98933000D02*
X129859300Y-98933000D01*
X129859300Y-98933000D02*
X130509600Y-99583300D01*
X130509600Y-99583300D02*
X135067400Y-99583300D01*
X135067400Y-99583300D02*
X137159300Y-101675200D01*
X137159300Y-101675200D02*
X137159300Y-103505000D01*
X136153000Y-109728000D02*
X135107800Y-108682800D01*
X135107800Y-108682800D02*
X131610200Y-108682800D01*
X131610200Y-108682800D02*
X130565000Y-109728000D01*
X124596000Y-101708000D02*
X123520700Y-101708000D01*
X116196000Y-100908000D02*
X117271300Y-100908000D01*
X142748000Y-93980000D02*
X141572700Y-93980000D01*
X145288000Y-93980000D02*
X142748000Y-93980000D01*
X147828000Y-93980000D02*
X145288000Y-93980000D01*
X150368000Y-93980000D02*
X147828000Y-93980000D01*
X152908000Y-93980000D02*
X150368000Y-93980000D01*
G04 #@! TO.N,Net-(C1-Pad1)*
X122927000Y-109728000D02*
X122927000Y-109600900D01*
X122927000Y-109600900D02*
X123980900Y-108547000D01*
X117271300Y-104108000D02*
X117371900Y-104007400D01*
X117371900Y-104007400D02*
X121135400Y-104007400D01*
X118050000Y-92964000D02*
X118050000Y-94489300D01*
X118050000Y-94489300D02*
X119473200Y-94489300D01*
X119473200Y-94489300D02*
X120950600Y-95966700D01*
X116196000Y-104108000D02*
X117271300Y-104108000D01*
G04 #@! TO.N,Net-(C2-Pad1)*
X126278500Y-107554500D02*
X126341500Y-107554500D01*
X126341500Y-107554500D02*
X128515000Y-109728000D01*
X123250000Y-92964000D02*
X123250000Y-94489300D01*
X123250000Y-94489300D02*
X122412600Y-94489300D01*
X122412600Y-94489300D02*
X121894400Y-95007500D01*
X116196000Y-104908000D02*
X116196000Y-105765700D01*
X116196000Y-105765700D02*
X116248300Y-105818000D01*
G04 #@! TO.N,Net-(D1-Pad1)*
X106163000Y-109728000D02*
X107442000Y-111007000D01*
X107442000Y-111007000D02*
X107442000Y-113745000D01*
X107442000Y-113745000D02*
X108165900Y-114468900D01*
X108165900Y-114468900D02*
X109189400Y-114468900D01*
X109189400Y-114468900D02*
X113801000Y-109857300D01*
X113801000Y-109857300D02*
X113801000Y-109728000D01*
G04 #@! TO.N,/SCK*
X126141000Y-106189300D02*
X125671300Y-105719600D01*
X125671300Y-105719600D02*
X125671300Y-104908000D01*
X121687700Y-109068200D02*
X122978600Y-107777300D01*
X122978600Y-107777300D02*
X124553000Y-107777300D01*
X124553000Y-107777300D02*
X126141000Y-106189300D01*
X126141000Y-106189300D02*
X126703700Y-106752000D01*
X126703700Y-106752000D02*
X131403000Y-106752000D01*
X131403000Y-106752000D02*
X133380000Y-104775000D01*
X133380000Y-104775000D02*
X135984000Y-104775000D01*
X124596000Y-104908000D02*
X125671300Y-104908000D01*
X135984000Y-104775000D02*
X137159300Y-104775000D01*
X111211700Y-103251000D02*
X108213000Y-106249700D01*
X108213000Y-106249700D02*
X108213000Y-109728000D01*
X135984000Y-97663000D02*
X137159300Y-97663000D01*
X137159300Y-104775000D02*
X137622200Y-104312100D01*
X137622200Y-104312100D02*
X137622200Y-98125900D01*
X137622200Y-98125900D02*
X137159300Y-97663000D01*
X108712000Y-113284000D02*
X108712000Y-110227000D01*
X108712000Y-110227000D02*
X108213000Y-109728000D01*
X112412000Y-103251000D02*
X111211700Y-103251000D01*
G04 #@! TO.N,/SDA*
X121596000Y-97908000D02*
X121596000Y-96832700D01*
X121596000Y-96832700D02*
X120372700Y-96832700D01*
X120372700Y-96832700D02*
X119276800Y-95736800D01*
X134808700Y-106045000D02*
X134516100Y-106045000D01*
X135984000Y-106045000D02*
X134808700Y-106045000D01*
X111211700Y-104521000D02*
X111179600Y-104521000D01*
X111179600Y-104521000D02*
X110909200Y-104791400D01*
X112412000Y-104521000D02*
X111211700Y-104521000D01*
X135984000Y-98933000D02*
X134808700Y-98933000D01*
X134808700Y-98933000D02*
X134207700Y-98332000D01*
X134207700Y-98332000D02*
X132416300Y-98332000D01*
G04 #@! TO.N,/D2*
X117596000Y-97908000D02*
X114960200Y-97908000D01*
X114960200Y-97908000D02*
X113888200Y-98980000D01*
G04 #@! TO.N,/D3*
X116196000Y-99308000D02*
X115120700Y-99308000D01*
X115120700Y-99308000D02*
X115120700Y-100485300D01*
X115120700Y-100485300D02*
X114429800Y-101176200D01*
G04 #@! TO.N,/D4*
X116196000Y-100108000D02*
X117535000Y-100108000D01*
X117535000Y-100108000D02*
X117573900Y-100069100D01*
G04 #@! TO.N,/D5*
X120396000Y-113284000D02*
X120396000Y-112108700D01*
X117596000Y-106308000D02*
X117596000Y-107383300D01*
X117596000Y-107383300D02*
X118364000Y-108151300D01*
X118364000Y-108151300D02*
X118364000Y-110297100D01*
X118364000Y-110297100D02*
X120175600Y-112108700D01*
X120175600Y-112108700D02*
X120396000Y-112108700D01*
G04 #@! TO.N,/D6*
X118396000Y-106308000D02*
X118396000Y-107383300D01*
X118396000Y-107383300D02*
X118634100Y-107383300D01*
X118634100Y-107383300D02*
X121156700Y-109905900D01*
X121156700Y-109905900D02*
X121156700Y-110467600D01*
G04 #@! TO.N,/D7*
X119196000Y-105232700D02*
X119530500Y-104898200D01*
X119530500Y-104898200D02*
X119576700Y-104898200D01*
X119196000Y-106308000D02*
X119196000Y-105232700D01*
G04 #@! TO.N,/D8*
X119996000Y-106308000D02*
X119996000Y-105622900D01*
X119996000Y-105622900D02*
X120386300Y-105232600D01*
X120386300Y-105232600D02*
X122868100Y-105232600D01*
X122868100Y-105232600D02*
X122868100Y-105232500D01*
X122868100Y-105232500D02*
X123147000Y-104953600D01*
G04 #@! TO.N,/RX*
X111411300Y-92964000D02*
X111411300Y-92596700D01*
X111411300Y-92596700D02*
X112220000Y-91788000D01*
X112220000Y-91788000D02*
X113351300Y-91788000D01*
X113351300Y-91788000D02*
X117547800Y-95984500D01*
X117547800Y-95984500D02*
X118347800Y-95984500D01*
X118347800Y-95984500D02*
X119196000Y-96832700D01*
X119196000Y-97908000D02*
X119196000Y-96832700D01*
X110236000Y-92964000D02*
X111411300Y-92964000D01*
G04 #@! TO.N,/TX*
X112776000Y-92964000D02*
X116644700Y-96832700D01*
X116644700Y-96832700D02*
X118396000Y-96832700D01*
X118396000Y-97908000D02*
X118396000Y-96832700D01*
G04 #@! TO.N,/MISO*
X123196000Y-106308000D02*
X123508500Y-106308000D01*
X123508500Y-106308000D02*
X124252500Y-107052000D01*
G04 #@! TO.N,/MOSI*
X122396000Y-107383300D02*
X122213600Y-107383300D01*
X122213600Y-107383300D02*
X121622900Y-107974000D01*
X122396000Y-106308000D02*
X122396000Y-107383300D01*
G04 #@! TO.N,/RESET*
X117264400Y-109659200D02*
X113951400Y-112972200D01*
X113951400Y-112972200D02*
X113951400Y-114268800D01*
X113951400Y-114268800D02*
X113239600Y-114980600D01*
X113239600Y-114980600D02*
X106204400Y-114980600D01*
X106204400Y-114980600D02*
X104902000Y-113678200D01*
X104902000Y-113678200D02*
X104902000Y-112795300D01*
X104902000Y-112795300D02*
X101994000Y-109887300D01*
X101994000Y-109887300D02*
X99011200Y-109887300D01*
X99011200Y-109887300D02*
X98203300Y-109079400D01*
X98203300Y-109079400D02*
X98203300Y-108712000D01*
X117339000Y-109728000D02*
X117270200Y-109659200D01*
X117270200Y-109659200D02*
X117264400Y-109659200D01*
X116856800Y-107490300D02*
X117264400Y-107897900D01*
X117264400Y-107897900D02*
X117264400Y-109659200D01*
X97028000Y-108712000D02*
X98203300Y-108712000D01*
X119996000Y-98983300D02*
X120126700Y-98983300D01*
X120126700Y-98983300D02*
X120406300Y-99262900D01*
X119996000Y-97908000D02*
X119996000Y-98983300D01*
G04 #@! TO.N,/ADDS1*
X127508700Y-100892600D02*
X127508700Y-102235000D01*
X125671300Y-100108000D02*
X126455900Y-100892600D01*
X126455900Y-100892600D02*
X127508700Y-100892600D01*
X127508700Y-100892600D02*
X127603400Y-100892600D01*
X127228700Y-95206000D02*
X127425700Y-95206000D01*
X127425700Y-95206000D02*
X127508700Y-95123000D01*
X128684000Y-95123000D02*
X127508700Y-95123000D01*
X128684000Y-102235000D02*
X127508700Y-102235000D01*
X124596000Y-100108000D02*
X125671300Y-100108000D01*
G04 #@! TO.N,/ADDS2*
X128684000Y-103505000D02*
X129859300Y-103505000D01*
X129859300Y-103505000D02*
X129859300Y-101744500D01*
X129859300Y-101744500D02*
X128282000Y-100167200D01*
X128282000Y-100167200D02*
X126530500Y-100167200D01*
X126530500Y-100167200D02*
X125671300Y-99308000D01*
X128684000Y-96393000D02*
X127508700Y-96393000D01*
X124596000Y-99308000D02*
X125671300Y-99308000D01*
X125671300Y-99308000D02*
X125671300Y-98230400D01*
X125671300Y-98230400D02*
X127508700Y-96393000D01*
G04 #@! TO.N,Net-(U2-Pad1)*
X105012000Y-100711000D02*
X106212300Y-100711000D01*
X110337000Y-96520000D02*
X109136700Y-96520000D01*
X109136700Y-96520000D02*
X109136700Y-97786600D01*
X109136700Y-97786600D02*
X106212300Y-100711000D01*
G04 #@! TO.N,Net-(U2-Pad2)*
X105012000Y-101981000D02*
X103811700Y-101981000D01*
X107087000Y-96520000D02*
X105886700Y-96520000D01*
X105886700Y-96520000D02*
X103811700Y-98595000D01*
X103811700Y-98595000D02*
X103811700Y-101981000D01*
G04 #@! TD*
D23*
G04 #@! TO.N,/Vcc*
G36*
X131900817Y-114165358D02*
X132329076Y-114555645D01*
X132450651Y-114606000D01*
X131250416Y-114606000D01*
X131626625Y-114354625D01*
X131839843Y-114035522D01*
X131900817Y-114165358D01*
X131900817Y-114165358D01*
G37*
X131900817Y-114165358D02*
X132329076Y-114555645D01*
X132450651Y-114606000D01*
X131250416Y-114606000D01*
X131626625Y-114354625D01*
X131839843Y-114035522D01*
X131900817Y-114165358D01*
G36*
X129485375Y-114354625D02*
X129861584Y-114606000D01*
X128710416Y-114606000D01*
X129086625Y-114354625D01*
X129286000Y-114056239D01*
X129485375Y-114354625D01*
X129485375Y-114354625D01*
G37*
X129485375Y-114354625D02*
X129861584Y-114606000D01*
X128710416Y-114606000D01*
X129086625Y-114354625D01*
X129286000Y-114056239D01*
X129485375Y-114354625D01*
G36*
X133051750Y-109601000D02*
X133976000Y-109601000D01*
X133976000Y-109581000D01*
X134230000Y-109581000D01*
X134230000Y-109601000D01*
X134250000Y-109601000D01*
X134250000Y-109855000D01*
X134230000Y-109855000D01*
X134230000Y-110904250D01*
X134388750Y-111063000D01*
X134804309Y-111063000D01*
X135037698Y-110966327D01*
X135192623Y-110811403D01*
X135193414Y-110812586D01*
X135484564Y-111007127D01*
X135827999Y-111075440D01*
X136478001Y-111075440D01*
X136821436Y-111007127D01*
X137112586Y-110812586D01*
X137287000Y-110551558D01*
X137287000Y-112354931D01*
X136944360Y-112106446D01*
X136283905Y-111931329D01*
X135604689Y-112005716D01*
X134997791Y-112319630D01*
X134544592Y-112830979D01*
X134521466Y-112892996D01*
X134291183Y-112402642D01*
X133862924Y-112012355D01*
X133452890Y-111842524D01*
X133223000Y-111963845D01*
X133223000Y-113157000D01*
X133243000Y-113157000D01*
X133243000Y-113411000D01*
X133223000Y-113411000D01*
X133223000Y-113431000D01*
X132969000Y-113431000D01*
X132969000Y-113411000D01*
X132949000Y-113411000D01*
X132949000Y-113157000D01*
X132969000Y-113157000D01*
X132969000Y-111963845D01*
X132739110Y-111842524D01*
X132329076Y-112012355D01*
X131900817Y-112402642D01*
X131839843Y-112532478D01*
X131626625Y-112213375D01*
X131316000Y-112005822D01*
X131316000Y-110951959D01*
X131524586Y-110812586D01*
X131719127Y-110521436D01*
X131787440Y-110178001D01*
X131787440Y-110013750D01*
X132893000Y-110013750D01*
X132893000Y-110554310D01*
X132989673Y-110787699D01*
X133168302Y-110966327D01*
X133401691Y-111063000D01*
X133817250Y-111063000D01*
X133976000Y-110904250D01*
X133976000Y-109855000D01*
X133051750Y-109855000D01*
X132893000Y-110013750D01*
X131787440Y-110013750D01*
X131787440Y-109580362D01*
X131925002Y-109442800D01*
X132893550Y-109442800D01*
X133051750Y-109601000D01*
X133051750Y-109601000D01*
G37*
X133051750Y-109601000D02*
X133976000Y-109601000D01*
X133976000Y-109581000D01*
X134230000Y-109581000D01*
X134230000Y-109601000D01*
X134250000Y-109601000D01*
X134250000Y-109855000D01*
X134230000Y-109855000D01*
X134230000Y-110904250D01*
X134388750Y-111063000D01*
X134804309Y-111063000D01*
X135037698Y-110966327D01*
X135192623Y-110811403D01*
X135193414Y-110812586D01*
X135484564Y-111007127D01*
X135827999Y-111075440D01*
X136478001Y-111075440D01*
X136821436Y-111007127D01*
X137112586Y-110812586D01*
X137287000Y-110551558D01*
X137287000Y-112354931D01*
X136944360Y-112106446D01*
X136283905Y-111931329D01*
X135604689Y-112005716D01*
X134997791Y-112319630D01*
X134544592Y-112830979D01*
X134521466Y-112892996D01*
X134291183Y-112402642D01*
X133862924Y-112012355D01*
X133452890Y-111842524D01*
X133223000Y-111963845D01*
X133223000Y-113157000D01*
X133243000Y-113157000D01*
X133243000Y-113411000D01*
X133223000Y-113411000D01*
X133223000Y-113431000D01*
X132969000Y-113431000D01*
X132969000Y-113411000D01*
X132949000Y-113411000D01*
X132949000Y-113157000D01*
X132969000Y-113157000D01*
X132969000Y-111963845D01*
X132739110Y-111842524D01*
X132329076Y-112012355D01*
X131900817Y-112402642D01*
X131839843Y-112532478D01*
X131626625Y-112213375D01*
X131316000Y-112005822D01*
X131316000Y-110951959D01*
X131524586Y-110812586D01*
X131719127Y-110521436D01*
X131787440Y-110178001D01*
X131787440Y-110013750D01*
X132893000Y-110013750D01*
X132893000Y-110554310D01*
X132989673Y-110787699D01*
X133168302Y-110966327D01*
X133401691Y-111063000D01*
X133817250Y-111063000D01*
X133976000Y-110904250D01*
X133976000Y-109855000D01*
X133051750Y-109855000D01*
X132893000Y-110013750D01*
X131787440Y-110013750D01*
X131787440Y-109580362D01*
X131925002Y-109442800D01*
X132893550Y-109442800D01*
X133051750Y-109601000D01*
G36*
X103759000Y-113157000D02*
X103779000Y-113157000D01*
X103779000Y-113411000D01*
X103759000Y-113411000D01*
X103759000Y-113431000D01*
X103505000Y-113431000D01*
X103505000Y-113411000D01*
X103485000Y-113411000D01*
X103485000Y-113157000D01*
X103505000Y-113157000D01*
X103505000Y-113137000D01*
X103759000Y-113137000D01*
X103759000Y-113157000D01*
X103759000Y-113157000D01*
G37*
X103759000Y-113157000D02*
X103779000Y-113157000D01*
X103779000Y-113411000D01*
X103759000Y-113411000D01*
X103759000Y-113431000D01*
X103505000Y-113431000D01*
X103505000Y-113411000D01*
X103485000Y-113411000D01*
X103485000Y-113157000D01*
X103505000Y-113157000D01*
X103505000Y-113137000D01*
X103759000Y-113137000D01*
X103759000Y-113157000D01*
G36*
X124017414Y-110812586D02*
X124308564Y-111007127D01*
X124651999Y-111075440D01*
X125249638Y-111075440D01*
X125425371Y-111251173D01*
X125467771Y-111314629D01*
X125719163Y-111482604D01*
X125940848Y-111526700D01*
X125940852Y-111526700D01*
X126015700Y-111541588D01*
X126090548Y-111526700D01*
X129796000Y-111526700D01*
X129796000Y-112005822D01*
X129485375Y-112213375D01*
X129286000Y-112511761D01*
X129086625Y-112213375D01*
X128595418Y-111885161D01*
X128162256Y-111799000D01*
X127869744Y-111799000D01*
X127436582Y-111885161D01*
X126945375Y-112213375D01*
X126746000Y-112511761D01*
X126546625Y-112213375D01*
X126055418Y-111885161D01*
X125622256Y-111799000D01*
X125329744Y-111799000D01*
X124896582Y-111885161D01*
X124405375Y-112213375D01*
X124206000Y-112511761D01*
X124006625Y-112213375D01*
X123515418Y-111885161D01*
X123082256Y-111799000D01*
X122789744Y-111799000D01*
X122356582Y-111885161D01*
X121865375Y-112213375D01*
X121666000Y-112511761D01*
X121466625Y-112213375D01*
X121149571Y-112001526D01*
X121142076Y-111963845D01*
X121111904Y-111812163D01*
X120943929Y-111560771D01*
X120703631Y-111400209D01*
X120950826Y-111502600D01*
X121362574Y-111502600D01*
X121742980Y-111345031D01*
X122034131Y-111053880D01*
X122097950Y-110899808D01*
X122258564Y-111007127D01*
X122601999Y-111075440D01*
X123252001Y-111075440D01*
X123595436Y-111007127D01*
X123886586Y-110812586D01*
X123952000Y-110714687D01*
X124017414Y-110812586D01*
X124017414Y-110812586D01*
G37*
X124017414Y-110812586D02*
X124308564Y-111007127D01*
X124651999Y-111075440D01*
X125249638Y-111075440D01*
X125425371Y-111251173D01*
X125467771Y-111314629D01*
X125719163Y-111482604D01*
X125940848Y-111526700D01*
X125940852Y-111526700D01*
X126015700Y-111541588D01*
X126090548Y-111526700D01*
X129796000Y-111526700D01*
X129796000Y-112005822D01*
X129485375Y-112213375D01*
X129286000Y-112511761D01*
X129086625Y-112213375D01*
X128595418Y-111885161D01*
X128162256Y-111799000D01*
X127869744Y-111799000D01*
X127436582Y-111885161D01*
X126945375Y-112213375D01*
X126746000Y-112511761D01*
X126546625Y-112213375D01*
X126055418Y-111885161D01*
X125622256Y-111799000D01*
X125329744Y-111799000D01*
X124896582Y-111885161D01*
X124405375Y-112213375D01*
X124206000Y-112511761D01*
X124006625Y-112213375D01*
X123515418Y-111885161D01*
X123082256Y-111799000D01*
X122789744Y-111799000D01*
X122356582Y-111885161D01*
X121865375Y-112213375D01*
X121666000Y-112511761D01*
X121466625Y-112213375D01*
X121149571Y-112001526D01*
X121142076Y-111963845D01*
X121111904Y-111812163D01*
X120943929Y-111560771D01*
X120703631Y-111400209D01*
X120950826Y-111502600D01*
X121362574Y-111502600D01*
X121742980Y-111345031D01*
X122034131Y-111053880D01*
X122097950Y-110899808D01*
X122258564Y-111007127D01*
X122601999Y-111075440D01*
X123252001Y-111075440D01*
X123595436Y-111007127D01*
X123886586Y-110812586D01*
X123952000Y-110714687D01*
X124017414Y-110812586D01*
G36*
X119516000Y-109601000D02*
X119536000Y-109601000D01*
X119536000Y-109855000D01*
X119516000Y-109855000D01*
X119516000Y-109875000D01*
X119262000Y-109875000D01*
X119262000Y-109855000D01*
X119242000Y-109855000D01*
X119242000Y-109601000D01*
X119262000Y-109601000D01*
X119262000Y-109581000D01*
X119516000Y-109581000D01*
X119516000Y-109601000D01*
X119516000Y-109601000D01*
G37*
X119516000Y-109601000D02*
X119536000Y-109601000D01*
X119536000Y-109855000D01*
X119516000Y-109855000D01*
X119516000Y-109875000D01*
X119262000Y-109875000D01*
X119262000Y-109855000D01*
X119242000Y-109855000D01*
X119242000Y-109601000D01*
X119262000Y-109601000D01*
X119262000Y-109581000D01*
X119516000Y-109581000D01*
X119516000Y-109601000D01*
G36*
X129919270Y-100067772D02*
X129961671Y-100131229D01*
X130213063Y-100299204D01*
X130434748Y-100343300D01*
X130434752Y-100343300D01*
X130509599Y-100358188D01*
X130584446Y-100343300D01*
X134752599Y-100343300D01*
X135684298Y-101275000D01*
X135007691Y-101275000D01*
X134774302Y-101371673D01*
X134595673Y-101550301D01*
X134499000Y-101783690D01*
X134499000Y-101949250D01*
X134657750Y-102108000D01*
X135857000Y-102108000D01*
X135857000Y-102088000D01*
X136111000Y-102088000D01*
X136111000Y-102108000D01*
X136131000Y-102108000D01*
X136131000Y-102362000D01*
X136111000Y-102362000D01*
X136111000Y-102382000D01*
X135857000Y-102382000D01*
X135857000Y-102362000D01*
X134657750Y-102362000D01*
X134499000Y-102520750D01*
X134499000Y-102686310D01*
X134523310Y-102745000D01*
X133794948Y-102745000D01*
X133720100Y-102730112D01*
X133645252Y-102745000D01*
X133645248Y-102745000D01*
X133423563Y-102789096D01*
X133172171Y-102957071D01*
X133129771Y-103020527D01*
X130836799Y-105313500D01*
X130132885Y-105313500D01*
X130169000Y-105226310D01*
X130169000Y-105060750D01*
X130010250Y-104902000D01*
X128811000Y-104902000D01*
X128811000Y-104922000D01*
X128557000Y-104922000D01*
X128557000Y-104902000D01*
X128537000Y-104902000D01*
X128537000Y-104648000D01*
X128557000Y-104648000D01*
X128557000Y-104628000D01*
X128811000Y-104628000D01*
X128811000Y-104648000D01*
X130010250Y-104648000D01*
X130169000Y-104489250D01*
X130169000Y-104323690D01*
X130128663Y-104226309D01*
X130155837Y-104220904D01*
X130407229Y-104052929D01*
X130575204Y-103801537D01*
X130616049Y-103596197D01*
X130619300Y-103579852D01*
X130619300Y-103579851D01*
X130634189Y-103505000D01*
X130619300Y-103430148D01*
X130619300Y-101819346D01*
X130634188Y-101744499D01*
X130619300Y-101669652D01*
X130619300Y-101669648D01*
X130575204Y-101447963D01*
X130407229Y-101196571D01*
X130343773Y-101154171D01*
X129095041Y-99905440D01*
X129534000Y-99905440D01*
X129719951Y-99868452D01*
X129919270Y-100067772D01*
X129919270Y-100067772D01*
G37*
X129919270Y-100067772D02*
X129961671Y-100131229D01*
X130213063Y-100299204D01*
X130434748Y-100343300D01*
X130434752Y-100343300D01*
X130509599Y-100358188D01*
X130584446Y-100343300D01*
X134752599Y-100343300D01*
X135684298Y-101275000D01*
X135007691Y-101275000D01*
X134774302Y-101371673D01*
X134595673Y-101550301D01*
X134499000Y-101783690D01*
X134499000Y-101949250D01*
X134657750Y-102108000D01*
X135857000Y-102108000D01*
X135857000Y-102088000D01*
X136111000Y-102088000D01*
X136111000Y-102108000D01*
X136131000Y-102108000D01*
X136131000Y-102362000D01*
X136111000Y-102362000D01*
X136111000Y-102382000D01*
X135857000Y-102382000D01*
X135857000Y-102362000D01*
X134657750Y-102362000D01*
X134499000Y-102520750D01*
X134499000Y-102686310D01*
X134523310Y-102745000D01*
X133794948Y-102745000D01*
X133720100Y-102730112D01*
X133645252Y-102745000D01*
X133645248Y-102745000D01*
X133423563Y-102789096D01*
X133172171Y-102957071D01*
X133129771Y-103020527D01*
X130836799Y-105313500D01*
X130132885Y-105313500D01*
X130169000Y-105226310D01*
X130169000Y-105060750D01*
X130010250Y-104902000D01*
X128811000Y-104902000D01*
X128811000Y-104922000D01*
X128557000Y-104922000D01*
X128557000Y-104902000D01*
X128537000Y-104902000D01*
X128537000Y-104648000D01*
X128557000Y-104648000D01*
X128557000Y-104628000D01*
X128811000Y-104628000D01*
X128811000Y-104648000D01*
X130010250Y-104648000D01*
X130169000Y-104489250D01*
X130169000Y-104323690D01*
X130128663Y-104226309D01*
X130155837Y-104220904D01*
X130407229Y-104052929D01*
X130575204Y-103801537D01*
X130616049Y-103596197D01*
X130619300Y-103579852D01*
X130619300Y-103579851D01*
X130634189Y-103505000D01*
X130619300Y-103430148D01*
X130619300Y-101819346D01*
X130634188Y-101744499D01*
X130619300Y-101669652D01*
X130619300Y-101669648D01*
X130575204Y-101447963D01*
X130407229Y-101196571D01*
X130343773Y-101154171D01*
X129095041Y-99905440D01*
X129534000Y-99905440D01*
X129719951Y-99868452D01*
X129919270Y-100067772D01*
G36*
X117774762Y-102423904D02*
X117822905Y-102433480D01*
X117996448Y-102468000D01*
X117996452Y-102468000D01*
X118071300Y-102482888D01*
X118146148Y-102468000D01*
X123428885Y-102468000D01*
X123488749Y-102508000D01*
X123388191Y-102575191D01*
X123304888Y-102699862D01*
X123211000Y-102793750D01*
X123211000Y-102909310D01*
X123219217Y-102929148D01*
X123198560Y-103033000D01*
X123198560Y-103583000D01*
X123219217Y-103686852D01*
X123211000Y-103706690D01*
X123211000Y-103822250D01*
X123304888Y-103916138D01*
X123306533Y-103918600D01*
X122941126Y-103918600D01*
X122560720Y-104076169D01*
X122269569Y-104367320D01*
X122225961Y-104472600D01*
X122062984Y-104472600D01*
X122170400Y-104213274D01*
X122170400Y-103801526D01*
X122012831Y-103421120D01*
X121721680Y-103129969D01*
X121341274Y-102972400D01*
X120929526Y-102972400D01*
X120549120Y-103129969D01*
X120431689Y-103247400D01*
X117581000Y-103247400D01*
X117581000Y-103180998D01*
X117443774Y-103180998D01*
X117487112Y-103116138D01*
X117581000Y-103022250D01*
X117581000Y-102906690D01*
X117572783Y-102886852D01*
X117593440Y-102783000D01*
X117593440Y-102302748D01*
X117774762Y-102423904D01*
X117774762Y-102423904D01*
G37*
X117774762Y-102423904D02*
X117822905Y-102433480D01*
X117996448Y-102468000D01*
X117996452Y-102468000D01*
X118071300Y-102482888D01*
X118146148Y-102468000D01*
X123428885Y-102468000D01*
X123488749Y-102508000D01*
X123388191Y-102575191D01*
X123304888Y-102699862D01*
X123211000Y-102793750D01*
X123211000Y-102909310D01*
X123219217Y-102929148D01*
X123198560Y-103033000D01*
X123198560Y-103583000D01*
X123219217Y-103686852D01*
X123211000Y-103706690D01*
X123211000Y-103822250D01*
X123304888Y-103916138D01*
X123306533Y-103918600D01*
X122941126Y-103918600D01*
X122560720Y-104076169D01*
X122269569Y-104367320D01*
X122225961Y-104472600D01*
X122062984Y-104472600D01*
X122170400Y-104213274D01*
X122170400Y-103801526D01*
X122012831Y-103421120D01*
X121721680Y-103129969D01*
X121341274Y-102972400D01*
X120929526Y-102972400D01*
X120549120Y-103129969D01*
X120431689Y-103247400D01*
X117581000Y-103247400D01*
X117581000Y-103180998D01*
X117443774Y-103180998D01*
X117487112Y-103116138D01*
X117581000Y-103022250D01*
X117581000Y-102906690D01*
X117572783Y-102886852D01*
X117593440Y-102783000D01*
X117593440Y-102302748D01*
X117774762Y-102423904D01*
G36*
X126960771Y-102782929D02*
X127212163Y-102950904D01*
X127231370Y-102954724D01*
X127186560Y-103180000D01*
X127186560Y-103830000D01*
X127235843Y-104077765D01*
X127275983Y-104137838D01*
X127199000Y-104323690D01*
X127199000Y-104438957D01*
X126915674Y-104321600D01*
X126503926Y-104321600D01*
X126260810Y-104422302D01*
X126219229Y-104360071D01*
X125967837Y-104192096D01*
X125770305Y-104152804D01*
X125703251Y-104108000D01*
X125803809Y-104040809D01*
X125887112Y-103916138D01*
X125981000Y-103822250D01*
X125981000Y-103706690D01*
X125972783Y-103686852D01*
X125993440Y-103583000D01*
X125993440Y-103033000D01*
X125974524Y-102937900D01*
X126322574Y-102937900D01*
X126702980Y-102780331D01*
X126856474Y-102626837D01*
X126960771Y-102782929D01*
X126960771Y-102782929D01*
G37*
X126960771Y-102782929D02*
X127212163Y-102950904D01*
X127231370Y-102954724D01*
X127186560Y-103180000D01*
X127186560Y-103830000D01*
X127235843Y-104077765D01*
X127275983Y-104137838D01*
X127199000Y-104323690D01*
X127199000Y-104438957D01*
X126915674Y-104321600D01*
X126503926Y-104321600D01*
X126260810Y-104422302D01*
X126219229Y-104360071D01*
X125967837Y-104192096D01*
X125770305Y-104152804D01*
X125703251Y-104108000D01*
X125803809Y-104040809D01*
X125887112Y-103916138D01*
X125981000Y-103822250D01*
X125981000Y-103706690D01*
X125972783Y-103686852D01*
X125993440Y-103583000D01*
X125993440Y-103033000D01*
X125974524Y-102937900D01*
X126322574Y-102937900D01*
X126702980Y-102780331D01*
X126856474Y-102626837D01*
X126960771Y-102782929D01*
G36*
X107823000Y-92837000D02*
X107843000Y-92837000D01*
X107843000Y-93091000D01*
X107823000Y-93091000D01*
X107823000Y-94284155D01*
X108052890Y-94405476D01*
X108462924Y-94235645D01*
X108891183Y-93845358D01*
X108952157Y-93715522D01*
X109165375Y-94034625D01*
X109656582Y-94362839D01*
X110089744Y-94449000D01*
X110382256Y-94449000D01*
X110815418Y-94362839D01*
X111306625Y-94034625D01*
X111506000Y-93736239D01*
X111705375Y-94034625D01*
X112196582Y-94362839D01*
X112629744Y-94449000D01*
X112922256Y-94449000D01*
X113142408Y-94405209D01*
X115885198Y-97148000D01*
X115035047Y-97148000D01*
X114960200Y-97133112D01*
X114885353Y-97148000D01*
X114885348Y-97148000D01*
X114663663Y-97192096D01*
X114412271Y-97360071D01*
X114369871Y-97423527D01*
X113848399Y-97945000D01*
X113682326Y-97945000D01*
X113301920Y-98102569D01*
X113010769Y-98393720D01*
X112853200Y-98774126D01*
X112853200Y-99185874D01*
X113010769Y-99566280D01*
X113245489Y-99801000D01*
X112697750Y-99801000D01*
X112539000Y-99959750D01*
X112539000Y-100584000D01*
X112559000Y-100584000D01*
X112559000Y-100838000D01*
X112539000Y-100838000D01*
X112539000Y-100858000D01*
X112285000Y-100858000D01*
X112285000Y-100838000D01*
X111060750Y-100838000D01*
X110902000Y-100996750D01*
X110902000Y-101112310D01*
X110998673Y-101345699D01*
X111007883Y-101354909D01*
X110938843Y-101458235D01*
X110889560Y-101706000D01*
X110889560Y-101890600D01*
X110285446Y-101890600D01*
X110210599Y-101875712D01*
X110135752Y-101890600D01*
X110135748Y-101890600D01*
X109914063Y-101934696D01*
X109662671Y-102102671D01*
X109620271Y-102166127D01*
X108025399Y-103761000D01*
X106476979Y-103761000D01*
X106522000Y-103652310D01*
X106522000Y-103536750D01*
X106363250Y-103378000D01*
X105139000Y-103378000D01*
X105139000Y-103398000D01*
X104885000Y-103398000D01*
X104885000Y-103378000D01*
X103660750Y-103378000D01*
X103502000Y-103536750D01*
X103502000Y-103652310D01*
X103547021Y-103761000D01*
X103253446Y-103761000D01*
X103178599Y-103746112D01*
X103103752Y-103761000D01*
X103103748Y-103761000D01*
X102882063Y-103805096D01*
X102630671Y-103973071D01*
X102588271Y-104036528D01*
X102482798Y-104142000D01*
X100946060Y-104142000D01*
X101009476Y-103988890D01*
X100888155Y-103759000D01*
X99695000Y-103759000D01*
X99695000Y-103779000D01*
X99441000Y-103779000D01*
X99441000Y-103759000D01*
X99421000Y-103759000D01*
X99421000Y-103505000D01*
X99441000Y-103505000D01*
X99441000Y-102311181D01*
X99695000Y-102311181D01*
X99695000Y-103505000D01*
X100888155Y-103505000D01*
X101009476Y-103275110D01*
X100839645Y-102865076D01*
X100449358Y-102436817D01*
X99924892Y-102190514D01*
X99695000Y-102311181D01*
X99441000Y-102311181D01*
X99211108Y-102190514D01*
X99152700Y-102217944D01*
X99152700Y-101981000D01*
X103036811Y-101981000D01*
X103095796Y-102277537D01*
X103263771Y-102528929D01*
X103515163Y-102696904D01*
X103561471Y-102706115D01*
X103502000Y-102849690D01*
X103502000Y-102965250D01*
X103660750Y-103124000D01*
X104885000Y-103124000D01*
X104885000Y-103104000D01*
X105139000Y-103104000D01*
X105139000Y-103124000D01*
X106363250Y-103124000D01*
X106522000Y-102965250D01*
X106522000Y-102849690D01*
X106425327Y-102616301D01*
X106416117Y-102607091D01*
X106485157Y-102503765D01*
X106534440Y-102256000D01*
X106534440Y-101706000D01*
X106485157Y-101458235D01*
X106469456Y-101434737D01*
X106508837Y-101426904D01*
X106760229Y-101258929D01*
X106802631Y-101195470D01*
X107688411Y-100309690D01*
X110902000Y-100309690D01*
X110902000Y-100425250D01*
X111060750Y-100584000D01*
X112285000Y-100584000D01*
X112285000Y-99959750D01*
X112126250Y-99801000D01*
X111410691Y-99801000D01*
X111177302Y-99897673D01*
X110998673Y-100076301D01*
X110902000Y-100309690D01*
X107688411Y-100309690D01*
X109621173Y-98376929D01*
X109684629Y-98334529D01*
X109852604Y-98083137D01*
X109855726Y-98067440D01*
X111212000Y-98067440D01*
X111459765Y-98018157D01*
X111669809Y-97877809D01*
X111810157Y-97667765D01*
X111859440Y-97420000D01*
X111859440Y-95620000D01*
X111810157Y-95372235D01*
X111669809Y-95162191D01*
X111459765Y-95021843D01*
X111212000Y-94972560D01*
X109462000Y-94972560D01*
X109214235Y-95021843D01*
X109004191Y-95162191D01*
X108863843Y-95372235D01*
X108814560Y-95620000D01*
X108814560Y-95821203D01*
X108609440Y-95958260D01*
X108609440Y-95620000D01*
X108560157Y-95372235D01*
X108419809Y-95162191D01*
X108209765Y-95021843D01*
X107962000Y-94972560D01*
X106212000Y-94972560D01*
X105964235Y-95021843D01*
X105754191Y-95162191D01*
X105613843Y-95372235D01*
X105564560Y-95620000D01*
X105564560Y-95821203D01*
X105338771Y-95972071D01*
X105296371Y-96035527D01*
X103327230Y-98004669D01*
X103263771Y-98047071D01*
X103095796Y-98298464D01*
X103051700Y-98520149D01*
X103051700Y-98520153D01*
X103036812Y-98595000D01*
X103051700Y-98669847D01*
X103051701Y-101906143D01*
X103036811Y-101981000D01*
X99152700Y-101981000D01*
X99152700Y-100196252D01*
X99267904Y-100023837D01*
X99305571Y-99834474D01*
X99622625Y-99622625D01*
X99830178Y-99312000D01*
X99971153Y-99312000D01*
X100046000Y-99326888D01*
X100120847Y-99312000D01*
X100120852Y-99312000D01*
X100342537Y-99267904D01*
X100593929Y-99099929D01*
X100636331Y-99036470D01*
X105211363Y-94461440D01*
X106006000Y-94461440D01*
X106253765Y-94412157D01*
X106463809Y-94271809D01*
X106604157Y-94061765D01*
X106624739Y-93958292D01*
X106929076Y-94235645D01*
X107339110Y-94405476D01*
X107569000Y-94284155D01*
X107569000Y-93091000D01*
X107549000Y-93091000D01*
X107549000Y-92837000D01*
X107569000Y-92837000D01*
X107569000Y-92817000D01*
X107823000Y-92817000D01*
X107823000Y-92837000D01*
X107823000Y-92837000D01*
G37*
X107823000Y-92837000D02*
X107843000Y-92837000D01*
X107843000Y-93091000D01*
X107823000Y-93091000D01*
X107823000Y-94284155D01*
X108052890Y-94405476D01*
X108462924Y-94235645D01*
X108891183Y-93845358D01*
X108952157Y-93715522D01*
X109165375Y-94034625D01*
X109656582Y-94362839D01*
X110089744Y-94449000D01*
X110382256Y-94449000D01*
X110815418Y-94362839D01*
X111306625Y-94034625D01*
X111506000Y-93736239D01*
X111705375Y-94034625D01*
X112196582Y-94362839D01*
X112629744Y-94449000D01*
X112922256Y-94449000D01*
X113142408Y-94405209D01*
X115885198Y-97148000D01*
X115035047Y-97148000D01*
X114960200Y-97133112D01*
X114885353Y-97148000D01*
X114885348Y-97148000D01*
X114663663Y-97192096D01*
X114412271Y-97360071D01*
X114369871Y-97423527D01*
X113848399Y-97945000D01*
X113682326Y-97945000D01*
X113301920Y-98102569D01*
X113010769Y-98393720D01*
X112853200Y-98774126D01*
X112853200Y-99185874D01*
X113010769Y-99566280D01*
X113245489Y-99801000D01*
X112697750Y-99801000D01*
X112539000Y-99959750D01*
X112539000Y-100584000D01*
X112559000Y-100584000D01*
X112559000Y-100838000D01*
X112539000Y-100838000D01*
X112539000Y-100858000D01*
X112285000Y-100858000D01*
X112285000Y-100838000D01*
X111060750Y-100838000D01*
X110902000Y-100996750D01*
X110902000Y-101112310D01*
X110998673Y-101345699D01*
X111007883Y-101354909D01*
X110938843Y-101458235D01*
X110889560Y-101706000D01*
X110889560Y-101890600D01*
X110285446Y-101890600D01*
X110210599Y-101875712D01*
X110135752Y-101890600D01*
X110135748Y-101890600D01*
X109914063Y-101934696D01*
X109662671Y-102102671D01*
X109620271Y-102166127D01*
X108025399Y-103761000D01*
X106476979Y-103761000D01*
X106522000Y-103652310D01*
X106522000Y-103536750D01*
X106363250Y-103378000D01*
X105139000Y-103378000D01*
X105139000Y-103398000D01*
X104885000Y-103398000D01*
X104885000Y-103378000D01*
X103660750Y-103378000D01*
X103502000Y-103536750D01*
X103502000Y-103652310D01*
X103547021Y-103761000D01*
X103253446Y-103761000D01*
X103178599Y-103746112D01*
X103103752Y-103761000D01*
X103103748Y-103761000D01*
X102882063Y-103805096D01*
X102630671Y-103973071D01*
X102588271Y-104036528D01*
X102482798Y-104142000D01*
X100946060Y-104142000D01*
X101009476Y-103988890D01*
X100888155Y-103759000D01*
X99695000Y-103759000D01*
X99695000Y-103779000D01*
X99441000Y-103779000D01*
X99441000Y-103759000D01*
X99421000Y-103759000D01*
X99421000Y-103505000D01*
X99441000Y-103505000D01*
X99441000Y-102311181D01*
X99695000Y-102311181D01*
X99695000Y-103505000D01*
X100888155Y-103505000D01*
X101009476Y-103275110D01*
X100839645Y-102865076D01*
X100449358Y-102436817D01*
X99924892Y-102190514D01*
X99695000Y-102311181D01*
X99441000Y-102311181D01*
X99211108Y-102190514D01*
X99152700Y-102217944D01*
X99152700Y-101981000D01*
X103036811Y-101981000D01*
X103095796Y-102277537D01*
X103263771Y-102528929D01*
X103515163Y-102696904D01*
X103561471Y-102706115D01*
X103502000Y-102849690D01*
X103502000Y-102965250D01*
X103660750Y-103124000D01*
X104885000Y-103124000D01*
X104885000Y-103104000D01*
X105139000Y-103104000D01*
X105139000Y-103124000D01*
X106363250Y-103124000D01*
X106522000Y-102965250D01*
X106522000Y-102849690D01*
X106425327Y-102616301D01*
X106416117Y-102607091D01*
X106485157Y-102503765D01*
X106534440Y-102256000D01*
X106534440Y-101706000D01*
X106485157Y-101458235D01*
X106469456Y-101434737D01*
X106508837Y-101426904D01*
X106760229Y-101258929D01*
X106802631Y-101195470D01*
X107688411Y-100309690D01*
X110902000Y-100309690D01*
X110902000Y-100425250D01*
X111060750Y-100584000D01*
X112285000Y-100584000D01*
X112285000Y-99959750D01*
X112126250Y-99801000D01*
X111410691Y-99801000D01*
X111177302Y-99897673D01*
X110998673Y-100076301D01*
X110902000Y-100309690D01*
X107688411Y-100309690D01*
X109621173Y-98376929D01*
X109684629Y-98334529D01*
X109852604Y-98083137D01*
X109855726Y-98067440D01*
X111212000Y-98067440D01*
X111459765Y-98018157D01*
X111669809Y-97877809D01*
X111810157Y-97667765D01*
X111859440Y-97420000D01*
X111859440Y-95620000D01*
X111810157Y-95372235D01*
X111669809Y-95162191D01*
X111459765Y-95021843D01*
X111212000Y-94972560D01*
X109462000Y-94972560D01*
X109214235Y-95021843D01*
X109004191Y-95162191D01*
X108863843Y-95372235D01*
X108814560Y-95620000D01*
X108814560Y-95821203D01*
X108609440Y-95958260D01*
X108609440Y-95620000D01*
X108560157Y-95372235D01*
X108419809Y-95162191D01*
X108209765Y-95021843D01*
X107962000Y-94972560D01*
X106212000Y-94972560D01*
X105964235Y-95021843D01*
X105754191Y-95162191D01*
X105613843Y-95372235D01*
X105564560Y-95620000D01*
X105564560Y-95821203D01*
X105338771Y-95972071D01*
X105296371Y-96035527D01*
X103327230Y-98004669D01*
X103263771Y-98047071D01*
X103095796Y-98298464D01*
X103051700Y-98520149D01*
X103051700Y-98520153D01*
X103036812Y-98595000D01*
X103051700Y-98669847D01*
X103051701Y-101906143D01*
X103036811Y-101981000D01*
X99152700Y-101981000D01*
X99152700Y-100196252D01*
X99267904Y-100023837D01*
X99305571Y-99834474D01*
X99622625Y-99622625D01*
X99830178Y-99312000D01*
X99971153Y-99312000D01*
X100046000Y-99326888D01*
X100120847Y-99312000D01*
X100120852Y-99312000D01*
X100342537Y-99267904D01*
X100593929Y-99099929D01*
X100636331Y-99036470D01*
X105211363Y-94461440D01*
X106006000Y-94461440D01*
X106253765Y-94412157D01*
X106463809Y-94271809D01*
X106604157Y-94061765D01*
X106624739Y-93958292D01*
X106929076Y-94235645D01*
X107339110Y-94405476D01*
X107569000Y-94284155D01*
X107569000Y-93091000D01*
X107549000Y-93091000D01*
X107549000Y-92837000D01*
X107569000Y-92837000D01*
X107569000Y-92817000D01*
X107823000Y-92817000D01*
X107823000Y-92837000D01*
G36*
X103848191Y-91656191D02*
X103707843Y-91866235D01*
X103658560Y-92114000D01*
X103658560Y-93814000D01*
X103666961Y-93856236D01*
X99790533Y-97732666D01*
X99622625Y-97481375D01*
X99600967Y-97466904D01*
X99761698Y-97400327D01*
X99940327Y-97221699D01*
X100037000Y-96988310D01*
X100037000Y-96297750D01*
X99878250Y-96139000D01*
X98679000Y-96139000D01*
X98679000Y-96159000D01*
X98425000Y-96159000D01*
X98425000Y-96139000D01*
X97225750Y-96139000D01*
X97067000Y-96297750D01*
X97067000Y-96988310D01*
X97163673Y-97221699D01*
X97342302Y-97400327D01*
X97503033Y-97466904D01*
X97481375Y-97481375D01*
X97153161Y-97972582D01*
X97037908Y-98552000D01*
X97153161Y-99131418D01*
X97481375Y-99622625D01*
X97648153Y-99734062D01*
X97632700Y-99811749D01*
X97632700Y-99811753D01*
X97617812Y-99886600D01*
X97632700Y-99961447D01*
X97632700Y-102134560D01*
X96178000Y-102134560D01*
X95930235Y-102183843D01*
X95720191Y-102324191D01*
X95706000Y-102345429D01*
X95706000Y-95035690D01*
X97067000Y-95035690D01*
X97067000Y-95726250D01*
X97225750Y-95885000D01*
X98425000Y-95885000D01*
X98425000Y-94685750D01*
X98679000Y-94685750D01*
X98679000Y-95885000D01*
X99878250Y-95885000D01*
X100037000Y-95726250D01*
X100037000Y-95035690D01*
X99940327Y-94802301D01*
X99761698Y-94623673D01*
X99528309Y-94527000D01*
X98837750Y-94527000D01*
X98679000Y-94685750D01*
X98425000Y-94685750D01*
X98266250Y-94527000D01*
X97575691Y-94527000D01*
X97342302Y-94623673D01*
X97163673Y-94802301D01*
X97067000Y-95035690D01*
X95706000Y-95035690D01*
X95706000Y-94099911D01*
X96021354Y-94254060D01*
X96702082Y-94313018D01*
X97358395Y-94122962D01*
X97902284Y-93709379D01*
X98260819Y-93127726D01*
X98385923Y-92456000D01*
X98385443Y-92413667D01*
X98245132Y-91744952D01*
X98178402Y-91642000D01*
X103869429Y-91642000D01*
X103848191Y-91656191D01*
X103848191Y-91656191D01*
G37*
X103848191Y-91656191D02*
X103707843Y-91866235D01*
X103658560Y-92114000D01*
X103658560Y-93814000D01*
X103666961Y-93856236D01*
X99790533Y-97732666D01*
X99622625Y-97481375D01*
X99600967Y-97466904D01*
X99761698Y-97400327D01*
X99940327Y-97221699D01*
X100037000Y-96988310D01*
X100037000Y-96297750D01*
X99878250Y-96139000D01*
X98679000Y-96139000D01*
X98679000Y-96159000D01*
X98425000Y-96159000D01*
X98425000Y-96139000D01*
X97225750Y-96139000D01*
X97067000Y-96297750D01*
X97067000Y-96988310D01*
X97163673Y-97221699D01*
X97342302Y-97400327D01*
X97503033Y-97466904D01*
X97481375Y-97481375D01*
X97153161Y-97972582D01*
X97037908Y-98552000D01*
X97153161Y-99131418D01*
X97481375Y-99622625D01*
X97648153Y-99734062D01*
X97632700Y-99811749D01*
X97632700Y-99811753D01*
X97617812Y-99886600D01*
X97632700Y-99961447D01*
X97632700Y-102134560D01*
X96178000Y-102134560D01*
X95930235Y-102183843D01*
X95720191Y-102324191D01*
X95706000Y-102345429D01*
X95706000Y-95035690D01*
X97067000Y-95035690D01*
X97067000Y-95726250D01*
X97225750Y-95885000D01*
X98425000Y-95885000D01*
X98425000Y-94685750D01*
X98679000Y-94685750D01*
X98679000Y-95885000D01*
X99878250Y-95885000D01*
X100037000Y-95726250D01*
X100037000Y-95035690D01*
X99940327Y-94802301D01*
X99761698Y-94623673D01*
X99528309Y-94527000D01*
X98837750Y-94527000D01*
X98679000Y-94685750D01*
X98425000Y-94685750D01*
X98266250Y-94527000D01*
X97575691Y-94527000D01*
X97342302Y-94623673D01*
X97163673Y-94802301D01*
X97067000Y-95035690D01*
X95706000Y-95035690D01*
X95706000Y-94099911D01*
X96021354Y-94254060D01*
X96702082Y-94313018D01*
X97358395Y-94122962D01*
X97902284Y-93709379D01*
X98260819Y-93127726D01*
X98385923Y-92456000D01*
X98385443Y-92413667D01*
X98245132Y-91744952D01*
X98178402Y-91642000D01*
X103869429Y-91642000D01*
X103848191Y-91656191D01*
G36*
X127199000Y-97790002D02*
X127357748Y-97790002D01*
X127199000Y-97948750D01*
X127199000Y-98114310D01*
X127275983Y-98300162D01*
X127235843Y-98360235D01*
X127186560Y-98608000D01*
X127186560Y-99258000D01*
X127216237Y-99407200D01*
X126845302Y-99407200D01*
X126431300Y-98993198D01*
X126431300Y-98545201D01*
X127199000Y-97777502D01*
X127199000Y-97790002D01*
X127199000Y-97790002D01*
G37*
X127199000Y-97790002D02*
X127357748Y-97790002D01*
X127199000Y-97948750D01*
X127199000Y-98114310D01*
X127275983Y-98300162D01*
X127235843Y-98360235D01*
X127186560Y-98608000D01*
X127186560Y-99258000D01*
X127216237Y-99407200D01*
X126845302Y-99407200D01*
X126431300Y-98993198D01*
X126431300Y-98545201D01*
X127199000Y-97777502D01*
X127199000Y-97790002D01*
G36*
X134641736Y-94392238D02*
X134595673Y-94438301D01*
X134499000Y-94671690D01*
X134499000Y-94837250D01*
X134657750Y-94996000D01*
X135236992Y-94996000D01*
X135450563Y-95138704D01*
X135672248Y-95182800D01*
X135672252Y-95182800D01*
X135747099Y-95197688D01*
X135821946Y-95182800D01*
X136131000Y-95182800D01*
X136131000Y-95250000D01*
X136111000Y-95250000D01*
X136111000Y-95270000D01*
X135857000Y-95270000D01*
X135857000Y-95250000D01*
X134657750Y-95250000D01*
X134499000Y-95408750D01*
X134499000Y-95574310D01*
X134523310Y-95633000D01*
X132474146Y-95633000D01*
X132399299Y-95618112D01*
X132324452Y-95633000D01*
X132324448Y-95633000D01*
X132102763Y-95677096D01*
X132074823Y-95695765D01*
X131914826Y-95802671D01*
X131914824Y-95802673D01*
X131851371Y-95845071D01*
X131808973Y-95908524D01*
X130169000Y-97548499D01*
X130169000Y-97535998D01*
X130010252Y-97535998D01*
X130169000Y-97377250D01*
X130169000Y-97211690D01*
X130092017Y-97025838D01*
X130132157Y-96965765D01*
X130181440Y-96718000D01*
X130181440Y-96068000D01*
X130132157Y-95820235D01*
X130090573Y-95758000D01*
X130132157Y-95695765D01*
X130181440Y-95448000D01*
X130181440Y-94798000D01*
X130132157Y-94550235D01*
X129991809Y-94340191D01*
X129781765Y-94199843D01*
X129534000Y-94150560D01*
X127834000Y-94150560D01*
X127586235Y-94199843D01*
X127554845Y-94220818D01*
X127434574Y-94171000D01*
X127022826Y-94171000D01*
X126642420Y-94328569D01*
X126351269Y-94619720D01*
X126193700Y-95000126D01*
X126193700Y-95411874D01*
X126351269Y-95792280D01*
X126642420Y-96083431D01*
X126713871Y-96113027D01*
X125186828Y-97640071D01*
X125123372Y-97682471D01*
X125080972Y-97745927D01*
X125080971Y-97745928D01*
X124955397Y-97933863D01*
X124896412Y-98230400D01*
X124911301Y-98305251D01*
X124911301Y-98385560D01*
X124118440Y-98385560D01*
X124118440Y-97158000D01*
X124069157Y-96910235D01*
X123928809Y-96700191D01*
X123718765Y-96559843D01*
X123471000Y-96510560D01*
X122921000Y-96510560D01*
X122796000Y-96535424D01*
X122671000Y-96510560D01*
X122294797Y-96510560D01*
X122143929Y-96284771D01*
X121983522Y-96177590D01*
X121985600Y-96172574D01*
X121985600Y-96042500D01*
X122100274Y-96042500D01*
X122480680Y-95884931D01*
X122771831Y-95593780D01*
X122914519Y-95249300D01*
X123175148Y-95249300D01*
X123250000Y-95264189D01*
X123546537Y-95205204D01*
X123797929Y-95037229D01*
X123948797Y-94811440D01*
X125000000Y-94811440D01*
X125247765Y-94762157D01*
X125457809Y-94621809D01*
X125598157Y-94411765D01*
X125647440Y-94164000D01*
X125647440Y-92080400D01*
X132329899Y-92080400D01*
X134641736Y-94392238D01*
X134641736Y-94392238D01*
G37*
X134641736Y-94392238D02*
X134595673Y-94438301D01*
X134499000Y-94671690D01*
X134499000Y-94837250D01*
X134657750Y-94996000D01*
X135236992Y-94996000D01*
X135450563Y-95138704D01*
X135672248Y-95182800D01*
X135672252Y-95182800D01*
X135747099Y-95197688D01*
X135821946Y-95182800D01*
X136131000Y-95182800D01*
X136131000Y-95250000D01*
X136111000Y-95250000D01*
X136111000Y-95270000D01*
X135857000Y-95270000D01*
X135857000Y-95250000D01*
X134657750Y-95250000D01*
X134499000Y-95408750D01*
X134499000Y-95574310D01*
X134523310Y-95633000D01*
X132474146Y-95633000D01*
X132399299Y-95618112D01*
X132324452Y-95633000D01*
X132324448Y-95633000D01*
X132102763Y-95677096D01*
X132074823Y-95695765D01*
X131914826Y-95802671D01*
X131914824Y-95802673D01*
X131851371Y-95845071D01*
X131808973Y-95908524D01*
X130169000Y-97548499D01*
X130169000Y-97535998D01*
X130010252Y-97535998D01*
X130169000Y-97377250D01*
X130169000Y-97211690D01*
X130092017Y-97025838D01*
X130132157Y-96965765D01*
X130181440Y-96718000D01*
X130181440Y-96068000D01*
X130132157Y-95820235D01*
X130090573Y-95758000D01*
X130132157Y-95695765D01*
X130181440Y-95448000D01*
X130181440Y-94798000D01*
X130132157Y-94550235D01*
X129991809Y-94340191D01*
X129781765Y-94199843D01*
X129534000Y-94150560D01*
X127834000Y-94150560D01*
X127586235Y-94199843D01*
X127554845Y-94220818D01*
X127434574Y-94171000D01*
X127022826Y-94171000D01*
X126642420Y-94328569D01*
X126351269Y-94619720D01*
X126193700Y-95000126D01*
X126193700Y-95411874D01*
X126351269Y-95792280D01*
X126642420Y-96083431D01*
X126713871Y-96113027D01*
X125186828Y-97640071D01*
X125123372Y-97682471D01*
X125080972Y-97745927D01*
X125080971Y-97745928D01*
X124955397Y-97933863D01*
X124896412Y-98230400D01*
X124911301Y-98305251D01*
X124911301Y-98385560D01*
X124118440Y-98385560D01*
X124118440Y-97158000D01*
X124069157Y-96910235D01*
X123928809Y-96700191D01*
X123718765Y-96559843D01*
X123471000Y-96510560D01*
X122921000Y-96510560D01*
X122796000Y-96535424D01*
X122671000Y-96510560D01*
X122294797Y-96510560D01*
X122143929Y-96284771D01*
X121983522Y-96177590D01*
X121985600Y-96172574D01*
X121985600Y-96042500D01*
X122100274Y-96042500D01*
X122480680Y-95884931D01*
X122771831Y-95593780D01*
X122914519Y-95249300D01*
X123175148Y-95249300D01*
X123250000Y-95264189D01*
X123546537Y-95205204D01*
X123797929Y-95037229D01*
X123948797Y-94811440D01*
X125000000Y-94811440D01*
X125247765Y-94762157D01*
X125457809Y-94621809D01*
X125598157Y-94411765D01*
X125647440Y-94164000D01*
X125647440Y-92080400D01*
X132329899Y-92080400D01*
X134641736Y-94392238D01*
G36*
X128811000Y-97536000D02*
X128831000Y-97536000D01*
X128831000Y-97790000D01*
X128811000Y-97790000D01*
X128811000Y-97810000D01*
X128557000Y-97810000D01*
X128557000Y-97790000D01*
X128537000Y-97790000D01*
X128537000Y-97536000D01*
X128557000Y-97536000D01*
X128557000Y-97516000D01*
X128811000Y-97516000D01*
X128811000Y-97536000D01*
X128811000Y-97536000D01*
G37*
X128811000Y-97536000D02*
X128831000Y-97536000D01*
X128831000Y-97790000D01*
X128811000Y-97790000D01*
X128811000Y-97810000D01*
X128557000Y-97810000D01*
X128557000Y-97790000D01*
X128537000Y-97790000D01*
X128537000Y-97536000D01*
X128557000Y-97536000D01*
X128557000Y-97516000D01*
X128811000Y-97516000D01*
X128811000Y-97536000D01*
G04 #@! TD*
M02*
