M48
INCH,TZ
T1C0.0157
T2C0.0394
T3C0.0472
%
G90
G05
T1
X43665Y-41256
X44838Y-38969
X45051Y-39833
X45767Y-41661
X46007Y-42319
X46289Y-39397
X46959Y-37692
X47077Y-41299
X47404Y-39080
X47618Y-37782
X47691Y-40948
X47699Y-43491
X47883Y-42509
X47909Y-42940
X47990Y-37405
X48483Y-41320
X48811Y-42735
X48918Y-42146
X49652Y-40119
X49716Y-42344
X49886Y-41479
X50090Y-37483
X50238Y-39721
X51511Y-41476
X52132Y-38713
X52959Y-41750
T2
X38200Y-40800
X38200Y-41800
X38200Y-42800
X39200Y-40800
X39200Y-41800
X39200Y-42800
X38800Y-37800
X38800Y-38800
X39800Y-44600
X40800Y-44600
X41800Y-44600
X42800Y-44600
X41400Y-36600
X42400Y-36600
X43400Y-36600
X44400Y-36600
X44400Y-44600
X45400Y-44600
X46400Y-44600
X47400Y-44600
X48400Y-44600
X49400Y-44600
X50400Y-44600
X51400Y-44600
X52400Y-44600
X56200Y-44000
X57200Y-44000
X58200Y-44000
X59200Y-44000
X60200Y-44000
X56200Y-37000
X57200Y-37000
X58200Y-37000
X59200Y-37000
X60200Y-37000
T3
X61086Y-38479
X57011Y-42554
X57011Y-39837
X58370Y-42554
X61086Y-42554
X61086Y-41196
X59728Y-42554
X61086Y-39837
X58370Y-38479
X55653Y-38479
X58370Y-39837
X59728Y-39837
X59728Y-41196
X57011Y-41196
X57011Y-38479
X58370Y-41196
X55653Y-41196
X55653Y-39837
X55653Y-42554
X59728Y-38479
T0
M30
