G04 #@! TF.GenerationSoftware,KiCad,Pcbnew,5.0.2-bee76a0~70~ubuntu18.04.1*
G04 #@! TF.CreationDate,2019-02-19T10:43:49+11:00*
G04 #@! TF.ProjectId,BACEE,42414345-452e-46b6-9963-61645f706362,2*
G04 #@! TF.SameCoordinates,Original*
G04 #@! TF.FileFunction,Profile,NP*
%FSLAX46Y46*%
G04 Gerber Fmt 4.6, Leading zero omitted, Abs format (unit mm)*
G04 Created by KiCad (PCBNEW 5.0.2-bee76a0~70~ubuntu18.04.1) date Tue 19 Feb 2019 10:43:49 AM AEDT*
%MOMM*%
%LPD*%
G01*
G04 APERTURE LIST*
%ADD10C,0.150000*%
G04 APERTURE END LIST*
D10*
X138789210Y-97536000D02*
G75*
G03X138789210Y-97536000I-359210J0D01*
G01*
X138789210Y-99568000D02*
G75*
G03X138789210Y-99568000I-359210J0D01*
G01*
X138789210Y-98552000D02*
G75*
G03X138789210Y-98552000I-359210J0D01*
G01*
X138789210Y-100584000D02*
G75*
G03X138789210Y-100584000I-359210J0D01*
G01*
X138789210Y-101600000D02*
G75*
G03X138789210Y-101600000I-359210J0D01*
G01*
X138789210Y-94742000D02*
G75*
G03X138789210Y-94742000I-359210J0D01*
G01*
X138789210Y-95758000D02*
G75*
G03X138789210Y-95758000I-359210J0D01*
G01*
X138789210Y-91694000D02*
G75*
G03X138789210Y-91694000I-359210J0D01*
G01*
X138789210Y-92710000D02*
G75*
G03X138789210Y-92710000I-359210J0D01*
G01*
X138789210Y-93726000D02*
G75*
G03X138789210Y-93726000I-359210J0D01*
G01*
X138789210Y-104648000D02*
G75*
G03X138789210Y-104648000I-359210J0D01*
G01*
X138789210Y-102616000D02*
G75*
G03X138789210Y-102616000I-359210J0D01*
G01*
X138789210Y-103632000D02*
G75*
G03X138789210Y-103632000I-359210J0D01*
G01*
X138789210Y-107696000D02*
G75*
G03X138789210Y-107696000I-359210J0D01*
G01*
X138789210Y-105664000D02*
G75*
G03X138789210Y-105664000I-359210J0D01*
G01*
X138789210Y-106680000D02*
G75*
G03X138789210Y-106680000I-359210J0D01*
G01*
X138789210Y-108712000D02*
G75*
G03X138789210Y-108712000I-359210J0D01*
G01*
X138789210Y-109728000D02*
G75*
G03X138789210Y-109728000I-359210J0D01*
G01*
X138789210Y-110744000D02*
G75*
G03X138789210Y-110744000I-359210J0D01*
G01*
X138789210Y-112522000D02*
G75*
G03X138789210Y-112522000I-359210J0D01*
G01*
X138789210Y-113538000D02*
G75*
G03X138789210Y-113538000I-359210J0D01*
G01*
X138789210Y-114554000D02*
G75*
G03X138789210Y-114554000I-359210J0D01*
G01*
X157599923Y-92456000D02*
G75*
G03X157599923Y-92456000I-1135923J0D01*
G01*
X157599923Y-113792000D02*
G75*
G03X157599923Y-113792000I-1135923J0D01*
G01*
X156972000Y-115316000D02*
X136652000Y-115316000D01*
X156972000Y-90932000D02*
X136652000Y-90932000D01*
X136652000Y-90932000D02*
X96012000Y-90932000D01*
X157988000Y-114300000D02*
X157988000Y-91948000D01*
X96012000Y-115316000D02*
X136652000Y-115316000D01*
X94996000Y-91948000D02*
X94996000Y-114300000D01*
X137279923Y-113792000D02*
G75*
G03X137279923Y-113792000I-1135923J0D01*
G01*
X97655923Y-113792000D02*
G75*
G03X97655923Y-113792000I-1135923J0D01*
G01*
X97655923Y-92456000D02*
G75*
G03X97655923Y-92456000I-1135923J0D01*
G01*
X137279923Y-92456000D02*
G75*
G03X137279923Y-92456000I-1135923J0D01*
G01*
X156972000Y-90932000D02*
G75*
G02X157988000Y-91948000I0J-1016000D01*
G01*
X157988000Y-114300000D02*
G75*
G02X156972000Y-115316000I-1016000J0D01*
G01*
X96012000Y-115316000D02*
G75*
G02X94996000Y-114300000I0J1016000D01*
G01*
X94996000Y-91948000D02*
G75*
G02X96012000Y-90932000I1016000J0D01*
G01*
M02*
