G04 #@! TF.GenerationSoftware,KiCad,Pcbnew,5.0.2-bee76a0~70~ubuntu18.04.1*
G04 #@! TF.CreationDate,2019-02-19T10:16:34+11:00*
G04 #@! TF.ProjectId,BACEE,42414345-452e-46b6-9963-61645f706362,2*
G04 #@! TF.SameCoordinates,Original*
G04 #@! TF.FileFunction,Copper,L2,Bot*
G04 #@! TF.FilePolarity,Positive*
%FSLAX46Y46*%
G04 Gerber Fmt 4.6, Leading zero omitted, Abs format (unit mm)*
G04 Created by KiCad (PCBNEW 5.0.2-bee76a0~70~ubuntu18.04.1) date Tue 19 Feb 2019 10:16:34 AM AEDT*
%MOMM*%
%LPD*%
G01*
G04 APERTURE LIST*
G04 #@! TA.AperFunction,ComponentPad*
%ADD10R,1.700000X1.700000*%
G04 #@! TD*
G04 #@! TA.AperFunction,ComponentPad*
%ADD11O,1.700000X1.700000*%
G04 #@! TD*
G04 #@! TA.AperFunction,ViaPad*
%ADD12C,0.800000*%
G04 #@! TD*
G04 #@! TA.AperFunction,Conductor*
%ADD13C,0.250000*%
G04 #@! TD*
G04 APERTURE END LIST*
D10*
G04 #@! TO.P,BT1,1*
G04 #@! TO.N,/Vcc*
X98552000Y-96012000D03*
D11*
G04 #@! TO.P,BT1,2*
G04 #@! TO.N,GNDPWR*
X98552000Y-98552000D03*
G04 #@! TD*
G04 #@! TO.P,J2,4*
G04 #@! TO.N,/SCK*
X108712000Y-113284000D03*
G04 #@! TO.P,J2,3*
G04 #@! TO.N,/SDA*
X106172000Y-113284000D03*
G04 #@! TO.P,J2,2*
G04 #@! TO.N,/Vcc*
X103632000Y-113284000D03*
D10*
G04 #@! TO.P,J2,1*
G04 #@! TO.N,GNDPWR*
X101092000Y-113284000D03*
G04 #@! TD*
G04 #@! TO.P,J3,1*
G04 #@! TO.N,/D2*
X112776000Y-113284000D03*
D11*
G04 #@! TO.P,J3,2*
G04 #@! TO.N,/D3*
X115316000Y-113284000D03*
G04 #@! TO.P,J3,3*
G04 #@! TO.N,/D4*
X117856000Y-113284000D03*
G04 #@! TO.P,J3,4*
G04 #@! TO.N,/D5*
X120396000Y-113284000D03*
G04 #@! TO.P,J3,5*
G04 #@! TO.N,/D6*
X122936000Y-113284000D03*
G04 #@! TO.P,J3,6*
G04 #@! TO.N,/D7*
X125476000Y-113284000D03*
G04 #@! TO.P,J3,7*
G04 #@! TO.N,/D8*
X128016000Y-113284000D03*
G04 #@! TO.P,J3,8*
G04 #@! TO.N,GNDPWR*
X130556000Y-113284000D03*
G04 #@! TO.P,J3,9*
G04 #@! TO.N,/Vcc*
X133096000Y-113284000D03*
G04 #@! TD*
D10*
G04 #@! TO.P,J4,1*
G04 #@! TO.N,GNDPWR*
X105156000Y-92964000D03*
D11*
G04 #@! TO.P,J4,2*
G04 #@! TO.N,/Vcc*
X107696000Y-92964000D03*
G04 #@! TO.P,J4,3*
G04 #@! TO.N,/RX*
X110236000Y-92964000D03*
G04 #@! TO.P,J4,4*
G04 #@! TO.N,/TX*
X112776000Y-92964000D03*
G04 #@! TD*
D10*
G04 #@! TO.P,J5,1*
G04 #@! TO.N,/MISO*
X97028000Y-103632000D03*
D11*
G04 #@! TO.P,J5,2*
G04 #@! TO.N,/Vcc*
X99568000Y-103632000D03*
G04 #@! TO.P,J5,3*
G04 #@! TO.N,/SCK*
X97028000Y-106172000D03*
G04 #@! TO.P,J5,4*
G04 #@! TO.N,/MOSI*
X99568000Y-106172000D03*
G04 #@! TO.P,J5,5*
G04 #@! TO.N,/RESET*
X97028000Y-108712000D03*
G04 #@! TO.P,J5,6*
G04 #@! TO.N,GNDPWR*
X99568000Y-108712000D03*
G04 #@! TD*
D12*
G04 #@! TO.N,/Vcc*
X130138300Y-97663000D03*
X131148100Y-102235000D03*
G04 #@! TO.N,Net-(C1-Pad1)*
X116229100Y-96970900D03*
X122029900Y-108610100D03*
X118299800Y-104006700D03*
G04 #@! TO.N,Net-(C2-Pad1)*
X125688300Y-106899900D03*
X119373200Y-104908000D03*
X123555400Y-94794700D03*
G04 #@! TO.N,/SCK*
X123801200Y-107611500D03*
X129293700Y-100803100D03*
X131402100Y-104330600D03*
G04 #@! TO.N,/SDA*
X109908100Y-107302900D03*
G04 #@! TO.N,/D2*
X116657900Y-98421600D03*
G04 #@! TO.N,/D3*
X117561800Y-99308000D03*
G04 #@! TO.N,/D4*
X117550800Y-100436500D03*
G04 #@! TO.N,/D6*
X118694800Y-107676300D03*
G04 #@! TO.N,/MISO*
X121187100Y-103689900D03*
G04 #@! TO.N,/MOSI*
X121426700Y-104955200D03*
G04 #@! TO.N,/RESET*
X119995900Y-99285800D03*
G04 #@! TD*
D13*
G04 #@! TO.N,/Vcc*
X133096000Y-112108700D02*
X133096000Y-104182900D01*
X133096000Y-104182900D02*
X131148100Y-102235000D01*
X131148100Y-102235000D02*
X130138300Y-101225200D01*
X130138300Y-101225200D02*
X130138300Y-97663000D01*
X133096000Y-113284000D02*
X133096000Y-112108700D01*
G04 #@! TO.N,Net-(C1-Pad1)*
X116229100Y-96970900D02*
X116257100Y-96970900D01*
X116257100Y-96970900D02*
X118299800Y-99013600D01*
X118299800Y-99013600D02*
X118299800Y-104006700D01*
X118299800Y-104006700D02*
X118299800Y-104880000D01*
X118299800Y-104880000D02*
X122029900Y-108610100D01*
G04 #@! TO.N,Net-(C2-Pad1)*
X123555400Y-105454500D02*
X124242900Y-105454500D01*
X124242900Y-105454500D02*
X125688300Y-106899900D01*
X119373200Y-104908000D02*
X120155200Y-105690000D01*
X120155200Y-105690000D02*
X123319900Y-105690000D01*
X123319900Y-105690000D02*
X123555400Y-105454500D01*
X123555400Y-105454500D02*
X123555400Y-94794700D01*
G04 #@! TO.N,/SCK*
X124115300Y-108038500D02*
X123801200Y-107724400D01*
X123801200Y-107724400D02*
X123801200Y-107611500D01*
X109887300Y-113284000D02*
X111071700Y-114468400D01*
X111071700Y-114468400D02*
X123467700Y-114468400D01*
X123467700Y-114468400D02*
X124115300Y-113820800D01*
X124115300Y-113820800D02*
X124115300Y-108038500D01*
X124115300Y-108038500D02*
X125585800Y-108038500D01*
X125585800Y-108038500D02*
X129293700Y-104330600D01*
X129293700Y-104330600D02*
X129293700Y-100803100D01*
X129293700Y-104330600D02*
X131402100Y-104330600D01*
X108712000Y-113284000D02*
X109887300Y-113284000D01*
G04 #@! TO.N,/SDA*
X106172000Y-113284000D02*
X106172000Y-111039000D01*
X106172000Y-111039000D02*
X109908100Y-107302900D01*
G04 #@! TO.N,/D2*
X112776000Y-113284000D02*
X112776000Y-102303500D01*
X112776000Y-102303500D02*
X116657900Y-98421600D01*
G04 #@! TO.N,/D3*
X115316000Y-113284000D02*
X115316000Y-101553800D01*
X115316000Y-101553800D02*
X117561800Y-99308000D01*
G04 #@! TO.N,/D4*
X117856000Y-113284000D02*
X117856000Y-112108700D01*
X117550800Y-100436500D02*
X117550800Y-111803500D01*
X117550800Y-111803500D02*
X117856000Y-112108700D01*
G04 #@! TO.N,/D6*
X118694800Y-107676300D02*
X118694800Y-107867500D01*
X118694800Y-107867500D02*
X122936000Y-112108700D01*
X122936000Y-113284000D02*
X122936000Y-112108700D01*
G04 #@! TO.N,/MISO*
X97028000Y-103632000D02*
X98203300Y-103632000D01*
X98203300Y-103632000D02*
X98203300Y-103264700D01*
X98203300Y-103264700D02*
X106220900Y-95247100D01*
X106220900Y-95247100D02*
X117083400Y-95247100D01*
X117083400Y-95247100D02*
X121187100Y-99350800D01*
X121187100Y-99350800D02*
X121187100Y-103689900D01*
G04 #@! TO.N,/MOSI*
X100743300Y-106172000D02*
X110720700Y-96194600D01*
X110720700Y-96194600D02*
X116478600Y-96194600D01*
X116478600Y-96194600D02*
X119200400Y-98916400D01*
X119200400Y-98916400D02*
X119200400Y-102728900D01*
X119200400Y-102728900D02*
X121426700Y-104955200D01*
X99568000Y-106172000D02*
X100743300Y-106172000D01*
G04 #@! TO.N,/RESET*
X97028000Y-107536700D02*
X97395400Y-107536700D01*
X97395400Y-107536700D02*
X98203300Y-106728800D01*
X98203300Y-106728800D02*
X98203300Y-105833000D01*
X98203300Y-105833000D02*
X99134300Y-104902000D01*
X99134300Y-104902000D02*
X101240300Y-104902000D01*
X101240300Y-104902000D02*
X110432400Y-95709900D01*
X110432400Y-95709900D02*
X116630800Y-95709900D01*
X116630800Y-95709900D02*
X119995900Y-99075000D01*
X119995900Y-99075000D02*
X119995900Y-99285800D01*
X97028000Y-108712000D02*
X97028000Y-107536700D01*
G04 #@! TO.N,GNDPWR*
X98552000Y-98552000D02*
X98552000Y-99727300D01*
X99568000Y-109299600D02*
X98971800Y-109895800D01*
X98971800Y-109895800D02*
X96495000Y-109895800D01*
X96495000Y-109895800D02*
X95852600Y-109253400D01*
X95852600Y-109253400D02*
X95852600Y-102426700D01*
X95852600Y-102426700D02*
X98552000Y-99727300D01*
X99568000Y-109299600D02*
X99568000Y-109887300D01*
X99568000Y-108712000D02*
X99568000Y-109299600D01*
X99568000Y-109887300D02*
X101092000Y-111411300D01*
X101092000Y-111411300D02*
X101092000Y-113284000D01*
X98552000Y-98552000D02*
X98552000Y-97376700D01*
X105156000Y-92964000D02*
X103980700Y-92964000D01*
X103980700Y-92964000D02*
X99568000Y-97376700D01*
X99568000Y-97376700D02*
X98552000Y-97376700D01*
G04 #@! TD*
M02*
