G04 #@! TF.GenerationSoftware,KiCad,Pcbnew,5.0.2-bee76a0~70~ubuntu18.04.1*
G04 #@! TF.CreationDate,2019-02-19T10:33:26+11:00*
G04 #@! TF.ProjectId,BACEE,42414345-452e-46b6-9963-61645f706362,2*
G04 #@! TF.SameCoordinates,Original*
G04 #@! TF.FileFunction,Copper,L3,Inr*
G04 #@! TF.FilePolarity,Positive*
%FSLAX46Y46*%
G04 Gerber Fmt 4.6, Leading zero omitted, Abs format (unit mm)*
G04 Created by KiCad (PCBNEW 5.0.2-bee76a0~70~ubuntu18.04.1) date Tue 19 Feb 2019 10:33:26 AM AEDT*
%MOMM*%
%LPD*%
G01*
G04 APERTURE LIST*
G04 #@! TA.AperFunction,ViaPad*
%ADD10R,1.700000X1.700000*%
G04 #@! TD*
G04 #@! TA.AperFunction,ViaPad*
%ADD11O,1.700000X1.700000*%
G04 #@! TD*
G04 #@! TA.AperFunction,ViaPad*
%ADD12C,0.800000*%
G04 #@! TD*
G04 #@! TA.AperFunction,Conductor*
%ADD13C,0.250000*%
G04 #@! TD*
G04 APERTURE END LIST*
D10*
G04 #@! TO.N,/Vcc*
G04 #@! TO.C,BT1*
X98552000Y-96012000D03*
D11*
G04 #@! TO.N,GNDPWR*
X98552000Y-98552000D03*
G04 #@! TD*
G04 #@! TO.N,/SCK*
G04 #@! TO.C,J2*
X108712000Y-113284000D03*
G04 #@! TO.N,/SDA*
X106172000Y-113284000D03*
G04 #@! TO.N,/Vcc*
X103632000Y-113284000D03*
D10*
G04 #@! TO.N,GNDPWR*
X101092000Y-113284000D03*
G04 #@! TD*
G04 #@! TO.N,/D2*
G04 #@! TO.C,J3*
X112776000Y-113284000D03*
D11*
G04 #@! TO.N,/D3*
X115316000Y-113284000D03*
G04 #@! TO.N,/D4*
X117856000Y-113284000D03*
G04 #@! TO.N,/D5*
X120396000Y-113284000D03*
G04 #@! TO.N,/D6*
X122936000Y-113284000D03*
G04 #@! TO.N,/D7*
X125476000Y-113284000D03*
G04 #@! TO.N,/D8*
X128016000Y-113284000D03*
G04 #@! TO.N,GNDPWR*
X130556000Y-113284000D03*
G04 #@! TO.N,/Vcc*
X133096000Y-113284000D03*
G04 #@! TD*
D10*
G04 #@! TO.N,GNDPWR*
G04 #@! TO.C,J4*
X105156000Y-92964000D03*
D11*
G04 #@! TO.N,/Vcc*
X107696000Y-92964000D03*
G04 #@! TO.N,/RX*
X110236000Y-92964000D03*
G04 #@! TO.N,/TX*
X112776000Y-92964000D03*
G04 #@! TD*
D10*
G04 #@! TO.N,/MISO*
G04 #@! TO.C,J5*
X97028000Y-103632000D03*
D11*
G04 #@! TO.N,/Vcc*
X99568000Y-103632000D03*
G04 #@! TO.N,/SCK*
X97028000Y-106172000D03*
G04 #@! TO.N,/MOSI*
X99568000Y-106172000D03*
G04 #@! TO.N,/RESET*
X97028000Y-108712000D03*
G04 #@! TO.N,GNDPWR*
X99568000Y-108712000D03*
G04 #@! TD*
D12*
G04 #@! TO.N,Net-(C1-Pad1)*
X118489000Y-102930000D03*
X118484400Y-94801900D03*
G04 #@! TO.N,Net-(C2-Pad1)*
X121735600Y-94765300D03*
X121760800Y-103923600D03*
X127515600Y-108728600D03*
G04 #@! TO.N,/SCK*
X134512900Y-97663000D03*
X125671300Y-105729100D03*
X134502500Y-104255000D03*
G04 #@! TO.N,/SDA*
X134524700Y-106045000D03*
X134297800Y-99715500D03*
X122926300Y-100607700D03*
G04 #@! TO.N,/D2*
X117613500Y-99269200D03*
G04 #@! TO.N,/D3*
X114814600Y-99228200D03*
G04 #@! TO.N,/D4*
X117687100Y-100278200D03*
G04 #@! TO.N,/D5*
X117445900Y-107658900D03*
G04 #@! TO.N,/D6*
X118459700Y-107682700D03*
G04 #@! TO.N,/D7*
X119438600Y-108124700D03*
G04 #@! TO.N,/D8*
X121401600Y-107869100D03*
G04 #@! TO.N,/MISO*
X120840700Y-104507400D03*
G04 #@! TO.N,/MOSI*
X119632600Y-104944500D03*
G04 #@! TO.N,/RESET*
X116424400Y-108629800D03*
X119996000Y-99260000D03*
G04 #@! TD*
D13*
G04 #@! TO.N,/Vcc*
X107696000Y-92964000D02*
X106520700Y-92964000D01*
X99727300Y-97995200D02*
X98919400Y-97187300D01*
X98919400Y-97187300D02*
X98552000Y-97187300D01*
X99568000Y-102456700D02*
X99727300Y-102297400D01*
X99727300Y-102297400D02*
X99727300Y-97995200D01*
X106520700Y-92964000D02*
X106520700Y-93772000D01*
X106520700Y-93772000D02*
X102297500Y-97995200D01*
X102297500Y-97995200D02*
X99727300Y-97995200D01*
X98552000Y-96012000D02*
X98552000Y-97187300D01*
X99568000Y-103632000D02*
X99568000Y-102456700D01*
G04 #@! TO.N,Net-(C1-Pad1)*
X118489000Y-102930000D02*
X118484400Y-102925400D01*
X118484400Y-102925400D02*
X118484400Y-94801900D01*
G04 #@! TO.N,Net-(C2-Pad1)*
X121760800Y-103923600D02*
X121735600Y-103898400D01*
X121735600Y-103898400D02*
X121735600Y-94765300D01*
G04 #@! TO.N,/SCK*
X109887300Y-113284000D02*
X111062600Y-112108700D01*
X111062600Y-112108700D02*
X119291700Y-112108700D01*
X119291700Y-112108700D02*
X125671300Y-105729100D01*
X134502500Y-104255000D02*
X133028400Y-105729100D01*
X133028400Y-105729100D02*
X125671300Y-105729100D01*
X108712000Y-113284000D02*
X109887300Y-113284000D01*
G04 #@! TO.N,/SDA*
X107347300Y-113284000D02*
X107347300Y-112916700D01*
X107347300Y-112916700D02*
X108605700Y-111658300D01*
X108605700Y-111658300D02*
X116996400Y-111658300D01*
X116996400Y-111658300D02*
X120309400Y-108345300D01*
X120309400Y-108345300D02*
X120309400Y-107935600D01*
X120309400Y-107935600D02*
X122926300Y-105318700D01*
X122926300Y-105318700D02*
X122926300Y-100607700D01*
X106172000Y-113284000D02*
X107347300Y-113284000D01*
G04 #@! TO.N,/MISO*
X98203300Y-103632000D02*
X98203300Y-103999300D01*
X98203300Y-103999300D02*
X99015400Y-104811400D01*
X99015400Y-104811400D02*
X109562500Y-104811400D01*
X109562500Y-104811400D02*
X110196500Y-104177400D01*
X110196500Y-104177400D02*
X120510700Y-104177400D01*
X120510700Y-104177400D02*
X120840700Y-104507400D01*
X97028000Y-103632000D02*
X98203300Y-103632000D01*
G04 #@! TO.N,/MOSI*
X99568000Y-106172000D02*
X118405100Y-106172000D01*
X118405100Y-106172000D02*
X119632600Y-104944500D01*
G04 #@! TO.N,/RESET*
X97028000Y-108712000D02*
X98203300Y-108712000D01*
X98203300Y-108712000D02*
X98203300Y-108344700D01*
X98203300Y-108344700D02*
X99031800Y-107516200D01*
X99031800Y-107516200D02*
X115310800Y-107516200D01*
X115310800Y-107516200D02*
X116424400Y-108629800D01*
G04 #@! TD*
M02*
