G04 #@! TF.GenerationSoftware,KiCad,Pcbnew,5.0.2-bee76a0~70~ubuntu18.04.1*
G04 #@! TF.CreationDate,2019-02-19T10:37:21+11:00*
G04 #@! TF.ProjectId,BACEE,42414345-452e-46b6-9963-61645f706362,2*
G04 #@! TF.SameCoordinates,Original*
G04 #@! TF.FileFunction,Copper,L2,Bot*
G04 #@! TF.FilePolarity,Positive*
%FSLAX46Y46*%
G04 Gerber Fmt 4.6, Leading zero omitted, Abs format (unit mm)*
G04 Created by KiCad (PCBNEW 5.0.2-bee76a0~70~ubuntu18.04.1) date Tue 19 Feb 2019 10:37:21 AM AEDT*
%MOMM*%
%LPD*%
G01*
G04 APERTURE LIST*
G04 #@! TA.AperFunction,ComponentPad*
%ADD10R,1.700000X1.700000*%
G04 #@! TD*
G04 #@! TA.AperFunction,ComponentPad*
%ADD11O,1.700000X1.700000*%
G04 #@! TD*
G04 #@! TA.AperFunction,ViaPad*
%ADD12C,0.800000*%
G04 #@! TD*
G04 #@! TA.AperFunction,Conductor*
%ADD13C,0.250000*%
G04 #@! TD*
G04 #@! TA.AperFunction,Conductor*
%ADD14C,0.254000*%
G04 #@! TD*
G04 APERTURE END LIST*
D10*
G04 #@! TO.P,BT1,1*
G04 #@! TO.N,/Vcc*
X98552000Y-96012000D03*
D11*
G04 #@! TO.P,BT1,2*
G04 #@! TO.N,GNDPWR*
X98552000Y-98552000D03*
G04 #@! TD*
G04 #@! TO.P,J2,4*
G04 #@! TO.N,/SCK*
X108712000Y-113284000D03*
G04 #@! TO.P,J2,3*
G04 #@! TO.N,/SDA*
X106172000Y-113284000D03*
G04 #@! TO.P,J2,2*
G04 #@! TO.N,/Vcc*
X103632000Y-113284000D03*
D10*
G04 #@! TO.P,J2,1*
G04 #@! TO.N,GNDPWR*
X101092000Y-113284000D03*
G04 #@! TD*
G04 #@! TO.P,J3,1*
G04 #@! TO.N,/D2*
X112776000Y-113284000D03*
D11*
G04 #@! TO.P,J3,2*
G04 #@! TO.N,/D3*
X115316000Y-113284000D03*
G04 #@! TO.P,J3,3*
G04 #@! TO.N,/D4*
X117856000Y-113284000D03*
G04 #@! TO.P,J3,4*
G04 #@! TO.N,/D5*
X120396000Y-113284000D03*
G04 #@! TO.P,J3,5*
G04 #@! TO.N,/D6*
X122936000Y-113284000D03*
G04 #@! TO.P,J3,6*
G04 #@! TO.N,/D7*
X125476000Y-113284000D03*
G04 #@! TO.P,J3,7*
G04 #@! TO.N,/D8*
X128016000Y-113284000D03*
G04 #@! TO.P,J3,8*
G04 #@! TO.N,GNDPWR*
X130556000Y-113284000D03*
G04 #@! TO.P,J3,9*
G04 #@! TO.N,/Vcc*
X133096000Y-113284000D03*
G04 #@! TD*
D10*
G04 #@! TO.P,J4,1*
G04 #@! TO.N,GNDPWR*
X105156000Y-92964000D03*
D11*
G04 #@! TO.P,J4,2*
G04 #@! TO.N,/Vcc*
X107696000Y-92964000D03*
G04 #@! TO.P,J4,3*
G04 #@! TO.N,/RX*
X110236000Y-92964000D03*
G04 #@! TO.P,J4,4*
G04 #@! TO.N,/TX*
X112776000Y-92964000D03*
G04 #@! TD*
D10*
G04 #@! TO.P,J5,1*
G04 #@! TO.N,/MISO*
X97028000Y-103632000D03*
D11*
G04 #@! TO.P,J5,2*
G04 #@! TO.N,/Vcc*
X99568000Y-103632000D03*
G04 #@! TO.P,J5,3*
G04 #@! TO.N,/SCK*
X97028000Y-106172000D03*
G04 #@! TO.P,J5,4*
G04 #@! TO.N,/MOSI*
X99568000Y-106172000D03*
G04 #@! TO.P,J5,5*
G04 #@! TO.N,/RESET*
X97028000Y-108712000D03*
G04 #@! TO.P,J5,6*
G04 #@! TO.N,GNDPWR*
X99568000Y-108712000D03*
G04 #@! TD*
D12*
G04 #@! TO.N,/Vcc*
X130138300Y-97663000D03*
X131148100Y-102235000D03*
G04 #@! TO.N,Net-(C1-Pad1)*
X116229100Y-96970900D03*
X122029900Y-108610100D03*
X118299800Y-104006700D03*
G04 #@! TO.N,Net-(C2-Pad1)*
X125688300Y-106899900D03*
X119373200Y-104908000D03*
X123555400Y-94794700D03*
G04 #@! TO.N,/SCK*
X123801200Y-107611500D03*
X129293700Y-100803100D03*
X131402100Y-104330600D03*
G04 #@! TO.N,/SDA*
X109908100Y-107302900D03*
G04 #@! TO.N,/D2*
X116657900Y-98421600D03*
G04 #@! TO.N,/D3*
X117561800Y-99308000D03*
G04 #@! TO.N,/D4*
X117550800Y-100436500D03*
G04 #@! TO.N,/D6*
X118694800Y-107676300D03*
G04 #@! TO.N,/MISO*
X121187100Y-103689900D03*
G04 #@! TO.N,/MOSI*
X121426700Y-104955200D03*
G04 #@! TO.N,/RESET*
X119995900Y-99285800D03*
G04 #@! TD*
D13*
G04 #@! TO.N,/Vcc*
X133096000Y-112108700D02*
X133096000Y-104182900D01*
X133096000Y-104182900D02*
X131148100Y-102235000D01*
X131148100Y-102235000D02*
X130138300Y-101225200D01*
X130138300Y-101225200D02*
X130138300Y-97663000D01*
X133096000Y-113284000D02*
X133096000Y-112108700D01*
G04 #@! TO.N,Net-(C1-Pad1)*
X116229100Y-96970900D02*
X116257100Y-96970900D01*
X116257100Y-96970900D02*
X118299800Y-99013600D01*
X118299800Y-99013600D02*
X118299800Y-104006700D01*
X118299800Y-104006700D02*
X118299800Y-104880000D01*
X118299800Y-104880000D02*
X122029900Y-108610100D01*
G04 #@! TO.N,Net-(C2-Pad1)*
X123555400Y-105454500D02*
X124242900Y-105454500D01*
X124242900Y-105454500D02*
X125688300Y-106899900D01*
X119373200Y-104908000D02*
X120155200Y-105690000D01*
X120155200Y-105690000D02*
X123319900Y-105690000D01*
X123319900Y-105690000D02*
X123555400Y-105454500D01*
X123555400Y-105454500D02*
X123555400Y-94794700D01*
G04 #@! TO.N,/SCK*
X124115300Y-108038500D02*
X123801200Y-107724400D01*
X123801200Y-107724400D02*
X123801200Y-107611500D01*
X109887300Y-113284000D02*
X111071700Y-114468400D01*
X111071700Y-114468400D02*
X123467700Y-114468400D01*
X123467700Y-114468400D02*
X124115300Y-113820800D01*
X124115300Y-113820800D02*
X124115300Y-108038500D01*
X124115300Y-108038500D02*
X125585800Y-108038500D01*
X125585800Y-108038500D02*
X129293700Y-104330600D01*
X129293700Y-104330600D02*
X129293700Y-100803100D01*
X129293700Y-104330600D02*
X131402100Y-104330600D01*
X108712000Y-113284000D02*
X109887300Y-113284000D01*
G04 #@! TO.N,/SDA*
X106172000Y-113284000D02*
X106172000Y-111039000D01*
X106172000Y-111039000D02*
X109908100Y-107302900D01*
G04 #@! TO.N,/D2*
X112776000Y-113284000D02*
X112776000Y-102303500D01*
X112776000Y-102303500D02*
X116657900Y-98421600D01*
G04 #@! TO.N,/D3*
X115316000Y-113284000D02*
X115316000Y-101553800D01*
X115316000Y-101553800D02*
X117561800Y-99308000D01*
G04 #@! TO.N,/D4*
X117856000Y-113284000D02*
X117856000Y-112108700D01*
X117550800Y-100436500D02*
X117550800Y-111803500D01*
X117550800Y-111803500D02*
X117856000Y-112108700D01*
G04 #@! TO.N,/D6*
X118694800Y-107676300D02*
X118694800Y-107867500D01*
X118694800Y-107867500D02*
X122936000Y-112108700D01*
X122936000Y-113284000D02*
X122936000Y-112108700D01*
G04 #@! TO.N,/MISO*
X97028000Y-103632000D02*
X98203300Y-103632000D01*
X98203300Y-103632000D02*
X98203300Y-103264700D01*
X98203300Y-103264700D02*
X106220900Y-95247100D01*
X106220900Y-95247100D02*
X117083400Y-95247100D01*
X117083400Y-95247100D02*
X121187100Y-99350800D01*
X121187100Y-99350800D02*
X121187100Y-103689900D01*
G04 #@! TO.N,/MOSI*
X100743300Y-106172000D02*
X110720700Y-96194600D01*
X110720700Y-96194600D02*
X116478600Y-96194600D01*
X116478600Y-96194600D02*
X119200400Y-98916400D01*
X119200400Y-98916400D02*
X119200400Y-102728900D01*
X119200400Y-102728900D02*
X121426700Y-104955200D01*
X99568000Y-106172000D02*
X100743300Y-106172000D01*
G04 #@! TO.N,/RESET*
X97028000Y-107536700D02*
X97395400Y-107536700D01*
X97395400Y-107536700D02*
X98203300Y-106728800D01*
X98203300Y-106728800D02*
X98203300Y-105833000D01*
X98203300Y-105833000D02*
X99134300Y-104902000D01*
X99134300Y-104902000D02*
X101240300Y-104902000D01*
X101240300Y-104902000D02*
X110432400Y-95709900D01*
X110432400Y-95709900D02*
X116630800Y-95709900D01*
X116630800Y-95709900D02*
X119995900Y-99075000D01*
X119995900Y-99075000D02*
X119995900Y-99285800D01*
X97028000Y-108712000D02*
X97028000Y-107536700D01*
G04 #@! TO.N,GNDPWR*
X98552000Y-98552000D02*
X98552000Y-99727300D01*
X99568000Y-109299600D02*
X98971800Y-109895800D01*
X98971800Y-109895800D02*
X96495000Y-109895800D01*
X96495000Y-109895800D02*
X95852600Y-109253400D01*
X95852600Y-109253400D02*
X95852600Y-102426700D01*
X95852600Y-102426700D02*
X98552000Y-99727300D01*
X99568000Y-109299600D02*
X99568000Y-109887300D01*
X99568000Y-108712000D02*
X99568000Y-109299600D01*
X99568000Y-109887300D02*
X101092000Y-111411300D01*
X101092000Y-111411300D02*
X101092000Y-113284000D01*
X98552000Y-98552000D02*
X98552000Y-97376700D01*
X105156000Y-92964000D02*
X103980700Y-92964000D01*
X103980700Y-92964000D02*
X99568000Y-97376700D01*
X99568000Y-97376700D02*
X98552000Y-97376700D01*
G04 #@! TD*
D14*
G04 #@! TO.N,GNDPWR*
G36*
X115194100Y-97176774D02*
X115351669Y-97557180D01*
X115642820Y-97848331D01*
X115755711Y-97895092D01*
X115622900Y-98215726D01*
X115622900Y-98381798D01*
X112291528Y-101713171D01*
X112228072Y-101755571D01*
X112185672Y-101819027D01*
X112185671Y-101819028D01*
X112060097Y-102006963D01*
X112001112Y-102303500D01*
X112016001Y-102378352D01*
X112016000Y-111786560D01*
X111926000Y-111786560D01*
X111678235Y-111835843D01*
X111468191Y-111976191D01*
X111327843Y-112186235D01*
X111278560Y-112434000D01*
X111278560Y-113600458D01*
X110477631Y-112799530D01*
X110435229Y-112736071D01*
X110183837Y-112568096D01*
X109994474Y-112530429D01*
X109782625Y-112213375D01*
X109291418Y-111885161D01*
X108858256Y-111799000D01*
X108565744Y-111799000D01*
X108132582Y-111885161D01*
X107641375Y-112213375D01*
X107442000Y-112511761D01*
X107242625Y-112213375D01*
X106932000Y-112005822D01*
X106932000Y-111353801D01*
X109947903Y-108337900D01*
X110113974Y-108337900D01*
X110494380Y-108180331D01*
X110785531Y-107889180D01*
X110943100Y-107508774D01*
X110943100Y-107097026D01*
X110785531Y-106716620D01*
X110494380Y-106425469D01*
X110113974Y-106267900D01*
X109702226Y-106267900D01*
X109321820Y-106425469D01*
X109030669Y-106716620D01*
X108873100Y-107097026D01*
X108873100Y-107263097D01*
X105687528Y-110448671D01*
X105624072Y-110491071D01*
X105581672Y-110554527D01*
X105581671Y-110554528D01*
X105456097Y-110742463D01*
X105397112Y-111039000D01*
X105412001Y-111113852D01*
X105412001Y-112005822D01*
X105101375Y-112213375D01*
X104902000Y-112511761D01*
X104702625Y-112213375D01*
X104211418Y-111885161D01*
X103778256Y-111799000D01*
X103485744Y-111799000D01*
X103052582Y-111885161D01*
X102561375Y-112213375D01*
X102546904Y-112235033D01*
X102480327Y-112074302D01*
X102301699Y-111895673D01*
X102068310Y-111799000D01*
X101377750Y-111799000D01*
X101219000Y-111957750D01*
X101219000Y-113157000D01*
X101239000Y-113157000D01*
X101239000Y-113411000D01*
X101219000Y-113411000D01*
X101219000Y-113431000D01*
X100965000Y-113431000D01*
X100965000Y-113411000D01*
X99765750Y-113411000D01*
X99607000Y-113569750D01*
X99607000Y-114260309D01*
X99703673Y-114493698D01*
X99815974Y-114606000D01*
X98173120Y-114606000D01*
X98260819Y-114463726D01*
X98385923Y-113792000D01*
X98385443Y-113749667D01*
X98245132Y-113080952D01*
X97873493Y-112507583D01*
X97597860Y-112307691D01*
X99607000Y-112307691D01*
X99607000Y-112998250D01*
X99765750Y-113157000D01*
X100965000Y-113157000D01*
X100965000Y-111957750D01*
X100806250Y-111799000D01*
X100115690Y-111799000D01*
X99882301Y-111895673D01*
X99703673Y-112074302D01*
X99607000Y-112307691D01*
X97597860Y-112307691D01*
X97320360Y-112106446D01*
X96659905Y-111931329D01*
X95980689Y-112005716D01*
X95706000Y-112147797D01*
X95706000Y-109406416D01*
X95957375Y-109782625D01*
X96448582Y-110110839D01*
X96881744Y-110197000D01*
X97174256Y-110197000D01*
X97607418Y-110110839D01*
X98098625Y-109782625D01*
X98299353Y-109482214D01*
X98686642Y-109907183D01*
X99211108Y-110153486D01*
X99441000Y-110032819D01*
X99441000Y-108839000D01*
X99695000Y-108839000D01*
X99695000Y-110032819D01*
X99924892Y-110153486D01*
X100449358Y-109907183D01*
X100839645Y-109478924D01*
X101009476Y-109068890D01*
X100888155Y-108839000D01*
X99695000Y-108839000D01*
X99441000Y-108839000D01*
X99421000Y-108839000D01*
X99421000Y-108585000D01*
X99441000Y-108585000D01*
X99441000Y-108565000D01*
X99695000Y-108565000D01*
X99695000Y-108585000D01*
X100888155Y-108585000D01*
X101009476Y-108355110D01*
X100839645Y-107945076D01*
X100449358Y-107516817D01*
X100319522Y-107455843D01*
X100638625Y-107242625D01*
X100850474Y-106925571D01*
X101039837Y-106887904D01*
X101291229Y-106719929D01*
X101333631Y-106656470D01*
X111035503Y-96954600D01*
X115194100Y-96954600D01*
X115194100Y-97176774D01*
X115194100Y-97176774D01*
G37*
X115194100Y-97176774D02*
X115351669Y-97557180D01*
X115642820Y-97848331D01*
X115755711Y-97895092D01*
X115622900Y-98215726D01*
X115622900Y-98381798D01*
X112291528Y-101713171D01*
X112228072Y-101755571D01*
X112185672Y-101819027D01*
X112185671Y-101819028D01*
X112060097Y-102006963D01*
X112001112Y-102303500D01*
X112016001Y-102378352D01*
X112016000Y-111786560D01*
X111926000Y-111786560D01*
X111678235Y-111835843D01*
X111468191Y-111976191D01*
X111327843Y-112186235D01*
X111278560Y-112434000D01*
X111278560Y-113600458D01*
X110477631Y-112799530D01*
X110435229Y-112736071D01*
X110183837Y-112568096D01*
X109994474Y-112530429D01*
X109782625Y-112213375D01*
X109291418Y-111885161D01*
X108858256Y-111799000D01*
X108565744Y-111799000D01*
X108132582Y-111885161D01*
X107641375Y-112213375D01*
X107442000Y-112511761D01*
X107242625Y-112213375D01*
X106932000Y-112005822D01*
X106932000Y-111353801D01*
X109947903Y-108337900D01*
X110113974Y-108337900D01*
X110494380Y-108180331D01*
X110785531Y-107889180D01*
X110943100Y-107508774D01*
X110943100Y-107097026D01*
X110785531Y-106716620D01*
X110494380Y-106425469D01*
X110113974Y-106267900D01*
X109702226Y-106267900D01*
X109321820Y-106425469D01*
X109030669Y-106716620D01*
X108873100Y-107097026D01*
X108873100Y-107263097D01*
X105687528Y-110448671D01*
X105624072Y-110491071D01*
X105581672Y-110554527D01*
X105581671Y-110554528D01*
X105456097Y-110742463D01*
X105397112Y-111039000D01*
X105412001Y-111113852D01*
X105412001Y-112005822D01*
X105101375Y-112213375D01*
X104902000Y-112511761D01*
X104702625Y-112213375D01*
X104211418Y-111885161D01*
X103778256Y-111799000D01*
X103485744Y-111799000D01*
X103052582Y-111885161D01*
X102561375Y-112213375D01*
X102546904Y-112235033D01*
X102480327Y-112074302D01*
X102301699Y-111895673D01*
X102068310Y-111799000D01*
X101377750Y-111799000D01*
X101219000Y-111957750D01*
X101219000Y-113157000D01*
X101239000Y-113157000D01*
X101239000Y-113411000D01*
X101219000Y-113411000D01*
X101219000Y-113431000D01*
X100965000Y-113431000D01*
X100965000Y-113411000D01*
X99765750Y-113411000D01*
X99607000Y-113569750D01*
X99607000Y-114260309D01*
X99703673Y-114493698D01*
X99815974Y-114606000D01*
X98173120Y-114606000D01*
X98260819Y-114463726D01*
X98385923Y-113792000D01*
X98385443Y-113749667D01*
X98245132Y-113080952D01*
X97873493Y-112507583D01*
X97597860Y-112307691D01*
X99607000Y-112307691D01*
X99607000Y-112998250D01*
X99765750Y-113157000D01*
X100965000Y-113157000D01*
X100965000Y-111957750D01*
X100806250Y-111799000D01*
X100115690Y-111799000D01*
X99882301Y-111895673D01*
X99703673Y-112074302D01*
X99607000Y-112307691D01*
X97597860Y-112307691D01*
X97320360Y-112106446D01*
X96659905Y-111931329D01*
X95980689Y-112005716D01*
X95706000Y-112147797D01*
X95706000Y-109406416D01*
X95957375Y-109782625D01*
X96448582Y-110110839D01*
X96881744Y-110197000D01*
X97174256Y-110197000D01*
X97607418Y-110110839D01*
X98098625Y-109782625D01*
X98299353Y-109482214D01*
X98686642Y-109907183D01*
X99211108Y-110153486D01*
X99441000Y-110032819D01*
X99441000Y-108839000D01*
X99695000Y-108839000D01*
X99695000Y-110032819D01*
X99924892Y-110153486D01*
X100449358Y-109907183D01*
X100839645Y-109478924D01*
X101009476Y-109068890D01*
X100888155Y-108839000D01*
X99695000Y-108839000D01*
X99441000Y-108839000D01*
X99421000Y-108839000D01*
X99421000Y-108585000D01*
X99441000Y-108585000D01*
X99441000Y-108565000D01*
X99695000Y-108565000D01*
X99695000Y-108585000D01*
X100888155Y-108585000D01*
X101009476Y-108355110D01*
X100839645Y-107945076D01*
X100449358Y-107516817D01*
X100319522Y-107455843D01*
X100638625Y-107242625D01*
X100850474Y-106925571D01*
X101039837Y-106887904D01*
X101291229Y-106719929D01*
X101333631Y-106656470D01*
X111035503Y-96954600D01*
X115194100Y-96954600D01*
X115194100Y-97176774D01*
G36*
X132336000Y-112005822D02*
X132025375Y-112213375D01*
X131812157Y-112532478D01*
X131751183Y-112402642D01*
X131322924Y-112012355D01*
X130912890Y-111842524D01*
X130683000Y-111963845D01*
X130683000Y-113157000D01*
X130703000Y-113157000D01*
X130703000Y-113411000D01*
X130683000Y-113411000D01*
X130683000Y-113431000D01*
X130429000Y-113431000D01*
X130429000Y-113411000D01*
X130409000Y-113411000D01*
X130409000Y-113157000D01*
X130429000Y-113157000D01*
X130429000Y-111963845D01*
X130199110Y-111842524D01*
X129789076Y-112012355D01*
X129360817Y-112402642D01*
X129299843Y-112532478D01*
X129086625Y-112213375D01*
X128595418Y-111885161D01*
X128162256Y-111799000D01*
X127869744Y-111799000D01*
X127436582Y-111885161D01*
X126945375Y-112213375D01*
X126746000Y-112511761D01*
X126546625Y-112213375D01*
X126055418Y-111885161D01*
X125622256Y-111799000D01*
X125329744Y-111799000D01*
X124896582Y-111885161D01*
X124875300Y-111899381D01*
X124875300Y-108798500D01*
X125510953Y-108798500D01*
X125585800Y-108813388D01*
X125660647Y-108798500D01*
X125660652Y-108798500D01*
X125882337Y-108754404D01*
X126133729Y-108586429D01*
X126176131Y-108522970D01*
X129608503Y-105090600D01*
X130698389Y-105090600D01*
X130815820Y-105208031D01*
X131196226Y-105365600D01*
X131607974Y-105365600D01*
X131988380Y-105208031D01*
X132279531Y-104916880D01*
X132336001Y-104780549D01*
X132336000Y-112005822D01*
X132336000Y-112005822D01*
G37*
X132336000Y-112005822D02*
X132025375Y-112213375D01*
X131812157Y-112532478D01*
X131751183Y-112402642D01*
X131322924Y-112012355D01*
X130912890Y-111842524D01*
X130683000Y-111963845D01*
X130683000Y-113157000D01*
X130703000Y-113157000D01*
X130703000Y-113411000D01*
X130683000Y-113411000D01*
X130683000Y-113431000D01*
X130429000Y-113431000D01*
X130429000Y-113411000D01*
X130409000Y-113411000D01*
X130409000Y-113157000D01*
X130429000Y-113157000D01*
X130429000Y-111963845D01*
X130199110Y-111842524D01*
X129789076Y-112012355D01*
X129360817Y-112402642D01*
X129299843Y-112532478D01*
X129086625Y-112213375D01*
X128595418Y-111885161D01*
X128162256Y-111799000D01*
X127869744Y-111799000D01*
X127436582Y-111885161D01*
X126945375Y-112213375D01*
X126746000Y-112511761D01*
X126546625Y-112213375D01*
X126055418Y-111885161D01*
X125622256Y-111799000D01*
X125329744Y-111799000D01*
X124896582Y-111885161D01*
X124875300Y-111899381D01*
X124875300Y-108798500D01*
X125510953Y-108798500D01*
X125585800Y-108813388D01*
X125660647Y-108798500D01*
X125660652Y-108798500D01*
X125882337Y-108754404D01*
X126133729Y-108586429D01*
X126176131Y-108522970D01*
X129608503Y-105090600D01*
X130698389Y-105090600D01*
X130815820Y-105208031D01*
X131196226Y-105365600D01*
X131607974Y-105365600D01*
X131988380Y-105208031D01*
X132279531Y-104916880D01*
X132336001Y-104780549D01*
X132336000Y-112005822D01*
G36*
X103767673Y-91754302D02*
X103671000Y-91987691D01*
X103671000Y-92678250D01*
X103829750Y-92837000D01*
X105029000Y-92837000D01*
X105029000Y-92817000D01*
X105283000Y-92817000D01*
X105283000Y-92837000D01*
X105303000Y-92837000D01*
X105303000Y-93091000D01*
X105283000Y-93091000D01*
X105283000Y-94290250D01*
X105441750Y-94449000D01*
X106132310Y-94449000D01*
X106365699Y-94352327D01*
X106544327Y-94173698D01*
X106610904Y-94012967D01*
X106625375Y-94034625D01*
X107116582Y-94362839D01*
X107549744Y-94449000D01*
X107842256Y-94449000D01*
X108275418Y-94362839D01*
X108766625Y-94034625D01*
X108966000Y-93736239D01*
X109165375Y-94034625D01*
X109656582Y-94362839D01*
X110089744Y-94449000D01*
X110382256Y-94449000D01*
X110815418Y-94362839D01*
X111306625Y-94034625D01*
X111506000Y-93736239D01*
X111705375Y-94034625D01*
X112196582Y-94362839D01*
X112629744Y-94449000D01*
X112922256Y-94449000D01*
X113355418Y-94362839D01*
X113846625Y-94034625D01*
X114174839Y-93543418D01*
X114290092Y-92964000D01*
X114174839Y-92384582D01*
X113846625Y-91893375D01*
X113470416Y-91642000D01*
X134489769Y-91642000D01*
X134305862Y-92135194D01*
X134313613Y-92818426D01*
X134566807Y-93453060D01*
X135031490Y-93953996D01*
X135645354Y-94254060D01*
X136326082Y-94313018D01*
X136958001Y-94130026D01*
X136958000Y-112116338D01*
X136944360Y-112106446D01*
X136283905Y-111931329D01*
X135604689Y-112005716D01*
X134997791Y-112319630D01*
X134544592Y-112830979D01*
X134528542Y-112874020D01*
X134494839Y-112704582D01*
X134166625Y-112213375D01*
X133856000Y-112005822D01*
X133856000Y-104257748D01*
X133870888Y-104182900D01*
X133856000Y-104108052D01*
X133856000Y-104108048D01*
X133811904Y-103886363D01*
X133643929Y-103634971D01*
X133580473Y-103592571D01*
X132183100Y-102195199D01*
X132183100Y-102029126D01*
X132025531Y-101648720D01*
X131734380Y-101357569D01*
X131353974Y-101200000D01*
X131187902Y-101200000D01*
X130898300Y-100910399D01*
X130898300Y-98366711D01*
X131015731Y-98249280D01*
X131173300Y-97868874D01*
X131173300Y-97457126D01*
X131015731Y-97076720D01*
X130724580Y-96785569D01*
X130344174Y-96628000D01*
X129932426Y-96628000D01*
X129552020Y-96785569D01*
X129260869Y-97076720D01*
X129103300Y-97457126D01*
X129103300Y-97868874D01*
X129260869Y-98249280D01*
X129378301Y-98366712D01*
X129378300Y-99768100D01*
X129087826Y-99768100D01*
X128707420Y-99925669D01*
X128416269Y-100216820D01*
X128258700Y-100597226D01*
X128258700Y-101008974D01*
X128416269Y-101389380D01*
X128533701Y-101506812D01*
X128533700Y-104015797D01*
X126400805Y-106148694D01*
X126274580Y-106022469D01*
X125894174Y-105864900D01*
X125728102Y-105864900D01*
X124833231Y-104970030D01*
X124790829Y-104906571D01*
X124539437Y-104738596D01*
X124317752Y-104694500D01*
X124317747Y-104694500D01*
X124315400Y-104694033D01*
X124315400Y-95498411D01*
X124432831Y-95380980D01*
X124590400Y-95000574D01*
X124590400Y-94588826D01*
X124432831Y-94208420D01*
X124141680Y-93917269D01*
X123761274Y-93759700D01*
X123349526Y-93759700D01*
X122969120Y-93917269D01*
X122677969Y-94208420D01*
X122520400Y-94588826D01*
X122520400Y-95000574D01*
X122677969Y-95380980D01*
X122795401Y-95498412D01*
X122795400Y-104930000D01*
X122461700Y-104930000D01*
X122461700Y-104749326D01*
X122304131Y-104368920D01*
X122107545Y-104172334D01*
X122222100Y-103895774D01*
X122222100Y-103484026D01*
X122064531Y-103103620D01*
X121947100Y-102986189D01*
X121947100Y-99425646D01*
X121961988Y-99350799D01*
X121947100Y-99275952D01*
X121947100Y-99275948D01*
X121903004Y-99054263D01*
X121735029Y-98802871D01*
X121671573Y-98760471D01*
X117673731Y-94762630D01*
X117631329Y-94699171D01*
X117379937Y-94531196D01*
X117158252Y-94487100D01*
X117158247Y-94487100D01*
X117083400Y-94472212D01*
X117008553Y-94487100D01*
X106295748Y-94487100D01*
X106220900Y-94472212D01*
X106146052Y-94487100D01*
X106146048Y-94487100D01*
X106007998Y-94514560D01*
X105924362Y-94531196D01*
X105737318Y-94656176D01*
X105672971Y-94699171D01*
X105630571Y-94762627D01*
X98175874Y-102217325D01*
X98125765Y-102183843D01*
X97878000Y-102134560D01*
X96178000Y-102134560D01*
X95930235Y-102183843D01*
X95720191Y-102324191D01*
X95706000Y-102345429D01*
X95706000Y-98908890D01*
X97110524Y-98908890D01*
X97280355Y-99318924D01*
X97670642Y-99747183D01*
X98195108Y-99993486D01*
X98425000Y-99872819D01*
X98425000Y-98679000D01*
X98679000Y-98679000D01*
X98679000Y-99872819D01*
X98908892Y-99993486D01*
X99433358Y-99747183D01*
X99823645Y-99318924D01*
X99993476Y-98908890D01*
X99872155Y-98679000D01*
X98679000Y-98679000D01*
X98425000Y-98679000D01*
X97231845Y-98679000D01*
X97110524Y-98908890D01*
X95706000Y-98908890D01*
X95706000Y-95162000D01*
X97054560Y-95162000D01*
X97054560Y-96862000D01*
X97103843Y-97109765D01*
X97244191Y-97319809D01*
X97454235Y-97460157D01*
X97557708Y-97480739D01*
X97280355Y-97785076D01*
X97110524Y-98195110D01*
X97231845Y-98425000D01*
X98425000Y-98425000D01*
X98425000Y-98405000D01*
X98679000Y-98405000D01*
X98679000Y-98425000D01*
X99872155Y-98425000D01*
X99993476Y-98195110D01*
X99823645Y-97785076D01*
X99546292Y-97480739D01*
X99649765Y-97460157D01*
X99859809Y-97319809D01*
X100000157Y-97109765D01*
X100049440Y-96862000D01*
X100049440Y-95162000D01*
X100000157Y-94914235D01*
X99859809Y-94704191D01*
X99649765Y-94563843D01*
X99402000Y-94514560D01*
X97702000Y-94514560D01*
X97454235Y-94563843D01*
X97244191Y-94704191D01*
X97103843Y-94914235D01*
X97054560Y-95162000D01*
X95706000Y-95162000D01*
X95706000Y-94099911D01*
X96021354Y-94254060D01*
X96702082Y-94313018D01*
X97358395Y-94122962D01*
X97902284Y-93709379D01*
X98185602Y-93249750D01*
X103671000Y-93249750D01*
X103671000Y-93940309D01*
X103767673Y-94173698D01*
X103946301Y-94352327D01*
X104179690Y-94449000D01*
X104870250Y-94449000D01*
X105029000Y-94290250D01*
X105029000Y-93091000D01*
X103829750Y-93091000D01*
X103671000Y-93249750D01*
X98185602Y-93249750D01*
X98260819Y-93127726D01*
X98385923Y-92456000D01*
X98385443Y-92413667D01*
X98245132Y-91744952D01*
X98178402Y-91642000D01*
X103879974Y-91642000D01*
X103767673Y-91754302D01*
X103767673Y-91754302D01*
G37*
X103767673Y-91754302D02*
X103671000Y-91987691D01*
X103671000Y-92678250D01*
X103829750Y-92837000D01*
X105029000Y-92837000D01*
X105029000Y-92817000D01*
X105283000Y-92817000D01*
X105283000Y-92837000D01*
X105303000Y-92837000D01*
X105303000Y-93091000D01*
X105283000Y-93091000D01*
X105283000Y-94290250D01*
X105441750Y-94449000D01*
X106132310Y-94449000D01*
X106365699Y-94352327D01*
X106544327Y-94173698D01*
X106610904Y-94012967D01*
X106625375Y-94034625D01*
X107116582Y-94362839D01*
X107549744Y-94449000D01*
X107842256Y-94449000D01*
X108275418Y-94362839D01*
X108766625Y-94034625D01*
X108966000Y-93736239D01*
X109165375Y-94034625D01*
X109656582Y-94362839D01*
X110089744Y-94449000D01*
X110382256Y-94449000D01*
X110815418Y-94362839D01*
X111306625Y-94034625D01*
X111506000Y-93736239D01*
X111705375Y-94034625D01*
X112196582Y-94362839D01*
X112629744Y-94449000D01*
X112922256Y-94449000D01*
X113355418Y-94362839D01*
X113846625Y-94034625D01*
X114174839Y-93543418D01*
X114290092Y-92964000D01*
X114174839Y-92384582D01*
X113846625Y-91893375D01*
X113470416Y-91642000D01*
X134489769Y-91642000D01*
X134305862Y-92135194D01*
X134313613Y-92818426D01*
X134566807Y-93453060D01*
X135031490Y-93953996D01*
X135645354Y-94254060D01*
X136326082Y-94313018D01*
X136958001Y-94130026D01*
X136958000Y-112116338D01*
X136944360Y-112106446D01*
X136283905Y-111931329D01*
X135604689Y-112005716D01*
X134997791Y-112319630D01*
X134544592Y-112830979D01*
X134528542Y-112874020D01*
X134494839Y-112704582D01*
X134166625Y-112213375D01*
X133856000Y-112005822D01*
X133856000Y-104257748D01*
X133870888Y-104182900D01*
X133856000Y-104108052D01*
X133856000Y-104108048D01*
X133811904Y-103886363D01*
X133643929Y-103634971D01*
X133580473Y-103592571D01*
X132183100Y-102195199D01*
X132183100Y-102029126D01*
X132025531Y-101648720D01*
X131734380Y-101357569D01*
X131353974Y-101200000D01*
X131187902Y-101200000D01*
X130898300Y-100910399D01*
X130898300Y-98366711D01*
X131015731Y-98249280D01*
X131173300Y-97868874D01*
X131173300Y-97457126D01*
X131015731Y-97076720D01*
X130724580Y-96785569D01*
X130344174Y-96628000D01*
X129932426Y-96628000D01*
X129552020Y-96785569D01*
X129260869Y-97076720D01*
X129103300Y-97457126D01*
X129103300Y-97868874D01*
X129260869Y-98249280D01*
X129378301Y-98366712D01*
X129378300Y-99768100D01*
X129087826Y-99768100D01*
X128707420Y-99925669D01*
X128416269Y-100216820D01*
X128258700Y-100597226D01*
X128258700Y-101008974D01*
X128416269Y-101389380D01*
X128533701Y-101506812D01*
X128533700Y-104015797D01*
X126400805Y-106148694D01*
X126274580Y-106022469D01*
X125894174Y-105864900D01*
X125728102Y-105864900D01*
X124833231Y-104970030D01*
X124790829Y-104906571D01*
X124539437Y-104738596D01*
X124317752Y-104694500D01*
X124317747Y-104694500D01*
X124315400Y-104694033D01*
X124315400Y-95498411D01*
X124432831Y-95380980D01*
X124590400Y-95000574D01*
X124590400Y-94588826D01*
X124432831Y-94208420D01*
X124141680Y-93917269D01*
X123761274Y-93759700D01*
X123349526Y-93759700D01*
X122969120Y-93917269D01*
X122677969Y-94208420D01*
X122520400Y-94588826D01*
X122520400Y-95000574D01*
X122677969Y-95380980D01*
X122795401Y-95498412D01*
X122795400Y-104930000D01*
X122461700Y-104930000D01*
X122461700Y-104749326D01*
X122304131Y-104368920D01*
X122107545Y-104172334D01*
X122222100Y-103895774D01*
X122222100Y-103484026D01*
X122064531Y-103103620D01*
X121947100Y-102986189D01*
X121947100Y-99425646D01*
X121961988Y-99350799D01*
X121947100Y-99275952D01*
X121947100Y-99275948D01*
X121903004Y-99054263D01*
X121735029Y-98802871D01*
X121671573Y-98760471D01*
X117673731Y-94762630D01*
X117631329Y-94699171D01*
X117379937Y-94531196D01*
X117158252Y-94487100D01*
X117158247Y-94487100D01*
X117083400Y-94472212D01*
X117008553Y-94487100D01*
X106295748Y-94487100D01*
X106220900Y-94472212D01*
X106146052Y-94487100D01*
X106146048Y-94487100D01*
X106007998Y-94514560D01*
X105924362Y-94531196D01*
X105737318Y-94656176D01*
X105672971Y-94699171D01*
X105630571Y-94762627D01*
X98175874Y-102217325D01*
X98125765Y-102183843D01*
X97878000Y-102134560D01*
X96178000Y-102134560D01*
X95930235Y-102183843D01*
X95720191Y-102324191D01*
X95706000Y-102345429D01*
X95706000Y-98908890D01*
X97110524Y-98908890D01*
X97280355Y-99318924D01*
X97670642Y-99747183D01*
X98195108Y-99993486D01*
X98425000Y-99872819D01*
X98425000Y-98679000D01*
X98679000Y-98679000D01*
X98679000Y-99872819D01*
X98908892Y-99993486D01*
X99433358Y-99747183D01*
X99823645Y-99318924D01*
X99993476Y-98908890D01*
X99872155Y-98679000D01*
X98679000Y-98679000D01*
X98425000Y-98679000D01*
X97231845Y-98679000D01*
X97110524Y-98908890D01*
X95706000Y-98908890D01*
X95706000Y-95162000D01*
X97054560Y-95162000D01*
X97054560Y-96862000D01*
X97103843Y-97109765D01*
X97244191Y-97319809D01*
X97454235Y-97460157D01*
X97557708Y-97480739D01*
X97280355Y-97785076D01*
X97110524Y-98195110D01*
X97231845Y-98425000D01*
X98425000Y-98425000D01*
X98425000Y-98405000D01*
X98679000Y-98405000D01*
X98679000Y-98425000D01*
X99872155Y-98425000D01*
X99993476Y-98195110D01*
X99823645Y-97785076D01*
X99546292Y-97480739D01*
X99649765Y-97460157D01*
X99859809Y-97319809D01*
X100000157Y-97109765D01*
X100049440Y-96862000D01*
X100049440Y-95162000D01*
X100000157Y-94914235D01*
X99859809Y-94704191D01*
X99649765Y-94563843D01*
X99402000Y-94514560D01*
X97702000Y-94514560D01*
X97454235Y-94563843D01*
X97244191Y-94704191D01*
X97103843Y-94914235D01*
X97054560Y-95162000D01*
X95706000Y-95162000D01*
X95706000Y-94099911D01*
X96021354Y-94254060D01*
X96702082Y-94313018D01*
X97358395Y-94122962D01*
X97902284Y-93709379D01*
X98185602Y-93249750D01*
X103671000Y-93249750D01*
X103671000Y-93940309D01*
X103767673Y-94173698D01*
X103946301Y-94352327D01*
X104179690Y-94449000D01*
X104870250Y-94449000D01*
X105029000Y-94290250D01*
X105029000Y-93091000D01*
X103829750Y-93091000D01*
X103671000Y-93249750D01*
X98185602Y-93249750D01*
X98260819Y-93127726D01*
X98385923Y-92456000D01*
X98385443Y-92413667D01*
X98245132Y-91744952D01*
X98178402Y-91642000D01*
X103879974Y-91642000D01*
X103767673Y-91754302D01*
G04 #@! TD*
M02*
