M48
INCH,TZ
T1C0.0157
T2C0.0394
%
G90
G05
T1
X45203Y-39066
X45836Y-42768
X46239Y-42385
X46305Y-39082
X46334Y-39480
X46638Y-42395
X46647Y-37324
X46649Y-40524
X47023Y-42569
X47099Y-41317
X47243Y-39079
X47575Y-41145
X47796Y-42468
X47927Y-37309
X47937Y-40915
X48396Y-39609
X49477Y-41626
X50203Y-42807
X52873Y-39258
X52954Y-41045
X52958Y-38450
X52962Y-41750
T2
X41400Y-36600
X42400Y-36600
X43400Y-36600
X44400Y-36600
X39800Y-44600
X40800Y-44600
X41800Y-44600
X42800Y-44600
X38800Y-37800
X38800Y-38800
X44400Y-44600
X45400Y-44600
X46400Y-44600
X47400Y-44600
X48400Y-44600
X49400Y-44600
X50400Y-44600
X51400Y-44600
X52400Y-44600
X38200Y-40800
X38200Y-41800
X38200Y-42800
X39200Y-40800
X39200Y-41800
X39200Y-42800
T0
M30
